<?xml version="1.0" encoding="iso-8859-1"?>
<!-- Generator: Adobe Illustrator 18.1.1, SVG Export Plug-In . SVG Version: 6.00 Build 0)  -->
<svg xmlns="http://www.w3.org/2000/svg" xmlns:xlink="http://www.w3.org/1999/xlink" version="1.1" id="Capa_1" x="0px" y="0px" viewBox="0 0 92 92" style="enable-background:new 0 0 92 92;" xml:space="preserve" width="512px" height="512px">
<g>
	<g>
		<path d="M45.385,0.005C19.983,0.344-0.333,21.212,0.004,46.615c0.34,25.406,21.209,45.721,46.609,45.381    c25.404-0.338,45.721-21.207,45.383-46.609C91.655,19.98,70.786-0.334,45.385,0.005z M45.465,6.004    c6.852-0.092,13.322,1.547,19,4.507l-6.191,10.32c-3.707-1.811-7.871-2.83-12.274-2.83c-4.404,0-8.568,1.02-12.275,2.83    l-6.188-10.312C32.909,7.718,38.994,6.089,45.465,6.004z M20.831,58.275l-10.313,6.186c-2.799-5.37-4.428-11.456-4.514-17.925    c-0.092-6.851,1.547-13.322,4.508-19l10.318,6.192C19.02,37.434,18,41.598,18,46.001S19.02,54.569,20.831,58.275z M46.536,85.997    c-6.852,0.091-13.322-1.548-19-4.509l6.191-10.318c3.705,1.811,7.869,2.831,12.273,2.831c4.402,0,8.566-1.019,12.271-2.83    l6.188,10.312C59.09,84.283,53.004,85.91,46.536,85.997z M46,68.001c-12.15,0-22-9.85-22-22s9.85-22,22-22s22,9.85,22,22    S58.151,68.001,46,68.001z M71.17,58.275C72.981,54.569,74,50.404,74,46.001s-1.02-8.567-2.83-12.272l10.312-6.188    c2.799,5.372,4.428,11.456,4.514,17.925c0.092,6.853-1.549,13.323-4.51,19.001L71.17,58.275z" fill="#dddddd"/>
	</g>
</g>
<g>
</g>
<g>
</g>
<g>
</g>
<g>
</g>
<g>
</g>
<g>
</g>
<g>
</g>
<g>
</g>
<g>
</g>
<g>
</g>
<g>
</g>
<g>
</g>
<g>
</g>
<g>
</g>
<g>
</g>
</svg>
