<svg xmlns="http://www.w3.org/2000/svg"><symbol id="lock" viewBox="0 0 16 16"><path fill="#888" d="M9.25 7H9V4c0-1.654-1.346-3-3-3H4C2.346 1 1 2.346 1 4v3H.75a.753.753 0 0 0-.75.75v7.5c0 .412.338.75.75.75h8.5c.412 0 .75-.338.75-.75v-7.5A.753.753 0 0 0 9.25 7zM3 4c0-.551.449-1 1-1h2c.551 0 1 .449 1 1v3H3V4z"/></symbol><symbol id="star-full" viewBox="0 0 16 16"><path fill="#888" d="M16 6.204l-5.528-.803L8 .392 5.528 5.401 0 6.204l4 3.899-.944 5.505L8 13.009l4.944 2.599L12 10.103l4-3.899z"/></symbol><symbol id="cloud" viewBox="0 0 16 16"><path fill="#888" d="M16 10.274a2.726 2.726 0 0 0-2.078-2.648A3.72 3.72 0 0 0 10.205 4a3.712 3.712 0 0 0-2.92 1.418 2.09 2.09 0 0 0-3.719 1.573 3.028 3.028 0 0 0-3.567 2.98A3.028 3.028 0 0 0 3.026 13H13.28a2.725 2.725 0 0 0 2.719-2.726z"/></symbol><symbol id="cog" viewBox="0 0 16 16"><path fill="#888" d="M14.59 9.535a3.053 3.053 0 0 1 1.127-4.164l-1.572-2.723a3.017 3.017 0 0 1-1.529.414A3.052 3.052 0 0 1 9.574 0H6.429a3.009 3.009 0 0 1-.406 1.535c-.839 1.454-2.706 1.948-4.17 1.106L.281 5.364a3 3 0 0 1 1.123 1.117 3.053 3.053 0 0 1-1.12 4.16l1.572 2.723c.448-.261.967-.41 1.522-.41A3.052 3.052 0 0 1 6.42 16h3.145a3.012 3.012 0 0 1 .406-1.519 3.053 3.053 0 0 1 4.163-1.11l1.572-2.723a3.008 3.008 0 0 1-1.116-1.113zM8 11.24a3.24 3.24 0 1 1 0-6.48 3.24 3.24 0 0 1 0 6.48z"/></symbol></svg>