<svg aria-hidden="true" style="position: absolute; width: 0; height: 0;" width="0" height="0" version="1.1" xmlns="http://www.w3.org/2000/svg" xmlns:xlink="http://www.w3.org/1999/xlink">
        <defs>
            <symbol id="mobile" viewBox="0 0 58 98">
                <title>mobile</title>
                <path d="M48,0H10C4.5,0,0,4.5,0,10v78c0,5.5,4.5,10,10,10h38c5.5,0,10-4.5,10-10V10C58,4.5,53.5,0,48,0z M29,94   c-3.865,0-7-2.238-7-5c0-2.762,3.135-5,7-5c3.864,0,7,2.238,7,5C36,91.763,32.864,94,29,94z M50,79H8V13h42V79z"><path>
            </symbol>
            <symbol id="mail" viewBox="0 0 16 16">
                <title>mail</title>
                <path d="     M0 4     L0 6     L16 16     L32 6     L32 4     z     M0 9     L0 28     L32 28     L32 9     L16 19      z"></path>
            </symbol>
            <symbol id="facebook" viewBox="0 0 30 30">
                <title>facebook</title>
                <path d="M22,16l1-5l-5,0.001V7c0-1.544,0.784-2,3-2h2V0c0,0-2.05,0-4,0c-4.072,0-7,2.435-7,7v4l-5,0v5h5v14h6V16H22z"></path>
            </symbol>
            <symbol id="twitter" viewBox="0 0 56 56">
                <title>twitter</title>
             <path d="M52.837,15.065c-1.811,0.805-3.76,1.348-5.805,1.591c2.088-1.25,3.689-3.23,4.444-5.592c-1.953,1.159-4.115,2-6.418,2.454  c-1.843-1.964-4.47-3.192-7.377-3.192c-5.581,0-10.106,4.525-10.106,10.107c0,0.791,0.089,1.562,0.262,2.303  c-8.4-0.422-15.848-4.445-20.833-10.56c-0.87,1.492-1.368,3.228-1.368,5.082c0,3.506,1.784,6.6,4.496,8.412  c-1.656-0.053-3.215-0.508-4.578-1.265c-0.001,0.042-0.001,0.085-0.001,0.128c0,4.896,3.484,8.98,8.108,9.91  c-0.848,0.23-1.741,0.354-2.663,0.354c-0.652,0-1.285-0.063-1.902-0.182c1.287,4.015,5.019,6.938,9.441,7.019  c-3.459,2.711-7.816,4.327-12.552,4.327c-0.815,0-1.62-0.048-2.411-0.142c4.474,2.869,9.786,4.541,15.493,4.541  c18.591,0,28.756-15.4,28.756-28.756c0-0.438-0.009-0.875-0.028-1.309C49.769,18.873,51.483,17.092,52.837,15.065z"></path>
            </symbol>
            <symbol id="pinterest" viewBox="0 0 56 56">
                <title>pinterest</title>
                <path d="M30.374,4.622c-13.586,0-20.437,9.74-20.437,17.864c0,4.918,1.862,9.293,5.855,10.922c0.655,0.27,1.242,0.01,1.432-0.715  c0.132-0.5,0.445-1.766,0.584-2.295c0.191-0.717,0.117-0.967-0.412-1.594c-1.151-1.357-1.888-3.115-1.888-5.607  c0-7.226,5.407-13.695,14.079-13.695c7.679,0,11.898,4.692,11.898,10.957c0,8.246-3.649,15.205-9.065,15.205  c-2.992,0-5.23-2.473-4.514-5.508c0.859-3.623,2.524-7.531,2.524-10.148c0-2.34-1.257-4.292-3.856-4.292  c-3.058,0-5.515,3.164-5.515,7.401c0,2.699,0.912,4.525,0.912,4.525s-3.129,13.26-3.678,15.582  c-1.092,4.625-0.164,10.293-0.085,10.865c0.046,0.34,0.482,0.422,0.68,0.166c0.281-0.369,3.925-4.865,5.162-9.359  c0.351-1.271,2.011-7.859,2.011-7.859c0.994,1.896,3.898,3.562,6.986,3.562c9.191,0,15.428-8.379,15.428-19.595  C48.476,12.521,41.292,4.622,30.374,4.622z"></path>
            </symbol>
            <symbol id="google_plus" viewBox="0 0 56 56">
                <title>google plus</title>
                <path d="M52.218,25.852h-7.512v-7.51c0-0.573-0.465-1.039-1.037-1.039H41.53c-0.576,0-1.041,0.466-1.041,1.039v7.51h-7.512   c-0.572,0-1.039,0.467-1.039,1.041v2.139c0,0.574,0.467,1.039,1.039,1.039h7.512v7.514c0,0.574,0.465,1.039,1.041,1.039h2.139   c0.572,0,1.037-0.465,1.037-1.039V30.07h7.512c0.572,0,1.039-0.465,1.039-1.039v-2.139C53.257,26.318,52.79,25.852,52.218,25.852z"/><path d="M26.974,32.438c-1.58-1.119-3.016-2.76-3.041-3.264c0-0.918,0.082-1.357,2.141-2.961c2.662-2.084,4.128-4.824,4.128-7.719   c0-2.625-0.802-4.957-2.167-6.595h1.059c0.219,0,0.434-0.068,0.609-0.196l2.955-2.141c0.367-0.263,0.521-0.732,0.381-1.161   c-0.141-0.428-0.537-0.72-0.988-0.72H18.835c-1.446,0-2.915,0.255-4.357,0.751c-4.816,1.661-8.184,5.765-8.184,9.978   c0,5.969,4.624,10.493,10.805,10.635c-0.121,0.473-0.182,0.939-0.182,1.396c0,0.92,0.233,1.791,0.713,2.633c-0.056,0-0.11,0-0.17,0   c-5.892,0-11.21,2.891-13.229,7.193c-0.526,1.119-0.794,2.25-0.794,3.367c0,1.086,0.279,2.131,0.826,3.113   c1.269,2.27,3.994,4.031,7.677,4.961c1.901,0.48,3.944,0.725,6.065,0.725c1.906,0,3.723-0.246,5.403-0.732   c5.238-1.521,8.625-5.377,8.625-9.828C32.032,37.602,30.659,35.045,26.974,32.438z M10.283,42.215c0-3.107,3.947-5.832,8.446-5.832   h0.121c0.979,0.012,1.934,0.156,2.834,0.432c0.309,0.213,0.607,0.416,0.893,0.611c2.084,1.42,3.461,2.357,3.844,3.861   c0.09,0.379,0.135,0.758,0.135,1.125c0,3.869-2.885,5.83-8.578,5.83C13.663,48.242,10.283,45.596,10.283,42.215z M14.377,12.858   c0.703-0.803,1.624-1.227,2.658-1.227l0.117,0.002c2.921,0.086,5.716,3.341,6.23,7.256c0.289,2.192-0.199,4.253-1.301,5.509   c-0.705,0.805-1.613,1.229-2.689,1.229c0,0,0,0-0.002,0h-0.047c-2.861-0.088-5.716-3.467-6.227-7.377   C12.829,16.064,13.289,14.099,14.377,12.858z"></path>
            </symbol>
        </defs>
    </svg>
