<svg aria-hidden="true" style="position: absolute; width: 0; height: 0;" width="0" height="0" version="1.1" xmlns="http://www.w3.org/2000/svg" xmlns:xlink="http://www.w3.org/1999/xlink">
        <defs>
            <symbol id="mobile" viewBox="0 0 58 98">
                <title>mobile</title>
                <path d="M48 0H10A10 10 0 0 0 0 10v78a10 10 0 0 0 10 10h38a10 10 0 0 0 10-10V10A10 10 0 0 0 48 0zM29 94c-3.9 0-7-2.2-7-5s3.1-5 7-5 7 2.2 7 5-3.1 5-7 5zm21-15H8V13h42v66z"/>
            </symbol>
            <symbol id="mail" viewBox="0 0 32 32">
                <title>mail</title>
                <path d="M0 4v2l16 10L32 6V4zm0 5v19h32V9L16 19z"/>
            </symbol>
            <symbol id="facebook" viewBox="0 0 30 30">
                <title>facebook</title>
                <path d="M22 16l1-5h-5V7c0-1.5.8-2 3-2h2V0h-4c-4 0-7 2.4-7 7v4H7v5h5v14h6V16h4z"/>
            </symbol>
            <symbol id="twitter" viewBox="0 0 56 56">
                <title>twitter</title>
                <path d="M52.8 15c-1.8.9-3.7 1.4-5.8 1.7 2.1-1.3 3.7-3.3 4.5-5.6-2 1.1-4.1 2-6.4 2.4a10 10 0 0 0-17.3 9.2A28.7 28.7 0 0 1 7 12.2a10 10 0 0 0 3.1 13.5 10 10 0 0 1-4.5-1.3v.1c0 5 3.4 9 8 10a10.2 10.2 0 0 1-4.5.1c1.3 4 5 7 9.4 7a20.3 20.3 0 0 1-15 4.2 28.6 28.6 0 0 0 44.2-25.5c2-1.4 3.8-3.2 5.1-5.2z"/>
            </symbol>
            <symbol id="pinterest" viewBox="0 0 56 56">
                <title>pinterest</title>
                <path d="M30.4 4.6c-13.6 0-20.5 9.8-20.5 17.9 0 4.9 1.9 9.3 5.9 11 .6.2 1.2 0 1.4-.8l.6-2.3c.2-.7.1-1-.4-1.6a8.2 8.2 0 0 1-1.9-5.6c0-7.2 5.4-13.7 14-13.7 7.8 0 12 4.7 12 11 0 8.2-3.7 15.2-9 15.2-3 0-5.3-2.5-4.6-5.5.9-3.7 2.5-7.6 2.5-10.2 0-2.3-1.2-4.3-3.8-4.3-3 0-5.5 3.2-5.5 7.4 0 2.7.9 4.5.9 4.5l-3.7 15.6c-1.1 4.6-.2 10.3 0 10.9 0 .3.4.4.6.2.3-.4 4-5 5.2-9.4l2-7.9c1 2 3.9 3.6 7 3.6 9.1 0 15.4-8.4 15.4-19.6 0-8.5-7.2-16.4-18.1-16.4z"/>
            </symbol>
            <symbol id="google_plus" viewBox="0 0 56 56">
                <title>google plus</title>
                <path d="M52.2 25.9h-7.5v-7.6c0-.5-.5-1-1-1h-2.2a1 1 0 0 0-1 1V26H33a1 1 0 0 0-1 1V29c0 .6.4 1 1 1h7.5v7.6c0 .6.5 1 1 1h2.2c.5 0 1-.4 1-1V30h7.5c.6 0 1-.5 1-1v-2.2c0-.6-.4-1-1-1z"/>
                <path d="M27 32.4c-1.6-1-3-2.7-3-3.2 0-1 0-1.4 2-3 2.7-2 4.2-4.8 4.2-7.7 0-2.6-.8-5-2.2-6.6h1c.3 0 .5 0 .7-.2l3-2.1c.3-.3.5-.8.3-1.2a1 1 0 0 0-1-.7H18.9c-1.4 0-2.9.2-4.3.7-4.8 1.7-8.2 5.8-8.2 10 0 6 4.6 10.5 10.8 10.6l-.2 1.4c0 1 .3 1.8.7 2.7h-.1c-6 0-11.2 2.9-13.3 7.2a7.9 7.9 0 0 0-.8 3.3c0 1.1.3 2.2.9 3.1 1.2 2.3 4 4 7.6 5a24.8 24.8 0 0 0 11.5 0c5.2-1.5 8.6-5.4 8.6-9.8 0-4.3-1.3-6.9-5-9.5zm-16.7 9.8c0-3 4-5.8 8.4-5.8h.1c1 0 2 .1 2.9.4l.9.6c2 1.4 3.4 2.4 3.8 3.9l.2 1.1c0 3.9-3 5.8-8.6 5.8-4.3 0-7.7-2.6-7.7-6zm4-29.3c.8-.8 1.7-1.3 2.7-1.3h.2c2.9.1 5.7 3.4 6.2 7.3a7 7 0 0 1-1.3 5.5c-.7.8-1.6 1.2-2.7 1.2-3 0-5.8-3.4-6.3-7.3-.3-2.2.2-4.2 1.3-5.4z"/>
            </symbol>
        </defs>
    </svg>
