<svg style="display: none" version="1.1" xmlns="http://www.w3.org/2000/svg" xmlns:xlink="http://www.w3.org/1999/xlink">
    <defs>
        <symbol fill="currentColor" id="icon-tools" viewBox="0 0 64 64">
            <title>tools</title>
            <path d="M36.415 1.976c2.15-.106 4.21.722 6.182 2.484l14.304 12.949 1.534-1.655 5.46 4.943-8.32 9.19-5.462-4.98 1.358-1.5-14.38-13.019c-1.665-1.483-3.73-2.164-6.198-2.042a12.813 12.813 0 0 0-4.716 1.152c3.212-4.835 6.624-7.342 10.238-7.522z"/><path d="M53.287 13.404l-6.574-5.952 1.148-1.269 6.575 5.952zM19.996 35.993L2.523 54.445l8.382 7.588 16.658-19.214zM36.911 32.03l10.216-11.786-6.613-5.987L29.803 25.62z"/><path d="M56.197 52.732a9.304 9.304 0 0 0 .238-2.582c-.124-2.515-1.11-4.608-2.956-6.28-1.845-1.67-4.037-2.442-6.578-2.316-.854.042-1.703.195-2.547.457l-9.034-8.144.04-.046-7.183-6.477-.011.012-9.459-8.563c.18-.84.247-1.689.205-2.544-.128-2.564-1.114-4.681-2.96-6.353-1.845-1.67-4.026-2.443-6.54-2.319a9.46 9.46 0 0 0-2.583.496l7.306 6.613-6.473 7.188-7.307-6.613a9.332 9.332 0 0 0-.239 2.582c.125 2.516 1.11 4.609 2.956 6.28 1.846 1.67 4.027 2.444 6.541 2.318a9.561 9.561 0 0 0 2.728-.54l3.17 2.87.007-.007 20.644 18.619-.038.042 1.786 1.624a9.51 9.51 0 0 0-.269 2.731c.126 2.54 1.107 4.646 2.94 6.317 1.833 1.671 4.02 2.444 6.56 2.318a9.324 9.324 0 0 0 2.545-.494l-7.305-6.614 6.509-7.19 7.307 6.615z"/>
        </symbol>
        <symbol fill="currentColor" id="icon-flow-tree" viewBox="0 0 64 64">
            <title>flow-tree</title>
            <path d="m58.979267,48.276474l0,-7.792427c0,-4.70627 -3.118057,-11.707984 -11.707984,-11.707984l-6.787237,0c-4.791789,0 -5.237711,-2.351099 -5.260109,-3.563299l0,-9.488557c2.894078,-1.250209 4.920747,-4.127319 4.920747,-7.479535c0,-4.497223 -3.646782,-8.144684 -8.144684,-8.144684c-4.497902,0 -8.144684,3.647461 -8.144684,8.144684c0,3.352216 2.026669,6.229326 4.920747,7.479535l0,9.488557c0,0.878268 -0.253843,3.563299 -5.260109,3.563299l-6.787237,0c-8.589927,0 -11.707984,7.001714 -11.707984,11.707984l0,7.792427c-2.894078,1.24953 -4.920747,4.127319 -4.920747,7.478856c0,4.497902 3.646782,8.144684 8.144684,8.144684c4.497902,0 8.144684,-3.646782 8.144684,-8.144684c0,-3.351538 -2.026669,-6.229326 -4.920747,-7.478856l0,-7.792427c0,-0.878268 0.253843,-5.260109 5.260109,-5.260109l6.787237,0c2.059926,0 3.797459,-0.311534 5.260109,-0.839581l0,13.892795c-2.894078,1.248852 -4.920747,4.12664 -4.920747,7.478178c0,4.497902 3.646782,8.144684 8.144684,8.144684c4.497902,0 8.144684,-3.646782 8.144684,-8.144684c0,-3.351538 -2.026669,-6.229326 -4.920747,-7.478856l0,-13.892117c1.46265,0.528047 3.200182,0.839581 5.260109,0.839581l6.787237,0c4.791789,0 5.237711,4.047908 5.260109,5.260109l0,7.792427c-2.894078,1.24953 -4.920747,4.127319 -4.920747,7.478856c0,4.497902 3.646782,8.144684 8.144684,8.144684c4.497902,0 8.144684,-3.646782 8.144684,-8.144684c0,-3.351538 -2.026669,-6.229326 -4.920747,-7.478856zm-46.035792,7.478856c0,2.594761 -2.104722,4.698804 -4.698804,4.698804c-2.594761,0 -4.698804,-2.104043 -4.698804,-4.698804s2.104043,-4.698804 4.698804,-4.698804c2.594082,0 4.698804,2.104043 4.698804,4.698804zm14.357721,-47.510659c0,-2.594761 2.104722,-4.698804 4.698804,-4.698804c2.594761,0 4.698804,2.104043 4.698804,4.698804s-2.104043,4.698804 -4.698804,4.698804c-2.594082,0 -4.698804,-2.104043 -4.698804,-4.698804zm9.397608,47.510659c0,2.594761 -2.104043,4.698804 -4.698804,4.698804c-2.594082,0 -4.698804,-2.104043 -4.698804,-4.698804s2.104722,-4.698804 4.698804,-4.698804c2.594761,0 4.698804,2.104043 4.698804,4.698804zm19.056525,4.698804c-2.594082,0 -4.698804,-2.104043 -4.698804,-4.698804s2.104722,-4.698804 4.698804,-4.698804c2.594761,0 4.698804,2.104043 4.698804,4.698804s-2.104043,4.698804 -4.698804,4.698804z"/>
        </symbol>
        <symbol fill="currentColor" id="icon-lifebuoy" viewBox="0 0 64 64">
            <title>lifebuoy</title>
            <path d="M31.97 0C14.311 0 0 14.312 0 31.97s14.312 31.969 31.97 31.969 31.969-14.313 31.969-31.97S49.626 0 31.969 0zM19.98 31.97c0-6.622 5.368-11.99 11.99-11.99s11.988 5.368 11.988 11.99-5.367 11.988-11.989 11.988-11.988-5.367-11.988-11.989zm37.838 10.707l-11.077-4.59c.781-1.884 1.215-3.95 1.215-6.118s-.432-4.234-1.215-6.118l11.077-4.59c1.37 3.3 2.124 6.914 2.124 10.708s-.757 7.41-2.124 10.708zM42.677 6.12l-4.59 11.077c-1.884-.78-3.95-1.212-6.118-1.212s-4.234.431-6.118 1.212L21.261 6.12c3.3-1.367 6.914-2.124 10.708-2.124s7.41.757 10.708 2.124zM6.12 21.262l11.077 4.59c-.78 1.883-1.214 3.95-1.214 6.117s.431 4.234 1.212 6.118l-11.077 4.59c-1.369-3.299-2.124-6.913-2.124-10.708s.757-7.409 2.124-10.707h.002zm15.142 36.556l4.59-11.077c1.883.781 3.95 1.215 6.117 1.215s4.234-.432 6.118-1.215l4.59 11.077c-3.299 1.367-6.913 2.124-10.708 2.124s-7.409-.757-10.707-2.124z"/>
        </symbol>
    </defs>
</svg>
