<svg height="94" width="94" xmlns="http://www.w3.org/2000/svg" xmlns:xlink="http://www.w3.org/1999/xlink">
  <path d="M86.8 71V59.5c0-7-4.6-17.3-17.3-17.3h-10c-7 0-7.7-3.4-7.8-5.2V23a12 12 0 1 0-9.5 0v14c0 1.3-.3 5.3-7.7 5.3h-10c-12.7 0-17.3 10.3-17.3 17.2V71a12 12 0 1 0 9.6 0V59.5c0-1.3.3-7.8 7.7-7.8h10c3 0 5.6-.4 7.8-1.2V71a12 12 0 1 0 9.5 0V50.5c2.1.8 4.7 1.2 7.7 1.2h10c7 0 7.7 6 7.8 7.8V71a12 12 0 1 0 9.5 0zM18.8 82a7 7 0 1 1-13.8 0 7 7 0 0 1 13.8 0zm21.2-70a7 7 0 1 1 13.8 0 7 7 0 0 1-13.8 0zm13.8 70a7 7 0 1 1-13.8 0 7 7 0 0 1 13.8 0zM82 89a7 7 0 1 1 0-14 7 7 0 0 1 0 14z"/>
</svg>
