<svg data-name="Livello 1" viewBox="0 0 128 128" xmlns="http://www.w3.org/2000/svg">
  <title/>
  <path d="M64 39a25 25 0 1 0 25 25 25 25 0 0 0-25-25zm0 44a19 19 0 1 1 19-19 19 19 0 0 1-19 19z"/>
  <path d="M121 48h-9a1 1 0 0 1-.9-.7 49.9 49.9 0 0 0-2-4.8 1 1 0 0 1 .2-1.2l6.3-6.3a7 7 0 0 0 0-9.9L103 12.4a7 7 0 0 0-10 0l-6.2 6.3a1 1 0 0 1-1.2.2 49.8 49.8 0 0 0-4.8-2 1 1 0 0 1-.7-1V7a7 7 0 0 0-7-7H55a7 7 0 0 0-7 7v9a1 1 0 0 1-.7.9 49.9 49.9 0 0 0-4.8 2 1 1 0 0 1-1.2-.2L35 12.4a7 7 0 0 0-9.9 0L12.4 25a7 7 0 0 0 0 10l6.3 6.2a1 1 0 0 1 .2 1.2 49.8 49.8 0 0 0-2 4.8 1 1 0 0 1-1 .7H7a7 7 0 0 0-7 7v18a7 7 0 0 0 7 7h9a1 1 0 0 1 .9.7 49.9 49.9 0 0 0 2 4.8 1 1 0 0 1-.2 1.2L12.4 93a7 7 0 0 0 0 9.9L25 115.6a7 7 0 0 0 10 0l6.2-6.3a1 1 0 0 1 1.2-.2 49.8 49.8 0 0 0 4.8 2 1 1 0 0 1 .7 1v8.9a7 7 0 0 0 7 7h18a7 7 0 0 0 7-7v-9a1 1 0 0 1 .7-.9 49.9 49.9 0 0 0 4.8-2 1 1 0 0 1 1.2.2l6.3 6.3a7 7 0 0 0 9.9 0l12.7-12.7a7 7 0 0 0 0-10l-6.3-6.2a1 1 0 0 1-.2-1.2 49.8 49.8 0 0 0 2-4.8 1 1 0 0 1 1-.7h8.9a7 7 0 0 0 7-7V55a7 7 0 0 0-7-7zm1 25a1 1 0 0 1-1 1h-9a7 7 0 0 0-6.5 4.7 43.9 43.9 0 0 1-1.8 4.2 7 7 0 0 0 1.4 8l6.3 6.4a1 1 0 0 1 0 1.4l-12.8 12.7a1 1 0 0 1-1.4 0L91 105a7 7 0 0 0-8-1.4 43.9 43.9 0 0 1-4.2 1.8A7 7 0 0 0 74 112v8.9a1 1 0 0 1-1 1H55a1 1 0 0 1-1-1v-9a7 7 0 0 0-4.7-6.5 43.9 43.9 0 0 1-4.2-1.8 7 7 0 0 0-8 1.4l-6.4 6.3a1 1 0 0 1-1.4 0L16.6 98.6a1 1 0 0 1 0-1.4L23 91a7 7 0 0 0 1.4-8 43.9 43.9 0 0 1-1.8-4.2A7 7 0 0 0 16 74H7a1 1 0 0 1-1-1V55a1 1 0 0 1 1-1h9a7 7 0 0 0 6.5-4.7 43.9 43.9 0 0 1 1.8-4.2 7 7 0 0 0-1.4-8l-6.3-6.4a1 1 0 0 1 0-1.4l12.8-12.7a1 1 0 0 1 1.4 0L37 23a7 7 0 0 0 8 1.4 43.9 43.9 0 0 1 4.2-1.8A7 7 0 0 0 54 16V7a1 1 0 0 1 1-1h18a1 1 0 0 1 1 1v9a7 7 0 0 0 4.7 6.5 43.9 43.9 0 0 1 4.2 1.8 7 7 0 0 0 8-1.4l6.4-6.3a1 1 0 0 1 1.4 0l12.7 12.8a1 1 0 0 1 0 1.4l-6.3 6.3a7 7 0 0 0-1.4 8 43.9 43.9 0 0 1 1.8 4.3 7 7 0 0 0 6.6 4.6h8.9a1 1 0 0 1 1 1z"/>
</svg>
