<svg width="56.7" height="56.7">
  <path d="M52.2 25.9h-7.5v-7.6c0-.5-.5-1-1-1h-2.2a1 1 0 0 0-1 1V26H33a1 1 0 0 0-1 1V29c0 .6.4 1 1 1h7.5v7.6c0 .6.5 1 1 1h2.2c.5 0 1-.4 1-1V30h7.5c.6 0 1-.5 1-1v-2.2c0-.6-.4-1-1-1z"/>
  <path d="M27 32.4c-1.6-1-3-2.7-3-3.2 0-1 0-1.4 2-3 2.7-2 4.2-4.8 4.2-7.7 0-2.6-.8-5-2.2-6.6h1c.3 0 .5 0 .7-.2l3-2.1c.3-.3.5-.8.3-1.2a1 1 0 0 0-1-.7H18.9c-1.4 0-2.9.2-4.3.7-4.8 1.7-8.2 5.8-8.2 10 0 6 4.6 10.5 10.8 10.6l-.2 1.4c0 1 .3 1.8.7 2.7h-.1c-6 0-11.2 2.9-13.3 7.2a7.9 7.9 0 0 0-.8 3.3c0 1.1.3 2.2.9 3.1 1.2 2.3 4 4 7.6 5a24.8 24.8 0 0 0 11.5 0c5.2-1.5 8.6-5.4 8.6-9.8 0-4.3-1.3-6.9-5-9.5zm-16.7 9.8c0-3 4-5.8 8.4-5.8h.1c1 0 2 .1 2.9.4l.9.6c2 1.4 3.4 2.4 3.8 3.9l.2 1.1c0 3.9-3 5.8-8.6 5.8-4.3 0-7.7-2.6-7.7-6zm4-29.3c.8-.8 1.7-1.3 2.7-1.3h.2c2.9.1 5.7 3.4 6.2 7.3a7 7 0 0 1-1.3 5.5c-.7.8-1.6 1.2-2.7 1.2-3 0-5.8-3.4-6.3-7.3-.3-2.2.2-4.2 1.3-5.4z"/>
</svg>
