<svg viewBox="0 0 94.5 89" xmlns="http://www.w3.org/2000/svg" xmlns:xlink="http://www.w3.org/1999/xlink">
  <path d="M53.8 0C57 0 60.1 1 63 3.7l21.2 19.2 2.2-2.5 8.1 7.4-12.3 13.6-8-7.4 2-2.2-21.4-19.3a12.3 12.3 0 0 0-9.2-3 19 19 0 0 0-7 1.7C43.4 4 48.5.2 53.8 0z"/>
  <path d="M78.8 17l-9.7-8.8 1.7-1.9 9.7 8.8z"/>
  <path d="M29.5 50.4L3.6 77.8 16 89l24.7-28.5z"/>
  <path d="M54.5 44.6l15.2-17.5-9.8-8.9L44 35.1z"/>
  <path d="M83.1 75.2a13 13 0 0 0-4-13.1 13 13 0 0 0-9.7-3.4c-1.3 0-2.6.3-3.8.6l-13.4-12-10.6-9.7-14-12.7c.2-1.2.3-2.5.3-3.7a13 13 0 0 0-4.4-9.4 13 13 0 0 0-9.7-3.5A14 14 0 0 0 10 9L20.8 19l-9.6 10.6L.4 19.7a13 13 0 0 0 4 13.1 13 13 0 0 0 9.7 3.5c1.4-.1 2.7-.4 4-.8l4.7 4.2 30.6 27.6 2.6 2.5a14 14 0 0 0-.4 4 13 13 0 0 0 4.4 9.4 13 13 0 0 0 9.7 3.4c1.3 0 2.5-.3 3.8-.7L62.7 76l9.6-10.7 10.8 9.8z"/>
</svg>
