<?xml version="1.0" ?><!DOCTYPE svg  PUBLIC '-//W3C//DTD SVG 1.1//EN'  'http://www.w3.org/Graphics/SVG/1.1/DTD/svg11.dtd'><svg enable-background="new 0 0 800 800" height="800px" id="Layer_1" version="1.1" viewBox="0 0 800 800" width="800px" xml:space="preserve" xmlns="http://www.w3.org/2000/svg" xmlns:xlink="http://www.w3.org/1999/xlink"><path d="M399.996,34.504C198.458,34.504,34.504,198.463,34.504,400s163.954,365.495,365.492,365.495  c201.536,0,365.499-163.958,365.499-365.495S601.532,34.504,399.996,34.504z M583.45,371.083h148.735  c0.83,9.536,1.338,19.166,1.338,28.917c0,9.745-0.508,19.371-1.338,28.907H583.45c1.491-9.447,2.48-19.055,2.48-28.907  C585.931,390.138,584.932,380.53,583.45,371.083z M727.849,339.111H577.981c-0.819,0-1.613,0.125-2.407,0.241  c-18.689-53.926-61.438-96.575-115.443-115.113c0.456-1.472,0.768-3.002,0.768-4.621V72.149  C596.046,97.199,702.802,203.954,727.849,339.111z M399.996,553.958c-84.891,0-153.963-69.064-153.963-153.958  c0-84.895,69.073-153.959,153.963-153.959c84.897,0,153.964,69.064,153.964,153.959C553.96,484.894,484.894,553.958,399.996,553.958  z M428.925,67.81v148.744c-9.454-1.485-19.064-2.484-28.929-2.484c-9.849,0-19.458,0.995-28.895,2.479V67.806  c9.527-0.821,19.153-1.33,28.895-1.33C409.745,66.476,419.381,66.984,428.925,67.81z M339.129,72.141v147.478  c0,1.614,0.312,3.145,0.758,4.612c-54.015,18.528-96.772,61.192-115.469,115.122c-0.785-0.116-1.579-0.241-2.409-0.241H72.141  C97.19,203.944,203.962,97.186,339.129,72.141z M66.476,400c0-9.751,0.509-19.381,1.33-28.917h148.735  c-1.481,9.447-2.479,19.054-2.479,28.917c0,9.853,0.999,19.46,2.479,28.907H67.806C66.985,419.371,66.476,409.745,66.476,400z   M72.141,460.88h149.869c0.83,0,1.614-0.125,2.409-0.241c18.6,53.685,61.062,96.188,114.72,114.855c0,0.034-0.009,0.06-0.009,0.097  v152.268C203.954,702.813,97.19,596.046,72.141,460.88z M371.101,732.195V583.45c9.438,1.486,19.046,2.48,28.895,2.48  c9.864,0,19.475-0.999,28.929-2.484V732.19c-9.544,0.825-19.18,1.333-28.929,1.333C390.254,733.523,380.628,733.016,371.101,732.195  z M460.898,727.849V575.591c0-0.037-0.019-0.07-0.019-0.106c53.647-18.672,96.102-61.17,114.694-114.846  c0.794,0.116,1.588,0.241,2.407,0.241h149.867C702.811,596.039,596.056,702.802,460.898,727.849z" fill="#4D4D4D"/></svg>