<svg xmlns="http://www.w3.org/2000/svg" xmlns:xlink="http://www.w3.org/1999/xlink" viewBox="0 0 67.7 67.7">
  <path d="M33.8 0A33.6 33.6 0 0 0 0 33.8a33.8 33.8 0 1 0 57.7-24A33.6 33.6 0 0 0 33.9.1zm14.3 7.6l-7.5 7.5a19.3 19.3 0 0 0-13 0l-7.7-7.7a29.7 29.7 0 0 1 28.2.2zM23 44.1A15.4 15.4 0 1 1 45 22.4a15.4 15.4 0 0 1-21.7 21.7zM8.4 18.4l7.8 7.8a19.4 19.4 0 0 0-.2 13.6l-8.3 8.3a29.7 29.7 0 0 1 .7-29.7zm10.5 41.2l8.2-8.3a19.3 19.3 0 0 0 14.2 0l8 8a29.6 29.6 0 0 1-30.4.3zm41.4-11.9l-8-8c1.6-4.3 1.5-9.1-.1-13.4l7.5-7.5a30 30 0 0 1 .6 29z"/>
</svg>
