<?xml version="1.0" encoding="iso-8859-1"?>
<!-- Generator: Adobe Illustrator 19.1.0, SVG Export Plug-In . SVG Version: 6.00 Build 0)  -->
<svg version="1.1" id="Capa_1" xmlns="http://www.w3.org/2000/svg" xmlns:xlink="http://www.w3.org/1999/xlink" x="0px" y="0px"
	 viewBox="0 0 67.657 67.657" style="enable-background:new 0 0 67.657 67.657;" xml:space="preserve">
<g>
	<g>
		<path d="M33.838,0C24.802,0,16.306,3.52,9.917,9.909c-6.39,6.39-9.908,14.884-9.908,23.92s3.519,17.53,9.908,23.92
			s14.884,9.908,23.92,9.908c9.035,0,17.531-3.519,23.92-9.908c13.189-13.19,13.189-34.651,0-47.842C51.369,3.518,42.873,0,33.838,0
			z M48.093,7.616l-7.496,7.498c-2.079-0.748-4.286-1.16-6.561-1.16c-2.239,0-4.411,0.399-6.461,1.125L19.927,7.43
			C24.164,5.191,28.909,4,33.839,4C38.902,4,43.769,5.257,48.093,7.616z M23.185,44.147c-5.982-5.982-5.982-15.717,0-21.699
			c2.899-2.898,6.753-4.494,10.851-4.494s7.952,1.596,10.85,4.494c5.982,5.982,5.982,15.718,0,21.701
			c-2.898,2.897-6.751,4.494-10.849,4.494C29.938,48.643,26.084,47.046,23.185,44.147z M8.287,18.418l7.768,7.768
			c-1.723,4.375-1.779,9.248-0.195,13.663l-8.234,8.235c-2.359-4.324-3.617-9.192-3.617-14.256
			C4.009,28.309,5.5,23.021,8.287,18.418z M18.761,59.575l8.258-8.256c2.209,0.859,4.576,1.324,7.018,1.324
			c2.478,0,4.88-0.475,7.117-1.359l8.094,8.095c-4.602,2.787-9.891,4.278-15.41,4.278C28.451,63.657,23.286,62.234,18.761,59.575z
			 M60.229,47.732l-7.982-7.982c1.535-4.356,1.478-9.147-0.195-13.464l7.528-7.528C64.781,27.645,64.997,38.667,60.229,47.732z"/>
	</g>
</g>
<g>
</g>
<g>
</g>
<g>
</g>
<g>
</g>
<g>
</g>
<g>
</g>
<g>
</g>
<g>
</g>
<g>
</g>
<g>
</g>
<g>
</g>
<g>
</g>
<g>
</g>
<g>
</g>
<g>
</g>
</svg>
