<?xml version="1.0" ?><!DOCTYPE svg  PUBLIC '-//W3C//DTD SVG 1.1//EN'  'http://www.w3.org/Graphics/SVG/1.1/DTD/svg11.dtd'><svg enable-background="new 0 0 50 50" height="50px" id="Layer_1" version="1.1" viewBox="0 0 50 50" width="50px" xml:space="preserve" xmlns="http://www.w3.org/2000/svg" xmlns:xlink="http://www.w3.org/1999/xlink"><rect fill="none" height="50" width="50"/><path d="M18,47c-1.104,0-2-0.896-2-2  V23c0-1.104,0.896-2,2-2h28c1.104,0,2,0.896,2,2v22c0,1.104-0.896,2-2,2H18z" fill="none" stroke="#000000" stroke-linecap="round" stroke-miterlimit="10" stroke-width="2"/><path d="M42,21c0-1.045,0-5.955,0-7  c0-5.523-4.477-10-10-10S22,8.477,22,14c0,1.045,0,5.955,0,7" fill="none" stroke="#000000" stroke-linecap="round" stroke-miterlimit="10" stroke-width="2"/><path d="M35,32c0-1.657-1.343-3-3-3s-3,1.343-3,3c0,0.885,0.391,1.673,1,2.222V37c0,1.104,0.896,2,2,2s2-0.896,2-2v-2.778  C34.609,33.673,35,32.885,35,32z"/></svg>