<svg height="32" width="32" xmlns="http://www.w3.org/2000/svg" xmlns:xlink="http://www.w3.org/1999/xlink">
  <path d="M31.9 12.6c-.3-.8-1-1.4-1.9-1.6l-8.3-1.2-3.6-7.5A2.3 2.3 0 0 0 16 1c-.9 0-1.7.5-2 1.3l-3.7 7.5L2 11c-.9.2-1.6.8-1.9 1.6-.3.8 0 1.6.6 2.2l6 6.1-1.4 8.5c-.1.8.3 1.7 1 2.2a2.4 2.4 0 0 0 2.4.1l7.3-3.9 7.3 4a2.4 2.4 0 0 0 2.4-.2c.7-.5 1.1-1.4 1-2.2l-1.5-8.5 6.1-6c.6-.7.9-1.5.6-2.3zm-8.3 6.8c-.5.5-.8 1.2-.6 1.9l1.4 8.4-7.3-3.9a2.3 2.3 0 0 0-2.2 0l-7.3 4L9 21.2c.2-.7 0-1.4-.6-2l-6-6 8.2-1.3c.8 0 1.5-.6 1.8-1.2L16 3.3l3.6 7.5c.3.6 1 1.1 1.8 1.2l8.3 1.3-6.1 6z" fill="#333"/>
</svg>
