<?xml version="1.0" ?><!DOCTYPE svg  PUBLIC '-//W3C//DTD SVG 1.1//EN'  'http://www.w3.org/Graphics/SVG/1.1/DTD/svg11.dtd'><svg height="50" width="50" xmlns="http://www.w3.org/2000/svg"><path fill="none" d="M0 0h50v50H0z"/><path d="M18 47a2 2 0 0 1-2-2V23c0-1.1.9-2 2-2h28a2 2 0 0 1 2 2v22a2 2 0 0 1-2 2H18zM42 21v-7a10 10 0 1 0-20 0v7" fill="none" stroke="#000" stroke-linecap="round" stroke-miterlimit="10" stroke-width="2"/><path d="M35 32a3 3 0 1 0-5 2.2V37a2 2 0 0 0 4 0v-2.8a3 3 0 0 0 1-2.2z"/></svg>