<?xml version="1.0" ?><!DOCTYPE svg  PUBLIC '-//W3C//DTD SVG 1.1//EN'  'http://www.w3.org/Graphics/SVG/1.1/DTD/svg11.dtd'><svg height="32" width="32" xmlns="http://www.w3.org/2000/svg"><path d="M28 16c0-.8 0-1.5-.2-2.2l4-2.3-4-7-4 2.4A12 12 0 0 0 20 4.7V0h-8v4.7a12 12 0 0 0-3.8 2.2l-4-2.4-4 7 4 2.3a12 12 0 0 0 0 4.4l-4 2.3 4 7 4-2.4a12 12 0 0 0 3.8 2.2V32h8v-4.7c1.4-.5 2.7-1.2 3.8-2.2l4 2.4 4-7-4-2.3.2-2.2zm1.1 5.3l-2 3.4-3.5-2-1.1.9c-1 .8-2 1.4-3.2 1.8L18 26V30h-4v-4.1l-1.3-.5a10 10 0 0 1-3.2-1.8l-1-1-3.6 2.1-2-3.4 3.5-2-.2-1.5a10 10 0 0 1 0-3.6l.2-1.4-3.5-2 2-3.5 3.5 2 1.1-.9c1-.8 2-1.4 3.2-1.8L14 6V2h4v4.1l1.3.5c1.2.4 2.3 1 3.2 1.8l1 1 3.6-2.1 2 3.4-3.5 2 .2 1.5a10 10 0 0 1 0 3.6l-.2 1.4 3.5 2z"/><path d="M16 12a4 4 0 1 1 0 8 4 4 0 0 1 0-8zm0-2a6 6 0 1 0 0 12 6 6 0 0 0 0-12z"/></svg>