<?xml version="1.0" ?><!DOCTYPE svg  PUBLIC '-//W3C//DTD SVG 1.1//EN'  'http://www.w3.org/Graphics/SVG/1.1/DTD/svg11.dtd'><svg height="91" width="91" xmlns="http://www.w3.org/2000/svg"><path d="M25.2 36.7h.1c.5 0 1-.2 1.2-.5l1.5-1.4 10 9.9L23 59.5a5.7 5.7 0 0 0-1.6 4.6c.2 1.7 1 3.3 2.2 4.5l.1.2A7.3 7.3 0 0 0 29 71c1.5 0 3-.6 4-1.7l11-11L56.4 71c1 1 2.5 1.6 4 1.6 1.9 0 3.8-.8 5.3-2.3 1.3-1.3 2-3 2.2-4.6.1-1.8-.4-3.4-1.6-4.6l-9.5-9.6c3.2 0 6.2-1.4 9-4.2l4-3.9c4.2-4.3 2.9-9.3 1-14l-1-2.4-6.4 6.3c-.9 1-1.7 1.5-2.4 1.6-.5 0-1.2 0-2.2-1h-.2c-1-1.1-1.8-2.3.7-4.8l6.3-6.2-2.4-1c-4.8-2-9.8-3.3-14 1l-3.9 3.9C41 31 39.7 36 41.7 40.9l-.3.3-1 1.1-10-10 1.5-1.5a1.7 1.7 0 0 0-.2-2.6l-8-5.2c-.6-.4-1.5-.4-2 .2L18.8 26c-.5.6-.6 1.5-.2 2.1l5.2 8c.3.4.7.6 1.3.7zm38.7 26.7c.4.5.7 1.1.6 2 0 .8-.5 1.7-1.3 2.5a4 4 0 0 1-2.8 1.2c-.4 0-1-.1-1.6-.6L43.5 52.9l5-5L64 63.4zM43.8 43.6l.7-.4 1.9-.7-1-1.7c-2.2-4-1.4-8 2.3-11.7l4-4c1.9-1.9 4-2.3 7.8-1l-2.6 2.5c-4.4 4.4-2.3 7.9-.6 9.5v.1c2 2 4 2.2 5.3 2 1.4-.3 2.8-1.1 4.3-2.6l2.6-2.6c1.2 3.7.8 6-1.2 7.9l-3.9 3.9c-3.5 3.4-7.1 4-11.2 1.9l-1.4-1.3c-.5-.6-1.1-1-1.9-1.3l-1-.4-3 3-2.2-2 1-1zm-1.4 5.6l-3 3 .3 1c.3.8.7 1.5 1.2 2l.7.7-11 11c-1 1-3 .8-4.3-.5l-.2-.2a4 4 0 0 1-1.2-2.4c0-.8.2-1.5.6-2l14.8-14.7 2.1 2.1zM23.1 26.6l5 3.3-2.5 2.4-3.3-5 .8-.7z"/></svg>