<svg height="32" width="32" xmlns="http://www.w3.org/2000/svg"><path d="M0 19c0-2.2172 1.2075-4.1584 3.0021-5.197C3.107 8.9234 7.0953 5 12 5c3.2335 0 6.0687 1.7052 7.6555 4.2654A6.5016 6.5016 0 0 1 21.5 9c2.7846 0 5.1602 1.751 6.0858 4.2119C30.1297 13.9075 32 16.2354 32 19c0 3.307-2.6864 6-6.0002 6H6.0002C2.687 25 0 22.3137 0 19zm25.9725-4c-.2487-2.25-2.1562-4-4.4725-4a4.481 4.481 0 0 0-2.7974.975C17.8341 9.0962 15.1618 7 12 7c-3.866 0-7 3.134-7 7 0 .3758.0296.7447.0866 1.1044C3.3178 15.5176 2 17.1081 2 19c0 2.2091 1.7941 4 3.9968 4h20.0064C28.2106 23 30 21.2046 30 19c0-2.2091-1.7941-4-3.9968-4zm0 0" fill="#000" fill-rule="evenodd"/></svg>