<?xml version="1.0" ?><svg viewBox="0 0 50 50" xmlns="http://www.w3.org/2000/svg"><path d="M25 1a24 24 0 1 0 0 48 24 24 0 0 0 0-48zm20 14.7L36.5 19a13 13 0 0 0-5.7-5.7l3.4-8.3C39 7.3 42.7 11 45 15.7zM25 36a11 11 0 1 1 0-22 11 11 0 0 1 0 22zm7.5-31.7L29 12.6a13 13 0 0 0-8 0l-3.5-8.3a22 22 0 0 1 15 0zm-16.8.8l3.4 8.3a13 13 0 0 0-5.7 5.7l-8.3-3.4C7.3 11 11 7.3 15.7 5zM4.3 17.5l8.3 3.5a13 13 0 0 0 0 8l-8.3 3.5a22 22 0 0 1 0-15zm.8 16.8l8.3-3.4a13 13 0 0 0 5.7 5.7l-3.4 8.3C11 42.7 7.3 39 5 34.3zm12.4 11.4l3.5-8.3a13 13 0 0 0 8 0l3.5 8.3a22 22 0 0 1-15 0zm16.8-.8L31 36.6a13 13 0 0 0 5.7-5.7l8.3 3.4C42.7 39 39 42.7 34.3 45zm11.4-12.4L37.4 29a13 13 0 0 0 0-8l8.3-3.5a22 22 0 0 1 0 15z"/></svg>