<svg height="56.69" width="56.69" xmlns="http://www.w3.org/2000/svg"><path d="M28.35 5.16a24.63 24.63 0 1 0 0 49.25 24.63 24.63 0 0 0 0-49.25zm12.4 19.66c.02.26.02.53.02.8 0 8.2-6.24 17.66-17.66 17.66-3.5 0-6.76-1.03-9.5-2.8a12.45 12.45 0 0 0 9.19-2.57 6.21 6.21 0 0 1-5.8-4.3 6.06 6.06 0 0 0 2.8-.1 6.21 6.21 0 0 1-4.98-6.1v-.07c.83.46 1.79.74 2.8.77a6.2 6.2 0 0 1-1.91-8.28A17.62 17.62 0 0 0 28.5 26.3a6.21 6.21 0 0 1 10.57-5.66 12.4 12.4 0 0 0 3.94-1.5 6.22 6.22 0 0 1-2.73 3.43 12.4 12.4 0 0 0 3.57-.98 12.54 12.54 0 0 1-3.1 3.22z"/></svg>