<?xml version="1.0" ?><!DOCTYPE svg  PUBLIC '-//W3C//DTD SVG 1.1//EN'  'http://www.w3.org/Graphics/SVG/1.1/DTD/svg11.dtd'><svg enable-background="new 0 0 64 64" height="64px" id="Layer_1" version="1.1" viewBox="0 0 64 64" width="64px" xml:space="preserve" xmlns="http://www.w3.org/2000/svg" xmlns:xlink="http://www.w3.org/1999/xlink"><path d="M32,7.174C18.311,7.174,7.174,18.311,7.174,32c0,13.689,11.137,24.826,24.826,24.826c13.689,0,24.826-11.137,24.826-24.826  C56.826,18.311,45.689,7.174,32,7.174z M38.174,32.874h-4.039c0,6.453,0,14.398,0,14.398h-5.985c0,0,0-7.868,0-14.398h-2.845v-5.088  h2.845v-3.291c0-2.357,1.12-6.04,6.04-6.04l4.433,0.017v4.939c0,0-2.695,0-3.219,0c-0.524,0-1.268,0.262-1.268,1.386v2.99h4.56  L38.174,32.874z"/></svg>