<svg xmlns="http://www.w3.org/2000/svg" width="100" height="74" viewBox="0 0 512 512"><path d="M256 0C114.615 0 0 114.615 0 256s114.615 256 256 256 256-114.615 256-256S397.385 0 256 0zm-96 256c0-53.02 42.98-96 96-96s96 42.98 96 96-42.98 96-96 96-96-42.98-96-96zm302.99 85.738l-88.71-36.745C380.539 289.901 384 273.355 384 256s-3.461-33.901-9.72-48.993l88.71-36.745C473.944 196.673 480 225.627 480 256s-6.057 59.327-17.01 85.738zM341.739 49.01l-36.745 88.71C289.902 131.461 273.356 128 256 128s-33.901 3.461-48.993 9.72l-36.745-88.711C196.673 38.057 225.628 32 256 32c30.373 0 59.327 6.057 85.739 17.01zM49.01 170.262l88.711 36.745C131.462 222.099 128 238.645 128 256s3.461 33.901 9.72 48.993l-88.71 36.745C38.057 315.327 32 286.373 32 256s6.057-59.327 17.01-85.738zM170.262 462.99l36.745-88.71C222.099 380.539 238.645 384 256 384s33.901-3.461 48.993-9.72l36.745 88.71C315.327 473.942 286.373 480 256 480s-59.327-6.057-85.738-17.01z" fill="#DDD"/></svg>