<svg xmlns="http://www.w3.org/2000/svg" width="100" height="74" viewBox="0 0 512 512"><path d="M488 384h-8V280c0-30.878-25.121-56-56-56H288v-64h8c13.2 0 24-10.8 24-24V56c0-13.2-10.8-24-24-24h-80c-13.2 0-24 10.8-24 24v80c0 13.2 10.8 24 24 24h8v64H88c-30.878 0-56 25.122-56 56v104h-8c-13.2 0-24 10.8-24 24v80c0 13.2 10.8 24 24 24h80c13.2 0 24-10.8 24-24v-80c0-13.2-10.8-24-24-24h-8v-96h128v96h-8c-13.2 0-24 10.8-24 24v80c0 13.2 10.8 24 24 24h80c13.2 0 24-10.8 24-24v-80c0-13.2-10.8-24-24-24h-8v-96h128v96h-8c-13.2 0-24 10.8-24 24v80c0 13.2 10.8 24 24 24h80c13.2 0 24-10.8 24-24v-80c0-13.2-10.8-24-24-24zM96 480H32v-64h64v64zm192 0h-64v-64h64v64zm-64-352V64h64v64h-64zm256 352h-64v-64h64v64z" fill="#DDD"/></svg>