<!-- Generated by IcoMoon.io -->
<svg version="1.1" xmlns="http://www.w3.org/2000/svg" width="500" height="450" viewBox="0 0 768 768">
<title></title>
<g id="icomoon-ignore">
</g>
<path fill="#DDD" d="M416 448h-256c-89.6 0-160 70.4-160 160v64c0 19.2 12.8 32 32 32s32-12.8 32-32v-64c0-54.4 41.6-96 96-96h256c54.4 0 96 41.6 96 96v64c0 19.2 12.8 32 32 32s32-12.8 32-32v-64c0-89.6-70.4-160-160-160z"></path>
<path fill="#DDD" d="M288 384c89.6 0 160-70.4 160-160s-70.4-160-160-160-160 70.4-160 160 70.4 160 160 160zM288 128c54.4 0 96 41.6 96 96s-41.6 96-96 96-96-41.6-96-96 41.6-96 96-96z"></path>
<path fill="#DDD" d="M646.4 454.4c-16-3.2-35.2 6.4-38.4 22.4s6.4 35.2 22.4 38.4c41.6 9.6 70.4 48 70.4 92.8v64c0 19.2 12.8 32 32 32s32-12.8 32-32v-64c3.2-73.6-44.8-137.6-118.4-153.6z"></path>
<path fill="#DDD" d="M518.4 70.4c-16-6.4-32 3.2-38.4 22.4-3.2 16 6.4 35.2 22.4 38.4 51.2 12.8 83.2 64 70.4 118.4-9.6 35.2-35.2 60.8-70.4 70.4-16 3.2-28.8 22.4-22.4 38.4 3.2 16 16 25.6 32 25.6 3.2 0 6.4 0 6.4 0 57.6-16 102.4-57.6 115.2-115.2 22.4-89.6-28.8-179.2-115.2-198.4z"></path>
</svg>
