<svg xmlns="http://www.w3.org/2000/svg" width="500" height="450" viewBox="0 0 768 768"><path fill="#DDD" d="M416 448H160C70.4 448 0 518.4 0 608v64c0 19.2 12.8 32 32 32s32-12.8 32-32v-64c0-54.4 41.6-96 96-96h256c54.4 0 96 41.6 96 96v64c0 19.2 12.8 32 32 32s32-12.8 32-32v-64c0-89.6-70.4-160-160-160zM288 384c89.6 0 160-70.4 160-160S377.6 64 288 64s-160 70.4-160 160 70.4 160 160 160zm0-256c54.4 0 96 41.6 96 96s-41.6 96-96 96-96-41.6-96-96 41.6-96 96-96zM646.4 454.4c-16-3.2-35.2 6.4-38.4 22.4s6.4 35.2 22.4 38.4c41.6 9.6 70.4 48 70.4 92.8v64c0 19.2 12.8 32 32 32s32-12.8 32-32v-64c3.2-73.6-44.8-137.6-118.4-153.6zM518.4 70.4c-16-6.4-32 3.2-38.4 22.4-3.2 16 6.4 35.2 22.4 38.4 51.2 12.8 83.2 64 70.4 118.4-9.6 35.2-35.2 60.8-70.4 70.4-16 3.2-28.8 22.4-22.4 38.4 3.2 16 16 25.6 32 25.6h6.4c57.6-16 102.4-57.6 115.2-115.2C656 179.2 604.8 89.6 518.4 70.4z"/></svg>