<?xml version="1.0"?>
<svg xmlns="http://www.w3.org/2000/svg" height="512px" viewBox="0 -8 448 448" width="512px"><path d="m320 176h48v32h-48zm0 0" fill="#dddddd"/><path d="m0 312c0 4.417969 3.582031 8 8 8h432c4.417969 0 8-3.582031 8-8v-40h-448zm384-24h32v16h-32zm0 0" fill="#dddddd"/><path d="m167.0625 336-6 48h125.875l-6-48zm0 0" fill="#dddddd"/><path d="m184 48h80v48h-80zm0 0" fill="#dddddd"/><path d="m304 400h-160v16h-48v16h256v-16h-48zm0 0" fill="#dddddd"/><path d="m80 176h48v32h-48zm0 0" fill="#dddddd"/><path d="m200 176h48v32h-48zm0 0" fill="#dddddd"/><path d="m8 0c-4.417969 0-8 3.582031-8 8v248h448v-248c0-4.417969-3.582031-8-8-8zm376 216c0 4.417969-3.582031 8-8 8h-64c-4.417969 0-8-3.582031-8-8v-48c0-4.417969 3.582031-8 8-8h24v-16h-104v16h24c4.417969 0 8 3.582031 8 8v48c0 4.417969-3.582031 8-8 8h-64c-4.417969 0-8-3.582031-8-8v-48c0-4.417969 3.582031-8 8-8h24v-16h-104v16h24c4.417969 0 8 3.582031 8 8v48c0 4.417969-3.582031 8-8 8h-64c-4.417969 0-8-3.582031-8-8v-48c0-4.417969 3.582031-8 8-8h24v-24c0-4.417969 3.582031-8 8-8h112v-16h-40c-4.417969 0-8-3.582031-8-8v-64c0-4.417969 3.582031-8 8-8h96c4.417969 0 8 3.582031 8 8v64c0 4.417969-3.582031 8-8 8h-40v16h112c4.417969 0 8 3.582031 8 8v24h24c4.417969 0 8 3.582031 8 8zm0 0" fill="#dddddd"/></svg>
