<svg xmlns="http://www.w3.org/2000/svg" height="512" viewBox="0 -8 448 448" width="512"><path d="M320 176h48v32h-48zm0 0M0 312a8 8 0 0 0 8 8h432a8 8 0 0 0 8-8v-40H0zm384-24h32v16h-32zm0 0M167.063 336l-6 48h125.875l-6-48zm0 0M184 48h80v48h-80zm0 0M304 400H144v16H96v16h256v-16h-48zm0 0M80 176h48v32H80zm0 0M200 176h48v32h-48zm0 0" fill="#ddd"/><path d="M8 0a8 8 0 0 0-8 8v248h448V8a8 8 0 0 0-8-8zm376 216a8 8 0 0 1-8 8h-64a8 8 0 0 1-8-8v-48a8 8 0 0 1 8-8h24v-16H232v16h24a8 8 0 0 1 8 8v48a8 8 0 0 1-8 8h-64a8 8 0 0 1-8-8v-48a8 8 0 0 1 8-8h24v-16H112v16h24a8 8 0 0 1 8 8v48a8 8 0 0 1-8 8H72a8 8 0 0 1-8-8v-48a8 8 0 0 1 8-8h24v-24a8 8 0 0 1 8-8h112v-16h-40a8 8 0 0 1-8-8V40a8 8 0 0 1 8-8h96a8 8 0 0 1 8 8v64a8 8 0 0 1-8 8h-40v16h112a8 8 0 0 1 8 8v24h24a8 8 0 0 1 8 8zm0 0" fill="#ddd"/></svg>