<?xml version="1.0"?>
<svg xmlns="http://www.w3.org/2000/svg" height="512px" viewBox="0 0 512 512" width="512px"><path d="m481.992188 405.699219c0 .101562.007812.199219.007812.300781 0 41.90625-34.09375 76-76 76-.101562 0-.199219-.007812-.300781-.007812-12.777344 8.503906-26.195313 15.867187-40.136719 22.027343 12.683594 5.25 26.328125 7.980469 40.4375 7.980469 58.449219 0 106-47.550781 106-106 0-14.109375-2.730469-27.753906-7.980469-40.4375-6.160156 13.941406-13.523437 27.359375-22.027343 40.136719zm0 0" fill="#dddddd"/><path d="m106 482c-41.90625 0-76-34.09375-76-76 0-.101562.007812-.199219.007812-.300781-8.503906-12.777344-15.867187-26.195313-22.027343-40.136719-5.25 12.683594-7.980469 26.328125-7.980469 40.4375 0 58.449219 47.550781 106 106 106 14.109375 0 27.753906-2.730469 40.4375-7.980469-13.941406-6.160156-27.359375-13.523437-40.136719-22.027343-.101562 0-.199219.007812-.300781.007812zm0 0" fill="#dddddd"/><path d="m30.007812 106.300781c0-.101562-.007812-.199219-.007812-.300781 0-41.90625 34.09375-76 76-76 .101562 0 .199219.007812.300781.007812 12.777344-8.503906 26.195313-15.867187 40.136719-22.027343-12.683594-5.25-26.328125-7.980469-40.4375-7.980469-58.449219 0-106 47.550781-106 106 0 14.109375 2.730469 27.753906 7.980469 40.4375 6.160156-13.941406 13.523437-27.359375 22.027343-40.136719zm0 0" fill="#dddddd"/><path d="m406 30c41.90625 0 76 34.09375 76 76 0 .101562-.007812.199219-.007812.300781 8.503906 12.777344 15.867187 26.195313 22.027343 40.136719 5.25-12.683594 7.980469-26.328125 7.980469-40.4375 0-58.449219-47.550781-106-106-106-14.109375 0-27.753906 2.730469-40.4375 7.980469 13.941406 6.160156 27.359375 13.523437 40.136719 22.027343.101562 0 .199219-.007812.300781-.007812zm0 0" fill="#dddddd"/><path d="m75.320312 96.535156c-34.4375 38.988282-56.449218 89.207032-59.84375 144.464844h135.585938c2.558594-18.0625 9.664062-34.660156 20.128906-48.59375zm0 0" fill="#dddddd"/><path d="m340.808594 319.59375 95.871094 95.871094c34.4375-38.988282 56.449218-89.207032 59.84375-144.464844h-135.585938c-2.558594 18.0625-9.664062 34.660156-20.128906 48.59375zm0 0" fill="#dddddd"/><path d="m15.476562 271c3.394532 55.257812 25.40625 105.476562 59.84375 144.464844l95.871094-95.871094c-10.464844-13.933594-17.570312-30.53125-20.128906-48.59375zm0 0" fill="#dddddd"/><path d="m192.40625 171.191406c13.933594-10.464844 30.53125-17.570312 48.59375-20.128906v-135.585938c-55.257812 3.394532-105.476562 25.40625-144.464844 59.84375zm0 0" fill="#dddddd"/><path d="m319.59375 340.808594c-13.933594 10.464844-30.53125 17.570312-48.59375 20.128906v135.582031c55.257812-3.394531 105.476562-25.402343 144.464844-59.839843zm0 0" fill="#dddddd"/><path d="m96.535156 436.679688c38.988282 34.4375 89.207032 56.449218 144.464844 59.84375v-135.585938c-18.0625-2.558594-34.660156-9.664062-48.59375-20.128906zm0 0" fill="#dddddd"/><path d="m415.464844 75.320312c-38.988282-34.4375-89.207032-56.449218-144.464844-59.84375v135.585938c18.0625 2.558594 34.660156 9.664062 48.59375 20.128906zm0 0" fill="#dddddd"/><path d="m436.679688 96.535156-95.871094 95.871094c10.464844 13.933594 17.570312 30.53125 20.128906 48.59375h135.582031c-3.390625-55.257812-25.402343-105.476562-59.839843-144.464844zm0 0" fill="#dddddd"/></svg>
