<svg xmlns="http://www.w3.org/2000/svg" height="512" width="512"><path d="M481.992 405.7c0 .1.008.198.008.3 0 41.906-34.094 76-76 76-.102 0-.2-.008-.3-.008a267.716 267.716 0 0 1-40.137 22.028C378.245 509.27 391.89 512 406 512c58.45 0 106-47.55 106-106 0-14.11-2.73-27.754-7.98-40.438a267.716 267.716 0 0 1-22.028 40.137zm0 0M106 482c-41.906 0-76-34.094-76-76 0-.102.008-.2.008-.3A267.716 267.716 0 0 1 7.98 365.562C2.73 378.245 0 391.89 0 406c0 58.45 47.55 106 106 106 14.11 0 27.754-2.73 40.438-7.98a267.716 267.716 0 0 1-40.137-22.028c-.102 0-.2.008-.301.008zm0 0M30.008 106.3c0-.1-.008-.198-.008-.3 0-41.906 34.094-76 76-76 .102 0 .2.008.3.008A267.716 267.716 0 0 1 146.439 7.98C133.754 2.73 120.108 0 106 0 47.55 0 0 47.55 0 106c0 14.11 2.73 27.754 7.98 40.438A267.716 267.716 0 0 1 30.008 106.3zm0 0M406 30c41.906 0 76 34.094 76 76 0 .102-.008.2-.008.3a267.716 267.716 0 0 1 22.028 40.138C509.27 133.754 512 120.108 512 106 512 47.55 464.45 0 406 0c-14.11 0-27.754 2.73-40.438 7.98A267.716 267.716 0 0 1 405.7 30.008c.102 0 .2-.008.301-.008zm0 0M75.32 96.535C40.883 135.523 18.871 185.742 15.477 241h135.585c2.56-18.063 9.665-34.66 20.13-48.594zm0 0M340.809 319.594l95.87 95.87c34.438-38.987 56.45-89.206 59.844-144.464H360.938c-2.56 18.063-9.665 34.66-20.13 48.594zm0 0M15.477 271c3.394 55.258 25.406 105.477 59.843 144.465l95.871-95.871c-10.464-13.934-17.57-30.531-20.129-48.594zm0 0M192.406 171.191c13.934-10.464 30.531-17.57 48.594-20.129V15.477C185.742 18.87 135.523 40.883 96.535 75.32zm0 0M319.594 340.809c-13.934 10.464-30.531 17.57-48.594 20.129V496.52c55.258-3.395 105.477-25.403 144.465-59.84zm0 0M96.535 436.68c38.988 34.437 89.207 56.449 144.465 59.843V360.937c-18.063-2.558-34.66-9.664-48.594-20.128zm0 0M415.465 75.32C376.477 40.883 326.258 18.871 271 15.477v135.585c18.063 2.56 34.66 9.665 48.594 20.13zm0 0M436.68 96.535l-95.871 95.871c10.464 13.934 17.57 30.531 20.128 48.594H496.52c-3.391-55.258-25.403-105.477-59.84-144.465zm0 0" fill="#ddd"/></svg>