<svg xmlns="http://www.w3.org/2000/svg" viewBox="0 0 486.924 486.924" width="512" height="512"><g fill="#ddd"><path d="M13.361 409.063c-17.814 17.814-17.814 46.663 0 64.477 8.907 8.907 20.58 13.345 32.254 13.345s23.347-4.438 32.254-13.345l149.717-149.748-64.508-64.447L13.361 409.063zM387.548 131.577l65.207-33.714 34.138-65.997L455.065.038l-65.967 34.169-33.774 65.146-79.312 79.403 32.163 32.224z"/><path d="M401.835 304.641l-6.141-.608c-11.126 0-21.675 2.28-31.524 5.928L177 122.761c3.648-9.849 5.928-20.398 5.928-31.524l-.608-6.141C179.098 37.642 140.004.038 91.73.038c-14.045 0-27.208 3.435-39.094 9.12l60.586 60.586c3.192 3.192 5.381 6.961 6.84 10.944 3.982 10.761 1.824 23.347-6.84 32.041a30.315 30.315 0 0 1-21.492 8.907c-3.587 0-7.144-.79-10.549-2.067-3.982-1.52-7.752-3.648-10.944-6.87L9.652 52.143C3.967 64.029.532 77.192.532 91.237c0 48.274 37.604 87.368 85.058 90.59l6.141.608c11.126 0 21.675-2.28 31.524-5.897l187.139 187.17c-3.587 9.849-5.867 20.398-5.867 31.524l.638 6.141c3.162 47.484 42.286 85.058 90.56 85.058 14.045 0 27.238-3.374 39.094-9.12l-60.586-60.586c-3.162-3.162-5.381-6.961-6.901-10.913-3.982-10.761-1.824-23.377 6.901-32.071 5.867-5.928 13.71-8.907 21.492-8.907 3.587 0 7.113.76 10.579 2.067 3.982 1.49 7.782 3.618 10.913 6.84l60.586 60.586c5.715-11.917 9.12-25.049 9.12-39.094-.03-48.276-37.634-87.37-85.088-90.592z"/></g></svg>