<svg width="1024" height="1024" xmlns="http://www.w3.org/2000/svg">
 <title/>

 <g>
  <title>background</title>
  <rect x="-1" y="-1" width="1026" height="1026" id="canvas_background" fill="none"/>
 </g>
 <g>
  <title>Layer 1</title>
  <g id="icomoon-ignore"/>
  <path fill="#000" d="m830.583,398.222l-7.945,0c19.417,-33.5 30.695,-72.277 30.695,-113.778c0,-125.668 -101.888,-227.556 -227.556,-227.556s-227.556,101.888 -227.556,227.556c-125.668,0 -227.556,101.888 -227.556,227.556c0,41.5 11.278,80.277 30.695,113.778l-7.945,0c-81.056,36.306 -136.528,114.069 -136.528,197.013l0,87.431c0,19.945 31.5,56.889 55.111,56.889l577.778,0c23.611,0 49.778,-36.944 49.778,-56.889l0,-87.431c0,-28.93 -7.111,-57.097 -19.333,-83.236l197.111,0c23.611,0 49.778,-36.944 49.778,-56.889l0,-87.431c0,-82.944 -55.472,-160.708 -136.528,-197.013l0.001,0zm-204.805,-227.555c62.722,0 113.778,51.042 113.778,113.778s-51.056,113.778 -113.778,113.778c-12,0 -23.362,-2.375 -34.222,-5.833c-18.556,-29.916 -43.806,-55.152 -73.723,-73.694c-3.444,-10.889 -5.833,-22.236 -5.833,-34.251c0,-62.736 51.056,-113.778 113.778,-113.778zm-227.556,227.555c62.834,0 113.778,50.944 113.778,113.778s-50.944,113.778 -113.778,113.778c-56.222,0 -102.667,-40.903 -111.833,-94.514c-1.223,-6.251 -1.945,-12.652 -1.945,-19.264c0,-62.834 50.944,-113.778 113.778,-113.778zm227.556,455.111l-455.111,0l0,-30.542c0,-30.875 20.277,-62.987 51.111,-83.236l352.889,0c30.834,20.251 51.111,52.361 51.111,83.236l0,30.542zm227.555,-227.555l-258.251,0c19.417,-33.5 30.695,-72.277 30.695,-113.778l176.444,0c30.834,20.251 51.111,52.361 51.111,83.236l0,30.542l0.001,0z" id="svg_1" opacity="0.05"/>
 </g>
</svg>