<!-- Generated by IcoMoon.io -->
<svg version="1.1" xmlns="http://www.w3.org/2000/svg" width="1024" height="1024" viewBox="0 0 1024 1024">
<title></title>
<g id="icomoon-ignore">
</g>
<path fill="#000" d="M160.512 352.768c47.77-37.12 87.398-11.52 140.288 49.715 5.939 6.912 13.926-1.178 18.483-5.12 4.506-3.994 74.291-66.816 77.722-69.683 3.379-3.021 7.475-8.653 2.099-14.95-5.478-6.298-25.293-32-38.042-48.691-92.57-121.088 253.235-203.213 200.141-204.493-27.034-0.717-135.475-1.997-151.706-0.205-65.69 6.912-148.173 68.301-189.696 96.922-54.323 37.171-74.598 58.982-77.926 62.003-15.36 13.414-2.458 44.39-30.31 68.813-29.44 25.754-47.821 6.246-64.87 21.197-8.448 7.475-32.102 25.19-38.861 31.078-6.81 5.99-8.038 16.077-1.075 24.115 0 0 64.717 71.475 70.144 77.824 5.376 6.246 20.019 11.674 29.030 3.635 9.062-7.987 32.358-28.314 36.25-31.898 3.994-3.379-2.56-44.083 18.33-60.262zM452.762 379.238c-6.144-7.117-13.773-7.322-20.326-1.485l-73.421 64.102c-5.786 5.12-6.605 14.49-1.382 20.48l424.653 483.277c9.933 11.418 27.136 12.595 38.451 2.714l49.664-41.626c11.366-9.984 12.544-27.29 2.662-38.81l-420.301-488.653zM1018.982 173.568c-3.789-25.293-16.896-20.019-23.706-9.318-6.81 10.803-36.915 56.422-49.306 77.107-12.288 20.48-42.598 60.979-99.021 20.992-58.778-41.523-38.349-70.502-28.109-90.010 10.291-19.61 41.882-74.598 46.438-81.408 4.557-6.912-0.768-26.982-18.995-18.586-18.278 8.397-129.178 52.48-144.538 115.712-15.718 64.307 13.158 121.805-43.52 178.893l-68.762 71.68 69.069 80.179 84.685-80.384c20.173-20.275 63.283-39.987 102.298-31.078 83.61 18.893 129.229-12.493 156.723-64.41 24.678-46.387 20.582-144.077 16.742-169.37zM140.237 873.114c-10.65 10.701-10.65 28.109 0 38.81l48.691 47.616c10.65 10.701 27.546 6.195 38.195-4.506l251.238-246.989-76.954-87.757-261.171 252.826z"></path>
</svg>
