<?xml version="1.0" encoding="iso-8859-1"?>
<!-- Generator: Adobe Illustrator 19.0.0, SVG Export Plug-In . SVG Version: 6.00 Build 0)  -->
<svg xmlns="http://www.w3.org/2000/svg" xmlns:xlink="http://www.w3.org/1999/xlink" version="1.1" id="Capa_1" x="0px" y="0px" viewBox="0 0 489.1 489.1" style="enable-background:new 0 0 489.1 489.1;" xml:space="preserve" width="512px" height="512px">
<g>
	<g>
		<path d="M12.25,215.7h191.2c6.8,0,12.3-5.5,12.3-12.3V12.3c0-6.8-5.5-12.3-12.3-12.3C91.25,0,0.05,91.2,0.05,203.4    C0.05,210.3,5.55,215.7,12.25,215.7z M191.15,25v166.2H24.95C30.95,102.3,102.25,31,191.15,25z" fill="#777777"/>
		<path d="M44.45,266.8c0,122.6,99.7,222.3,222.3,222.3s222.3-99.7,222.3-222.3s-99.7-222.3-222.3-222.3c-6.8,0-12.3,5.5-12.3,12.3    v197.8H56.75C49.95,254.6,44.45,260.1,44.45,266.8z M266.75,279.1c6.8,0,12.3-5.5,12.3-12.3V69.4    c103.4,6.3,185.5,92.5,185.5,197.4c0,109.1-88.7,197.8-197.8,197.8c-105,0-191.1-82.2-197.4-185.5H266.75z" fill="#777777"/>
	</g>
</g>
<g>
</g>
<g>
</g>
<g>
</g>
<g>
</g>
<g>
</g>
<g>
</g>
<g>
</g>
<g>
</g>
<g>
</g>
<g>
</g>
<g>
</g>
<g>
</g>
<g>
</g>
<g>
</g>
<g>
</g>
</svg>
