<svg xmlns="http://www.w3.org/2000/svg" xmlns:xlink="http://www.w3.org/1999/xlink" width="584" height="423" viewBox="0 0 584 423"><defs><path id="ny1ga" d="M223.597 2110.806c0-73.999 60.147-134.206 134.078-134.206 73.932 0 134.079 60.207 134.079 134.206 0 74.001-60.147 134.207-134.079 134.207-73.931 0-134.078-60.206-134.078-134.207zm46.413 0c0 48.388 39.326 87.748 87.665 87.748 48.34 0 87.666-39.36 87.666-87.748 0-48.386-39.326-87.746-87.666-87.746-48.34 0-87.665 39.36-87.665 87.746zm313.976 264.625c0 12.829-10.392 23.23-23.207 23.23H154.578c-12.816 0-23.207-10.401-23.207-23.23 0-67.773 126.209-113.143 164.888-125.428 7.586-2.427 15.91-.76 22.011 4.402l39.405 33.382 39.417-33.382a23.146 23.146 0 0 1 22.005-4.402c38.68 12.285 164.889 57.655 164.889 125.428zm-62.425-23.23c-22.068-18.68-63.728-39.62-104.458-53.889l-44.442 37.635c-8.646 7.328-21.32 7.328-29.977 0l-44.43-37.635c-40.73 14.27-82.396 35.208-104.458 53.89zm193.455-15.063c0 9.618-7.791 17.423-17.405 17.423h-86.419c-9.614 0-17.405-7.805-17.405-17.423 0-9.63 7.79-17.422 17.405-17.422h61.87c-12.34-16.595-37.672-32.939-51.87-40.018-8.595-4.288-12.108-14.744-7.836-23.353 4.278-8.609 14.714-12.126 23.309-7.861 8.017 3.981 78.35 40.256 78.35 88.654zm-111.291-171.762c0-29.422-23.92-53.367-53.326-53.367a53.07 53.07 0 0 0-20.758 4.197c-8.84 3.743-19.066-.408-22.805-9.278-3.74-8.86.408-19.079 9.263-22.822 10.885-4.605 22.425-6.94 34.3-6.94 48.6 0 88.136 39.573 88.136 88.21 0 48.66-39.536 88.234-88.136 88.234-23.546 0-45.677-9.175-62.322-25.837-6.793-6.806-6.793-17.842.005-24.648 6.8-6.795 17.819-6.795 24.618.01 10.067 10.085 23.455 15.631 37.7 15.631 29.404 0 53.325-23.944 53.325-53.39z"/></defs><g><g transform="translate(-131 -1976)"><use fill="#f8f8f8" xlink:href="#ny1ga"/></g></g></svg>