<svg version="1.1" xmlns="http://www.w3.org/2000/svg" xmlns:xlink="http://www.w3.org/1999/xlink" width="44" height="31"><defs/><g><path fill="rgb(119,119,119)" stroke="none" paint-order="stroke fill markers" fill-rule="evenodd" d=" M 36.137442111968994 12.930184006690979 C 36.25535202026367 11.007762551307678 35.759846687316895 9.266969561576843 34.687809467315674 7.914099097251892 C 33.44754409790039 6.348955035209656 31.55022096633911 5.451650619506836 29.482666969299316 5.451650619506836 C 28.185407638549805 5.451650619506836 26.914183616638184 5.804817080497742 25.77063274383545 6.467798352241516 C 23.63832426071167 3.4806454181671143 20.6324143409729 1.8030112981796265 17.305068492889404 1.8030112981796265 C 14.016191482543945 1.8030112981796265 10.854236602783203 3.4855037927627563 9.052876949310303 6.1927396059036255 C 7.599071979522705 8.378634452819824 7.174663066864014 10.927412509918213 7.805602073669434 13.51094663143158 C 2.8044862747192383 15.700204968452454 1.4873666763305664 19.858973622322083 1.9552512168884277 22.97057569026947 C 2.5548977851867676 26.96004867553711 5.790452480316162 29.856013655662537 9.643594741821289 29.856013655662537 C 9.791545391082764 29.856013655662537 24.557904720306396 29.90310251712799 33.50395393371582 29.90310251712799 C 39.38810062408447 29.90310251712799 42.36263465881348 25.77049434185028 42.636255741119385 21.93013608455658 C 42.887513160705566 18.405945897102356 40.93127679824829 14.319679141044617 36.137442111968994 12.930184006690979 Z M 39.31450080871582 21.693196892738342 C 39.14134931564331 24.12088930606842 37.27740478515625 26.571004986763 33.50395393371582 26.571004986763 C 24.563161849975586 26.571004986763 9.802059650421143 26.523916125297546 9.648851871490479 26.523916125297546 C 7.1592254638671875 26.523916125297546 5.5506272315979 24.486762285232544 5.248133659362793 22.475021481513977 C 4.817633152008057 19.60970163345337 6.734816551208496 17.229471802711487 10.376505374908447 16.10868215560913 C 10.825697898864746 15.970405340194702 11.195282459259033 15.648257732391357 11.394469261169434 15.222589373588562 C 11.594073295593262 14.796547293663025 11.604253768920898 14.306598901748657 11.422924518585205 13.873082399368286 C 10.557000160217285 11.802667379379272 10.69969367980957 9.730757474899292 11.82496976852417 8.039295673370361 C 13.016919612884521 6.248050332069397 15.116683959960938 5.135108828544617 17.305068492889404 5.135108828544617 C 19.96776294708252 5.135108828544617 22.289912223815918 6.747715473175049 23.843602657318115 9.676194190979004 C 24.089602947235107 10.13923466205597 24.53962993621826 10.459513664245605 25.057916164398193 10.540984869003296 C 25.5746169090271 10.621334910392761 26.10191535949707 10.45390784740448 26.477508068084717 10.086913704872131 C 27.338175296783447 9.246788620948792 28.40528917312622 8.783748149871826 29.482666969299316 8.783748149871826 C 30.527417182922363 8.783748149871826 31.47378396987915 9.221375584602356 32.07827043533325 9.984514117240906 C 32.82144498825073 10.92255413532257 33.01696014404297 12.258980870246887 32.64462184906006 13.850285410881042 C 32.538060665130615 14.305851459503174 32.62751531600952 14.784214496612549 32.89095592498779 15.169894695281982 C 33.15397930145264 15.5563223361969 33.56745672225952 15.813442468643188 34.02958345413208 15.879964828491211 C 37.926618576049805 16.43867790699005 39.49215841293335 19.202345609664917 39.31450080871582 21.693196892738342 Z M 16.710261821746826 6.806763410568237 C 13.28361463546753 7.109477519989014 12.2376127243042 9.844368696212769 12.370543003082275 11.609079837799072 C 12.428287982940674 12.374460697174072 13.066904067993164 12.957091927528381 13.821928024291992 12.957091927528381 C 13.858811378479004 12.957091927528381 13.895861625671387 12.955597043037415 13.933329105377197 12.952980995178223 C 14.735333442687988 12.892064452171326 15.336982727050781 12.192458510398865 15.276400566101074 11.389331817626953 C 15.249614238739014 11.033175587654114 15.291921615600586 9.859317541122437 16.96635913848877 9.710950255393982 C 17.76761245727539 9.6403169631958 18.36033296585083 8.933610320091248 18.289653778076172 8.13123106956482 C 18.219308376312256 7.329225540161133 17.51276683807373 6.7320191860198975 16.710261821746826 6.806763410568237 Z"/></g></svg>