<svg version="1.1" xmlns="http://www.w3.org/2000/svg" xmlns:xlink="http://www.w3.org/1999/xlink" width="32" height="32"><defs/><g><path fill="rgb(119,119,119)" stroke="none" paint-order="stroke fill markers" fill-rule="evenodd" d=" M 30.030782222747803 13.311097741127014 C 29.920382499694824 12.882065892219543 29.560227394104004 12.563655495643616 29.121131896972656 12.506102442741394 C 29.121131896972656 12.506102442741394 26.748414039611816 12.195540189743042 26.748414039611816 12.195540189743042 C 26.69734477996826 12.057637095451355 26.661295890808105 11.964954257011414 26.6567063331604 11.953742623329163 C 26.6567063331604 11.953742623329163 26.616568565368652 11.857322573661804 26.616568565368652 11.857322573661804 C 26.616568565368652 11.857322573661804 26.579601764678955 11.773609042167664 26.520938873291016 11.645796418190002 C 26.520938873291016 11.645796418190002 27.978832721710205 9.748787999153137 27.978832721710205 9.748787999153137 C 28.248698711395264 9.39749014377594 28.27815532684326 8.917632222175598 28.05293321609497 8.536436676979065 C 28.028149604797363 8.493832468986511 27.428419589996338 7.489643812179565 26.09118938446045 6.151722192764282 C 24.754042625427246 4.814174294471741 23.748762607574463 4.214725613594055 23.706705570220947 4.189686298370361 C 23.32510471343994 3.9647061824798584 22.845454216003418 3.9934827089309692 22.494478225708008 4.264430522918701 C 22.494478225708008 4.264430522918701 20.597739219665527 5.72231662273407 20.597739219665527 5.72231662273407 C 20.47006607055664 5.663642406463623 20.38686990737915 5.626644015312195 20.38686990737915 5.626644015312195 C 20.375688076019287 5.621785640716553 20.36442279815674 5.616927266120911 20.35299062728882 5.6120688915252686 C 20.35299062728882 5.6120688915252686 20.264286994934082 5.576191663742065 20.264286994934082 5.576191663742065 C 20.264286994934082 5.576191663742065 20.17925500869751 5.543677926063538 20.04732608795166 5.494720458984375 C 20.04732608795166 5.494720458984375 19.737155437469482 3.121591329574585 19.737155437469482 3.121591329574585 C 19.67966079711914 2.68284273147583 19.361062049865723 2.322575569152832 18.932230472564697 2.211954116821289 C 18.88474941253662 2.1999950408935547 17.74996042251587 1.913724660873413 15.859062671661377 1.913724660873413 C 13.9674973487854 1.913724660873413 12.832708358764648 2.1999950408935547 12.785227298736572 2.211954116821289 C 12.356395721435547 2.322575569152832 12.037796974182129 2.68284273147583 11.980302333831787 3.121591329574585 C 11.980302333831787 3.121591329574585 11.67013168334961 5.494720458984375 11.67013168334961 5.494720458984375 C 11.533946990966797 5.545172810554504 11.442573070526123 5.580676317214966 11.43381118774414 5.584039807319641 C 11.43381118774414 5.584039807319641 11.36112928390503 5.613563776016235 11.36112928390503 5.613563776016235 C 11.35119915008545 5.618422150611877 11.341519355773926 5.622533082962036 11.331839561462402 5.626644015312195 C 11.331839561462402 5.626644015312195 11.24830961227417 5.663642406463623 11.120302677154541 5.72231662273407 C 11.120302677154541 5.72231662273407 9.223229885101318 4.263683080673218 9.223229885101318 4.263683080673218 C 8.872253894805908 3.9934827089309692 8.392019271850586 3.9650799036026 8.011002540588379 4.189686298370361 C 7.969028949737549 4.214725613594055 6.9643330574035645 4.814174294471741 5.625934600830078 6.152095913887024 C 4.289038181304932 7.489643812179565 3.6893081665039062 8.493832468986511 3.664524555206299 8.536436676979065 C 3.439302444458008 8.917632222175598 3.4686756134033203 9.39749014377594 3.7386250495910645 9.749161720275879 C 3.7386250495910645 9.749161720275879 5.196852684020996 11.645796418190002 5.196852684020996 11.645796418190002 C 5.138106346130371 11.773235321044922 5.101222991943359 11.856948852539062 5.101222991943359 11.856948852539062 C 5.101222991943359 11.856948852539062 5.106062889099121 11.85844373703003 5.106062889099121 11.85844373703003 C 5.085785388946533 11.896937012672424 5.0676774978637695 11.936177730560303 5.051906108856201 11.97728705406189 C 5.051906108856201 11.97728705406189 5.018610954284668 12.062869191169739 4.968960285186768 12.195540189743042 C 4.968960285186768 12.195540189743042 2.59657621383667 12.506102442741394 2.59657621383667 12.506102442741394 C 2.157564163208008 12.563655495643616 1.7974090576171875 12.882065892219543 1.6869258880615234 13.311097741127014 C 1.6749095916748047 13.35856032371521 1.3883543014526367 14.493177652359009 1.3880205154418945 16.384206533432007 C 1.3880205154418945 18.27635657787323 1.6749095916748047 19.410226464271545 1.6869258880615234 19.458436489105225 C 1.7977428436279297 19.886720895767212 2.1578145027160645 20.20513129234314 2.59657621383667 20.26231062412262 C 2.59657621383667 20.26231062412262 4.968960285186768 20.573246598243713 4.968960285186768 20.573246598243713 C 5.020112991333008 20.709654808044434 5.05549430847168 20.800842761993408 5.058915615081787 20.80981206893921 C 5.058915615081787 20.80981206893921 5.088539123535156 20.8823139667511 5.088539123535156 20.8823139667511 C 5.092711448669434 20.892030715942383 5.0969672203063965 20.90249490737915 5.101222991943359 20.911837935447693 C 5.101222991943359 20.911837935447693 5.138106346130371 20.995551466941833 5.196852684020996 21.122990369796753 C 5.196852684020996 21.122990369796753 3.7386250495910645 23.019998788833618 3.7386250495910645 23.019998788833618 C 3.4684252738952637 23.371296644210815 3.439302444458008 23.8515282869339 3.664524555206299 24.232723832130432 C 3.6893081665039062 24.274580597877502 4.289371967315674 25.27914297580719 5.625934600830078 26.61669087409973 C 6.963415145874023 27.954986214637756 7.9692792892456055 28.5540611743927 8.011336326599121 28.578726768493652 C 8.392353057861328 28.804080605506897 8.872253894805908 28.77418291568756 9.223229885101318 28.504356265068054 C 9.223229885101318 28.504356265068054 11.119968891143799 27.046470165252686 11.119968891143799 27.046470165252686 C 11.24830961227417 27.105518102645874 11.331839561462402 27.14214277267456 11.331839561462402 27.14214277267456 C 11.341519355773926 27.14625370502472 11.35119915008545 27.150364637374878 11.36112928390503 27.154475569725037 C 11.36112928390503 27.154475569725037 11.452586650848389 27.191847681999207 11.452586650848389 27.191847681999207 C 11.452586650848389 27.191847681999207 11.537868976593018 27.225108861923218 11.67013168334961 27.27406632900238 C 11.67013168334961 27.27406632900238 11.98063611984253 29.64719545841217 11.98063611984253 29.64719545841217 C 12.038047313690186 30.085570335388184 12.356979846954346 30.446211218833923 12.785811424255371 30.556832671165466 C 12.833292484283447 30.5687917470932 13.9674973487854 30.855062127113342 15.859062671661377 30.855062127113342 C 17.74996042251587 30.855062127113342 18.88474941253662 30.5687917470932 18.932230472564697 30.556832671165466 C 19.361062049865723 30.446211218833923 19.67966079711914 30.085570335388184 19.737155437469482 29.64719545841217 C 19.737155437469482 29.64719545841217 20.04732608795166 27.27406632900238 20.04732608795166 27.27406632900238 C 20.184428691864014 27.222866535186768 20.27705430984497 27.187736749649048 20.287652015686035 27.182878375053406 C 20.287652015686035 27.182878375053406 20.38628578186035 27.14214277267456 20.38628578186035 27.14214277267456 C 20.38628578186035 27.14214277267456 20.4697322845459 27.105518102645874 20.597739219665527 27.046470165252686 C 20.597739219665527 27.046470165252686 22.494144439697266 28.504356265068054 22.494144439697266 28.504356265068054 C 22.84578800201416 28.775304079055786 23.326356410980225 28.804080605506897 23.70703935623169 28.57835304737091 C 23.74934673309326 28.55368745326996 24.753458499908447 27.95349133014679 26.09152317047119 26.61669087409973 C 27.428085803985596 25.27914297580719 28.028149604797363 24.274580597877502 28.05293321609497 24.232723832130432 C 28.27815532684326 23.8515282869339 28.249032497406006 23.371296644210815 27.979166507720947 23.019998788833618 C 27.979166507720947 23.019998788833618 26.520938873291016 21.122990369796753 26.520938873291016 21.122990369796753 C 26.579267978668213 20.995177745819092 26.616568565368652 20.91146421432495 26.616568565368652 20.91146421432495 C 26.62074089050293 20.901373744010925 26.624996662139893 20.892030715942383 26.628918647766113 20.8823139667511 C 26.628918647766113 20.8823139667511 26.666135787963867 20.791126012802124 26.666135787963867 20.791126012802124 C 26.666135787963867 20.791126012802124 26.699180603027344 20.705543875694275 26.748414039611816 20.573246598243713 C 26.748414039611816 20.573246598243713 29.121131896972656 20.26231062412262 29.121131896972656 20.26231062412262 C 29.560227394104004 20.20513129234314 29.920382499694824 19.886720895767212 30.030782222747803 19.45768904685974 C 30.042881965637207 19.410226464271545 30.329103469848633 18.27635657787323 30.329437255859375 16.384206533432007 C 30.329437255859375 14.493177652359009 30.042881965637207 13.35856032371521 30.030782222747803 13.311097741127014 Z M 28.049678802490234 18.21506631374359 C 28.049678802490234 18.21506631374359 25.810725688934326 18.508063673973083 25.810725688934326 18.508063673973083 C 25.401253700256348 18.561132073402405 25.057871341705322 18.842917799949646 24.92469072341919 19.23345637321472 C 24.79668378829956 19.610167264938354 24.650235176086426 19.98949420452118 24.650235176086426 19.98949420452118 C 24.650235176086426 19.98949420452118 24.627203941345215 20.04667353630066 24.627203941345215 20.04667353630066 C 24.595160484313965 20.118427991867065 24.44387197494507 20.455524444580078 24.28440570831299 20.778793215751648 C 24.101908206939697 21.149898290634155 24.145467281341553 21.592010378837585 24.397225379943848 21.919763803482056 C 24.397225379943848 21.919763803482056 25.773508548736572 23.709887981414795 25.773508548736572 23.709887981414795 C 25.507230758666992 24.05632746219635 25.10685443878174 24.5335693359375 24.55760955810547 25.082565665245056 C 24.0077805519104 25.632309436798096 23.52996587753296 26.032564759254456 23.18441390991211 26.299027919769287 C 23.18441390991211 26.299027919769287 21.39448642730713 24.92298674583435 21.39448642730713 24.92298674583435 C 21.066458225250244 24.670724987983704 20.62469244003296 24.627373337745667 20.253689289093018 24.809749245643616 C 19.899959564208984 24.98465073108673 19.531376361846924 25.148714303970337 19.531376361846924 25.148714303970337 C 19.531376361846924 25.148714303970337 19.532294273376465 25.148714303970337 19.532628059387207 25.147593140602112 C 19.532628059387207 25.147593140602112 19.483895301818848 25.168521523475647 19.483895301818848 25.168521523475647 C 19.483895301818848 25.168521523475647 19.09353256225586 25.31913113594055 18.70767593383789 25.45068097114563 C 18.317062854766846 25.583725690841675 18.03593158721924 25.927549123764038 17.982358932495117 26.336400032043457 C 17.982358932495117 26.336400032043457 17.68979549407959 28.575363278388977 17.68979549407959 28.575363278388977 C 17.256791591644287 28.631795167922974 16.63611650466919 28.68598473072052 15.859313011169434 28.68598473072052 C 15.081675052642822 28.68598473072052 14.460749626159668 28.631795167922974 14.027996063232422 28.575363278388977 C 14.027996063232422 28.575363278388977 13.735098838806152 26.336400032043457 13.735098838806152 26.336400032043457 C 13.681526184082031 25.926801681518555 13.400061130523682 25.583725690841675 13.009448051452637 25.45068097114563 C 12.633605003356934 25.322120904922485 12.254173755645752 25.176369667053223 12.254173755645752 25.176369667053223 C 12.254173755645752 25.176369667053223 12.196595668792725 25.152825236320496 12.196595668792725 25.152825236320496 C 12.124664783477783 25.12068521976471 11.788125038146973 24.970075607299805 11.46493673324585 24.810122966766357 C 11.095185279846191 24.627747058868408 10.65183401107788 24.670724987983704 10.323889255523682 24.92298674583435 C 10.323889255523682 24.92298674583435 8.53304386138916 26.29977536201477 8.53304386138916 26.29977536201477 C 8.187158107757568 26.03368592262268 7.709343433380127 25.632683157920837 7.160098552703857 25.082939386367798 C 6.610603332519531 24.5335693359375 6.210310459136963 24.055580019950867 5.943949222564697 23.710261702537537 C 5.943949222564697 23.710261702537537 7.320566177368164 21.919763803482056 7.320566177368164 21.919763803482056 C 7.572574615478516 21.591636657714844 7.616467475891113 21.149524569511414 7.433385848999023 20.778045773506165 C 7.2724175453186035 20.452534675598145 7.120211124420166 20.11282217502594 7.089335918426514 20.04443120956421 C 7.089335918426514 20.04443120956421 7.074482440948486 20.008180260658264 7.074482440948486 20.008180260658264 C 7.071812152862549 20.001453280448914 6.92319393157959 19.616894245147705 6.793684959411621 19.234577536582947 C 6.661171913146973 18.843291521072388 6.317121982574463 18.561132073402405 5.907399654388428 18.508063673973083 C 5.907399654388428 18.508063673973083 3.667778968811035 18.21506631374359 3.667778968811035 18.21506631374359 C 3.611786365509033 17.782297253608704 3.5570454597473145 17.16154646873474 3.5570454597473145 16.38495397567749 C 3.5570454597473145 15.607240319252014 3.611786365509033 14.986489534378052 3.6681127548217773 14.553346753120422 C 3.6681127548217773 14.553346753120422 5.907399654388428 14.26034939289093 5.907399654388428 14.26034939289093 C 6.317121982574463 14.206533551216125 6.6608381271362305 13.924747824668884 6.793684959411621 13.533461809158325 C 6.922943592071533 13.152639985084534 7.0720624923706055 12.767333507537842 7.074482440948486 12.76023280620575 C 7.077820301055908 12.752010941505432 7.080574035644531 12.744536519050598 7.083578109741211 12.736688375473022 C 7.083578109741211 12.736688375473022 7.083911895751953 12.736688375473022 7.083911895751953 12.736688375473022 C 7.083911895751953 12.736688375473022 7.253308296203613 12.355119109153748 7.433385848999023 11.99036729335785 C 7.616467475891113 11.619262218475342 7.572574615478516 11.177150130271912 7.320566177368164 10.8490229845047 C 7.320566177368164 10.8490229845047 5.943949222564697 9.05889880657196 5.943949222564697 9.05889880657196 C 6.210310459136963 8.712459325790405 6.610603332519531 8.235217452049255 7.159514427185059 7.685473680496216 C 7.709677219390869 7.135729908943176 8.187408447265625 6.735100865364075 8.53304386138916 6.469011425971985 C 8.53304386138916 6.469011425971985 10.323889255523682 7.845800042152405 10.323889255523682 7.845800042152405 C 10.651583671569824 8.096940636634827 11.093683242797852 8.141039729118347 11.46435260772705 7.958663821220398 C 11.790878772735596 7.797590017318726 12.131006717681885 7.645111799240112 12.198765277862549 7.614840388298035 C 12.198765277862549 7.614840388298035 12.233896255493164 7.600265264511108 12.233896255493164 7.600265264511108 C 12.240238189697266 7.5976492166519165 12.627263069152832 7.4485344886779785 13.009698390960693 7.3181058168411255 C 13.400394916534424 7.185061097145081 13.681526184082031 6.841611385345459 13.735098838806152 6.43276047706604 C 13.735098838806152 6.43276047706604 14.02766227722168 4.193423509597778 14.02766227722168 4.193423509597778 C 14.460749626159668 4.136991620063782 15.081925392150879 4.082802057266235 15.859062671661377 4.082802057266235 C 16.63611650466919 4.082802057266235 17.257041931152344 4.136991620063782 17.68979549407959 4.193423509597778 C 17.68979549407959 4.193423509597778 17.982358932495117 6.43276047706604 17.982358932495117 6.43276047706604 C 18.03593158721924 6.841611385345459 18.317396640777588 7.185061097145081 18.708009719848633 7.3181058168411255 C 19.085688591003418 7.447039604187012 19.467289447784424 7.5939120054244995 19.467289447784424 7.5939120054244995 C 19.467289447784424 7.5939120054244995 19.46753978729248 7.5939120054244995 19.46753978729248 7.5939120054244995 C 19.46753978729248 7.5939120054244995 19.5222806930542 7.61596155166626 19.5222806930542 7.61596155166626 C 19.598300457000732 7.649970173835754 19.93267059326172 7.800579786300659 20.254273414611816 7.95903754234314 C 20.624442100524902 8.141413450241089 21.066792011260986 8.09768807888031 21.394236087799072 7.845426321029663 C 21.394236087799072 7.845426321029663 23.18474769592285 6.469011425971985 23.18474769592285 6.469011425971985 C 23.530633449554443 6.735100865364075 24.008114337921143 7.135729908943176 24.557359218597412 7.684726238250732 C 25.10685443878174 8.235217452049255 25.50748109817505 8.712833046913147 25.77375888824463 9.05889880657196 C 25.77375888824463 9.05889880657196 24.39755916595459 10.8490229845047 24.39755916595459 10.8490229845047 C 24.145467281341553 11.176402688026428 24.101908206939697 11.6188884973526 24.28440570831299 11.989993572235107 C 24.45864200592041 12.342786312103271 24.622948169708252 12.712396502494812 24.622948169708252 12.712396502494812 C 24.622948169708252 12.712396502494812 24.622948169708252 12.71202278137207 24.622948169708252 12.71202278137207 C 24.622948169708252 12.71202278137207 24.642975330352783 12.759111642837524 24.642975330352783 12.759111642837524 C 24.645395278930664 12.765091180801392 24.794514179229736 13.152639985084534 24.924941062927246 13.534956693649292 C 25.05812168121338 13.925495266914368 25.401253700256348 14.206533551216125 25.810725688934326 14.26034939289093 C 25.810725688934326 14.26034939289093 28.049678802490234 14.553346753120422 28.049678802490234 14.553346753120422 C 28.10558795928955 14.986489534378052 28.160412311553955 15.607240319252014 28.160412311553955 16.384206533432007 C 28.160412311553955 17.16154646873474 28.10558795928955 17.782297253608704 28.049678802490234 18.21506631374359 Z M 15.859062671661377 9.47447669506073 C 12.048978805541992 9.47447669506073 8.949441909790039 12.574493408203125 8.949441909790039 16.384206533432007 C 8.949441909790039 20.19429337978363 12.048978805541992 23.293936371803284 15.859062671661377 23.293936371803284 C 19.66881275177002 23.293936371803284 22.76801586151123 20.19429337978363 22.76801586151123 16.384206533432007 C 22.76801586151123 12.574493408203125 19.66881275177002 9.47447669506073 15.859062671661377 9.47447669506073 Z M 15.859062671661377 21.12485897541046 C 13.245184421539307 21.12485897541046 11.118466854095459 18.99801206588745 11.118466854095459 16.384206533432007 C 11.118466854095459 13.770774722099304 13.245184421539307 11.643554091453552 15.859062671661377 11.643554091453552 C 18.472607135772705 11.643554091453552 20.59899091720581 13.770774722099304 20.59899091720581 16.384206533432007 C 20.59899091720581 18.99801206588745 18.472607135772705 21.12485897541046 15.859062671661377 21.12485897541046 Z"/></g></svg>