<svg version="1.1" xmlns="http://www.w3.org/2000/svg" xmlns:xlink="http://www.w3.org/1999/xlink" width="29" height="41"><defs/><g><path fill="rgb(119,119,119)" stroke="none" paint-order="stroke fill markers" fill-rule="evenodd" d=" M 25.86577796936035 14.816763281822205 C 25.86577796936035 14.816763281822205 24.88386297225952 14.816763281822205 24.88386297225952 14.816763281822205 C 24.89028835296631 12.241451025009155 24.473973751068115 7.554988145828247 21.679767608642578 4.4332956075668335 C 19.853707790374756 2.3931519985198975 17.364498615264893 1.3590656518936157 14.281150341033936 1.3590656518936157 C 11.197885513305664 1.3590656518936157 8.708592891693115 2.3931519985198975 6.882533073425293 4.4332956075668335 C 4.088410377502441 7.554988145828247 3.6720123291015625 12.241451025009155 3.678521156311035 14.816763281822205 C 3.678521156311035 14.816763281822205 2.696606159210205 14.816763281822205 2.696606159210205 14.816763281822205 C 1.7768588066101074 14.816763281822205 1.031097412109375 15.562336921691895 1.031097412109375 16.482064604759216 C 1.031097412109375 16.482064604759216 1.031097412109375 37.49416100978851 1.031097412109375 37.49416100978851 C 1.031097412109375 38.41351497173309 1.7768588066101074 39.159462332725525 2.696606159210205 39.159462332725525 C 2.696606159210205 39.159462332725525 25.86577796936035 39.159462332725525 25.86577796936035 39.159462332725525 C 26.78552532196045 39.159462332725525 27.53128671646118 38.41351497173309 27.53128671646118 37.49416100978851 C 27.53128671646118 37.49416100978851 27.53128671646118 16.482064604759216 27.53128671646118 16.482064604759216 C 27.53128671646118 15.562336921691895 26.78552532196045 14.816763281822205 25.86577796936035 14.816763281822205 Z M 9.370991230010986 6.647593259811401 C 10.553761959075928 5.330226302146912 12.159940242767334 4.689668297767639 14.281150341033936 4.689668297767639 C 16.402443885803223 4.689668297767639 18.008538722991943 5.330226302146912 19.191309452056885 6.647593259811401 C 21.257695198059082 8.949341654777527 21.55776882171631 12.736631512641907 21.55042552947998 14.816763281822205 C 21.55042552947998 14.816763281822205 7.011875152587891 14.816763281822205 7.011875152587891 14.816763281822205 C 7.0045318603515625 12.736631512641907 7.304605484008789 8.949341654777527 9.370991230010986 6.647593259811401 Z M 24.200352668762207 35.8288596868515 C 24.200352668762207 35.8288596868515 4.36203145980835 35.8288596868515 4.36203145980835 35.8288596868515 C 4.36203145980835 35.8288596868515 4.36203145980835 18.146992206573486 4.36203145980835 18.146992206573486 C 4.36203145980835 18.146992206573486 24.200352668762207 18.146992206573486 24.200352668762207 18.146992206573486 C 24.200352668762207 18.146992206573486 24.200352668762207 35.8288596868515 24.200352668762207 35.8288596868515 Z M 16.45776891708374 26.95634651184082 C 16.76393413543701 26.48545789718628 17.19084644317627 25.673361897468567 17.19084644317627 24.808197498321533 C 17.19084644317627 23.254265069961548 16.184064388275146 21.603538870811462 14.31778335571289 21.603538870811462 C 12.45141887664795 21.603538870811462 11.444303035736084 23.254265069961548 11.444303035736084 24.808197498321533 C 11.444303035736084 25.675604224205017 11.885401248931885 26.489568829536438 12.202998638153076 26.961952328681946 C 12.202998638153076 26.961952328681946 10.563525199890137 31.20555567741394 10.563525199890137 31.20555567741394 C 10.464307308197021 31.461554646492004 10.498103141784668 31.749693632125854 10.65339708328247 31.976542353630066 C 10.808774471282959 32.20226991176605 11.065706253051758 32.33830440044403 11.340161800384521 32.33830440044403 C 11.340161800384521 32.33830440044403 17.295321464538574 32.33830440044403 17.295321464538574 32.33830440044403 C 17.568942546844482 32.33830440044403 17.82512331008911 32.203017354011536 17.980834484100342 31.978037238121033 C 18.13621187210083 31.752683401107788 18.171175956726074 31.465665578842163 18.073960781097412 31.2096666097641 C 18.073960781097412 31.2096666097641 16.45776891708374 26.95634651184082 16.45776891708374 26.95634651184082 Z M 12.554725646972656 30.67300307750702 C 12.554725646972656 30.67300307750702 13.921329021453857 27.134985208511353 13.921329021453857 27.134985208511353 C 14.031061172485352 26.851330876350403 13.97581958770752 26.5295569896698 13.780220985412598 26.29672873020172 C 13.606151580810547 26.090434670448303 13.109728336334229 25.3725163936615 13.109728336334229 24.808197498321533 C 13.109728336334229 24.792501211166382 13.14268970489502 23.268840193748474 14.31778335571289 23.268840193748474 C 15.492459774017334 23.268840193748474 15.52533769607544 24.792501211166382 15.52533769607544 24.808197498321533 C 15.52533769607544 25.37961709499359 15.044352054595947 26.10089886188507 14.877625942230225 26.305698037147522 C 14.688202381134033 26.536657691001892 14.63654899597168 26.851330876350403 14.742275714874268 27.130500555038452 C 14.742275714874268 27.130500555038452 16.088100910186768 30.67300307750702 16.088100910186768 30.67300307750702 C 16.088100910186768 30.67300307750702 12.554725646972656 30.67300307750702 12.554725646972656 30.67300307750702 Z"/></g></svg>