<svg version="1.1" xmlns="http://www.w3.org/2000/svg" xmlns:xlink="http://www.w3.org/1999/xlink" width="32" height="32"><defs/><g><path fill="rgb(119,119,119)" stroke="none" paint-order="stroke fill markers" fill-rule="evenodd" d=" M 14.659663200378418 13.99727189540863 C 14.659663200378418 13.99727189540863 14.659663200378418 3.049859046936035 14.659663200378418 3.049859046936035 C 14.659663200378418 2.4552687406539917 14.177425861358643 1.972794771194458 13.582786083221436 1.972794771194458 C 6.952043533325195 1.972794771194458 1.5578112602233887 7.3670854568481445 1.5578112602233887 13.99727189540863 C 1.5578112602233887 14.591862201690674 2.040048599243164 15.074336171150208 2.634688377380371 15.074336171150208 C 2.634688377380371 15.074336171150208 13.582786083221436 15.074336171150208 13.582786083221436 15.074336171150208 C 14.177425861358643 15.074336171150208 14.659663200378418 14.591862201690674 14.659663200378418 13.99727189540863 Z M 12.505825519561768 12.920581340789795 C 12.505825519561768 12.920581340789795 3.7699780464172363 12.920581340789795 3.7699780464172363 12.920581340789795 C 4.269655704498291 8.33614432811737 7.921107769012451 4.684888958930969 12.505825519561768 4.184850096702576 C 12.505825519561768 4.184850096702576 12.505825519561768 12.920581340789795 12.505825519561768 12.920581340789795 Z M 17.543407440185547 3.9195080995559692 C 16.863735675811768 3.9195080995559692 16.31257152557373 4.470373034477234 16.31257152557373 5.150171756744385 C 16.31257152557373 5.150171756744385 16.31257152557373 16.726930975914 16.31257152557373 16.726930975914 C 16.31257152557373 16.726930975914 4.7351202964782715 16.726930975914 4.7351202964782715 16.726930975914 C 4.055365085601807 16.726930975914 3.504284381866455 17.278169631958008 3.504284381866455 17.95796835422516 C 3.504284381866455 25.07511341571808 9.54823112487793 30.865174770355225 16.977306365966797 30.865174770355225 C 24.406381607055664 30.865174770355225 30.450244903564453 24.820983052253723 30.450244903564453 17.391780853271484 C 30.450244903564453 10.089270114898682 24.53947877883911 3.9195080995559692 17.543407440185547 3.9195080995559692 Z M 16.977306365966797 28.404221177101135 C 11.344417095184326 28.404221177101135 6.685765743255615 24.370649099349976 6.0418925285339355 19.188632011413574 C 6.0418925285339355 19.188632011413574 17.543407440185547 19.188632011413574 17.543407440185547 19.188632011413574 C 18.223079204559326 19.188632011413574 18.774159908294678 18.637393355369568 18.774159908294678 17.95796835422516 C 18.774159908294678 17.95796835422516 18.774159908294678 6.460438013076782 18.774159908294678 6.460438013076782 C 23.88175344467163 7.125661611557007 27.98873996734619 11.861081957817078 27.98873996734619 17.391780853271484 C 27.98873996734619 23.464001655578613 23.049124240875244 28.404221177101135 16.977306365966797 28.404221177101135 Z"/></g></svg>