<svg version="1.1" xmlns="http://www.w3.org/2000/svg" xmlns:xlink="http://www.w3.org/1999/xlink" width="34" height="32"><defs/><g><path fill="rgb(119,119,119)" stroke="none" paint-order="stroke fill markers" fill-rule="evenodd" d=" M 25.503536224365234 30.728046894073486 C 25.248690605163574 30.728046894073486 24.993093967437744 30.65591871738434 24.76945734024048 30.510541200637817 C 24.76945734024048 30.510541200637817 16.875167846679688 25.385329723358154 16.875167846679688 25.385329723358154 C 16.875167846679688 25.385329723358154 8.980961799621582 30.510541200637817 8.980961799621582 30.510541200637817 C 8.510323524475098 30.816245079040527 7.899077892303467 30.79905390739441 7.446547508239746 30.46457350254059 C 6.994434356689453 30.131587982177734 6.796165466308594 29.552693963050842 6.948622226715088 29.011545777320862 C 6.948622226715088 29.011545777320862 9.421225547790527 20.229846835136414 9.421225547790527 20.229846835136414 C 9.421225547790527 20.229846835136414 2.0423851013183594 13.979734778404236 2.0423851013183594 13.979734778404236 C 1.6237339973449707 13.625073432922363 1.461430549621582 13.052158951759338 1.6313276290893555 12.530817985534668 C 1.801224708557129 12.008729577064514 2.2699437141418457 11.642109155654907 2.8169355392456055 11.602868437767029 C 2.8169355392456055 11.602868437767029 11.666186809539795 10.964552760124207 11.666186809539795 10.964552760124207 C 11.666186809539795 10.964552760124207 15.648170471191406 2.235174775123596 15.648170471191406 2.235174775123596 C 15.867467880249023 1.7541956901550293 16.346951484680176 1.4455020427703857 16.875167846679688 1.4455020427703857 C 17.403467655181885 1.4455020427703857 17.882951259613037 1.7541956901550293 18.102248668670654 2.235174775123596 C 18.102248668670654 2.235174775123596 22.08414888381958 10.964552760124207 22.08414888381958 10.964552760124207 C 22.08414888381958 10.964552760124207 30.933483600616455 11.602868437767029 30.933483600616455 11.602868437767029 C 31.480475425720215 11.642109155654907 31.94919443130493 12.008729577064514 32.119091510772705 12.530817985534668 C 32.28898859024048 13.052158951759338 32.126601696014404 13.625073432922363 31.7080340385437 13.979734778404236 C 31.7080340385437 13.979734778404236 24.329193592071533 20.229846835136414 24.329193592071533 20.229846835136414 C 24.329193592071533 20.229846835136414 26.801796913146973 29.011545777320862 26.801796913146973 29.011545777320862 C 26.954253673553467 29.552693963050842 26.755984783172607 30.131587982177734 26.30378818511963 30.46457350254059 C 26.066382884979248 30.639848709106445 25.78508472442627 30.728046894073486 25.503536224365234 30.728046894073486 Z M 16.875167846679688 22.425458431243896 C 17.130764484405518 22.425458431243896 17.386027336120605 22.497960329055786 17.609246730804443 22.643337845802307 C 17.609246730804443 22.643337845802307 23.233874797821045 26.29496693611145 23.233874797821045 26.29496693611145 C 23.233874797821045 26.29496693611145 21.49726963043213 20.126326084136963 21.49726963043213 20.126326084136963 C 21.35374164581299 19.61731791496277 21.520718097686768 19.071685075759888 21.9240984916687 18.729730248451233 C 21.9240984916687 18.729730248451233 27.43932819366455 14.058216214179993 27.43932819366455 14.058216214179993 C 27.43932819366455 14.058216214179993 21.092554092407227 13.60003411769867 21.092554092407227 13.60003411769867 C 20.600553512573242 13.565278053283691 20.16713237762451 13.264058828353882 19.962271213531494 12.814098596572876 C 19.962271213531494 12.814098596572876 16.875167846679688 6.0467565059661865 16.875167846679688 6.0467565059661865 C 16.875167846679688 6.0467565059661865 13.78806447982788 12.814098596572876 13.78806447982788 12.814098596572876 C 13.583203315734863 13.264058828353882 13.149865627288818 13.565278053283691 12.657865047454834 13.60003411769867 C 12.657865047454834 13.60003411769867 6.31109094619751 14.058216214179993 6.31109094619751 14.058216214179993 C 6.31109094619751 14.058216214179993 11.82632064819336 18.729730248451233 11.82632064819336 18.729730248451233 C 12.229701042175293 19.071685075759888 12.396677494049072 19.61731791496277 12.253149509429932 20.126326084136963 C 12.253149509429932 20.126326084136963 10.516544342041016 26.29496693611145 10.516544342041016 26.29496693611145 C 10.516544342041016 26.29496693611145 16.141172409057617 22.643337845802307 16.141172409057617 22.643337845802307 C 16.364391803741455 22.497960329055786 16.619654655456543 22.425458431243896 16.875167846679688 22.425458431243896 Z"/></g></svg>