<svg xmlns="http://www.w3.org/2000/svg" xmlns:xlink="http://www.w3.org/1999/xlink" width="30" height="29" viewBox="0 0 30 29"><defs><path id="f8nqa" d="M160.33 2164.384c0 1.892-.287 3.026-.3 3.074-.11.429-.47.747-.909.804l-2.373.311-.082.218-.037.091-.012.03-.096.211 1.458 1.897c.27.351.3.832.074 1.213-.025.042-.625 1.046-1.961 2.384-1.339 1.337-2.343 1.937-2.385 1.961-.38.226-.861.197-1.213-.074l-1.896-1.458c-.128.06-.212.096-.212.096l-.098.04c-.01.006-.104.04-.24.092l-.31 2.373a1.086 1.086 0 0 1-.806.91c-.047.012-1.182.298-3.073.298-1.892 0-3.026-.286-3.073-.298a1.086 1.086 0 0 1-.805-.91l-.31-2.373-.218-.082-.092-.038-.03-.012s-.083-.036-.211-.096l-1.897 1.458c-.35.27-.83.3-1.212.075-.042-.025-1.048-.624-2.385-1.962-1.337-1.338-1.937-2.342-1.961-2.384a1.084 1.084 0 0 1 .074-1.213l1.458-1.897c-.059-.127-.096-.211-.096-.211l-.012-.03-.03-.072-.09-.237-2.372-.31a1.085 1.085 0 0 1-.91-.805c-.012-.048-.299-1.182-.299-3.074 0-1.89.287-3.025.299-3.073.11-.429.47-.747.91-.805l2.372-.31.083-.219c.016-.04.034-.08.054-.119l-.005-.001s.037-.084.096-.211l-1.458-1.897c-.27-.351-.3-.831-.074-1.213.024-.042.624-1.046 1.961-2.384 1.338-1.338 2.343-1.937 2.385-1.962a1.085 1.085 0 0 1 1.212.074l1.897 1.458a20.132 20.132 0 0 1 .241-.108l.073-.03.236-.09.31-2.372c.058-.44.376-.8.805-.91.048-.012 1.183-.298 3.074-.298 1.891 0 3.026.286 3.073.298.43.11.748.47.805.91l.31 2.373.217.081.089.036a4.589 4.589 0 0 1 .245.11l1.896-1.458c.351-.27.831-.3 1.213-.074.042.025 1.047.624 2.384 1.962s1.937 2.342 1.962 2.384c.225.382.196.862-.074 1.213l-1.458 1.897.096.211.04.097.091.242 2.373.31c.44.058.8.376.91.805.012.048.298 1.182.298 3.073zm-2.17 0c0-.777-.054-1.398-.11-1.83l-2.24-.294a1.085 1.085 0 0 1-.885-.725c-.13-.382-.28-.77-.282-.776l-.02-.047s-.164-.37-.339-.722a1.085 1.085 0 0 1 .114-1.141l1.376-1.79a14.39 14.39 0 0 0-1.217-1.374c-.549-.55-1.026-.95-1.372-1.216l-1.79 1.376c-.328.253-.77.296-1.14.114a24.06 24.06 0 0 0-.733-.343l-.054-.022s-.382-.147-.76-.276a1.085 1.085 0 0 1-.726-.885l-.292-2.24a14.278 14.278 0 0 0-1.83-.11c-.778 0-1.4.054-1.832.11l-.293 2.24a1.084 1.084 0 0 1-.725.885c-.383.13-.77.28-.776.282l-.035.015c-.068.03-.408.183-.735.344-.37.182-.812.138-1.14-.113l-1.79-1.377c-.347.266-.824.667-1.374 1.216-.55.55-.95 1.027-1.216 1.374l1.377 1.79c.252.328.295.77.112 1.141-.18.365-.35.747-.35.747l-.008.023c-.003.007-.152.393-.281.773a1.085 1.085 0 0 1-.887.727l-2.239.293a14.293 14.293 0 0 0-.11 1.832c0 .777.054 1.397.11 1.83l2.24.293c.41.053.753.335.886.727.13.382.278.766.28.773l.015.036c.031.069.183.409.344.734.183.372.14.814-.112 1.142l-1.377 1.79c.266.346.667.824 1.216 1.373.55.55 1.027.95 1.373 1.217l1.79-1.377a1.086 1.086 0 0 1 1.142-.113c.323.16.66.31.732.343l.057.023s.38.146.755.275c.391.133.673.476.726.885l.293 2.24c.433.056 1.054.11 1.831.11.777 0 1.398-.054 1.83-.11l.293-2.24c.054-.408.335-.752.726-.885.386-.132.776-.282.776-.282l.049-.021c.018-.008.377-.168.72-.338a1.085 1.085 0 0 1 1.142.113l1.79 1.376c.345-.266.823-.667 1.373-1.216a14.2 14.2 0 0 0 1.216-1.373l-1.377-1.79a1.086 1.086 0 0 1-.113-1.141c.16-.323.311-.66.343-.732l.023-.058s.147-.379.275-.756c.133-.39.476-.672.886-.725l2.239-.293c.056-.433.11-1.053.11-1.83zm-8.629 8.765h.001zm3.237-8.765c0 3.81-3.1 6.91-6.909 6.91-3.81 0-6.91-3.1-6.91-6.91s3.1-6.91 6.91-6.91 6.909 3.1 6.909 6.91zm-2.169 0a4.746 4.746 0 0 0-4.74-4.74 4.746 4.746 0 0 0-4.74 4.74 4.746 4.746 0 0 0 4.74 4.74 4.746 4.746 0 0 0 4.74-4.74z"/></defs><g><g transform="translate(-131 -2150)"><use fill="#777" xlink:href="#f8nqa"/></g></g></svg>