<svg xmlns="http://www.w3.org/2000/svg" xmlns:xlink="http://www.w3.org/1999/xlink" width="31" height="30" viewBox="0 0 31 30"><defs><path id="xxbsa" d="M171.941 1562.178c-.255 0-.51-.072-.734-.218l-7.894-5.125-7.895 5.125a1.35 1.35 0 0 1-2.032-1.5l2.473-8.78-7.38-6.25a1.352 1.352 0 0 1 .775-2.378l8.85-.638 3.982-8.73a1.349 1.349 0 0 1 2.454 0l3.982 8.73 8.849.638a1.35 1.35 0 0 1 .775 2.378l-7.38 6.25 2.473 8.781a1.35 1.35 0 0 1-1.298 1.717zm-8.628-8.303c.255 0 .51.073.734.218l5.624 3.652-1.736-6.169a1.35 1.35 0 0 1 .427-1.396l5.515-4.672-6.347-.458a1.347 1.347 0 0 1-1.13-.786l-3.087-6.767-3.087 6.767c-.205.45-.639.751-1.13.786l-6.347.458 5.515 4.672c.403.341.57.887.427 1.396l-1.737 6.169 5.625-3.652c.223-.145.478-.218.734-.218z"/></defs><g><g transform="translate(-148 -1533)"><use fill="#777" xlink:href="#xxbsa"/></g></g></svg>