<svg aria-hidden="true" style="position: absolute; width: 0; height: 0; overflow: hidden;" version="1.1" xmlns="http://www.w3.org/2000/svg" xmlns:xlink="http://www.w3.org/1999/xlink">
    <defs>
        <symbol id="soc-4" viewBox="0 0 20 20">
            <title>google-with-circle</title>
            <path d="M10 0.4c-5.302 0-9.6 4.298-9.6 9.6s4.298 9.6 9.6 9.6 9.6-4.298 9.6-9.6-4.298-9.6-9.6-9.6zM9.447 14.121c-0.603 0.293-1.252 0.324-1.503 0.324-0.048 0-0.075 0-0.075 0s-0.023 0-0.054 0c-0.392 0-2.343-0.090-2.343-1.867 0-1.746 2.125-1.883 2.776-1.883h0.017c-0.376-0.502-0.298-1.008-0.298-1.008-0.033 0.002-0.081 0.004-0.14 0.004-0.245 0-0.718-0.039-1.124-0.301-0.498-0.32-0.75-0.865-0.75-1.619 0-2.131 2.327-2.217 2.35-2.219h2.324v0.051c0 0.26-0.467 0.311-0.785 0.354-0.108 0.016-0.325 0.037-0.386 0.068 0.589 0.315 0.684 0.809 0.684 1.545 0 0.838-0.328 1.281-0.676 1.592-0.216 0.193-0.385 0.344-0.385 0.547 0 0.199 0.232 0.402 0.502 0.639 0.441 0.389 1.046 0.918 1.046 1.811 0 0.923-0.397 1.583-1.18 1.962zM14.5 10h-1.5v1.5h-1v-1.5h-1.5v-1h1.5v-1.5h1v1.5h1.5v1zM8.223 11.15c-0.052 0-0.104 0.002-0.157 0.006-0.444 0.033-0.854 0.199-1.15 0.469-0.294 0.266-0.444 0.602-0.423 0.941 0.045 0.711 0.808 1.127 1.735 1.061 0.912-0.066 1.52-0.592 1.476-1.303-0.042-0.668-0.623-1.174-1.481-1.174zM9.097 7.285c-0.242-0.85-0.632-1.102-1.238-1.102-0.065 0-0.131 0.010-0.194 0.027-0.263 0.075-0.472 0.294-0.588 0.62-0.119 0.33-0.126 0.674-0.024 1.066 0.185 0.701 0.683 1.209 1.185 1.209 0.066 0 0.132-0.008 0.194-0.027 0.549-0.154 0.893-0.992 0.665-1.793z"></path>
        </symbol>
        <symbol id="soc-2" viewBox="0 0 20 20">
            <title>facebook-with-circle</title>
            <path d="M10 0.4c-5.302 0-9.6 4.298-9.6 9.6s4.298 9.6 9.6 9.6 9.6-4.298 9.6-9.6-4.298-9.6-9.6-9.6zM12.274 7.034h-1.443c-0.171 0-0.361 0.225-0.361 0.524v1.042h1.805l-0.273 1.486h-1.532v4.461h-1.703v-4.461h-1.545v-1.486h1.545v-0.874c0-1.254 0.87-2.273 2.064-2.273h1.443v1.581z"></path>
        </symbol>
        <symbol id="soc-3" viewBox="0 0 20 20">
            <title>pinterest-with-circle</title>
            <path d="M10 0.4c-5.302 0-9.6 4.298-9.6 9.6s4.298 9.6 9.6 9.6 9.6-4.298 9.6-9.6-4.298-9.6-9.6-9.6zM10.657 12.275c-0.616-0.047-0.874-0.352-1.356-0.644-0.265 1.391-0.589 2.725-1.549 3.422-0.297-2.104 0.434-3.682 0.774-5.359-0.579-0.975 0.069-2.936 1.291-2.454 1.503 0.596-1.302 3.625 0.581 4.004 1.966 0.394 2.769-3.412 1.55-4.648-1.762-1.787-5.127-0.041-4.713 2.517 0.1 0.625 0.747 0.815 0.258 1.678-1.127-0.25-1.464-1.139-1.42-2.324 0.069-1.94 1.743-3.299 3.421-3.486 2.123-0.236 4.115 0.779 4.391 2.777 0.309 2.254-0.959 4.693-3.228 4.517z"></path>
        </symbol>
        <symbol id="soc-1" viewBox="0 0 20 20">
            <title>twitter-with-circle</title>
            <path d="M10 0.4c-5.302 0-9.6 4.298-9.6 9.6s4.298 9.6 9.6 9.6 9.6-4.298 9.6-9.6-4.298-9.6-9.6-9.6zM13.905 8.264c0.004 0.082 0.005 0.164 0.005 0.244 0 2.5-1.901 5.381-5.379 5.381-1.068 0-2.062-0.312-2.898-0.85 0.147 0.018 0.298 0.025 0.451 0.025 0.886 0 1.701-0.301 2.348-0.809-0.827-0.016-1.525-0.562-1.766-1.312 0.115 0.021 0.233 0.033 0.355 0.033 0.172 0 0.34-0.023 0.498-0.066-0.865-0.174-1.517-0.938-1.517-1.854v-0.023c0.255 0.141 0.547 0.227 0.857 0.237-0.508-0.34-0.841-0.918-0.841-1.575 0-0.346 0.093-0.672 0.256-0.951 0.933 1.144 2.325 1.896 3.897 1.977-0.033-0.139-0.049-0.283-0.049-0.432 0-1.043 0.846-1.891 1.891-1.891 0.543 0 1.035 0.23 1.38 0.598 0.431-0.086 0.835-0.242 1.2-0.459-0.141 0.441-0.44 0.812-0.831 1.047 0.383-0.047 0.747-0.148 1.086-0.299-0.253 0.379-0.574 0.713-0.943 0.979z"></path>
        </symbol>
    </defs>
</svg>
