<svg xmlns="http://www.w3.org/2000/svg" xmlns:xlink="http://www.w3.org/1999/xlink" width="30" height="30" viewBox="0 0 30 30"><defs><path id="coq4a" d="M177.767 1455.834c0 1.892-.287 3.026-.299 3.073-.11.43-.47.748-.91.805l-2.372.31-.082.219-.038.091a.87.87 0 0 1-.012.029l-.096.212 1.459 1.897c.27.35.299.831.073 1.213-.024.041-.624 1.046-1.961 2.384-1.338 1.337-2.342 1.936-2.384 1.961-.381.226-.862.197-1.213-.074l-1.897-1.458-.211.096-.099.041c-.01.005-.103.04-.24.09l-.31 2.374a1.086 1.086 0 0 1-.805.91c-.048.011-1.183.298-3.073.298-1.892 0-3.026-.287-3.074-.298a1.086 1.086 0 0 1-.805-.91l-.31-2.373-.218-.083-.091-.036a1.416 1.416 0 0 0-.03-.013l-.212-.096-1.896 1.458c-.351.27-.831.3-1.212.075-.042-.025-1.048-.624-2.386-1.962-1.336-1.338-1.936-2.343-1.961-2.384a1.084 1.084 0 0 1 .074-1.213l1.458-1.897-.095-.211-.013-.03-.03-.072-.09-.237-2.372-.31a1.086 1.086 0 0 1-.91-.805c-.012-.048-.298-1.182-.298-3.074 0-1.891.286-3.026.298-3.073.11-.43.471-.748.91-.805l2.372-.31.083-.22a1.06 1.06 0 0 1 .055-.118l-.005-.001.095-.212-1.458-1.896c-.27-.351-.3-.831-.074-1.213.025-.042.625-1.047 1.961-2.384 1.339-1.338 2.344-1.937 2.386-1.963a1.086 1.086 0 0 1 1.212.074l1.897 1.46a20.132 20.132 0 0 1 .24-.11l.073-.03c.01-.002.1-.038.237-.089l.31-2.373c.057-.438.376-.799.805-.91.047-.011 1.182-.298 3.074-.298 1.89 0 3.025.287 3.073.299.429.11.747.47.805.91l.31 2.372.217.082.088.036.034.014s.084.037.211.096l1.897-1.458c.351-.27.83-.3 1.212-.075.042.026 1.048.625 2.385 1.962 1.337 1.338 1.937 2.343 1.961 2.385.226.382.196.862-.074 1.213l-1.458 1.896c.06.129.096.212.096.212l.04.097c.005.01.04.103.092.241l2.373.31c.439.058.799.377.91.806.011.047.298 1.182.298 3.073zm-2.17 0c0-.777-.054-1.398-.11-1.83l-2.239-.293a1.085 1.085 0 0 1-.886-.726c-.13-.383-.28-.77-.282-.776l-.02-.048v.002s-.164-.37-.338-.723a1.084 1.084 0 0 1 .113-1.14l1.376-1.791a14.35 14.35 0 0 0-1.216-1.374 14.31 14.31 0 0 0-1.373-1.216l-1.79 1.376c-.328.252-.77.296-1.14.114a24.06 24.06 0 0 0-.732-.343l-.055-.022s-.382-.147-.76-.276a1.085 1.085 0 0 1-.725-.885l-.293-2.24a14.334 14.334 0 0 0-1.83-.11c-.778 0-1.399.054-1.832.11l-.292 2.24a1.084 1.084 0 0 1-.726.885c-.382.13-.77.28-.776.282l-.035.015c-.067.03-.408.182-.734.343-.37.182-.813.14-1.14-.112l-1.791-1.377c-.346.266-.824.666-1.374 1.216-.549.55-.95 1.027-1.216 1.374l1.377 1.79c.252.328.296.77.113 1.141-.18.365-.35.746-.35.746l-.009.024c-.002.007-.152.392-.28.774-.134.39-.477.673-.887.726l-2.24.293a14.284 14.284 0 0 0-.11 1.832c0 .776.054 1.397.11 1.83l2.24.293c.41.053.754.335.886.727.13.381.278.767.281.773l.015.037c.03.068.183.407.344.733.183.37.14.813-.113 1.142l-1.377 1.79c.267.345.667.823 1.217 1.373.549.55 1.027.95 1.373 1.216l1.79-1.376a1.087 1.087 0 0 1 1.141-.113c.324.16.66.31.732.343l.058.023s.38.146.755.274c.39.133.672.477.726.886l.293 2.24c.432.055 1.053.11 1.83.11.778 0 1.398-.055 1.831-.11l.293-2.24c.053-.41.335-.753.725-.886.386-.131.776-.282.776-.282l.05-.02h-.001c.022-.01.379-.17.721-.339a1.087 1.087 0 0 1 1.141.114l1.79 1.376c.345-.266.823-.667 1.373-1.217.55-.549.95-1.026 1.216-1.372l-1.376-1.79a1.085 1.085 0 0 1-.113-1.141c.16-.324.31-.66.343-.733l.023-.057s.146-.38.274-.756c.133-.39.477-.672.886-.725l2.24-.293c.055-.433.11-1.054.11-1.831zm-8.628 8.764h0zm3.237-8.764c0 3.81-3.1 6.91-6.91 6.91s-6.91-3.1-6.91-6.91 3.1-6.91 6.91-6.91 6.91 3.1 6.91 6.91zm-2.17 0a4.746 4.746 0 0 0-4.74-4.74 4.746 4.746 0 0 0-4.74 4.74 4.746 4.746 0 0 0 4.74 4.74 4.746 4.746 0 0 0 4.74-4.74z"/></defs><g><g transform="translate(-148 -1441)"><use fill="#777" xlink:href="#coq4a"/></g></g></svg>