<svg xmlns="http://www.w3.org/2000/svg" xmlns:xlink="http://www.w3.org/1999/xlink" width="27" height="39" viewBox="0 0 27 39"><defs><path id="oql0a" d="M568.531 1543.482v21.012c0 .92-.745 1.665-1.665 1.665h-23.17c-.92 0-1.665-.745-1.665-1.665v-21.012c0-.92.746-1.665 1.666-1.665h.982c-.007-2.576.41-7.262 3.204-10.384 1.826-2.04 4.315-3.074 7.398-3.074 3.084 0 5.573 1.034 7.399 3.074 2.794 3.122 3.21 7.808 3.204 10.384h.982c.92 0 1.665.745 1.665 1.665zm-20.52-1.665h14.54c.007-2.08-.293-5.868-2.36-8.17-1.182-1.317-2.789-1.957-4.91-1.957s-3.727.64-4.91 1.958c-2.066 2.301-2.366 6.089-2.36 8.169zm17.19 3.33h-19.839v17.682H565.2zm-6.127 13.063a.832.832 0 0 1-.779 1.128h-5.955a.835.835 0 0 1-.776-1.132l1.639-4.244c-.318-.472-.759-1.286-.759-2.154 0-1.554 1.007-3.204 2.874-3.204 1.866 0 2.873 1.65 2.873 3.204 0 .865-.427 1.677-.733 2.148zm-1.986-.537l-1.346-3.542a.835.835 0 0 1 .136-.825c.166-.205.647-.926.647-1.498 0-.016-.033-1.54-1.207-1.54-1.175 0-1.208 1.524-1.208 1.54 0 .565.496 1.282.67 1.489.196.233.251.554.141.838l-1.366 3.538z"/></defs><g><g transform="translate(-542 -1528)"><use fill="#777" xlink:href="#oql0a"/></g></g></svg>