<svg xmlns="http://www.w3.org/2000/svg" xmlns:xlink="http://www.w3.org/1999/xlink" width="30" height="29" viewBox="0 0 30 29"><defs><path id="eyl2a" d="M142.583 2346.074h-10.948a1.077 1.077 0 0 1-1.077-1.077c0-6.63 5.394-12.024 12.025-12.024.594 0 1.077.482 1.077 1.077v10.947c0 .595-.483 1.077-1.077 1.077zm-1.077-10.89c-4.585.5-8.236 4.152-8.736 8.737h8.736zm17.944 13.208c0 7.429-6.044 13.473-13.473 13.473-7.429 0-13.473-5.79-13.473-12.907 0-.68.551-1.231 1.231-1.231h11.578v-11.577c0-.68.55-1.23 1.23-1.23 6.996 0 12.907 6.17 12.907 13.472zm-2.461 0c0-5.53-4.107-10.266-9.215-10.932v11.498c0 .68-.55 1.23-1.23 1.23h-11.502c.644 5.183 5.302 9.216 10.935 9.216 6.072 0 11.012-4.94 11.012-11.012z"/></defs><g><g transform="translate(-130 -2333)"><use fill="#777" xlink:href="#eyl2a"/></g></g></svg>