<svg xmlns="http://www.w3.org/2000/svg" xmlns:xlink="http://www.w3.org/1999/xlink" width="42" height="29" viewBox="0 0 42 29"><defs><path id="dau1a" d="M575.636 1461.93c-.273 3.84-3.248 7.973-9.132 7.973-8.946 0-23.712-.047-23.86-.047-3.854 0-7.09-2.896-7.689-6.885-.468-3.112.85-7.27 5.85-9.46-.63-2.584-.206-5.132 1.248-7.318 1.801-2.708 4.963-4.39 8.252-4.39 3.327 0 6.333 1.678 8.466 4.665a7.388 7.388 0 0 1 3.712-1.016c2.067 0 3.965.897 5.205 2.462 1.072 1.353 1.567 3.094 1.45 5.016 4.793 1.39 6.75 5.476 6.498 9zm-8.606-6.05a1.664 1.664 0 0 1-1.385-2.03c.372-1.591.176-2.927-.567-3.865-.604-.764-1.55-1.201-2.595-1.201-1.078 0-2.145.463-3.005 1.303a1.667 1.667 0 0 1-2.634-.41c-1.554-2.93-3.876-4.542-6.539-4.542-2.188 0-4.288 1.113-5.48 2.904-1.125 1.692-1.268 3.764-.402 5.834a1.665 1.665 0 0 1-1.046 2.236c-3.642 1.12-5.56 3.5-5.129 6.366.303 2.012 1.911 4.049 4.4 4.049.154 0 14.915.047 23.856.047 3.773 0 5.637-2.45 5.81-4.878.178-2.49-1.387-5.254-5.284-5.813zm-15.74-7.749c.07.803-.522 1.51-1.324 1.58-1.674.148-1.716 1.322-1.69 1.678a1.458 1.458 0 0 1-2.905.22c-.133-1.765.913-4.5 4.34-4.802a1.454 1.454 0 0 1 1.579 1.324z"/></defs><g><g transform="translate(-534 -1441)"><use fill="#777" xlink:href="#dau1a"/></g></g></svg>