<svg xmlns="http://www.w3.org/2000/svg" style="position:absolute; width:0; height:0">
    <defs>
        <symbol id="cog">
            <path d="M3.94 6.5L2.22 3.64l1.42-1.42L6.5 3.94c.52-.3 1.1-.54 1.7-.7L9 0h2l.8 3.24c.6.16 1.18.4 1.7.7l2.86-1.72 1.42 1.42-1.72 2.86c.3.52.54 1.1.7 1.7L20 9v2l-3.24.8c-.16.6-.4 1.18-.7 1.7l1.72 2.86-1.42 1.42-2.86-1.72c-.52.3-1.1.54-1.7.7L11 20H9l-.8-3.24c-.6-.16-1.18-.4-1.7-.7l-2.86 1.72-1.42-1.42 1.72-2.86c-.3-.52-.54-1.1-.7-1.7L0 11V9l3.24-.8c.16-.6.4-1.18.7-1.7zM10 13a3 3 0 1 0 0-6 3 3 0 0 0 0 6z" />
        </symbol>

        <symbol id="cloud">
            <path d="M16.88 9.1A4 4 0 0 1 16 17H5a5 5 0 0 1-1-9.9V7a3 3 0 0 1 4.52-2.59A4.98 4.98 0 0 1 17 8c0 .38-.04.74-.12 1.1z" />
        </symbol>

        <symbol id="star">
            <path d="M10 15l-5.878 3.09 1.123-6.545L.489 6.91l6.572-.955L10 0l2.939 5.955 6.572.955-4.756 4.635 1.123 6.545z" />
        </symbol>
    </defs>
</svg>
