<svg viewBox="0 0 440 220" xmlns="http://www.w3.org/2000/svg">
<title>2019</title>
<path fill="#ffffff" d="m231.267305,23.604273q0.7786,0.78727 1.4556,1.9838q0.69652,1.11658 2.02267,4.44q0.23513,0.4472 0.51143,0.495q0.21797,0.01642 0.4398,0.01745q0.01572,0.0001 0.0315,0.0001q1.87362,0 4.02258,-1.08719q1.32974,-0.71126 2.21246,-2.9126l3.12613,1.59564l-0.00162,0q-2.18565,3.64993 -3.20675,5.14093l0,0q-0.7672,-0.45148 -1.43763,-0.45483q-0.00421,-0.00003 -0.00842,-0.00003q-0.09855,0 -0.19492,0.00961q-0.37091,0.04108 -0.79666,0.26154q-0.12411,0.03473 -1.43191,0.88861q-0.27628,0.16235 -0.49376,0.242q-0.23912,0.09009 -0.4731,0.09009q-0.00284,0 -0.00565,0q-0.27517,-0.00128 -0.54321,-0.12756q-0.49997,-0.21246 -1.33697,-1.11236q-0.75214,-0.789 -3.00567,-3.3982l-0.00144,0l-0.62842,-1.8492q-0.26746,-0.60356 -0.25884,-4.2228l0.0028,0zm2.16925,9.84458l0,0q0.59995,0.51807 1.32662,1.02747q0.67057,0.47399 1.58658,1.04765l2.37455,1.44197l-0.00153,0q-1.08469,1.14276 -2.49765,2.52881l-1.27069,-1.75965q-0.03021,0.00562 -0.06033,0.01137l-1.4604,-4.29762l0.00285,0zm121.41998,40.07605q3.5672,0 5.14294,2.73749q1.49343,2.73724 1.4935,11.6131l-0.00007,24.30548q0,7.3825 -1.6591,9.95477q-1.57633,2.48828 -5.05982,2.48828q-2.32343,0 -4.56284,-1.99091q-2.15644,-1.99084 -2.15644,-10.45214l0.00004,-25.1349q-0.00004,-9.29052 2.32236,-11.4472q2.3226,-2.07397 4.47943,-2.07397zm-183.44098,3.96893q3.81549,0 4.89407,2.73754q0.99567,2.6543 0.99567,13.3551l0,66.52894q0,9.87079 -1.16169,12.69166q-1.16091,2.8209 -4.89404,2.8209q-3.73266,0 -4.89437,-2.4055q-1.07834,-2.40625 -1.07834,-14.10297l0,-65.53303q0,-10.36852 1.24429,-13.2722q1.16171,-2.82044 4.89441,-2.82044zm87.96573,42.25617l2.87008,24.23755l35.09189,31.41732l0.9093,4.04624q0.40467,0.02502 0.78782,0.04712l-0.00211,0q-2.48796,3.13708 -4.53091,4.54071l-43.25705,0q0.31442,-5.16553 -0.5561,-7.37747q-0.25842,-0.7497 -0.68685,-1.47294l0.00005,0q-0.26025,-0.43933 -0.58315,-0.86896l-0.00092,0l-1.47595,-45.01293l11.3595,-9.51654l-0.00101,0q0.03506,-0.01929 0.07376,-0.0401l0.00165,0zm-20.70294,-121.16077q-0.04322,0 -0.08637,0.00031l-0.02727,0.00043q-1.9991,0.01592 -3.64457,0.9478q-0.60533,0.33576 -1.30149,0.85084q-2.97134,2.38678 -3.18784,2.47356q-0.5118,0.3824 -3.21624,1.90376q-0.47684,0.28759 -0.82068,0.54657q-1.75192,1.32959 -0.72488,3.00487q0.75812,1.22193 3.30798,1.98603l-0.0014,0.00007q-0.04486,2.70428 -0.40588,4.31115q-0.0992,0.49885 -0.202,0.94183l-1.66956,-0.13201l-0.18544,-1.47461l-5.75093,-0.11486l-0.04391,-0.0008l-0.01546,3.7716l-10.14354,-0.1208l-0.65106,1.0962l-0.67636,-1.65387l-5.59561,0.04767l0.08307,9.09827l5.7792,0.1936l0.44296,-1.48675l0.61254,0.80438l1.883,0.0893l0.01307,1.00988q0.13461,0.7804 0.5376,1.15906q0.26767,0.27679 0.6744,0.27881q0.00406,0.00003 0.00815,0.00003q0.00408,0 0.00818,-0.00003q0.01218,0.00122 0.0263,0.00128q0.00086,0 0.00175,0q0.27923,0 1.31442,-0.44647q0.07673,-0.0304 0.15271,-0.0304q0.00076,0 0.00152,0q0.06824,0.00044 0.1359,0.02521q0.31537,1.63983 1.9987,2.37133q0.8221,0.40778 2.0448,0.70063l4.41216,0.79157q1.03161,0.3134 1.30926,0.8341q0.23886,0.33875 0.3309,1.14392q0.03235,3.36273 0.75071,8.98133l-0.00141,0q-0.40912,0.46375 -0.8251,0.97992q0.11615,0.52117 0.24756,1.02763q-0.28043,-0.4503 -0.35334,-0.45067q-0.00006,-0.00006 -0.00014,-0.00006q-0.01658,0.00006 -0.02232,0.02343q1.80896,6.06983 5.31235,10.60078q2.21597,2.66467 5.03997,2.67846q0.01042,0.00003 0.02082,0.00003q0.01044,0 0.02085,-0.00003q0.37979,-0.00074 0.77063,-0.04924q0.28845,-0.0185 0.61355,-0.07533l0.00153,0q0.44098,2.70593 1.24045,3.0722q0.51855,0.32447 1.33645,0.32843q0.01022,0.00007 0.02048,0.00007q3.2222,0 11.04831,-4.92859l0.00168,0.00012l0.00213,0.07672l0.11768,-0.15234l-0.00159,0q0.06633,-0.04193 0.13297,-0.08418l5.07034,10.261q2.17022,8.59906 0.31686,14.53424q-1.36987,5.60003 -9.93554,19.59613l0.37082,-0.12491l0.00296,0q-6.3512,8.30034 -7.56614,10.47848q-8.20984,12.53943 -7.95202,14.59546q-0.92487,3.5091 -0.59729,8.73444q-0.00147,2.37231 1.99287,17.33866l0.26793,4.0019q0.02561,1.32796 -0.07913,2.6606l-0.57513,5.45996l0.57165,9.79864q-0.0759,2.01526 -0.73392,4.28455q0.03144,0.00488 0.06284,0.0097l-0.00147,0.00005q-2.84649,3.343 -5.01193,4.17055q-0.84554,0.36675 -2.04321,0.55555q-0.60363,0.0944 -1.36997,0.14763q-3.55072,0.13757 -3.59924,0.19407q-0.97152,0.1097 -1.52942,0.4403q-0.82016,0.52207 -0.94632,1.36057l-14.586,0q4.60965,-5.67907 6.14905,-12.14392q1.65912,-6.96855 1.65912,-22.23175l0,-44.79468q0,-15.26392 -1.57575,-22.23175q-1.4934,-6.96784 -5.80667,-12.52594q-4.3143,-5.55835 -13.02407,-9.45728q-8.71018,-3.81579 -19.74292,-3.81579q-13.52106,0 -23.06122,5.5581q-9.45667,5.55811 -12.69135,14.76624q-3.15262,9.20758 -3.15262,27.70642l0,46.86848q0,14.18505 1.99088,20.7383q1.85675,6.0343 6.09409,11.56357l-21.10883,0l0,-10.65127l-36.74832,0q28.20416,-41.7255 34.01059,-54.58335q5.72406,-12.85761 5.72406,-24.38843q0,-15.17969 -10.28617,-25.13489q-10.20358,-9.87163 -30.19528,-9.87163q-10.20331,0 -17.50316,3.23595q-7.30006,3.23493 -11.8627,9.53937q-4.56234,6.30438 -5.72326,12.8576q-1.16172,6.47046 -1.16172,17.75178l0,4.8941l30.02931,0l0,-12.77472q0,-8.87592 1.90802,-11.86194q1.82514,-2.98614 5.64091,-2.98614q3.81579,0 5.72353,2.73742q1.82493,2.65436 1.82493,8.12878q0,7.1344 -6.22129,19.9092q-6.13891,12.69188 -38.90541,66.28014l0,6.91803l-39.24128,0l0,37.37183l428.49469,0l0,-37.37183l-51.37317,0q3.28137,-2.6192 5.74463,-6.07557q5.06005,-7.21716 5.724,-15.34673q0.66326,-8.04633 0.66323,-32.01967l0.00003,-18.6646q-0.00003,-22.14886 -0.74658,-29.86328q-0.74631,-7.71472 -5.47494,-14.76624q-4.72814,-6.96783 -13.35564,-10.70031q-8.627,-3.73359 -22.06575,-3.73359q-10.86673,0 -19.07919,3.23592q-8.21271,3.2349 -12.85736,9.124q-4.646,5.80775 -5.8072,12.6927q-1.07855,6.885 -1.07858,20.98718l0,10.70074q0,11.8628 1.90805,18.83063q1.90775,6.96785 8.9592,11.94475q7.051,4.97774 16.25885,4.97774q7.38298,0 12.3602,-2.73744q4.97693,-2.6549 7.46578,-8.04638l0,21.40178q-0.00002,7.5484 -0.2491,10.03676q-0.1657,2.48914 -1.82462,4.06534q-1.65938,1.5763 -4.23114,1.5763q-3.06921,0 -4.89384,-1.6591q-1.74175,-1.6592 -1.9909,-4.1483q-0.24865,-2.405 -0.2486,-11.779l-33.51385,0q0,12.60895 3.98233,20.90423q2.48609,5.29017 7.064,9.06214l-5.87488,0q-0.09994,-3.06417 -0.75967,-4.6781q-1.10217,-3.06597 -4.80273,-5.69207l-0.00226,-0.0001q0.23566,-0.58084 0.43236,-1.21744l-0.12148,-0.13202q-15.71852,-17.10164 -21.69122,-23.27524q-5.10245,-5.38974 -11.70972,-11.44687q-1.46728,-1.49005 -1.65683,-3.3562q-0.37927,-3.94616 2.57107,-17.95703q1.18561,-5.46942 2.24686,-8.99048l3.8082,-10.9732q0.32168,-1.22089 0.71664,-3.1388l0.00205,0q1.30926,0.49938 2.70819,1.09808l0.65834,-13.42828l-3.28597,-10.34698q-3.76468,-7.71698 -4.60123,-10.43829q-0.44753,-0.63915 -1.32955,-7.31952q-0.33252,-1.65993 -0.97065,-3.91028q-1.76937,-6.08385 -4.87533,-14.01215q-4.95215,-12.47455 -8.15207,-16.4414q-2.66144,-3.5163 -6.09735,-3.5331q-0.01675,-0.00008 -0.03351,-0.00008q-0.52432,0 -1.06668,0.08138q-1.07916,-1.84563 -2.81276,-3.28923l-0.10246,-0.09992q-3.00254,2.10735 -4.92676,3.61945q-0.65994,-1.66235 -0.82675,-2.30646q-1.34589,-5.83508 -1.48795,-5.96864q-0.50192,-1.52904 -1.1803,-2.57762q-1.58093,-2.42615 -4.80221,-3.9845q-3.67577,-1.71906 -6.82819,-1.7345q-0.02704,-0.00012 -0.05404,-0.00012z"/>
</svg>
