<svg fill="currentColor" width="100" height="50" viewBox="0 0 100 50" version="1.1" xmlns="http://www.w3.org/2000/svg">
<title>2019</title>
<path fill="#ffffff" d="m52.614172,8.026062q0.180648,0.182656 0.33772,0.460269q0.161601,0.259063 0.46929,1.030142q0.054555,0.103756 0.118657,0.114848q0.050575,0.003809 0.102041,0.004047q0.003647,0.000024 0.007307,0.000024q0.434707,0 0.933295,-0.252243q0.308518,-0.165023 0.513323,-0.675764l0.725305,0.370211l-0.000374,0q-0.507103,0.846834 -0.744012,1.192767l0,0q-0.178001,-0.104749 -0.33355,-0.105526q-0.000976,-0.000009 -0.001954,-0.000009q-0.022865,0 -0.045224,0.002232q-0.086057,0.00953 -0.184838,0.060681q-0.028793,0.008058 -0.332222,0.206171q-0.0641,0.037667 -0.114559,0.056147q-0.05548,0.020902 -0.109766,0.020902q-0.000659,0 -0.00131,0q-0.063844,-0.000298 -0.126034,-0.029596q-0.115999,-0.049293 -0.310196,-0.258083q-0.174507,-0.183061 -0.697358,-0.788431l-0.000333,0l-0.145803,-0.429041q-0.062054,-0.140034 -0.060055,-0.979749l0.00065,0zm0.503296,2.28408l0,0q0.1392,0.120199 0.307796,0.238388q0.15558,0.109974 0.368109,0.24307l0.550929,0.334557l-0.000357,0q-0.251661,0.265138 -0.579488,0.586721l-0.294818,-0.408266q-0.00701,0.001304 -0.013997,0.002638l-0.338832,-0.997109l0.000659,0zm28.171151,9.298211q0.827641,0 1.193233,0.635135q0.346498,0.635078 0.346513,2.694404l-0.000015,5.639212q0,1.712844 -0.384937,2.309649q-0.365731,0.577316 -1.17395,0.577316q-0.539065,0 -1.058643,-0.461919q-0.500321,-0.461904 -0.500321,-2.425046l0.000009,-5.83165q-0.000009,-2.155532 0.53882,-2.655912q0.538877,-0.481189 1.039292,-0.481189zm-42.560896,0.920847q0.885247,0 1.135493,0.635148q0.231011,0.615834 0.231011,3.098572l0,15.435653q0,2.290162 -0.269529,2.944644q-0.269347,0.654488 -1.135487,0.654488q-0.86603,0 -1.135563,-0.558109q-0.250189,-0.558284 -0.250189,-3.272088l0,-15.204587q0,-2.405645 0.288692,-3.079339q0.269533,-0.654381 1.135572,-0.654381zm20.409289,9.804028l0.6659,5.623454l8.141813,7.28926l0.210971,0.938785q0.093889,0.005806 0.182783,0.010932l-0.000488,0q-0.577242,0.727847 -1.051235,1.05351l-10.036246,0q0.07295,-1.198475 -0.129023,-1.711678q-0.059959,-0.17394 -0.159361,-0.341741l0.000013,0q-0.060383,-0.101931 -0.135299,-0.201611l-0.000214,0l-0.342441,-10.443634l2.635566,-2.207971l-0.000234,0q0.008134,-0.004476 0.017113,-0.009305l0.000383,0zm-4.803374,-28.111009q-0.010029,0 -0.02004,0.000072l-0.006325,0.000101q-0.463818,0.003693 -0.845591,0.219903q-0.140445,0.077901 -0.301963,0.197406q-0.689394,0.553767 -0.739624,0.573901q-0.118747,0.088721 -0.746213,0.441699q-0.110634,0.066725 -0.19041,0.126811q-0.406472,0.308485 -0.168184,0.697174q0.175894,0.283505 0.767498,0.460786l-0.000326,0.000018q-0.010407,0.627429 -0.094169,1.000246q-0.023013,0.115741 -0.046865,0.218519l-0.387361,-0.030629l-0.043025,-0.342129l-1.334298,-0.026649l-0.010191,-0.000186l-0.003586,0.875063l-2.353444,-0.028026l-0.151056,0.254333l-0.156924,-0.383721l-1.29826,0.011059l0.019274,2.110928l1.340857,0.044917l0.102771,-0.344947l0.142119,0.186627l0.436882,0.020718l0.003032,0.234308q0.031233,0.181064 0.124732,0.268919q0.062103,0.064218 0.156468,0.064686q0.000943,0.000007 0.001892,0.000007q0.000943,0 0.001897,-0.000007q0.002827,0.000284 0.006102,0.000298q0.000197,0 0.000405,0q0.064787,0 0.304967,-0.103587q0.017802,-0.007053 0.035429,-0.007053q0.000177,0 0.000354,0q0.015831,0.000103 0.03153,0.00585q0.073171,0.380463 0.463726,0.550181q0.190738,0.094611 0.474422,0.162557l1.023684,0.183654q0.239348,0.072713 0.303766,0.193523q0.055419,0.078596 0.076774,0.265407q0.007506,0.780201 0.174176,2.083795l-0.000328,0q-0.094922,0.107595 -0.191434,0.227355q0.026947,0.120919 0.057436,0.238425q-0.065063,-0.104476 -0.081979,-0.104563q-0.000015,-0.000013 -0.000033,-0.000013q-0.003846,0.000013 -0.005178,0.005437q0.419703,1.408286 1.232539,2.45953q0.514137,0.618241 1.169345,0.621439q0.002418,0.000009 0.004831,0.000009q0.002422,0 0.004837,-0.000009q0.088118,-0.000171 0.178797,-0.011422q0.066924,-0.004292 0.142353,-0.017478l0.000354,0q0.102314,0.627815 0.287801,0.712793q0.120311,0.075282 0.310075,0.076201q0.002372,0.000018 0.004752,0.000018q0.747596,0 2.563365,-1.143503l0.000389,0.000028l0.000494,0.0178l0.027304,-0.035346l-0.00037,0q0.015389,-0.009729 0.030852,-0.01953l1.176389,2.380697q0.503522,1.995102 0.073516,3.372149q-0.317829,1.299284 -2.305186,4.546578l0.086035,-0.028982l0.000687,0q-1.473568,1.925797 -1.755451,2.431157q-1.904799,2.909324 -1.84498,3.386352q-0.214583,0.814162 -0.138579,2.026514q-0.000341,0.550408 0.462374,4.022812l0.062162,0.928498q0.005942,0.308106 -0.018358,0.617298l-0.13344,1.266787l0.132633,2.273423q-0.017612,0.467568 -0.17028,0.994074q0.007294,0.001133 0.014579,0.002251l-0.000341,0.000011q-0.660426,0.775624 -1.162838,0.967626q-0.196177,0.085092 -0.474055,0.128896q-0.140049,0.021902 -0.317851,0.034252q-0.823819,0.03192 -0.835075,0.045027q-0.225408,0.025453 -0.354848,0.102157q-0.190287,0.121127 -0.219558,0.315672l-3.38416,0q1.069505,-1.317624 1.426668,-2.817562q0.384939,-1.616802 0.384939,-5.158078l0,-10.392998q0,-3.541446 -0.365597,-5.15808q-0.346489,-1.616638 -1.34723,-2.906196q-1.000979,-1.289614 -3.021768,-2.194221q-2.020885,-0.885317 -4.580635,-0.885317q-3.137077,0 -5.350529,1.289557q-2.194081,1.289559 -2.944572,3.425977q-0.731452,2.136286 -0.731452,6.42828l0,10.874147q0,3.291133 0.461912,4.811578q0.430791,1.400043 1.413913,2.682912l-4.897545,0l0,-2.471246l-8.526129,0q6.543762,-9.680903 7.890937,-12.664107q1.328062,-2.983147 1.328062,-5.65846q0,-3.521901 -2.386537,-5.831648q-2.367376,-2.290357 -7.005732,-2.290357q-2.367312,0 -4.060981,0.750786q-1.693716,0.750549 -2.752313,2.213268q-1.058527,1.462705 -1.327876,2.983144q-0.269536,1.501237 -0.269536,4.118664l0,1.1355l6.967222,0l0,-2.963916q0,-2.059337 0.442688,-2.752136q0.42346,-0.692827 1.30877,-0.692827q0.885317,0 1.32794,0.63512q0.423409,0.615849 0.423409,1.885992q0,1.655281 -1.443427,4.619215q-1.424314,2.944694 -9.026603,15.377928l0,1.60508l-9.10453,0l0,8.670792l98.979255,0.218779l0.437558,-8.889571l-11.9193,0q0.761324,-0.607691 1.332834,-1.409619q1.174003,-1.674483 1.328049,-3.560657q0.153885,-1.866862 0.153878,-7.429014l0.000007,-4.330451q-0.000007,-5.13885 -0.173216,-6.928704q-0.173155,-1.789922 -1.270263,-3.425975q-1.096995,-1.616636 -3.098697,-2.482624q-2.001586,-0.866244 -5.119566,-0.866244q-2.521234,0 -4.426641,0.750779q-1.905464,0.750543 -2.983088,2.116896q-1.077939,1.347481 -1.347352,2.944887q-0.250239,1.597416 -0.250246,4.869321l0,2.482723q0,2.752337 0.442695,4.368971q0.442625,1.61664 2.07866,2.771351q1.635932,1.154905 3.772282,1.154905q1.712956,0 2.867741,-0.635124q1.154719,-0.615974 1.732167,-1.866873l0,4.965515q-0.000004,1.751334 -0.057795,2.32867q-0.038444,0.577515 -0.423337,0.943215q-0.385001,0.365724 -0.981685,0.365724q-0.712099,0 -1.135438,-0.384935q-0.404111,-0.384957 -0.461919,-0.962463q-0.05769,-0.557993 -0.057677,-2.732894l-7.775687,0q0,2.925455 0.923956,4.850077q0.576808,1.227393 1.638949,2.102544l-1.363056,0q-0.023188,-0.710931 -0.176255,-1.085386q-0.255718,-0.711346 -1.1143,-1.320639l-0.000525,-0.000024q0.054677,-0.134763 0.100315,-0.282463l-0.028185,-0.030631q-3.64692,-3.96782 -5.03267,-5.400183q-1.183841,-1.250496 -2.716821,-2.655836q-0.340429,-0.345712 -0.384408,-0.778684q-0.087995,-0.915566 0.596525,-4.166285q0.275077,-1.268981 0.521304,-2.085917l0.883556,-2.545939q0.074634,-0.283262 0.16627,-0.728245l0.000475,0q0.303768,0.115863 0.62834,0.25477l0.152743,-3.115549l-0.76239,-2.400646q-0.873459,-1.790449 -1.067551,-2.421832q-0.103832,-0.148291 -0.308474,-1.698232q-0.07715,-0.385125 -0.225204,-0.907239q-0.410519,-1.41154 -1.131146,-3.251017q-1.148968,-2.89427 -1.891394,-3.814636q-0.617493,-0.815831 -1.414673,-0.81973q-0.003886,-0.000018 -0.007773,-0.000018q-0.12165,0 -0.247485,0.018881q-0.250382,-0.428212 -0.6526,-0.763149l-0.023773,-0.023182q-0.696631,0.488934 -1.143078,0.839763q-0.153115,-0.385688 -0.191819,-0.535131q-0.312265,-1.353821 -0.345224,-1.384809q-0.116452,-0.354759 -0.273846,-0.598043q-0.366798,-0.562903 -1.114182,-0.924461q-0.852831,-0.398845 -1.584235,-0.402428q-0.006275,-0.000028 -0.012538,-0.000028l-0.000002,0z" id="svg_2"/>
</svg>