<!-- Generated by IcoMoon.io -->
<svg version="1.1" xmlns="http://www.w3.org/2000/svg" width="20" height="20" viewBox="0 0 20 20">
<title>cloud</title>
<path d="M16.88 9.1c1.795 0.419 3.111 2.006 3.111 3.9 0 2.206-1.786 3.995-3.991 4h-11c-0.001 0-0.003 0-0.005 0-2.761 0-5-2.239-5-5 0-2.409 1.704-4.421 3.973-4.894l0.032-0.006v-0.1c0-0.001 0-0.002 0-0.004 0-1.657 1.343-3 3-3 0.56 0 1.085 0.154 1.534 0.421l-0.014-0.008c0.899-0.889 2.136-1.438 3.5-1.438 2.75 0 4.98 2.23 4.98 4.98 0 0.017-0 0.033-0 0.050l0-0.003c0 0.38-0.040 0.74-0.12 1.1z"></path>
</svg>
