<svg style="position: absolute; width: 0;">
    <defs>
        <symbol id="twitter" viewBox="0 0 32 32">
            <title>twitter</title>
            <path d="M28.35 5.16a24.63 24.63 0 1 0 0 49.25 24.63 24.63 0 0 0 0-49.25zm12.4 19.66c.02.26.02.53.02.8 0 8.2-6.24 17.66-17.66 17.66-3.5 0-6.76-1.03-9.5-2.8a12.45 12.45 0 0 0 9.19-2.57 6.21 6.21 0 0 1-5.8-4.3 6.06 6.06 0 0 0 2.8-.1 6.21 6.21 0 0 1-4.98-6.1v-.07c.83.46 1.79.74 2.8.77a6.2 6.2 0 0 1-1.91-8.28A17.62 17.62 0 0 0 28.5 26.3a6.21 6.21 0 0 1 10.57-5.66 12.4 12.4 0 0 0 3.94-1.5 6.22 6.22 0 0 1-2.73 3.43 12.4 12.4 0 0 0 3.57-.98 12.54 12.54 0 0 1-3.1 3.22z"/> 
        </symbol>
        <symbol id="facebook" viewBox="0 0 32 32">
            <title>facebook</title>
            <path xmlns="http://www.w3.org/2000/svg" d="M28.35 5.16a24.63 24.63 0 1 0 0 49.25 24.63 24.63 0 0 0 0-49.25zm12.4 19.66c.02.26.02.53.02.8 0 8.2-6.24 17.66-17.66 17.66-3.5 0-6.76-1.03-9.5-2.8a12.45 12.45 0 0 0 9.19-2.57 6.21 6.21 0 0 1-5.8-4.3 6.06 6.06 0 0 0 2.8-.1 6.21 6.21 0 0 1-4.98-6.1v-.07c.83.46 1.79.74 2.8.77a6.2 6.2 0 0 1-1.91-8.28A17.62 17.62 0 0 0 28.5 26.3a6.21 6.21 0 0 1 10.57-5.66 12.4 12.4 0 0 0 3.94-1.5 6.22 6.22 0 0 1-2.73 3.43 12.4 12.4 0 0 0 3.57-.98 12.54 12.54 0 0 1-3.1 3.22z"/> 
        </symbol>
        <symbol id="pinterest" viewBox="0 0 32 32">
            <title>pinterest</title>
            <path xmlns="http://www.w3.org/2000/svg" d="M28.35 5.16a24.62 24.62 0 0 0-9.89 47.18c-.07-1.73-.01-3.79.43-5.66l3.17-13.42s-.79-1.57-.79-3.9c0-3.64 2.12-6.36 4.75-6.36 2.24 0 3.32 1.68 3.32 3.69 0 2.25-1.43 5.62-2.17 8.74-.62 2.61 1.3 4.74 3.88 4.74 4.67 0 7.81-5.99 7.81-13.09 0-5.4-3.63-9.44-10.24-9.44-7.47 0-12.13 5.57-12.13 11.8a7.1 7.1 0 0 0 1.63 4.83c.45.53.52.75.35 1.37l-.5 1.97c-.16.63-.67.85-1.23.62-3.44-1.4-5.05-5.17-5.05-9.4 0-7 5.9-15.39 17.6-15.39 9.4 0 15.6 6.8 15.6 14.1 0 9.66-5.38 16.88-13.3 16.88-2.65 0-5.15-1.44-6-3.07 0 0-1.44 5.68-1.74 6.77-.52 1.9-1.55 3.8-2.48 5.28a24.62 24.62 0 1 0 6.98-48.24z"/> 
        </symbol>
    </defs>
</svg>