<?xml version="1.0" encoding="iso-8859-1"?>
<!-- Generator: Adobe Illustrator 19.0.0, SVG Export Plug-In . SVG Version: 6.00 Build 0)  -->
<svg xmlns="http://www.w3.org/2000/svg" xmlns:xlink="http://www.w3.org/1999/xlink" version="1.1" id="Layer_1" x="0px" y="0px" viewBox="0 0 513.755 513.755" style="enable-background:new 0 0 513.755 513.755;" xml:space="preserve" width="512px" height="512px">
<g>
	<g>
		<path d="M513.714,304.135c0-54.604-43.34-99.535-99.535-101.127c-17.63-32.076-51.421-53.012-89.863-53.012    c-12.855,0-25.71,3.183-38.565,8.081c-17.631-30.484-51.421-49.706-88.272-49.706c-54.604,0-99.535,43.34-102.718,96.352    c-25.71,1.592-48.115,11.264-65.867,28.893C9.672,251.246,0,276.956,0,304.258c0,56.196,46.523,101.127,104.31,101.127h308.277    C470.374,405.262,515.305,360.331,513.714,304.135z M414.179,373.186H106.024c-40.157,0-72.234-30.485-72.234-69.05    c0-17.63,6.366-35.26,19.222-48.115c12.855-12.855,28.893-19.222,48.115-19.222c3.183,0,6.366,0,11.264,0    c4.775,0,9.672-1.592,12.855-4.775c3.183-3.183,4.775-8.081,4.775-12.855c0-3.183,0-4.775,0-8.081    c0-38.565,32.076-70.642,70.642-70.642c28.893,0,56.195,17.63,65.867,44.931c1.592,4.775,4.775,8.081,9.672,9.672    c3.183,1.592,8.081,1.592,12.855-1.592c11.264-8.081,24.118-11.264,36.974-11.264c28.893,0,54.604,16.038,65.867,43.34    c1.592,6.366,8.081,11.264,16.039,9.672h3.183c0,0,1.592,0,3.183,0c40.157,0,70.642,30.485,70.642,69.05    C484.944,342.821,452.744,373.186,414.179,373.186z" fill="#777777"/>
	</g>
</g>
<g>
</g>
<g>
</g>
<g>
</g>
<g>
</g>
<g>
</g>
<g>
</g>
<g>
</g>
<g>
</g>
<g>
</g>
<g>
</g>
<g>
</g>
<g>
</g>
<g>
</g>
<g>
</g>
<g>
</g>
</svg>
