<?xml version="1.0" encoding="UTF-8"?>
<!DOCTYPE svg  PUBLIC '-//W3C//DTD SVG 1.1//EN'  'http://www.w3.org/Graphics/SVG/1.1/DTD/svg11.dtd'>
<svg viewBox="0 0 94 94" fill="#DDD" xmlns="http://www.w3.org/2000/svg">
    <path d="m86.75 70.981v-11.481c0-6.934-4.594-17.25-17.25-17.25h-10c-7.06 0-7.717-3.464-7.75-5.25v-13.98c4.264-1.842 7.25-6.081 7.25-11.02 0-6.626-5.373-12-12-12s-12 5.374-12 12c0 4.939 2.986 9.178 7.25 11.02v13.98c0 1.294-0.374 5.25-7.75 5.25h-10c-12.656 0-17.25 10.316-17.25 17.25v11.481c-4.264 1.841-7.25 6.081-7.25 11.019 0 6.627 5.373 12 12 12s12-5.373 12-12c0-4.938-2.986-9.178-7.25-11.019v-11.481c0-1.294 0.374-7.75 7.75-7.75h10c3.035 0 5.595-0.459 7.75-1.237v20.469c-4.264 1.84-7.25 6.08-7.25 11.018 0 6.627 5.373 12 12 12s12-5.373 12-12c0-4.938-2.986-9.178-7.25-11.019v-20.468c2.155 0.778 4.715 1.237 7.75 1.237h10c7.06 0 7.717 5.964 7.75 7.75v11.481c-4.264 1.841-7.25 6.081-7.25 11.019 0 6.627 5.373 12 12 12s12-5.373 12-12c0-4.938-2.986-9.178-7.25-11.019zm-67.827 11.019c0 3.823-3.101 6.923-6.923 6.923-3.823 0-6.923-3.1-6.923-6.923s3.1-6.923 6.923-6.923c3.822 0 6.923 3.1 6.923 6.923zm21.154-70c0-3.823 3.101-6.923 6.923-6.923 3.823 0 6.923 3.1 6.923 6.923s-3.1 6.923-6.923 6.923c-3.822 0-6.923-3.1-6.923-6.923zm13.846 70c0 3.823-3.1 6.923-6.923 6.923-3.822 0-6.923-3.1-6.923-6.923s3.101-6.923 6.923-6.923c3.823 0 6.923 3.1 6.923 6.923zm28.077 6.923c-3.822 0-6.923-3.1-6.923-6.923s3.101-6.923 6.923-6.923c3.823 0 6.923 3.1 6.923 6.923s-3.1 6.923-6.923 6.923z"/>
</svg>
