<?xml version="1.0" encoding="UTF-8"?>
<!DOCTYPE svg>
<svg enable-background="new 0 0 32 32" version="1.1" viewBox="0 0 32 32" xml:space="preserve" xmlns="http://www.w3.org/2000/svg">
    <symbol id="twitter" viewBox="0 0 60 60">
        <title>Twitter chart</title>
        <g transform="translate(13 16)"><path d="m28.052 2.4367c-1.209-1.3745-2.9316-2.2502-4.8381-2.282-3.6605-0.060928-6.6284 3.0322-6.6284 6.9084 0 0.55013 0.058638 1.0866 0.17172 1.6016-5.5088-0.35732-10.393-3.2259-13.662-7.55-0.57055 1.0361-0.89751 2.2472-0.89751 3.5444 0 2.4558 1.1702 4.6354 2.9487 5.9223-1.0865-0.047968-2.1086-0.37688-3.0022-0.91647-6.4615e-4 0.029493-6.4615e-4 0.058993-6.4615e-4 0.08901 0 3.4296 2.2848 6.3067 5.317 6.977-0.55618 0.1576-1.1418 0.24008-1.7462 0.23607-0.42711-0.0028322-0.84242-0.050196-1.2471-0.13524 0.84339 2.8126 3.2912 4.865 6.1918 4.9329-2.2685 1.8831-5.1264 3.0046-8.232 2.9982-0.53502-0.0011037-1.0626-0.035675-1.5811-0.10219 2.9334 2.0127 6.4174 3.1846 10.161 3.1856 12.192 0.0031987 18.859-10.607 18.859-19.809 0-0.30193-0.0066231-0.60225-0.019223-0.90112 1.2951-0.96499 2.4187-2.1749 3.3073-3.5564-1.1886 0.5358-2.4662 0.89165-3.8068 1.0409 1.3684-0.84217 2.4195-2.19 2.9143-3.8064-1.2808 0.77673-2.6993 1.3338-4.2092 1.6229z"/></g>
    </symbol>
    <symbol id="pinterest" viewBox="0 0 60 60">
        <title>Pinterest chart</title>
        <g transform="translate(16 12)"><path d="m16.759 27.084c6.6056 0 11.087-6.1474 11.087-14.376 0-6.2204-5.1629-12.016-13.007-12.016-9.7623 0-14.685 7.1452-14.685 13.103 0 3.6078 1.337 6.8175 4.2078 8.0138 0.47031 0.19602 0.89174 0.0063136 1.0287-0.52493 0.093651-0.36829 0.32012-1.2973 0.41848-1.6836 0.13783-0.52613 0.084816-0.71043-0.29509-1.1692-0.82695-0.99755-1.3547-2.2864-1.3547-4.1141 0-5.3004 3.883-10.046 10.116-10.046 5.5163 0 8.5493 3.4409 8.5493 8.0384 0 6.0478-2.6216 11.152-6.5146 11.152-2.1504 0-3.7581-1.8147-3.2433-4.0401 0.61639-2.6571 1.8144-5.5259 1.8144-7.444 0-1.7161-0.90264-3.1493-2.7715-3.1493-2.1978 0-3.9628 2.3216-3.9628 5.43 0 1.9798 0.65644 3.3192 0.65644 3.3192s-2.2491 9.7269-2.644 11.43c-0.35811 1.5507-0.41171 3.2551-0.36135 4.6955 0.15049 1.2922 1.4021 2.3445 2.4879 0.9269 0.76334-1.2456 1.5841-2.8186 2.0088-4.3952 0.25327-0.93291 1.446-5.7655 1.446-5.7655 0.71475 1.3902 2.8013 2.6144 5.0194 2.6144z"/></g>
    </symbol>
    <symbol id="facebook" viewBox="0 0 60 60">
        <title>Facebook chart</title>
        <g transform="translate(21 12)"><path d="m4.4622 35.314v-17.315l-3.5189-1e-7v-5.7396h3.5189l1e-8 -3.471c0-4.6817 1.3998-8.0578 6.5259-8.0578h6.0983v5.7278h-4.2941c-2.1504 0-2.6404 1.4289-2.6404 2.9253v2.8756l6.6175 5e-7 -0.90325 5.7396h-5.7143v17.315l-5.6896 7e-7z"/></g>
    </symbol>
    <symbol id="google" viewBox="0 0 57 57">
        <title>Google chart</title>
        <path d="m52.218 25.852h-7.512v-7.51c0-0.573-0.465-1.039-1.037-1.039h-2.139c-0.576 0-1.041 0.466-1.041 1.039v7.51h-7.512c-0.572 0-1.039 0.467-1.039 1.041v2.139c0 0.574 0.467 1.039 1.039 1.039h7.512v7.514c0 0.574 0.465 1.039 1.041 1.039h2.139c0.572 0 1.037-0.465 1.037-1.039v-7.515h7.512c0.572 0 1.039-0.465 1.039-1.039v-2.139c0-0.574-0.467-1.04-1.039-1.04z"/><path d="m26.974 32.438c-1.58-1.119-3.016-2.76-3.041-3.264 0-0.918 0.082-1.357 2.141-2.961 2.662-2.084 4.128-4.824 4.128-7.719 0-2.625-0.802-4.957-2.167-6.595h1.059c0.219 0 0.434-0.068 0.609-0.196l2.955-2.141c0.367-0.263 0.521-0.732 0.381-1.161-0.141-0.428-0.537-0.72-0.988-0.72h-13.216c-1.446 0-2.915 0.255-4.357 0.751-4.816 1.661-8.184 5.765-8.184 9.978 0 5.969 4.624 10.493 10.805 10.635-0.121 0.473-0.182 0.939-0.182 1.396 0 0.92 0.233 1.791 0.713 2.633h-0.17c-5.892 0-11.21 2.891-13.229 7.193-0.526 1.119-0.794 2.25-0.794 3.367 0 1.086 0.279 2.131 0.826 3.113 1.269 2.27 3.994 4.031 7.677 4.961 1.901 0.48 3.944 0.725 6.065 0.725 1.906 0 3.723-0.246 5.403-0.732 5.238-1.521 8.625-5.377 8.625-9.828-1e-3 -4.271-1.374-6.828-5.059-9.435zm-16.691 9.777c0-3.107 3.947-5.832 8.446-5.832h0.121c0.979 0.012 1.934 0.156 2.834 0.432 0.309 0.213 0.607 0.416 0.893 0.611 2.084 1.42 3.461 2.357 3.844 3.861 0.09 0.379 0.135 0.758 0.135 1.125 0 3.869-2.885 5.83-8.578 5.83-4.315 0-7.695-2.646-7.695-6.027zm4.094-29.357c0.703-0.803 1.624-1.227 2.658-1.227l0.117 2e-3c2.921 0.086 5.716 3.341 6.23 7.256 0.289 2.192-0.199 4.253-1.301 5.509-0.705 0.805-1.613 1.229-2.689 1.229h-2e-3 -0.047c-2.861-0.088-5.716-3.467-6.227-7.377-0.287-2.186 0.173-4.151 1.261-5.392z"/>
    </symbol>
</svg>