<?xml version="1.0" encoding="UTF-8"?>
<!DOCTYPE svg  PUBLIC '-//W3C//DTD SVG 1.1//EN'  'http://www.w3.org/Graphics/SVG/1.1/DTD/svg11.dtd'>
<svg fill="#DDD" viewBox="0 0 800 800" xmlns="http://www.w3.org/2000/svg">
    <path d="m400 34.504c-201.54 0-365.49 163.96-365.49 365.5s163.95 365.5 365.49 365.5c201.54 0 365.5-163.96 365.5-365.5s-163.96-365.5-365.5-365.5zm183.45 336.58h148.74c0.83 9.536 1.338 19.166 1.338 28.917 0 9.745-0.508 19.371-1.338 28.907h-148.74c1.491-9.447 2.48-19.055 2.48-28.907 1e-3 -9.862-0.998-19.47-2.48-28.917zm144.4-31.972h-149.87c-0.819 0-1.613 0.125-2.407 0.241-18.689-53.926-61.438-96.575-115.44-115.11 0.456-1.472 0.768-3.002 0.768-4.621v-147.47c135.15 25.05 241.9 131.8 266.95 266.96zm-327.85 214.85c-84.891 0-153.96-69.064-153.96-153.96 0-84.895 69.073-153.96 153.96-153.96 84.897 0 153.96 69.064 153.96 153.96 0 84.894-69.066 153.96-153.96 153.96zm28.929-486.15v148.74c-9.454-1.485-19.064-2.484-28.929-2.484-9.849 0-19.458 0.995-28.895 2.479v-148.74c9.527-0.821 19.153-1.33 28.895-1.33 9.749 0 19.385 0.508 28.929 1.334zm-89.796 4.331v147.48c0 1.614 0.312 3.145 0.758 4.612-54.015 18.528-96.772 61.192-115.47 115.12-0.785-0.116-1.579-0.241-2.409-0.241h-149.87c25.049-135.17 131.82-241.93 266.99-266.97zm-272.65 327.86c0-9.751 0.509-19.381 1.33-28.917h148.74c-1.481 9.447-2.479 19.054-2.479 28.917 0 9.853 0.999 19.46 2.479 28.907h-148.74c-0.821-9.536-1.33-19.162-1.33-28.907zm5.665 60.88h149.87c0.83 0 1.614-0.125 2.409-0.241 18.6 53.685 61.062 96.188 114.72 114.86 0 0.034-9e-3 0.06-9e-3 0.097v152.27c-135.18-25.046-241.94-131.81-266.99-266.98zm298.96 271.32v-148.74c9.438 1.486 19.046 2.48 28.895 2.48 9.864 0 19.475-0.999 28.929-2.484v148.74c-9.544 0.825-19.18 1.333-28.929 1.333-9.742 0-19.368-0.507-28.895-1.328zm89.797-4.346v-152.26c0-0.037-0.019-0.07-0.019-0.106 53.647-18.672 96.102-61.17 114.69-114.85 0.794 0.116 1.588 0.241 2.407 0.241h149.87c-25.036 135.16-131.79 241.92-266.95 266.97z"/>
</svg>
