<?xml version="1.0" encoding="UTF-8"?>
<!DOCTYPE svg  PUBLIC '-//W3C//DTD SVG 1.1//EN'  'http://www.w3.org/Graphics/SVG/1.1/DTD/svg11.dtd'>
<svg viewBox="0 0 512 512" xmlns="http://www.w3.org/2000/svg">
    <title>Tools chart</title>
    <g fill="#DDD" stroke="#DDD" stroke-linecap="round" stroke-linejoin="round" stroke-miterlimit="10" stroke-width="10">
        <path d="m110.6 206.2c1.3 0.1 2.6 0.4 3.8 1 1.8 1 4 0.7 5.5-0.8l49.1-49.1c2.2-2.2 2.2-5.8 0-8-2.7-2.7-2.7-7.1 0-9.8l13.4-13.4c2.7-2.7 7.1-2.7 9.8 0l4 4 32-32c7.7-7.7 7.7-20.1 0-27.7l-42.6-42.6c-7.7-7.7-20.1-7.7-27.7 0l-32 32 3.3 3.3c3.5 3.5 3.5 9.3 0 12.8l-10.3 10.3c-3.5 3.5-9.3 3.5-12.8 0-1.8-1.8-4.7-1.8-6.5 0l-49.8 49.8c-1.8 1.8-1.8 4.8 0 6.6s2.1 4.7 0.6 6.9c-64.3 95-18.7 141.5-18.7 141.5 5.7-41.6 40.8-80.2 75.2-84.8 1.1-0.1 2.5-0.1 3.7 0z"/>
        <path d="m444.1 412.7l-257.9-238.4-46.8 46.8 238.3 257.9c13.1 14 35.2 14.4 48.8 0.8l18.4-18.4c13.6-13.5 13.2-35.6-0.8-48.7z"/>
        <path d="m100.6 427.5c-14.3 14.3-14.3 37.4 0 51.7s37.4 14.3 51.7 0l102.6-102.6-49.7-53.7-104.6 104.6z"/>
        <path d="m493.4 151.4l-55.9 55.9c-4.3 4.3-10.8 5.7-16.5 3.6l-31.3-11.7c-4.2-1.6-7.6-4.9-9.1-9.1l-11.7-31.3c-2.1-5.7-0.7-12.2 3.6-16.5l55.9-55.9c-29.4-7.2-61.7 0.7-84.5 23.8-25.1 25.4-31.7 62.4-19.9 93.9l-36.1 36.1 53.7 49.7 34-34c31.7 12 68.9 5.2 94.4-20.3 22.8-22.9 30.6-55 23.4-84.2z"/>
    </g>
</svg>
