 <svg aria-hidden="true" style="position: absolute; width: 0; height: 0; overflow: hidden">
    <defs>
        <symbol id="icon-cloud" viewBox="0 0 18 18">
            <title>cloud</title>
            <path d="M3.432 9.057c-0.999 0.23-1.744 1.126-1.744 2.193 0 1.243 1.011 2.25 2.252 2.25h9.559c1.244 0 2.252-1.010 2.252-2.25 0-1.051-0.723-1.933-1.696-2.181v0c-0.108-1.299-1.196-2.319-2.522-2.319-0.605 0-1.161 0.213-1.597 0.567-0.462-1.313-1.713-2.255-3.185-2.255-1.864 0-3.375 1.511-3.375 3.375 0 0.212 0.020 0.419 0.057 0.62v0zM14.559 8.643c1.030 0.418 1.753 1.428 1.753 2.607 0 1.55-1.259 2.813-2.812 2.813h-9.563c-1.556 0-2.812-1.259-2.812-2.813 0-1.154 0.697-2.148 1.694-2.581v0c-0.004-0.077-0.007-0.154-0.007-0.231 0-2.175 1.763-3.938 3.938-3.938 1.47 0 2.751 0.805 3.428 1.998 0.409-0.199 0.868-0.311 1.353-0.311 1.49 0 2.734 1.053 3.028 2.456v0 0z"></path>
        </symbol>
        <symbol id="icon-lock" viewBox="0 0 18 18">
            <title>lock</title>
            <path d="M8.438 12.327v0 0c-0.328-0.116-0.563-0.428-0.563-0.796 0-0.466 0.378-0.844 0.844-0.844s0.844 0.378 0.844 0.844c0 0.367-0.235 0.68-0.563 0.796v1.459c0 0.148-0.126 0.276-0.281 0.276-0.151 0-0.281-0.124-0.281-0.276v-1.459zM7.875 12.656v1.124c0 0.467 0.375 0.845 0.844 0.845 0.466 0 0.844-0.378 0.844-0.845v-1.124c0.342-0.257 0.563-0.665 0.563-1.125 0-0.777-0.63-1.406-1.406-1.406s-1.406 0.63-1.406 1.406c0 0.46 0.221 0.869 0.563 1.125v0 0zM4.5 7.875v-1.969c0-2.33 1.889-4.218 4.219-4.218 2.325 0 4.219 1.889 4.219 4.218v1.969c0.933 0.003 1.688 0.76 1.688 1.693v5.614c0 0.941-0.758 1.693-1.692 1.693h-8.428c-0.936 0-1.692-0.758-1.692-1.693v-5.614c0-0.939 0.755-1.69 1.688-1.693v0 0zM5.063 7.875h0.563v-1.964c0-1.714 1.385-3.099 3.094-3.099 1.705 0 3.094 1.387 3.094 3.099v1.964h0.563v-1.972c0-2.017-1.641-3.653-3.656-3.653-2.019 0-3.656 1.636-3.656 3.653v1.972zM6.188 7.875h5.063v-1.968c0-1.398-1.136-2.532-2.531-2.532-1.398 0-2.531 1.13-2.531 2.532v1.968zM4.499 8.438c-0.621 0-1.124 0.505-1.124 1.128v5.618c0 0.623 0.501 1.128 1.124 1.128h8.44c0.621 0 1.124-0.505 1.124-1.128v-5.618c0-0.623-0.501-1.128-1.124-1.128h-8.44z"></path>
        </symbol>
    </defs>
</svg>
