<?xml version="1.0" standalone="no"?>
<!DOCTYPE svg PUBLIC "-//W3C//DTD SVG 1.1//EN" "http://www.w3.org/Graphics/SVG/1.1/DTD/svg11.dtd" >
<svg xmlns="http://www.w3.org/2000/svg" xmlns:xlink="http://www.w3.org/1999/xlink" version="1.1">
<metadata>
Created by FontForge 20170910 at Tue Dec 14 11:17:55 2004
 By Jimmy Wärting
</metadata>
<defs>
<font id="Bello_Script" horiz-adv-x="1798" >
  <font-face 
    font-family="Bello Script"
    font-weight="400"
    font-stretch="normal"
    units-per-em="4096"
    panose-1="2 0 5 5 2 0 0 2 0 3"
    ascent="3072"
    descent="-1024"
    x-height="1851"
    cap-height="2974"
    bbox="-778 -1626 4690 4424"
    underline-thickness="82"
    underline-position="-410"
    unicode-range="U+000D-FB02"
  />
<missing-glyph horiz-adv-x="1663" 
d="M721 381v217h180v-217h-180zM729 758l-4 53q0 90 9.5 156t31.5 106q22 43 59 91.5t93 101.5q52 51 83.5 88t48 67.5t22 58.5t5.5 60q0 57 -20 107t-53.5 87.5t-78 59t-94.5 21.5q-51 0 -95 -17t-79 -54.5t-59 -96.5t-33 -144l-164 29q12 114 50 197t95.5 137.5t132.5 81
t161 26.5t159.5 -30.5t127 -86t84 -134t30.5 -175.5q0 -52 -9 -97.5t-32 -90.5t-62.5 -93.5t-101.5 -107.5q-62 -49 -96 -91.5t-43 -76.5q-6 -31 -11 -89t-5 -144h-152zM1499 160v2003h-1339v-2003h1339zM1663 2331v-2331h-1663v2331h1663z" />
    <glyph glyph-name=".notdef" horiz-adv-x="1663" 
d="M721 381v217h180v-217h-180zM729 758l-4 53q0 90 9.5 156t31.5 106q22 43 59 91.5t93 101.5q52 51 83.5 88t48 67.5t22 58.5t5.5 60q0 57 -20 107t-53.5 87.5t-78 59t-94.5 21.5q-51 0 -95 -17t-79 -54.5t-59 -96.5t-33 -144l-164 29q12 114 50 197t95.5 137.5t132.5 81
t161 26.5t159.5 -30.5t127 -86t84 -134t30.5 -175.5q0 -52 -9 -97.5t-32 -90.5t-62.5 -93.5t-101.5 -107.5q-62 -49 -96 -91.5t-43 -76.5q-6 -31 -11 -89t-5 -144h-152zM1499 160v2003h-1339v-2003h1339zM1663 2331v-2331h-1663v2331h1663z" />
    <glyph glyph-name=".null" horiz-adv-x="0" 
 />
    <glyph glyph-name="nonmarkingreturn" unicode="&#xd;" horiz-adv-x="606" 
 />
    <glyph glyph-name="space" unicode=" " horiz-adv-x="901" 
 />
    <glyph glyph-name="e" unicode="e" horiz-adv-x="1470" 
d="M983 1339q0 65 -22.5 100.5t-59.5 35.5q-21 0 -50.5 -26.5t-58.5 -79.5t-52.5 -133t-34.5 -187q86 15 140 45.5t85 69.5t42 84t11 91zM688 -37q-150 0 -260.5 46t-183 134.5t-107.5 217t-35 294.5q0 155 39 307.5t106 291.5t156.5 258t189.5 206.5t205.5 137t205.5 49.5
q212 0 325 -103.5t113 -318.5q0 -129 -40 -242.5t-130.5 -208t-236 -167t-355.5 -120.5q0 -69 8.5 -122.5t30 -89.5t60 -55t98.5 -19q104 0 220.5 42.5t232 120.5t224 187.5t195.5 243.5q37 -1 66 -13.5t49 -31t30.5 -42.5t10.5 -48q0 -57 -30.5 -128.5t-85 -149
t-129.5 -158t-164 -156t-189 -141.5t-204 -115.5t-209.5 -78t-205.5 -28.5z" />
    <glyph glyph-name="r" unicode="r" horiz-adv-x="1569" 
d="M1143 1565q90 -26 147 -51t89 -51.5t43.5 -56.5t11.5 -67q0 -62 -30.5 -137t-80.5 -174q-35 -70 -67 -141.5t-56 -136.5t-38.5 -120t-14.5 -93q0 -44 14.5 -71.5t55.5 -27.5q29 0 70.5 20.5t92 58t108 91t116.5 119.5t118 143t113 162q38 0 70 -11t54.5 -29t35 -41
t12.5 -46q0 -48 -31 -116.5t-84.5 -147t-126 -162.5t-155.5 -164.5t-173.5 -152.5t-179.5 -126t-172.5 -86t-154.5 -32q-187 0 -288 84.5t-101 259.5q0 68 15 140.5t37 144t48 139.5t48 126t37 103.5t15 71.5q0 37 -33.5 60t-101.5 51q-48 -91 -90.5 -164.5t-84.5 -137.5
t-86 -121t-95 -114q-39 0 -69.5 13t-51.5 35t-32 51t-11 61q0 25 6.5 51t22.5 47q40 57 74.5 106.5t66 98.5t59.5 101.5t54 115.5q-25 28 -43.5 68.5t-18.5 99.5q0 72 33 151t87 156t123.5 146.5t143 122.5t144.5 84.5t129 31.5q52 0 95 -12t73.5 -34.5t47.5 -55t17 -74.5
q0 -44 -12 -82q-74 -40 -135.5 -88t-102.5 -117q34 -18 87 -38t106 -35z" />
    <glyph glyph-name="w" unicode="w" horiz-adv-x="2478" 
d="M418 1343q-29 25 -47 53.5t-27.5 58.5t-12.5 60t-3 58q1 64 25.5 125.5t67.5 117t102 102.5t129 81.5t147.5 54t158.5 19.5q82 0 139 -19.5t92.5 -53.5t51.5 -79.5t16 -97.5q0 -16 -0.5 -31t-3.5 -31q-66 -69 -131 -158t-124 -188t-109 -203t-86.5 -204t-57 -191.5
t-20.5 -165.5q0 -95 28.5 -133.5t77.5 -38.5q15 0 39 2t51 9t55 20t52 35q-3 21 -3.5 63t-0.5 88q0 121 22.5 242.5t61 233.5t90 209.5t109.5 169t120 112.5t121 41q78 0 133 -24t89 -65.5t49.5 -98.5t15.5 -123q0 -69 -18.5 -164.5t-57.5 -204t-100.5 -224.5t-147.5 -227
q7 -83 39.5 -123t75.5 -40q42 0 80 30t71.5 81.5t62 121t51.5 149t41 164.5t30 167.5t18.5 159t6.5 138.5q0 37 -2.5 79.5t-6.5 85.5t-7 83t-5 72q28 46 83 74t126 28q66 0 116.5 -18.5t88 -50t63.5 -73t42 -87t23 -92t7 -88.5q0 -182 -37.5 -364.5t-106 -350.5
t-164.5 -312.5t-212.5 -251.5t-250.5 -168t-278 -61q-119 0 -207 65t-141 210q-57 -54 -121.5 -99t-133.5 -78t-141 -51t-144 -18q-108 0 -197.5 29.5t-154 92.5t-100.5 161.5t-36 236.5q0 122 23 232t65.5 215t103.5 208.5t136 212.5z" />
    <glyph glyph-name="n" unicode="n" horiz-adv-x="1937" 
d="M246 963q-25 58 -33 125t-8 129q0 60 28 133.5t75.5 148t110 144.5t131.5 124.5t139.5 87.5t133.5 33q53 0 87 -9.5t53.5 -30.5t27.5 -53.5t8 -78.5q0 -38 -10 -107t-30 -151t-51 -169.5t-72 -162.5q112 194 219.5 327.5t205.5 216.5t183.5 120t152.5 37q71 0 124 -21.5
t88.5 -60t53 -90t17.5 -111.5q0 -82 -27 -192.5t-92 -257.5q-18 -45 -40.5 -98t-45 -108.5t-44 -110t-38.5 -103t-27 -88.5t-10 -66q0 -34 15 -47.5t43 -13.5q31 0 92 38.5t140.5 111.5t173 180t188.5 243q29 0 57.5 -9.5t51 -27t36.5 -42.5t14 -56q0 -48 -30.5 -114.5
t-83.5 -142.5t-125 -157t-154.5 -158t-172 -145.5t-177.5 -120.5t-171.5 -82t-154.5 -30q-90 0 -152 20t-100 61t-54.5 103.5t-16.5 147.5q0 68 15.5 145t38.5 155.5t50.5 154t50.5 139t38.5 110.5t15.5 70q0 49 -49 49q-14 0 -45 -13t-75 -45.5t-98 -87t-114 -137.5
q-22 -118 -37.5 -215.5t-26.5 -187.5t-18 -180.5t-12 -194.5q-15 -15 -29.5 -25.5t-32.5 -16.5t-42.5 -8.5t-59.5 -2.5q-86 0 -159 38t-126.5 101.5t-84 147.5t-32.5 176q0 117 25 243t78 269z" />
    <glyph glyph-name="c" unicode="c" horiz-adv-x="1384" 
d="M676 -37q-151 0 -259.5 46t-178.5 134.5t-103 217t-33 294.5q0 158 39.5 312t107.5 293.5t159.5 258t196.5 205.5t217.5 136t221.5 49q105 0 183 -27t130.5 -78t78.5 -125t26 -168q0 -98 -32 -184t-85 -149.5t-121.5 -100.5t-142.5 -37q-68 0 -109.5 20.5t-66.5 57.5
q22 84 31.5 151t9.5 107q0 44 -17 65t-36 21q-29 0 -67.5 -47.5t-72.5 -135.5t-57.5 -213t-23.5 -280q0 -84 12 -144t38.5 -98t68.5 -55.5t102 -17.5q86 0 185.5 42t200.5 118t199 182.5t181 235.5q28 0 56.5 -9t51.5 -26.5t37.5 -43t14.5 -57.5q0 -53 -29 -122t-80 -145.5
t-122 -157t-155 -156.5t-178 -143t-191.5 -117t-196 -79.5t-191.5 -29.5z" />
    <glyph glyph-name="u" unicode="u" horiz-adv-x="1855" 
d="M1282 1831q31 40 78.5 59t93.5 19q86 0 158.5 -28t125.5 -74.5t83 -106.5t30 -123q0 -28 -3.5 -58.5t-12 -68t-23.5 -84.5t-38 -109q-21 -58 -48.5 -126.5t-56.5 -139t-56.5 -138.5t-49 -125.5t-34.5 -100.5t-13 -62q0 -40 16 -52.5t41 -12.5q35 0 89 31.5t124.5 96.5
t156 165.5t183.5 238.5q32 0 62.5 -9.5t54 -26.5t37.5 -40t14 -51q0 -55 -35.5 -129.5t-96.5 -158t-141.5 -170t-169.5 -164.5q-72 -64 -147.5 -119.5t-150.5 -96.5t-146.5 -64t-136.5 -23q-63 0 -113 11.5t-85.5 41.5t-54 81.5t-18.5 131.5q0 43 6.5 95.5t18.5 117.5
q-74 -140 -155.5 -242.5t-164 -170t-162.5 -100t-149 -32.5q-90 0 -148 25.5t-91.5 74.5t-46.5 121t-13 164q0 46 10.5 112t31.5 147t51.5 173t70.5 191q-34 65 -43.5 128.5t-9.5 125.5q0 64 30.5 141t82 156.5t120 154t144 132.5t153.5 93t150 35q48 0 84.5 -8.5t61 -27.5
t37.5 -50.5t13 -77.5q0 -99 -78.5 -279t-236.5 -437q-31 -112 -48.5 -199.5t-17.5 -136.5q0 -50 19.5 -78.5t62.5 -28.5q26 0 62 17t75 43.5t77 59.5t69 65q52 166 89.5 306t63.5 268.5t41.5 251.5t22.5 255z" />
    <glyph glyph-name="l" unicode="l" horiz-adv-x="1065" 
d="M250 1184q18 100 40.5 218.5t44 241.5t41.5 244t34 226q27 207 92.5 371t157.5 278t204.5 174.5t233.5 60.5q66 0 119 -16t90 -51t57 -90.5t20 -133.5q0 -45 -7.5 -93.5t-25 -106.5t-46.5 -129.5t-72 -163t-102 -206.5t-136 -259q-21 -74 -45 -161.5t-49 -181t-50 -188.5
t-48.5 -185.5t-43.5 -172t-35 -147t-23.5 -111.5t-8.5 -65q0 -34 15 -48t43 -14q48 0 114.5 41.5t143.5 116.5t160 179t163 228q29 0 57 -10t50 -28.5t35.5 -44t13.5 -56.5q0 -58 -29.5 -130t-81 -150t-121.5 -158.5t-151.5 -155t-171 -140.5t-180 -115t-178 -77t-164.5 -28
q-89 0 -151 19.5t-100.5 58.5t-55.5 98t-17 139q0 69 10 152t25.5 171t34.5 176.5t37 168t33.5 145.5t23.5 109z" />
    <glyph glyph-name="h" unicode="h" horiz-adv-x="1880" 
d="M246 856q40 374 82 678t93 542t114 411.5t144.5 287t184.5 168.5t234 55q66 0 116 -16t83 -51t50 -90.5t17 -133.5q0 -67 -19 -149t-66 -193t-126 -258.5t-199 -345.5l-98 -385q223 204 405.5 303t303.5 99q58 0 102.5 -17.5t74.5 -49.5t45 -76.5t15 -98.5
q0 -95 -26 -194t-72 -216q-17 -45 -39 -101t-45 -115.5t-44.5 -119.5t-38.5 -113.5t-27.5 -96t-10.5 -68.5q0 -34 15 -47.5t42 -13.5q28 0 87 37t138.5 110.5t174 182t194.5 251.5q29 0 58 -9.5t51.5 -27t36.5 -42.5t14 -56q0 -48 -30.5 -116t-84 -145.5t-125.5 -160.5
t-155 -162.5t-173 -150t-178.5 -124t-172 -85t-154.5 -31.5q-91 0 -153 20t-100 61.5t-54.5 104t-16.5 146.5q0 68 16 149.5t39.5 166t51 167.5t51 152.5t39.5 121.5t16 74q0 25 -11.5 45.5t-45.5 20.5q-53 0 -124 -34t-154 -105q-15 -109 -28 -222t-23 -233.5t-15.5 -250.5
t-7.5 -273q-28 -31 -77.5 -44.5t-111.5 -13.5q-59 0 -113 17t-100 47.5t-83 71.5t-63.5 88.5t-41.5 100.5t-16 106q0 95 29 206.5t106 243.5z" />
    <glyph glyph-name="period" unicode="." horiz-adv-x="1520" 
d="M885 -70q-74 0 -135 33.5t-105 90t-68 131t-24 155.5q0 75 36 137.5t96.5 107.5t139 70t162.5 25q71 0 124.5 -13t89.5 -36.5t54.5 -56t18.5 -70.5q0 -59 -13.5 -125t-38.5 -129.5t-60 -121.5t-78 -102t-93.5 -70t-105.5 -26z" />
    <glyph glyph-name="g" unicode="g" 
d="M-70 -365q0 63 23 126t66.5 115t106 85.5t140.5 38.5q63 -97 128 -182t127.5 -148.5t121 -100t107.5 -36.5q46 0 74 35.5t40 124.5q5 35 13 102t18 156t21 196t22 222q-13 -26 -36.5 -58.5t-54.5 -66t-69.5 -65.5t-81 -57t-89.5 -40.5t-95 -15.5q-87 0 -162 31.5t-130 97
t-86.5 166.5t-31.5 241q0 138 39.5 274t106.5 258.5t155.5 227.5t186.5 182t200.5 120.5t196.5 43.5q43 0 67 -6.5t40 -22.5q6 56 10.5 113.5t7.5 112t4.5 103t1.5 85.5q12 14 32 24.5t41.5 18t43.5 11t39 3.5q97 0 180.5 -31.5t145.5 -80.5t97.5 -107t35.5 -112
q0 -60 -12.5 -120.5t-32 -131t-44 -157t-47.5 -198.5q-18 -87 -35.5 -188.5t-33.5 -207t-29 -210.5t-24 -200q65 46 138.5 110t150 143.5t153.5 173t147 199.5q39 0 71.5 -10t56 -27.5t36.5 -41.5t13 -52q0 -50 -34 -120t-92.5 -151t-136.5 -168.5t-167 -173t-183.5 -164.5
t-185.5 -144q-5 -26 -10 -53q-5 -23 -9.5 -52.5t-9.5 -58.5q-18 -138 -59 -247t-97.5 -191.5t-126.5 -140t-148 -94t-160 -53t-163 -16.5q-83 0 -169 19t-167 54.5t-152.5 86t-125 112.5t-84.5 135t-31 154zM1073 1409q-58 -32 -108 -79.5t-91 -105t-72.5 -122t-53 -131
t-32.5 -131.5t-11 -123q0 -57 7 -91t20 -52t31 -23.5t40 -5.5q49 0 87 19.5t81 62.5q12 94 25 201t26 212t26 201t25 168z" />
    <glyph glyph-name="b" unicode="b" horiz-adv-x="1659" 
d="M1733 1405q0 -118 -24 -243.5t-68 -250.5t-106 -245t-137.5 -227t-162.5 -197t-181.5 -155.5t-194 -102.5t-200.5 -37q-124 0 -219 43.5t-159 134t-96.5 231.5t-32.5 336q0 191 23.5 391t66.5 398t103.5 387t134 358t158.5 310.5t177 244t189.5 160t195.5 57.5
q62 0 111 -16t83.5 -49.5t53 -86t18.5 -126.5q0 -41 -13 -95t-43.5 -126t-79.5 -163.5t-121 -208.5t-168.5 -260.5t-221.5 -318.5q-15 -95 -28 -196.5t-22 -196t-14 -175.5t-5 -136q0 -134 4 -215.5t12 -125.5t21.5 -58.5t31.5 -14.5q38 0 80.5 29.5t84.5 79.5t80.5 115.5
t67.5 138t46.5 147t17.5 141.5q0 59 -8.5 100t-30 70.5t-58 50t-91.5 37.5q-7 28 -10 51t-3 48q0 80 33 154.5t88.5 132t129.5 92t155 34.5q166 0 249 -106.5t83 -339.5z" />
    <glyph glyph-name="q" unicode="q" 
d="M1073 1470q-58 -32 -108 -80t-91 -106t-72.5 -124t-53 -133t-32.5 -133t-11 -124q0 -61 5 -99.5t16 -60.5t29 -29.5t44 -7.5q40 0 80 21.5t92 73.5q12 94 25 204t26 219t26 208t25 171zM881 -176q5 35 11.5 96t15 138.5t18.5 167.5t20 184q-31 -91 -79 -166.5
t-106.5 -129.5t-123 -84t-129.5 -30q-97 0 -172.5 42t-127.5 120t-79 188.5t-27 247.5q0 126 38.5 261.5t104.5 266t153.5 247t186 205t202 140t200.5 51.5q43 0 67 -6.5t40 -21.5q12 111 18 194.5t6 157.5q12 14 32 24.5t41.5 18t43.5 11t39 3.5q97 0 180.5 -31.5
t145.5 -80.5t97.5 -107t35.5 -112q0 -60 -12.5 -120.5t-32 -131t-44 -157t-47.5 -198.5q-18 -87 -35.5 -193t-33.5 -217t-29 -220.5t-24 -204.5q57 45 129 113t150 153.5t157 184t149 204.5q42 0 75.5 -11t57 -30t36 -43.5t12.5 -50.5q0 -50 -35 -122.5t-95 -158
t-140.5 -178t-170.5 -182.5t-185 -173t-185 -149l-25 -356q6 -29 17.5 -74t23.5 -98t20.5 -110t8.5 -111q0 -49 -9.5 -92.5t-32.5 -75.5t-61.5 -51t-97.5 -19q-67 0 -133.5 19t-126.5 50.5t-111.5 74t-89 89t-59 95.5t-21.5 94q0 55 11.5 111t31.5 112t47 114t58 118z" />
    <glyph glyph-name="m" unicode="m" horiz-adv-x="2744" 
d="M1667 1163q126 189 232 319t197 210t168 115.5t144 35.5q71 0 123.5 -25t87 -66.5t51.5 -96.5t17 -115q0 -80 -27.5 -186t-83.5 -236q-18 -45 -43 -102.5t-51 -120t-52 -126t-46 -119.5t-32.5 -100.5t-12.5 -70.5q0 -34 14.5 -47.5t42.5 -13.5t88.5 39.5t143 117
t182 192.5t205.5 265q29 0 57.5 -9.5t51 -27t36.5 -42.5t14 -56q0 -48 -31.5 -117t-86.5 -148t-128.5 -164.5t-158.5 -167t-176.5 -154.5t-181.5 -128t-174.5 -87.5t-155.5 -32.5q-91 0 -153 20t-100 61t-54.5 103.5t-16.5 146.5q0 68 18 151t45 169.5t58 171.5t58 156.5
t45 124.5t18 75q0 49 -49 49q-14 0 -46.5 -17t-78 -53.5t-100.5 -95t-115 -141.5q-22 -118 -40 -222.5t-32.5 -203t-24 -196t-14.5 -201.5q-15 -15 -30.5 -27t-34.5 -19.5t-43 -11.5t-56 -4q-86 0 -157 18.5t-122 59.5t-79.5 105.5t-30.5 156.5q0 59 11.5 131.5t30.5 150.5
t44.5 158.5t52.5 153.5q12 34 24.5 67.5t22.5 63.5t16.5 55t6.5 40q0 27 -12 38t-37 11q-14 0 -39.5 -13t-62 -45.5t-85 -87t-108.5 -137.5q-21 -118 -38.5 -222.5t-31 -203t-22.5 -196t-14 -201.5q-15 -15 -29.5 -25.5t-32.5 -16.5t-42.5 -8.5t-59.5 -2.5q-86 0 -159 37.5
t-126.5 101.5t-84 147.5t-32.5 175.5q0 59 8 126.5t23 140t36.5 146.5t47.5 145q-25 58 -33 125t-8 128t25.5 124.5t69 124t101.5 114.5t122.5 94.5t132.5 64t131 23.5q89 0 132.5 -39.5t43.5 -132.5q0 -38 -6 -84.5t-20.5 -103.5t-39 -125.5t-61.5 -149.5
q112 194 207.5 317t179 194t157 97.5t140.5 26.5q58 0 103 -18.5t75.5 -51t46.5 -76.5t16 -95q0 -40 -2 -79.5t-12 -85.5t-30.5 -102.5t-57.5 -130.5z" />
    <glyph glyph-name="p" unicode="p" horiz-adv-x="1905" 
d="M426 -1053q-48 0 -99.5 13t-100 36.5t-92 56.5t-76 73.5t-51.5 87.5t-19 98q0 86 49.5 239t163.5 359l41 1188q6 175 39 320t85.5 260.5t119.5 202t141.5 143.5t152 85.5t150.5 28.5q63 0 113.5 -14t86.5 -39.5t55 -62t19 -80.5q0 -10 -0.5 -21.5t-3.5 -24.5
q-57 -51 -110 -115t-101 -146.5t-89 -185.5t-73 -232q99 146 196 255.5t187 183t170 110t144 36.5q75 0 135 -27t101.5 -75.5t64 -116.5t22.5 -149q0 -95 -32.5 -203t-91.5 -222.5t-142 -234t-184 -237.5q34 -22 68 -33.5t83 -11.5q35 0 99 29.5t147 94.5t180.5 167.5
t200.5 248.5q29 0 58 -9.5t51.5 -27t36.5 -42.5t14 -56q0 -48 -30 -112.5t-81.5 -137t-122 -149t-151.5 -149t-169 -136.5t-175.5 -112.5t-170 -76.5t-153.5 -28t-125.5 17t-95.5 46.5t-69.5 69t-46 83.5t-25 90.5t-7.5 90.5q0 37 7.5 69.5t25 59.5t45.5 47.5t70 32.5
q56 108 91.5 202.5t35.5 162.5q0 65 -21 89.5t-61 24.5q-20 0 -45.5 -11.5t-59.5 -38t-78.5 -69.5t-103.5 -106q-12 -286 -28.5 -538.5t-39.5 -464.5t-53 -380t-69.5 -285t-90 -179t-112.5 -62z" />
    <glyph glyph-name="s" unicode="s" horiz-adv-x="1503" 
d="M299 1176q54 0 101 -30.5t82 -74.5t55 -94t20 -88q0 -32 -7 -60.5t-20.5 -55.5t-33 -53.5t-45.5 -55.5q12 -68 42 -124t68 -96t79.5 -62t76.5 -22q15 0 30.5 5t28 16.5t20 29.5t7.5 44q0 52 -17.5 126t-44 159t-57.5 177t-57.5 181t-44 170t-17.5 145q0 129 49.5 236
t136.5 184t206.5 119.5t259.5 42.5q178 0 277 -76t99 -223q0 -65 -24.5 -124.5t-61.5 -96.5q-118 49 -217 49q-65 0 -98 -21.5t-33 -77.5q0 -46 17.5 -104t43.5 -124.5t56 -140t56 -149.5t43.5 -153t17.5 -152q0 -124 -33 -223t-90 -175.5t-134 -131.5t-165 -90
t-182.5 -51.5t-186.5 -16.5q-120 0 -223.5 40t-180.5 119t-121 195.5t-44 268.5q0 60 5.5 131t18.5 142t33.5 137t50 117t69 81.5t89.5 30.5z" />
    <glyph glyph-name="t" unicode="t" horiz-adv-x="1348" 
d="M160 471q0 45 9 116t31 178t60 253.5t96 341.5q-31 3 -58.5 7.5t-48 15t-32.5 30t-12 53.5q0 48 16.5 91.5t49.5 77.5t81 55t111 22q2 32 3.5 62.5t4 65t6.5 76.5t10 99q14 135 60.5 249t117.5 196t162.5 128t196.5 46q71 0 122.5 -13t85 -42t50 -75t16.5 -112
q0 -32 -4.5 -63t-16 -68t-31 -83.5t-49 -109t-70.5 -144.5t-95 -191q48 2 101.5 4.5t102.5 6.5t88.5 8.5t59.5 8.5q19 -14 33.5 -34t24.5 -43t15 -47.5t5 -47.5q0 -58 -18 -108t-50 -87t-75 -58t-94 -21q-36 0 -70.5 1t-70.5 3.5t-75 7.5t-83 12q-42 -169 -69.5 -297
t-44 -219t-23.5 -146.5t-7 -78.5q0 -73 23.5 -108t87.5 -35q63 0 145.5 37t177.5 110.5t198 184t208 257.5q29 0 58.5 -10t53 -28.5t38 -44t14.5 -56.5q0 -45 -28 -111t-77.5 -143t-118 -160.5t-149 -163.5t-171 -152t-184 -126.5t-188 -86.5t-182.5 -32q-118 0 -215.5 31.5
t-167 97.5t-107.5 168.5t-38 243.5z" />
    <glyph glyph-name="k" unicode="k" horiz-adv-x="1896" 
d="M246 856q43 383 88 690.5t98 545.5t116.5 409.5t145 281.5t183 162.5t229.5 52.5q66 0 119 -16t90.5 -51t57.5 -90.5t20 -133.5q0 -45 -8 -95.5t-26.5 -112t-48 -137t-72.5 -171t-101 -212.5t-133 -263q-34 -67 -67 -148t-60.5 -164.5t-48 -163.5t-29.5 -146l274 114
q31 65 67 129.5t77 120.5q69 95 126.5 159.5t107.5 103.5t94 56t85 17q75 0 130.5 -28t92 -73.5t54.5 -102.5t18 -115q0 -47 -5.5 -83.5t-22.5 -68t-49 -60.5t-84.5 -62t-128.5 -73t-181 -92q0 -166 8 -279.5t25 -183.5t43 -100.5t63 -30.5q40 0 92 34t119.5 106t153 183.5
t192.5 266.5q29 0 58 -8.5t51.5 -24.5t36.5 -39.5t14 -54.5q0 -44 -28 -111t-76.5 -146t-115 -164.5t-143 -168.5t-160.5 -158t-168 -131.5t-164.5 -90t-151.5 -33.5q-99 0 -168 34.5t-113 110.5t-64 197t-20 293q0 77 5.5 153.5t14.5 145.5l-184 -74q-6 -69 -10.5 -139.5
t-8 -153.5t-6 -184t-4.5 -232q-34 -37 -89.5 -57.5t-127.5 -20.5q-59 0 -113 17t-100 47.5t-83 71.5t-63.5 88.5t-41.5 100.5t-16 106q0 95 29 206.5t106 243.5z" />
    <glyph glyph-name="v" unicode="v" horiz-adv-x="1749" 
d="M1790 1516q0 -220 -47.5 -421t-129.5 -373.5t-192.5 -312.5t-237 -239t-263 -153t-269.5 -54q-117 0 -216 32.5t-171 102.5t-112.5 179.5t-40.5 263.5q0 77 15.5 163.5t46 177.5t76.5 183.5t107 179.5q-38 18 -61.5 43.5t-36 54t-16.5 58t-4 57.5q2 77 48 153t125 137
t185 98.5t227 37.5q60 0 114 -12.5t95.5 -40.5t65.5 -71t24 -105q0 -13 -0.5 -25t-3.5 -24q-98 -92 -176.5 -205t-133 -234t-83.5 -244t-29 -235q0 -60 8 -101.5t24 -67t40.5 -37t58.5 -11.5q42 0 90.5 36t97 102.5t93 160t79 208t55 247.5t20.5 278q0 28 -2 68.5t-6 85
t-8 87.5t-9 75q28 37 81.5 61.5t127.5 24.5q95 0 161 -32t106.5 -86t58.5 -124t18 -147z" />
    <glyph glyph-name="f" unicode="f" horiz-adv-x="1434" 
d="M827 1065q-22 -142 -55.5 -292.5t-72.5 -297.5t-80 -284.5t-79.5 -254.5t-71.5 -207.5t-54 -142.5q-3 -9 -5.5 -19.5t-2.5 -17.5q0 -21 13.5 -31t35.5 -10q29 0 65.5 31.5t77 87.5t82 131.5t81 163.5t74 184.5t60 193.5t40.5 191t15 177q0 145 -33.5 248t-89.5 149z
M410 1708q6 54 14 129.5t16.5 158t16.5 163t14 143.5q14 142 29.5 245t35 174.5t44.5 115.5t57 68t73 32t93 8q54 0 110 -20t108.5 -55.5t98.5 -84t80 -105t54 -120t20 -127.5q0 -49 -17.5 -112.5t-54.5 -148t-95.5 -193.5t-139.5 -250q32 1 81.5 3t106.5 4.5t116 5.5t110 6
t88.5 6.5t50.5 6.5q37 -28 57 -76.5t20 -95.5q0 -58 -18 -108t-50 -87t-75 -58t-94 -21q-71 0 -133.5 3t-124.5 9q58 -32 106.5 -86t83 -127.5t53.5 -165t19 -198.5q0 -138 -28 -288t-78 -301t-119.5 -298t-153.5 -279t-179 -244t-195.5 -194t-204.5 -128t-205 -46
q-209 0 -309.5 93.5t-100.5 262.5q0 39 2.5 76.5t11.5 86t25.5 112.5t44 156.5t68.5 218t98 296.5q25 73 53.5 164t58.5 190.5t59.5 202.5t55.5 199.5t47 181.5t33 148q-115 6 -115 102q0 43 15 86t39.5 77.5t56.5 57t66 25.5z" />
    <glyph glyph-name="degree" unicode="&#xb0;" horiz-adv-x="1638" 
d="M1188 2339q-3 80 -31.5 147.5t-87.5 126.5q-111 111 -274 111q-158 0 -275 -111q-56 -59 -82.5 -126.5t-23.5 -147.5q0 -167 110 -279q59 -59 126.5 -86.5t148.5 -27.5q80 0 149 29.5t125 84.5q59 59 87 128.5t28 150.5zM791 2912q120 0 221.5 -42t191.5 -126
q166 -170 172 -409q0 -232 -168 -406q-83 -83 -183.5 -125.5t-221.5 -42.5t-224 42.5t-190 125.5q-83 84 -125.5 184.5t-42.5 221.5q-6 237 168 409q162 168 402 168z" />
    <glyph glyph-name="notequal" unicode="&#x2260;" horiz-adv-x="2249" 
d="M2052 1376v-262h-610l-295 -295h909v-262h-1151l-479 -483l-176 180l299 303h-373v262h615l294 295h-913v262h1151l479 484l180 -181l-303 -303h373z" />
    <glyph glyph-name="infinity" unicode="&#x221e;" horiz-adv-x="2920" 
d="M1556 1110q50 -96 112 -166.5t130 -120.5q71 -46 148.5 -70t167.5 -24q206 0 344 143q65 72 98 163.5t33 205.5q0 115 -32.5 206t-94.5 159q-62 71 -144 105t-184 34q-160 0 -295 -148q-68 -74 -136.5 -195.5t-146.5 -291.5zM1339 1339q-55 96 -114.5 166.5t-130.5 116.5
q-141 98 -312 98q-207 0 -344 -143q-68 -71 -99.5 -162.5t-31.5 -206.5q0 -114 32.5 -203.5t94.5 -160.5q121 -139 311 -139q84 0 159 33.5t140 101.5q65 65 137 189.5t158 309.5zM1487 975q-65 -133 -137.5 -228t-153.5 -157q-77 -62 -161 -92.5t-183 -30.5
q-133 0 -247.5 53t-207.5 164q-96 108 -144 240.5t-48 296.5q-3 170 38.5 306.5t125.5 241.5q80 109 186 161t240 52q191 0 344 -122q74 -62 140.5 -157t125.5 -228q65 130 137.5 224.5t153.5 155.5q77 66 163 96.5t185 30.5q264 0 455 -217q182 -213 188 -536
q0 -174 -38 -309.5t-122 -243.5q-83 -105 -188 -157t-238 -52q-96 0 -183.5 30.5t-164.5 92.5q-74 65 -139 160t-127 225z" />
    <glyph glyph-name="plusminus" unicode="&#xb1;" horiz-adv-x="2249" 
d="M176 78v278h1892v-278h-1892zM2060 1356v-279h-807l4 -499h-278l-4 499h-807v279h807l-4 499h278l4 -499h807z" />
    <glyph glyph-name="lessequal" unicode="&#x2264;" horiz-adv-x="2249" 
d="M172 74v278h1896v-278h-1896zM2064 709l4 -287l-1900 594v266l1888 594v-287l-1405 -442z" />
    <glyph glyph-name="greaterequal" unicode="&#x2265;" horiz-adv-x="2249" 
d="M172 74v278h1896v-278h-1896zM172 422l-4 287l1405 438l-1413 442v287l1900 -594v-266z" />
    <glyph glyph-name="mu" unicode="&#xb5;" horiz-adv-x="2359" 
d="M672 627q6 -292 61 -389q56 -99 205 -99q118 0 214.5 82.5t170.5 249.5q77 164 114.5 371.5t37.5 464.5l-5 532h377l8 -1343q4 -93 13.5 -160t27.5 -111q22 -43 50.5 -64.5t68.5 -21.5q89 0 131 86q22 44 33 105.5t8 144.5v57h86q0 -9 2 -18t2 -18q0 -10 2 -22.5t2 -31.5
q0 -114 -24 -202t-74 -150q-46 -65 -112.5 -96t-153.5 -31q-105 0 -184 43t-131 133q-53 87 -79 218t-32 311q-43 -183 -105.5 -316t-140.5 -217q-80 -87 -176 -129.5t-217 -42.5q-178 0 -303 107q-59 55 -99 132.5t-65 182.5q0 -19 -2 -46.5t-2 -68.5q0 -130 35 -273
t100 -304q71 -161 103 -255t32 -122q0 -40 -11.5 -71t-33.5 -56q-25 -22 -56 -33.5t-71 -11.5q-46 0 -79.5 15.5t-55.5 49.5q-19 35 -30 89.5t-11 132.5q0 18 0.5 76.5t3.5 160.5q3 99 5 190t-1 175q0 74 -0.5 177t-3.5 236q-12 272 -12 390l-8 1003h377z" />
    <glyph glyph-name="partialdiff" unicode="&#x2202;" horiz-adv-x="2023" 
d="M1032 1430q-111 0 -196 -61t-156 -185q-68 -127 -99.5 -289.5t-31.5 -370.5q3 -117 25.5 -207.5t68.5 -152.5q43 -65 106.5 -96t147.5 -31q216 0 356 250q68 127 102 283t34 348q-4 126 -26 220.5t-69 159.5q-43 65 -109 98.5t-153 33.5zM1454 1176q12 46 21 106.5
t12 134.5q12 149 12 365q-3 173 -19 301t-50 215q-35 83 -83.5 125.5t-113.5 42.5q-40 0 -91 -36t-110 -108q-65 -71 -121 -107t-108 -36q-68 0 -111 37q-21 15 -31 39t-10 55q-6 118 119 205q118 86 295 86q322 0 512 -295q96 -149 144 -347.5t48 -455.5q4 -337 -57.5 -614
t-191.5 -500q-265 -442 -643 -442q-140 0 -254 51.5t-201 157.5q-87 105 -131.5 244.5t-44.5 316.5q-3 173 50.5 319.5t162.5 270.5q105 127 232 188t276 61q175 0 299 -94q65 -46 109.5 -118t78.5 -168z" />
    <glyph glyph-name="summation" unicode="&#x2211;" horiz-adv-x="2920" 
d="M2572 2105h-180q-68 217 -156 363.5t-196 226.5q-221 160 -697 160h-540l1306 -1765l-1392 -1614h766q251 0 424.5 31t275.5 96q207 128 336 479h184l-118 -533l-5 -28q-52 -200 -162.5 -303t-291.5 -103h-1974l1577 1827l-1553 2105h1884q137 0 220 -14.5t120 -42.5
q34 -31 61 -119.5t46 -236.5z" />
    <glyph glyph-name="product" unicode="&#x220f;" horiz-adv-x="3371" 
d="M455 2884h-361v163h3142v-163h-361l33 -3605h361v-164h-1082v164h344l-32 3605h-1668l33 -3605h344v-164h-1081v164h360z" />
    <glyph glyph-name="pi" unicode="&#x3c0;" horiz-adv-x="2249" 
d="M1638 1528q0 -16 -2 -40t-2 -58q-3 -220 -3.5 -372.5t-0.5 -242.5v-164q3 -170 12.5 -276t24.5 -150q37 -90 127 -90q59 0 100 30t72 89q28 56 43 147t19 217h102v-20q3 -164 -23.5 -285t-78.5 -198q-106 -156 -324 -156q-118 0 -201.5 40t-130.5 124q-92 160 -98 672
q0 31 -1.5 110t1.5 209t4 236.5t4 189.5q-37 3 -88.5 4t-116.5 4q-65 0 -143.5 2t-171.5 2q6 -475 -16.5 -791.5t-65.5 -477.5q-47 -164 -126.5 -244t-197.5 -80q-74 0 -127.5 30t-93.5 89q-34 59 -51.5 146.5t-17.5 205.5l-5 78h99q6 -56 16 -96t29 -68q36 -49 110 -49
q84 0 143.5 63.5t90.5 190.5q37 129 53.5 379t20.5 624h-91q-77 0 -138 -12.5t-107 -40.5q-44 -28 -72.5 -68t-34.5 -96h-94q3 143 41.5 240.5t110.5 153.5q142 110 495 110q69 0 418 -12q344 -12 623 -12q68 0 119 6.5t85 21.5q62 32 62 86v4h94v-12q3 -105 -20.5 -181
t-69.5 -122q-100 -94 -307 -94h-58q-12 0 -21.5 2t-19.5 2z" />
    <glyph glyph-name="integral" unicode="&#x222b;" horiz-adv-x="1122" 
d="M1130 3101q148 0 238 -78q94 -74 94 -197q3 -46 -10.5 -82t-38.5 -61q-28 -28 -64.5 -40.5t-82.5 -12.5q-62 0 -106 33t-75 98q-34 65 -62.5 98t-59.5 33q-203 0 -222 -1270q-3 -130 -4 -230t-4 -171q-6 -289 -22.5 -523t-34.5 -415q-25 -180 -54 -316t-69 -229
q-50 -115 -109.5 -201t-140.5 -151q-77 -65 -159.5 -96t-172.5 -31q-74 0 -132.5 18.5t-104.5 58.5q-91 74 -99 197q0 90 54 143q48 50 147 50q121 0 176 -127q34 -65 65 -98t62 -33q197 0 221 1327q0 111 0.5 196.5t4.5 147.5q3 288 18.5 519t34.5 410q25 180 54 317
t73 236q49 115 108.5 203t137.5 150q80 65 163.5 96t175.5 31z" />
    <glyph glyph-name="Omega" unicode="&#x2126;" horiz-adv-x="3146" 
d="M2425 369q102 0 171 18t103 55q34 38 55 106t27 173h94l9 -721h-1115l-8 737q320 62 500 316q93 124 136.5 278t43.5 340q-3 217 -62.5 387.5t-183.5 300.5q-123 130 -283 194t-364 64q-403 0 -643 -258q-117 -127 -176.5 -297.5t-56.5 -390.5q0 -186 47.5 -340
t140.5 -278q93 -127 220 -204.5t288 -111.5l8 -737h-1114l-8 721h94q12 -204 86 -279q37 -37 105 -55t174 -18h504l-5 241q-244 44 -430.5 135t-322.5 230q-136 142 -201.5 314t-69.5 382q-6 493 369 795q189 148 435.5 223.5t555.5 75.5t556 -75.5t436 -223.5
q191 -152 286 -349.5t99 -445.5q3 -210 -63 -381.5t-200 -310.5q-258 -282 -745 -369l4 -241h504v0z" />
    <glyph glyph-name="logicalnot" unicode="&#xac;" horiz-adv-x="2920" 
d="M2040 541l-4 573h-1622v279h1900l4 -852h-278z" />
    <glyph glyph-name="radical" unicode="&#x221a;" horiz-adv-x="2249" 
d="M2171 3129l-1159 -3211h-131l-656 1765l-245 -90l-50 160l557 197l525 -1418l1007 2790h381l4 -193h-233z" />
    <glyph glyph-name="approxequal" unicode="&#x2248;" horiz-adv-x="2249" 
d="M53 725q99 65 187 108.5t166 71.5q77 28 151 43t152 15q92 0 210.5 -24.5t264.5 -74.5q289 -98 405 -98t250 61q71 34 152.5 86.5t183.5 126.5l4 -319q-171 -116 -319 -172q-75 -28 -146 -40.5t-145 -12.5q-68 0 -173 24t-253 74q-146 46 -264 70t-211 24
q-59 0 -124.5 -15t-133.5 -46q-72 -31 -159.5 -85.5t-193.5 -131.5zM49 1212q96 62 181.5 105.5t162.5 71.5q78 27 154 42t153 15q93 0 210.5 -24t269.5 -70q288 -99 405 -99q59 0 122 15.5t128 46.5q68 28 149.5 79.5t186.5 129.5l4 -316q-87 -59 -168 -101.5t-156 -70.5
q-74 -24 -144.5 -38.5t-141.5 -14.5q-137 0 -426 98q-146 47 -258.5 71t-196.5 24q-68 0 -133.5 -15t-136.5 -43q-68 -28 -158.5 -82.5t-202.5 -138.5z" />
    <glyph glyph-name="Delta" unicode="&#x2206;" horiz-adv-x="2507" 
d="M1901 184l-779 1880l-749 -1880h1528zM86 0l1106 2753h90l1155 -2753h-2351z" />
    <glyph glyph-name="divide" unicode="&#xf7;" horiz-adv-x="2249" 
d="M1118 647q50 0 90 -15.5t74 -49.5t50.5 -76.5t19.5 -91.5q0 -98 -66 -164q-34 -37 -74 -53.5t-90 -16.5q-49 0 -89 18t-75 52q-37 34 -53 74t-16 90q-3 49 12.5 89t52.5 75q34 37 74.5 53t89.5 16zM168 827l-4 279h1896l4 -279h-1896zM1110 1749q50 0 90 -18t74 -52
t49.5 -74t15.5 -89q0 -50 -13.5 -90t-47.5 -74t-74 -52t-90 -18q-49 0 -89.5 18t-74.5 52q-73 67 -73 164q0 49 16 89t53 74q34 34 74 52t90 18z" />
    <glyph glyph-name="lozenge" unicode="&#x25ca;" horiz-adv-x="2023" 
d="M229 1184l783 -1651l757 1651l-786 1634zM1999 1184l-979 -2138l-1020 2138l979 2121z" />
    <glyph glyph-name="x" unicode="x" horiz-adv-x="1905" 
d="M516 496q20 0 52.5 22t72 61.5t83.5 95.5t87 124q-25 94 -46.5 167.5t-40.5 129t-35 94.5t-30 63q-76 0 -129 12.5t-86 38t-48 64t-15 90.5q0 61 21 124.5t57 123.5t84.5 113.5t103 93t112.5 63t113 23.5q29 0 60.5 -7t63 -25.5t60.5 -52t54 -87.5q40 -87 82 -210.5
t82 -268.5q69 118 123 204.5t98 147t80.5 99t69.5 60t64 29.5t65 8q58 0 100 -26t69 -67t39.5 -91t12.5 -98q0 -14 -3 -34t-8 -41t-11.5 -39.5t-14.5 -29.5q-45 -15 -83 -31t-76 -39.5t-78.5 -57.5t-90.5 -86t-113 -124.5t-145 -173.5q16 -68 35 -146.5t35 -143.5
q12 -51 25 -83t30.5 -50t40.5 -24.5t55 -6.5q43 0 104.5 33t137 100.5t163.5 169t185 237.5q29 0 56.5 -11.5t48.5 -31.5t34 -46.5t13 -57.5q0 -41 -28 -103t-77.5 -135.5t-116 -154t-143 -158t-160 -148t-166.5 -123.5t-162 -84.5t-147 -31.5q-83 0 -146.5 16.5t-111.5 55
t-82 101.5t-57 155q-9 37 -18.5 71t-18.5 68q-72 -115 -150 -205.5t-155 -153t-149 -95.5t-132 -33q-95 0 -167 26.5t-120.5 86t-73 156.5t-24.5 238q0 81 16 160.5t45.5 151.5t69.5 133.5t87.5 106.5t101.5 70.5t110 25.5q36 0 69 -9.5t60.5 -24.5t48.5 -32.5t31 -32.5
q-6 -16 -15 -45t-19 -65t-20 -77t-18 -82t-13 -79.5t-5 -68.5q0 -38 9.5 -60t27.5 -22z" />
    <glyph glyph-name="y" unicode="y" horiz-adv-x="1778" 
d="M483 -213q-8 39 -17 78.5t-20.5 86t-26.5 102.5t-34 127t-43 160.5t-55 203.5q-31 112 -53.5 200t-37 165t-21.5 150.5t-7 156.5q0 101 27.5 192.5t74.5 170t110 141.5t134 107.5t146 68.5t147 24q68 0 115.5 -14t77.5 -41t43.5 -66t13.5 -88q-75 -54 -123 -107.5
t-75.5 -112.5t-37.5 -126.5t-10 -148.5q0 -78 28.5 -240t90.5 -391q29 29 57.5 61.5t53 63.5t43.5 58.5t30 45.5q-3 31 -5.5 67t-2.5 76q0 74 6 155.5t18 163t29.5 159t40.5 141.5q21 63 43.5 107.5t48.5 72t57.5 40.5t71.5 13q45 0 88.5 -19t82 -51.5t71 -75.5t56.5 -89.5
t37 -94.5t13 -91q0 -55 -12 -116.5t-37.5 -130.5t-66 -146t-97.5 -165q9 -24 24 -45.5t32.5 -37.5t37 -25.5t38.5 -9.5q49 0 98.5 28.5t97 75t92 107.5t84.5 125q28 0 55.5 -11t50 -30.5t36.5 -47t14 -59.5q0 -61 -27.5 -127t-75.5 -129t-112 -119t-136 -98t-149 -67
t-151 -25q-43 0 -84 6t-78.5 19.5t-70 35.5t-58.5 54q-20 -29 -50 -63t-63.5 -67.5t-68.5 -65.5t-64 -58q8 -51 14 -105.5t10.5 -105.5t6.5 -95t2 -75q0 -107 -23.5 -208.5t-66.5 -192t-104 -166.5t-136 -131t-162.5 -86t-183.5 -31q-69 0 -118.5 18t-81.5 50.5t-47 76.5
t-15 96q0 51 16 109.5t56.5 126t110.5 145t177 164.5z" />
    <glyph glyph-name="z" unicode="z" horiz-adv-x="1679" 
d="M901 668q28 -39 54.5 -76t49.5 -70t42.5 -60.5t33.5 -47.5q22 -31 40.5 -50t36.5 -30t37 -15t42 -4t51.5 8t66.5 24t87.5 40.5t113.5 58.5q22 -10 40 -29.5t31 -44.5t20.5 -54t7.5 -60q0 -68 -29 -134t-78.5 -124.5t-114.5 -108t-137 -85.5t-146 -56t-142 -20
q-78 0 -139.5 10t-115.5 39t-106 81t-111.5 136t-131.5 204.5t-166 286.5q-34 12 -65 35t-55 53.5t-38 66.5t-14 75q0 74 26 138t76.5 115.5t125.5 88.5t173 55q44 -36 86 -72q36 -31 76 -66.5t71 -66.5q62 28 122.5 73t109.5 90q57 52 108 108q-67 37 -118 65t-90.5 47
t-71 29t-60.5 10q-43 0 -98.5 -16.5t-101.5 -44.5q-32 9 -57 25t-42.5 42t-26.5 62.5t-9 87.5q0 71 34.5 148t93 141.5t134.5 106.5t159 42q41 0 76.5 -3.5t73.5 -13t82 -27t101.5 -45.5t132 -67.5t173.5 -93.5q25 37 47 66.5t43 50.5t42.5 32t44.5 11q35 0 72 -22.5t67 -60
t49.5 -86.5t19.5 -101q0 -61 -28.5 -128t-82 -132.5t-131 -126t-175.5 -109.5q-123 -141 -243 -238.5t-249 -162.5z" />
    <glyph glyph-name="acute" unicode="&#xb4;" horiz-adv-x="1188" 
d="M831 3211q69 0 121.5 -19t87.5 -53t52.5 -81.5t17.5 -104.5q0 -181 -315 -508q-63 -64 -132 -119t-135.5 -95t-127.5 -62.5t-109 -22.5q-44 0 -69 25.5t-25 81.5q106 153 186.5 276.5t134.5 225.5t81.5 186.5t27.5 159.5q34 52 85 81t119 29z" />
    <glyph glyph-name="grave" unicode="`" horiz-adv-x="1188" 
d="M750 3142q12 -112 31 -231t43.5 -234.5t54 -223t63.5 -196.5q-1 -25 -11 -46.5t-28.5 -37.5t-45.5 -25.5t-62 -9.5q-63 0 -130.5 42.5t-134 123.5t-129 197.5t-114.5 263.5q-6 21 -11.5 45t-5.5 49q0 66 22.5 127.5t66 108.5t107 75.5t144.5 28.5q47 0 82.5 -16.5
t57.5 -40.5z" />
    <glyph glyph-name="dieresis" unicode="&#xa8;" horiz-adv-x="1794" 
d="M360 2470q0 117 12 200.5t35.5 137t58 79t79.5 25.5q60 0 113.5 -28t94 -71t64 -94.5t23.5 -97.5q0 -37 -12.5 -79t-42.5 -96t-79.5 -122t-123.5 -157q-43 0 -83 18t-71 55t-49.5 94.5t-18.5 135.5zM1069 2531q0 125 13 211t38.5 139t63 77t86.5 24q41 0 82.5 -14
t80.5 -37.5t72.5 -54.5t58.5 -65t39.5 -69t14.5 -67q0 -37 -15.5 -86t-48.5 -110.5t-85 -137t-126 -166.5q-63 0 -113.5 21.5t-86 66t-55 111.5t-19.5 157z" />
    <glyph glyph-name="tilde" unicode="&#x2dc;" horiz-adv-x="2048" 
d="M889 2773q118 40 205 71.5t151.5 58t110 50.5t79.5 49.5t60.5 54t52.5 64.5q69 -7 121.5 -34.5t87.5 -68t52.5 -90t17.5 -102.5q0 -90 -38 -159t-120 -123.5t-212 -98.5t-314 -86q-121 -26 -205.5 -46.5t-143 -42t-97.5 -47t-70 -60.5q-36 0 -71.5 11.5t-64.5 36
t-47 64.5t-18 97q0 68 24 122.5t78.5 102t143 90.5t217.5 86z" />
    <glyph glyph-name="fi" unicode="&#xfb01;" horiz-adv-x="2445" 
d="M823 1065q-22 -142 -51 -279.5t-60.5 -265t-64.5 -243t-63 -213.5t-56.5 -177t-44.5 -133q-3 -9 -5.5 -19.5t-2.5 -17.5q0 -21 12 -31t33 -10q34 0 78.5 42.5t92 116t93 171.5t82 208t58.5 226.5t22 227.5q0 145 -33.5 248t-89.5 149zM2175 1847q65 0 112 -9t77.5 -33
t45.5 -65t15 -106q0 -26 -6.5 -64.5t-18 -84.5t-27 -96.5t-33 -101.5t-35.5 -100.5t-36 -92.5q-83 -201 -125.5 -327t-42.5 -181q0 -34 15 -48t43 -14q21 0 72 26.5t124.5 87.5t165.5 160.5t195 245.5q29 0 57.5 -11.5t51 -31.5t36.5 -46.5t14 -57.5q0 -48 -30.5 -114.5
t-83.5 -142.5t-125 -157t-154.5 -158t-172 -145.5t-177.5 -120.5t-171.5 -82t-154.5 -30q-86 0 -147 21t-100 63t-57.5 104t-18.5 144q0 86 17 178.5t48 197.5q44 145 97 316.5t108 380.5q3 12 5.5 25t2.5 16q0 11 -3.5 18.5t-14 12.5t-29 7.5t-47.5 2.5t-74 -2.5t-100 -6
t-116 -9t-120.5 -11.5t-114.5 -12.5t-98 -12.5q74 -37 132.5 -99.5t99.5 -145t62.5 -180.5t21.5 -205q0 -138 -25 -281t-70 -282t-108.5 -270.5t-140.5 -248t-166 -213.5t-185 -167t-197 -109t-202 -39q-208 0 -308.5 93.5t-100.5 262.5q0 37 2.5 73t9.5 79t19.5 97.5
t34 128.5t52.5 172t74 228q25 73 52 162t55 186t55 196.5t50.5 193t43 177t31.5 146.5q-115 6 -115 103q0 43 15 85.5t39.5 77t56 57t65.5 25.5q13 109 29 231t29 249q14 142 29.5 245t35 174.5t44 115.5t56.5 68t73 32t93 8q55 0 111 -20t108 -55.5t98 -84t80.5 -105
t54 -120t19.5 -127.5q0 -74 -71.5 -214t-194.5 -343q82 13 182.5 26.5t209.5 25.5t220.5 22.5t215.5 18.5t195.5 12.5t160.5 4.5zM2114 2437q0 125 13 211t38 139t62.5 77t86.5 24q41 0 82.5 -14t80.5 -37.5t72.5 -54.5t58.5 -65.5t39.5 -69.5t14.5 -67q0 -37 -15 -85.5
t-48 -110.5t-85 -137.5t-126 -165.5q-60 0 -110.5 22.5t-86.5 67t-56.5 111t-20.5 155.5z" />
    <glyph glyph-name="fl" unicode="&#xfb02;" horiz-adv-x="2494" 
d="M406 1708q12 108 24 218t25 237q14 142 29.5 245t35 174.5t44 115.5t56.5 68t73 32t93 8q55 0 111 -20t108 -55.5t98 -84t80.5 -105t54 -120t19.5 -127.5q0 -39 -21 -104t-61.5 -152.5t-100 -196.5t-136.5 -235q63 -26 128 -45t127 -31t119 -17.5t105 -5.5q40 0 71 1
t57.5 3t51 5t50.5 8q6 72 10.5 150t9 155.5t10.5 150.5t15 134q18 138 57.5 257t95 217.5t124 174.5t144.5 128.5t157.5 79.5t162.5 27q243 0 369.5 -134.5t126.5 -414.5q0 -132 -48.5 -269t-141 -274.5t-225.5 -273t-302 -264.5q-14 -132 -39.5 -257t-50.5 -229.5
t-43.5 -181.5t-18.5 -114q0 -34 15 -48t43 -14q43 0 120 34t168.5 100t187 162t175.5 220q29 0 57 -10t50 -28.5t35.5 -44t13.5 -56.5q0 -58 -33 -130t-90 -150t-134.5 -158.5t-167 -155t-186.5 -140.5t-193 -115t-187 -77t-169 -28q-90 0 -152 20t-100 61t-54.5 103.5
t-16.5 147.5q0 86 18 193.5t42.5 225t51 238.5t43.5 235q-34 -9 -79.5 -12.5t-104.5 -3.5q-83 0 -162 9.5t-141 31.5q46 -45 80 -112t56 -151t33 -182.5t11 -205.5q0 -176 -43.5 -348.5t-118.5 -329t-175 -289.5t-214 -230.5t-235 -152.5t-238 -55q-208 0 -308.5 93.5
t-100.5 262.5q0 39 2.5 76.5t11 86t25 112.5t44 156.5t68.5 218t98 296.5q37 109 71.5 228t64.5 237t55 229.5t43 206.5q-26 9 -46.5 19.5t-35 24t-22 31.5t-7.5 44q0 43 15 86t39.5 77.5t56.5 57t66 25.5zM799 942q-17 -104 -43.5 -222t-56.5 -236.5t-62.5 -232.5
t-61.5 -211t-53 -171.5t-39 -114.5q-3 -9 -5.5 -19.5t-2.5 -17.5q0 -21 12 -31t33 -10q29 0 66.5 33t77 90.5t78 136.5t68.5 171t48.5 193.5t18.5 203.5q0 145 -19 254.5t-59 183.5zM2220 1782q69 55 119 121t83 135t48.5 136t15.5 124q0 52 -8.5 98.5t-25.5 81t-43.5 54.5
t-61.5 20q-26 0 -43.5 -17t-29 -50t-18 -80t-11.5 -107q-2 -28 -4.5 -65.5t-4.5 -79t-4 -85.5t-4 -85q-4 -97 -8 -201z" />
    <glyph glyph-name="circumflex" unicode="&#x2c6;" horiz-adv-x="1638" 
d="M864 2306q0 128 -2 210.5t-9 130.5t-20 66.5t-34 18.5q-31 0 -73 -37t-90 -111t-98 -185.5t-96 -260.5q-21 -9 -40.5 -12.5t-41.5 -3.5q-30 0 -57.5 11.5t-48.5 34t-33 56t-12 78.5q0 48 17 111.5t48.5 135t76 146.5t99 146.5t118 135t132.5 111t142.5 75.5t148.5 28
q105 0 170 -38.5t101 -127.5t48.5 -235t12.5 -361q0 -31 2.5 -79t5.5 -97q-18 -32 -48.5 -61t-69.5 -51t-84 -35t-93 -13q-95 0 -133.5 53t-38.5 160z" />
    <glyph glyph-name="dotaccent" unicode="&#x2d9;" horiz-adv-x="1008" 
d="M279 2437q0 125 13 211t38 139t62.5 77t86.5 24q41 0 82.5 -14t80.5 -37.5t72.5 -54.5t58.5 -65.5t39.5 -69.5t14.5 -67q0 -37 -15 -85.5t-48 -110.5t-85 -137.5t-126 -165.5q-60 0 -110.5 22.5t-86.5 67t-56.5 111t-20.5 155.5z" />
    <glyph glyph-name="caron" unicode="&#x2c7;" horiz-adv-x="1638" 
d="M803 2978q0 -127 2 -209.5t9 -130.5t20 -67t34 -19q31 0 73 37t90 111t98 185.5t96 260.5q21 9 40.5 12.5t41.5 3.5q31 0 58.5 -11.5t48 -34t32.5 -56t12 -78.5q0 -48 -17 -111.5t-48.5 -134.5t-76 -146.5t-99 -147t-118 -135t-132.5 -111t-142.5 -75.5t-148.5 -28
q-105 0 -170 38.5t-101 127.5t-48.5 235t-12.5 361q0 31 -2.5 79t-5.5 97q18 32 48.5 61t69.5 51t84 35t93 13q95 0 133.5 -53t38.5 -160z" />
    <glyph glyph-name="ring" unicode="&#x2da;" horiz-adv-x="1290" 
d="M557 2109q-94 0 -170.5 27t-130.5 78t-83.5 125t-29.5 168q0 74 18.5 147t50 139.5t72 123.5t85 98.5t89 65.5t83.5 24q34 0 57.5 -10.5t36.5 -22.5q31 65 82.5 98t109.5 33q63 0 121 -31t102 -88t70.5 -137t26.5 -178q0 -101 -24.5 -189.5t-66.5 -162t-99 -131t-123 -97
t-136.5 -60t-140.5 -20.5zM492 2597q0 -56 28 -85.5t78 -29.5q23 0 46.5 11t42 32t30.5 50.5t12 66.5q0 53 -26 115.5t-72 117.5q-35 -35 -61 -74t-43.5 -76t-26 -70.5t-8.5 -57.5z" />
    <glyph glyph-name="comma" unicode="," horiz-adv-x="1593" 
d="M406 -422q74 39 142.5 89t121 102.5t84.5 103t32 90.5q0 34 -10 67.5t-34 65t-63 60t-97 53.5q-19 34 -26 69.5t-7 69.5q0 75 25 140.5t71.5 113.5t112.5 75.5t147 27.5q97 0 175 -38t133 -102t84.5 -149t29.5 -178q0 -114 -34.5 -225t-93 -212t-134 -186.5t-158 -148.5
t-165.5 -98.5t-156 -35.5q-96 0 -144.5 45.5t-48.5 122.5q0 36 13 78z" />
    <glyph glyph-name="at" unicode="@" horiz-adv-x="3858" 
d="M2294 1421q-69 -44 -128.5 -120t-103 -170.5t-68 -201t-24.5 -212.5q0 -39 5.5 -64t16 -40t25.5 -21t35 -6q37 0 67.5 19.5t55.5 53.5zM3256 1532q0 178 -55 326t-159.5 254t-257 164.5t-347.5 58.5q-155 0 -299.5 -42.5t-275 -118.5t-245.5 -181t-211.5 -229.5
t-172.5 -265t-129 -287t-81 -295t-28 -289.5q0 -260 61 -461t177 -338t284.5 -208t383.5 -71q90 0 178.5 17t177 55.5t179 100.5t185.5 151q62 -12 94.5 -50t32.5 -93q0 -66 -39.5 -143t-110.5 -154.5t-168.5 -149.5t-213 -127.5t-245 -89t-263.5 -33.5q-193 0 -358.5 45.5
t-300.5 131t-239 209t-174.5 279t-107 341t-36.5 395.5q0 222 43.5 440.5t124 425t194 396t254 354t304 298.5t343 229.5t372.5 147.5t392 52q287 0 511 -78t378 -225.5t234.5 -360.5t80.5 -483q0 -128 -29.5 -266t-83.5 -276t-129 -271.5t-166.5 -253.5t-196 -222
t-217.5 -176t-231.5 -115.5t-236.5 -41.5q-61 0 -112.5 15.5t-88.5 53t-57.5 99.5t-20.5 156q0 28 3 61.5t6 61.5q-43 -126 -96.5 -209.5t-110 -134t-112 -71t-103.5 -20.5q-78 0 -146.5 37.5t-118.5 107t-79 170t-29 226.5q0 87 18.5 181.5t52 190t81 188.5t105.5 177
t125 155.5t140 123.5t150 81.5t155 29.5q41 0 72 -7t43 -22l25 274q11 12 31 21.5t43.5 15.5t45.5 9t35 3q59 0 115 -13.5t107 -36t93.5 -52.5t73.5 -63t48.5 -67.5t17.5 -66.5q0 -37 -10 -90t-35 -131q-55 -172 -92.5 -307.5t-61 -236.5t-33.5 -168.5t-10 -102.5
q0 -28 8.5 -45t20.5 -26t25.5 -12t23.5 -3q41 0 92 35.5t104 99t103 153t89 197t63 231t24 255.5z" />
    <glyph glyph-name="two" unicode="2" horiz-adv-x="1585" 
d="M1622 1393q0 -75 -15.5 -145t-54.5 -139.5t-104.5 -140.5t-165.5 -148.5t-238.5 -162.5t-322.5 -182q74 -45 128 -75t97 -48t79 -25.5t73 -7.5q46 0 125.5 33.5t193.5 98.5q44 -22 71.5 -74.5t27.5 -114.5q0 -61 -29 -122t-77 -116t-111 -102t-132 -81.5t-139 -54
t-131 -19.5q-52 0 -104.5 8t-109.5 27t-121.5 50t-141 78t-167 110.5t-200.5 147.5q0 74 12.5 133t48 113t98.5 107t165 114q188 112 313 203.5t200 170.5t106.5 150.5t31.5 143.5q0 87 -41 137.5t-106 50.5q-31 0 -58.5 -22t-50 -73.5t-39.5 -137t-28 -213.5
q-13 -9 -41.5 -17t-65.5 -8q-57 0 -104 18.5t-80 56.5t-51.5 95t-18.5 133q0 114 42.5 220.5t130 188.5t220 131.5t312.5 49.5q152 0 260.5 -44t178 -118.5t102 -172.5t32.5 -205z" />
    <glyph glyph-name="three" unicode="3" horiz-adv-x="1589" 
d="M287 57q12 -81 46.5 -148t83.5 -115t107.5 -74.5t118.5 -26.5q84 0 134 40.5t50 114.5q0 58 -29.5 120.5t-99 130t-184 140t-285.5 150.5q0 83 29 154t80 123.5t121 82t151 29.5q50 0 99 -12q84 69 140 141.5t89.5 141.5t47 130t13.5 107q0 43 -10 78.5t-29 61
t-45.5 39.5t-58.5 14q-31 0 -58 -22t-49.5 -74t-40 -137.5t-28.5 -213.5q-12 -9 -40.5 -16.5t-66.5 -7.5q-57 0 -103.5 18.5t-80 56t-52 94.5t-18.5 134q0 114 46 222t137 192.5t226.5 136t315.5 51.5q152 0 262.5 -46t182.5 -123t106.5 -176.5t34.5 -207.5
q0 -95 -29.5 -188t-96 -184.5t-173.5 -183.5t-262 -186q106 -66 173 -136t105 -141t52 -143t14 -141q0 -172 -61 -315.5t-172.5 -247t-267.5 -161.5t-347 -58q-153 0 -275.5 39t-207.5 104.5t-130.5 151.5t-45.5 180q0 83 24 146t63 105t89 63.5t102 21.5q28 0 53 -6.5
t50 -22.5z" />
    <glyph glyph-name="zero" unicode="0" horiz-adv-x="1679" 
d="M778 -29q-160 0 -281 43t-202.5 126.5t-122.5 206t-41 280.5q0 140 34.5 284t93.5 277.5t138 250.5t168.5 204.5t184 137.5t184.5 50q37 0 68 -10.5t59 -38.5q37 46 93.5 74t139.5 28q77 0 150 -41t130 -123t91.5 -205.5t34.5 -289.5q0 -199 -36.5 -369t-101 -309.5
t-152.5 -246.5t-190.5 -180.5t-215 -111t-226.5 -37.5zM680 745q0 -70 16 -116.5t40 -74.5t53 -39t55 -11q60 0 113.5 38.5t94 105t64 155t23.5 188.5q0 57 -10.5 122.5t-30 128t-46.5 116.5t-61 88q-46 -37 -100.5 -105.5t-101 -160.5t-78 -202.5t-31.5 -232.5z" />
    <glyph glyph-name="one" unicode="1" horiz-adv-x="1196" 
d="M311 287q0 37 6.5 78.5t21 93.5t39 117t60.5 149t85 189t112 237q-25 -28 -63 -53.5t-77.5 -45.5t-76 -32t-58.5 -12q-96 0 -144 55.5t-48 173.5q174 111 315 217t254.5 210.5t202.5 210t158 214.5q12 3 26 3.5t23 0.5q59 0 102.5 -24.5t72.5 -62.5t43.5 -85.5
t14.5 -93.5q0 -30 -3 -60t-10 -66t-19.5 -80.5t-32 -103.5t-47 -134.5t-64.5 -174.5q-72 -195 -121 -365t-79.5 -315.5t-45.5 -267t-20 -219.5q-22 -37 -69 -57.5t-136 -20.5q-90 0 -167.5 27.5t-134 73t-88.5 104t-32 119.5z" />
    <glyph glyph-name="five" unicode="5" horiz-adv-x="1520" 
d="M1417 61q0 -172 -61.5 -316t-174 -248.5t-269 -163t-347.5 -58.5q-153 0 -275.5 39t-207.5 104.5t-130.5 151.5t-45.5 180q0 83 24 146t63 105t89 63.5t102 21.5q28 0 53 -6.5t50 -22.5q12 -81 46.5 -148t83.5 -115t107.5 -74.5t118.5 -26.5q84 0 134 40.5t50 114.5
q0 58 -25 114t-73.5 113t-119.5 118.5t-163 130.5q-69 6 -116 16.5t-75.5 25t-41 33t-12.5 39.5q0 10 2.5 19.5t5.5 21.5q51 146 96 306t82.5 314.5t65.5 293t43 241.5q11 74 22.5 119t27 70t37 33t52.5 8q20 0 50.5 -9.5t68.5 -23.5t81.5 -30.5t89.5 -30.5t92 -23.5
t89 -9.5q49 0 108.5 3.5t121 10t121 15.5t108.5 20q23 -12 41.5 -33t32 -46.5t21 -53.5t7.5 -56q0 -86 -40 -166.5t-107.5 -142.5t-156.5 -99.5t-187 -37.5q-37 0 -72.5 5t-75 16.5t-86 30.5t-106.5 46q-11 -48 -27.5 -103t-35 -110t-39 -107t-38.5 -93q203 -83 341 -173.5
t222.5 -188t121 -201t36.5 -212.5z" />
    <glyph glyph-name="eight" unicode="8" horiz-adv-x="1597" 
d="M397 1663q0 89 23 180.5t68 177t111 161t152.5 131t193 88t231.5 32.5q107 0 203 -37.5t168 -107.5t114.5 -171t42.5 -229q0 -117 -43.5 -219.5t-112 -179.5t-152 -121.5t-163.5 -44.5q-9 0 -23.5 0.5t-29.5 3.5q107 -135 175.5 -240t107.5 -190t54 -153t15 -130
q0 -153 -57 -283.5t-162.5 -226t-255.5 -149t-336 -53.5q-157 0 -280 43t-208.5 116t-130.5 170.5t-45 206.5q0 92 29 180t90 178t154.5 186.5t222.5 205.5q-32 49 -60.5 103t-49.5 113t-33.5 124t-12.5 135zM598 627q0 -80 19.5 -131.5t48.5 -81.5t63.5 -42t65.5 -12
q23 0 43.5 8t36.5 24.5t25 42t9 61.5q0 40 -7.5 79t-30 88.5t-64.5 116.5t-111 162q-26 -48 -44.5 -95.5t-30.5 -89.5t-17.5 -76t-5.5 -54zM1073 1450q28 48 46.5 91.5t30 86t16.5 85.5t5 89q0 43 -9 81.5t-25.5 68t-40 46.5t-52.5 17q-49 0 -80 -53t-34 -156q0 -64 32 -153
t111 -203z" />
    <glyph glyph-name="four" unicode="4" horiz-adv-x="1761" 
d="M1614 471q43 -22 72.5 -68t29.5 -108q0 -63 -25.5 -122t-75 -108.5t-122 -87.5t-166.5 -59q-11 -98 -20 -187t-15.5 -164t-10 -135t-3.5 -100q-22 -52 -70.5 -77t-138.5 -25q-87 0 -169 25.5t-145.5 70t-102 103.5t-38.5 125q0 30 4.5 64t15 80t28 109t43.5 152
q-161 46 -330.5 130t-321.5 202q-6 34 -9 69t-3 66q0 52 11 100.5t37 95t69.5 92t107.5 93.5q214 157 399 323.5t335 323t262.5 291.5t179.5 229q12 3 21.5 3.5t19.5 0.5q55 0 101.5 -19t80.5 -54t53 -84t19 -109q0 -45 -4.5 -92.5t-17.5 -106t-35.5 -133t-57.5 -172.5
q-40 -114 -72.5 -220t-60 -208t-50 -202t-42.5 -201q55 12 106.5 34.5t110.5 59.5zM541 614q37 -21 72.5 -39.5t72 -35t74.5 -31.5t80 -29q34 143 80 295.5t108 323.5q-55 -64 -107.5 -122t-109.5 -115t-123 -117.5t-147 -129.5z" />
    <glyph glyph-name="six" unicode="6" horiz-adv-x="1638" 
d="M799 729q0 -70 10.5 -115.5t28.5 -71.5t42 -36t50 -10q31 0 57.5 16.5t46.5 50t31.5 85.5t11.5 122q0 66 -10.5 135t-30.5 137t-50 133t-68 123q-53 -133 -86 -273.5t-33 -295.5zM1987 2200q0 -35 -13 -62.5t-28 -40.5q-133 0 -241.5 -21t-198 -60t-162.5 -94
t-134.5 -123.5t-115 -148t-103.5 -167.5q37 43 95.5 66.5t142.5 23.5q45 0 94 -13t96.5 -41.5t90 -74.5t75 -111.5t51.5 -152.5t19 -197q0 -140 -34 -269.5t-94.5 -242t-142.5 -205t-178 -158t-202 -101.5t-213 -36q-298 0 -448 191.5t-150 591.5q0 143 29.5 291.5t84.5 294
t132.5 284t173 261.5t207 226t234 177t253.5 115.5t266 41.5q108 0 186 -17.5t128.5 -50t75 -77.5t24.5 -100z" />
    <glyph glyph-name="nine" unicode="9" horiz-adv-x="1602" 
d="M1024 1151q0 63 -9.5 113.5t-26 86.5t-39 55t-48.5 19q-31 0 -59.5 -25.5t-51 -69.5t-36 -104.5t-13.5 -131.5q0 -58 10 -114t33.5 -109.5t61 -106t92.5 -105.5q26 74 43 145t26.5 135t13 118t3.5 94zM-172 -406q0 38 13.5 82t47.5 78q151 7 266 29.5t202.5 57.5t153 83
t116.5 106.5t93 127t83 145.5q-152 0 -271 42.5t-200.5 118t-124.5 180t-43 228.5q0 141 34 270.5t94.5 242t142.5 204.5t178 157.5t202 101.5t213 36q134 0 240 -49t180.5 -147t114 -244.5t39.5 -341.5q0 -200 -36 -385.5t-100 -352t-151 -312.5t-188.5 -268t-214 -218
t-227 -162.5t-226.5 -101.5t-213 -35q-100 0 -177.5 23.5t-131 66.5t-81.5 103t-28 134z" />
    <glyph glyph-name="seven" unicode="7" horiz-adv-x="1528" 
d="M811 1872q91 0 188 -21t200 -46.5t211 -46.5t220 -21q23 -12 42 -33t32.5 -46.5t21 -53.5t7.5 -56q0 -64 -31 -140.5t-83.5 -165.5t-121.5 -191t-146 -219.5t-157 -250t-154 -282.5q-80 -163 -132 -303t-83 -264t-43 -233.5t-12 -211.5q-22 -52 -70.5 -77t-138.5 -25
q-83 0 -159 39t-134.5 102.5t-93.5 143.5t-35 161q0 41 9.5 86.5t32 101.5t60.5 126t95.5 159.5t136 202t183 253.5t236.5 314t296 383q-63 11 -126.5 20.5t-122 17t-108.5 12t-86 4.5q-37 0 -66.5 -17t-55.5 -53t-49 -92.5t-46 -136.5q-6 -3 -23.5 -5.5t-33.5 -2.5
q-38 0 -76 18t-68.5 53.5t-49.5 87.5t-19 119q0 114 41.5 220t115.5 188.5t175 132t221 49.5z" />
    <glyph glyph-name="underscore" unicode="_" horiz-adv-x="1892" 
d="M643 360q156 12 272 22t204 21.5t154.5 24t123.5 29t110.5 37t114.5 47.5q62 -16 94.5 -62t32.5 -114q0 -190 -199.5 -285.5t-586.5 -95.5q-63 0 -138.5 1.5t-153.5 4t-153 6t-137 8.5q-22 19 -31.5 50.5t-9.5 56.5q0 41 13 83t46.5 77t92.5 59t151 30z" />
    <glyph glyph-name="endash" unicode="&#x2013;" horiz-adv-x="2765" 
d="M979 1081q215 8 393.5 19t326 24.5t266.5 30t215.5 36t172.5 42t137 49.5q62 -15 94.5 -61.5t32.5 -114.5q0 -190 -199.5 -285.5t-586.5 -95.5q-31 0 -89.5 0.5t-134 1t-162.5 1.5t-177 2.5t-177 3t-161.5 3.5t-132 4t-88.5 4q-22 19 -31.5 50.5t-9.5 56.5
q0 46 15.5 86.5t52 71t96 49.5t147.5 22z" />
    <glyph glyph-name="emdash" unicode="&#x2014;" horiz-adv-x="2765" 
d="M332 1049q213 7 425 20t417 30t398 38t368 43.5t327 46.5t274 46.5t210.5 43.5t136.5 39q46 -19 78 -69t32 -128t-39.5 -140.5t-117.5 -106t-193.5 -66.5t-267.5 -23q-44 0 -87.5 2.5t-92.5 5.5q-270 -26 -542.5 -48t-529.5 -38.5t-490 -26t-425 -9.5q-81 0 -151 0.5
t-132 3.5q-15 12 -23.5 34.5t-8.5 47.5q0 48 24.5 92t77 79t135 57.5t197.5 25.5z" />
    <glyph glyph-name="colon" unicode=":" horiz-adv-x="1815" 
d="M938 -70q-74 0 -135 33.5t-105 90t-68 131t-24 155.5q0 75 17.5 137.5t52 107.5t86 70t119.5 25q60 0 116 -19.5t104.5 -51t88.5 -71t69 -80.5t44.5 -79.5t15.5 -67.5q0 -41 -13 -85t-37 -86.5t-58 -80.5t-76 -66.5t-92 -45.5t-105 -17zM1274 934q-49 0 -93 21t-81 57
t-66 84t-49.5 102t-31.5 111.5t-11 111.5q0 63 16.5 115t53 89.5t95 58t142.5 20.5q83 0 146.5 -23t106.5 -61.5t65 -90t22 -108.5q0 -112 -26 -202t-70 -153.5t-100.5 -97.5t-118.5 -34z" />
    <glyph glyph-name="semicolon" unicode=";" horiz-adv-x="1815" 
d="M1233 954q-49 0 -89.5 21t-72.5 56.5t-55.5 83t-39 101.5t-23 111t-7.5 111q0 63 13.5 113t45 85t83.5 53.5t129 18.5q55 0 104 -15.5t90.5 -41.5t74.5 -60.5t56 -73t35 -79t12 -78.5q0 -81 -27.5 -155t-75.5 -129.5t-113 -88.5t-140 -33zM434 -365q71 39 137 76.5
t116.5 75.5t81 75.5t30.5 76.5q0 61 -60.5 129t-177.5 120q-12 28 -18 57.5t-6 57.5q0 59 24 114t69.5 98t112 69t150.5 26t161.5 -28t136 -78.5t93.5 -119.5t35 -151q0 -124 -34.5 -233.5t-92 -202t-131.5 -165.5t-153.5 -124.5t-157.5 -78.5t-144 -27q-93 0 -138.5 42
t-45.5 114q0 35 12 77z" />
    <glyph glyph-name="semicolon" unicode="&#x37e;" horiz-adv-x="1815" 
d="M1233 954q-49 0 -89.5 21t-72.5 56.5t-55.5 83t-39 101.5t-23 111t-7.5 111q0 63 13.5 113t45 85t83.5 53.5t129 18.5q55 0 104 -15.5t90.5 -41.5t74.5 -60.5t56 -73t35 -79t12 -78.5q0 -81 -27.5 -155t-75.5 -129.5t-113 -88.5t-140 -33zM434 -365q71 39 137 76.5
t116.5 75.5t81 75.5t30.5 76.5q0 61 -60.5 129t-177.5 120q-12 28 -18 57.5t-6 57.5q0 59 24 114t69.5 98t112 69t150.5 26t161.5 -28t136 -78.5t93.5 -119.5t35 -151q0 -124 -34.5 -233.5t-92 -202t-131.5 -165.5t-153.5 -124.5t-157.5 -78.5t-144 -27q-93 0 -138.5 42
t-45.5 114q0 35 12 77z" />
    <glyph glyph-name="B" unicode="B" horiz-adv-x="2826" 
d="M1720 2392q-26 -155 -51 -289.5t-50 -251t-48.5 -216t-46.5 -185.5q68 12 172 12q46 0 96.5 -3t99.5 -9q51 81 88 162.5t61.5 157.5t36 144t11.5 122q0 68 -18.5 125t-61.5 102t-113.5 78t-175.5 51zM1249 2388q-133 -17 -262.5 -49t-242 -86t-203.5 -134t-148 -194
q-18 -9 -43.5 -14.5t-50.5 -5.5q-42 0 -74.5 17t-55 48.5t-34.5 76t-12 99.5q0 115 48.5 225.5t140 210t222.5 183.5t296 144.5t360.5 95t415.5 34.5q301 0 516.5 -58.5t353.5 -163.5t203 -251t65 -321q0 -99 -33 -210t-96 -228t-154 -235.5t-208 -232.5q101 -53 177.5 -113
t132 -122t92.5 -125t58.5 -122.5t30.5 -114t9 -99.5q0 -163 -54 -300t-163.5 -237t-275 -156t-388.5 -56q-108 0 -212 16t-216.5 55.5t-239 106t-278.5 166.5q-64 -52 -114 -89.5t-91.5 -61.5t-78 -35t-73.5 -11q-38 0 -84.5 29t-87 83t-67.5 130.5t-27 171.5
q0 58 27.5 96.5t84 63.5t144 39.5t207.5 25.5q51 109 101 239.5t97 274.5t89.5 297t79 306.5t66 303.5t50.5 287zM1970 377q39 0 72.5 12t58 34t39 54t14.5 72q0 80 -36.5 153.5t-120.5 147.5t-221 150.5t-338 162.5q-44 -151 -109.5 -294t-161.5 -279q122 -42 240.5 -80.5
t224.5 -68t193 -47t145 -17.5z" />
    <glyph glyph-name="C" unicode="C" horiz-adv-x="2089" 
d="M1040 -188q-205 0 -366.5 64.5t-273 191t-170 313t-58.5 430.5q0 192 37.5 387t104.5 383.5t160 365t205 332t238.5 284t260.5 221t271.5 143.5t270.5 51q152 0 260 -37.5t177 -108.5t101 -173.5t32 -233.5q0 -95 -19.5 -191t-54 -183.5t-83.5 -163.5t-108.5 -132.5
t-127 -88.5t-140.5 -32q-38 0 -66.5 4.5t-48.5 14t-34 23.5t-23 32q17 39 31 86.5t25 98.5t20 102t15 96t9 82t3 59q0 71 -10.5 120t-29 80t-44 44.5t-56.5 13.5q-42 0 -93 -35.5t-105.5 -99t-110 -152.5t-107 -196.5t-97 -229.5t-78.5 -252.5t-52.5 -265.5t-19.5 -268
q0 -146 23 -255t77 -181.5t143.5 -108.5t223.5 -36q128 0 267 47.5t274 132.5t256.5 203.5t213.5 259.5q32 0 60.5 -6.5t49.5 -22t33.5 -40.5t12.5 -62q0 -58 -34 -137t-96 -168t-149 -183.5t-192 -183.5t-225 -169t-249.5 -139.5t-264.5 -94.5t-269 -35z" />
    <glyph glyph-name="parenleft" unicode="(" horiz-adv-x="1946" 
d="M1257 385q0 -327 76.5 -569t231.5 -381q-1 -48 -23.5 -89t-62.5 -71.5t-96.5 -48t-125.5 -17.5q-71 0 -143.5 23t-139.5 74.5t-125 134.5t-101.5 202.5t-68 279t-24.5 364.5q0 228 37.5 454.5t104.5 442t159.5 414.5t202 371.5t232.5 314.5t251 243.5t257 157t251 55.5
q95 0 136 -34t41 -93q0 -21 -4.5 -38t-16.5 -35q-175 -90 -321 -228t-262.5 -309t-203.5 -368.5t-145.5 -407t-87.5 -423.5t-29 -419z" />
    <glyph glyph-name="parenright" unicode=")" horiz-adv-x="1905" 
d="M1077 1573q0 163 -19 306t-57.5 263t-96 216t-134.5 165q2 48 24 89t62 71t96 47.5t125 17.5q72 0 144.5 -23t139.5 -74.5t125 -134t101 -202t67.5 -279t24.5 -364.5q0 -228 -37.5 -454.5t-104.5 -442t-159 -414.5t-202 -371.5t-232.5 -314.5t-250.5 -243.5t-257.5 -157
t-251.5 -55.5q-95 0 -135.5 34t-40.5 93q0 21 4 38t17 35q175 90 320.5 228t262 309t204 368.5t145.5 407t87 423.5t29 419z" />
    <glyph glyph-name="O" unicode="O" horiz-adv-x="2683" 
d="M2114 385q-86 -115 -194 -210t-234.5 -163t-271 -105.5t-304.5 -37.5q-223 0 -394 66.5t-287 200.5t-176 336t-60 474q0 181 38 365t105 361.5t159.5 344t202 312.5t232 266.5t249.5 207.5t254 135t246 48q51 0 93 -18t72 -50t48 -75.5t21 -94.5q62 41 140 66t171 25
q90 0 165.5 -25.5t136 -70t106 -106.5t76 -134.5t46 -154t15.5 -165.5t-11 -189.5t-33.5 -225t-57 -248.5t-81.5 -260t-106.5 -260.5t-132.5 -249.5q15 -12 36.5 -22t46.5 -17t51 -11t50 -4q48 0 101 22.5t108 66.5t111 110t110 154q28 -2 56.5 -12.5t51.5 -29.5t37.5 -45.5
t14.5 -60.5q0 -46 -25 -109t-70.5 -131t-108.5 -134t-139.5 -118.5t-164 -85t-180.5 -32.5q-43 0 -87 6t-85.5 18t-79 29.5t-67.5 40.5zM926 1090q0 -138 26 -252t77 -195.5t126.5 -126.5t175.5 -45q60 0 119 13t113 39.5t101.5 66.5t84.5 94q-64 78 -116 171.5t-88 202
t-55.5 233t-19.5 265.5q0 146 15.5 276.5t45.5 251t74.5 233t102.5 223.5q-98 -65 -194.5 -152.5t-183 -194t-160.5 -231.5t-128.5 -264.5t-85 -292t-30.5 -315.5zM2032 1110q35 70 64 149.5t52 160.5t40.5 160.5t29 148t17.5 122.5t6 86q0 69 -9 124.5t-34.5 95t-71 64
t-119.5 32.5q-25 -133 -45 -287t-20 -315q0 -146 20 -283t70 -258z" />
    <glyph glyph-name="E" unicode="E" horiz-adv-x="2105" 
d="M967 -221q-192 0 -345.5 52t-260.5 146t-164.5 225.5t-57.5 289.5q0 109 39 225t118 227t199 212t283 179q-45 48 -82.5 109t-64.5 133t-42.5 154.5t-15.5 173.5q0 130 37.5 260t105.5 249.5t163 222t210.5 178.5t247 119.5t273.5 43.5q143 0 246.5 -33t171 -95.5
t99.5 -153t32 -206.5q0 -152 -42.5 -264.5t-111 -186.5t-154.5 -110.5t-172 -36.5q-68 0 -101.5 21.5t-45.5 52.5q40 84 61 165.5t21 162.5q0 58 -9.5 98t-25.5 64.5t-37.5 35.5t-46.5 11q-37 0 -74.5 -23t-72.5 -64t-65.5 -98t-53.5 -124.5t-36 -143t-13 -154.5
q0 -54 5.5 -109.5t15.5 -109t23.5 -102t28.5 -88.5q34 8 74.5 14t82 10t79.5 6.5t67 2.5q59 0 97 -8t60 -22t31 -32.5t9 -40.5q0 -87 -33 -170.5t-88 -148.5t-126 -104.5t-146 -39.5q-29 0 -63.5 8t-71 22.5t-72.5 35t-68 45.5q-41 -43 -75 -95.5t-58 -107.5t-37.5 -107.5
t-13.5 -95.5q0 -76 21 -138t64.5 -106t110 -67.5t156.5 -23.5q96 0 201 29t211.5 80t210 120.5t198 150.5t175 170t139.5 179q32 0 60.5 -6.5t49.5 -22t33.5 -40.5t12.5 -62q0 -49 -32.5 -124.5t-93 -165t-146.5 -187.5t-194 -193t-234.5 -180.5t-267.5 -150.5
t-294.5 -103.5t-314.5 -38.5z" />
    <glyph glyph-name="R" unicode="R" horiz-adv-x="2785" 
d="M1761 1184q98 132 163.5 238.5t104.5 200.5t55.5 180.5t16.5 178.5q0 82 -25.5 154t-82 127.5t-148 91.5t-223.5 45q-6 -195 -59.5 -500t-149.5 -700q62 12 135 12q59 0 114.5 -8t98.5 -20zM2769 324q25 -28 37 -69.5t12 -78.5q0 -56 -23 -112.5t-64 -108.5t-98.5 -97
t-126.5 -78t-148 -52t-163 -19q-58 0 -102.5 13t-82.5 45.5t-73 87t-73 137.5q-64 140 -117 251t-99 197t-86.5 149t-80.5 107t-81.5 72t-88.5 43q-28 -112 -52 -229.5t-42.5 -223.5t-30.5 -193.5t-15 -139.5q-24 -34 -75.5 -54t-128.5 -20q-58 0 -110 18.5t-95 50t-77 72.5
t-58 85.5t-36.5 89.5t-12.5 85q0 28 3 61.5t11 78.5t22 104t37 137.5t55 179.5t76 230q89 264 192 571.5t214 669.5q-85 -10 -166.5 -40.5t-157.5 -76t-144.5 -103.5t-127.5 -122.5t-107.5 -134t-83.5 -138.5q-18 -9 -43.5 -14.5t-50.5 -5.5q-41 0 -74 17t-55.5 48.5
t-34.5 76.5t-12 100q0 104 56 221.5t158 232.5t245 220.5t318 185.5t376.5 128t419.5 48q264 0 462 -61.5t330.5 -171t198.5 -261.5t66 -333q0 -152 -45 -297.5t-134 -291.5t-220.5 -296t-305.5 -311q32 -31 77.5 -85.5t97.5 -129t108 -167t110 -200.5q19 -37 36.5 -60.5
t35.5 -37.5t37.5 -19.5t42.5 -5.5q14 0 35 2t44.5 5.5t47 8t41.5 9.5z" />
    <glyph glyph-name="germandbls" unicode="&#xdf;" horiz-adv-x="2142" 
d="M98 246q104 520 199 916.5t189 687t190.5 485.5t202.5 312t224.5 166.5t256.5 49.5q121 0 224.5 -38.5t179 -107t118.5 -162t43 -204.5q0 -70 -20.5 -150t-65 -170t-114.5 -192t-169 -217q108 -136 188 -245.5t137.5 -199t94.5 -162t58.5 -134.5t30 -117t8.5 -109
q0 -167 -56 -302t-150.5 -230t-217 -146t-256.5 -51q-126 0 -227.5 36.5t-173 100.5t-110 150t-38.5 184q0 78 26.5 140.5t67.5 106t92 66.5t100 23q31 0 49.5 -3.5t37.5 -12.5q27 -71 62.5 -134t74.5 -110.5t78.5 -75.5t74.5 -28q41 0 59.5 21.5t18.5 68.5q0 34 -14 80
t-46 107.5t-84.5 141t-129.5 179.5q-63 83 -109.5 148.5t-76.5 120t-45 101.5t-15 93q0 65 19.5 129t62.5 129q57 87 96 160t63 134t35 111.5t11 93.5q0 81 -34.5 124.5t-96.5 43.5q-43 0 -84 -53.5t-82.5 -164.5t-85.5 -281t-93.5 -403t-106 -531t-122.5 -664
q-49 -275 -141 -493t-216.5 -370t-276 -232.5t-320.5 -80.5q-106 0 -193 23t-148.5 69t-95.5 115.5t-34 161.5q0 61 24 118.5t64 102t91.5 72.5t106.5 31q65 -71 128.5 -111.5t121.5 -40.5q51 0 98.5 37t90.5 113.5t81 194t70 278.5z" />
    <glyph glyph-name="quotesingle" unicode="'" horiz-adv-x="1208" 
d="M639 1573q68 238 101.5 460.5t33.5 420.5q0 58 -2 119.5t-14 129.5q28 81 94 122.5t180 41.5q92 0 158.5 -31t109.5 -78t63.5 -103t20.5 -107q0 -83 -26 -196t-78 -242t-130.5 -265.5t-182.5 -267.5q-37 -46 -85.5 -72t-95.5 -26q-70 0 -102.5 25.5t-44.5 68.5z" />
    <glyph glyph-name="exclam" unicode="!" horiz-adv-x="2048" 
d="M1327 938q-15 -9 -45 -17t-61 -8q-64 0 -114.5 32.5t-85.5 85.5t-53 121t-18 138q0 45 4 108.5t12.5 140t20.5 164t28.5 180t37 187.5t45.5 187q-25 59 -37 125.5t-12 128.5q0 53 23 108t64.5 106.5t97.5 97t122.5 79t140.5 53t150 19.5q65 0 108.5 -12.5t70.5 -36.5
t38.5 -60t11.5 -84q0 -40 -12.5 -99t-39 -134t-66.5 -164t-95 -189q-49 -142 -93 -286.5t-85.5 -298.5t-80 -320t-77.5 -352zM926 -49q-66 0 -126 28t-106 74.5t-73 105.5t-27 120q0 50 23.5 99t63.5 93.5t92.5 83t111.5 66t120 43.5t117 16t93 -11.5t59 -34t31.5 -55
t9.5 -75.5q0 -59 -13.5 -123.5t-38.5 -126t-60 -116.5t-78 -96.5t-93.5 -66t-105.5 -24.5z" />
    <glyph glyph-name="question" unicode="?" horiz-adv-x="2048" 
d="M1012 -53q-74 0 -148 25.5t-133 73t-96 114t-37 147.5q0 66 35 132.5t94.5 120t138.5 87t166 33.5q71 0 120.5 -16t81 -46t46 -72.5t14.5 -94.5q0 -108 -18.5 -200t-54.5 -159.5t-88.5 -106t-120.5 -38.5zM1438 1315q-16 -50 -22.5 -102.5t-6.5 -114.5q0 -61 12 -135
q-10 -17 -27 -32t-41 -26t-56.5 -17.5t-75.5 -6.5q-64 0 -121 27t-99.5 74.5t-67 111t-24.5 135.5q0 49 14.5 94t53.5 93t106.5 102.5t173.5 123.5q101 67 174 118.5t124.5 93t83.5 74.5t50 62.5t24.5 58t6.5 60.5q0 25 -10 51t-38.5 47.5t-79.5 35.5t-134 14
q-28 0 -64.5 -1.5t-77.5 -4.5t-84.5 -8t-84.5 -11q-31 15 -53.5 39.5t-37 54.5t-21.5 64t-7 68q0 97 38.5 185t111 155t178.5 107t241 40q103 0 197.5 -25.5t177 -71.5t150 -110t116 -141t75 -165.5t26.5 -182.5q0 -68 -12 -125t-47 -114.5t-97 -121.5t-162 -145
t-243.5 -185.5t-339.5 -242.5z" />
    <glyph glyph-name="quoteleft" unicode="&#x2018;" horiz-adv-x="1343" 
d="M1430 2609q-74 -38 -142.5 -88t-121.5 -102.5t-85 -103.5t-32 -91q0 -34 10 -67t34 -64.5t63 -60.5t97 -54q19 -34 26 -69.5t7 -69.5q0 -75 -25 -140t-71.5 -113t-112.5 -75.5t-147 -27.5q-97 0 -175 38t-133 102t-84.5 148.5t-29.5 178.5q0 114 34.5 225t93 211.5
t134 186.5t158 148.5t165.5 98t156 35.5q96 0 144.5 -45.5t48.5 -122.5q0 -19 -3 -37.5t-9 -40.5z" />
    <glyph glyph-name="quoteright" unicode="&#x2019;" horiz-adv-x="1343" 
d="M553 1729q74 38 142.5 88t121.5 102.5t85 103.5t32 91q0 34 -10 67t-34 64.5t-63 60.5t-98 53q-18 34 -25.5 70t-7.5 70q0 75 25.5 140t72 113t112.5 75.5t147 27.5q97 0 175 -38t133 -102t84.5 -148.5t29.5 -178.5q0 -114 -35 -225t-93 -211.5t-134 -186.5
t-158.5 -148.5t-165.5 -98t-156 -35.5q-96 0 -144 45t-48 123q0 35 12 78z" />
    <glyph glyph-name="i" unicode="i" horiz-adv-x="1040" 
d="M795 2437q0 125 13 211t38 139t62.5 77t86.5 24q41 0 82.5 -14t80.5 -37.5t72.5 -54.5t58.5 -65.5t39.5 -69.5t14.5 -67q0 -37 -15 -85.5t-48 -110.5t-85 -137.5t-126 -165.5q-60 0 -110.5 22.5t-86.5 67t-56.5 111t-20.5 155.5zM266 881q-25 58 -33 125t-8 129
q0 60 28 133.5t76 148t110.5 144.5t131 124.5t139.5 87.5t134 33q71 0 111.5 -18.5t61.5 -52.5t26.5 -82.5t5.5 -108.5q0 -40 -12 -91t-32 -109.5t-46 -121.5t-54 -128q-43 -106 -74.5 -185.5t-52.5 -139.5t-31 -104t-10 -79q0 -34 15 -48t43 -14q21 0 66 26.5t110.5 87.5
t151 160.5t188.5 245.5q29 0 57.5 -11.5t51 -31.5t36.5 -46.5t14 -57.5q0 -48 -28.5 -114.5t-79 -142.5t-118.5 -157t-146.5 -158t-164.5 -145.5t-171.5 -120.5t-167 -82t-152.5 -30q-90 0 -152 20t-100 61t-54.5 103.5t-16.5 147.5q0 68 8.5 134.5t26.5 138.5t46 153
t66 176z" />
    <glyph glyph-name="j" unicode="j" horiz-adv-x="1090" 
d="M729 25q-6 -49 -12 -97.5t-12 -93t-11 -82.5t-10 -67q-28 -207 -101 -359t-174 -251.5t-221 -148t-241 -48.5q-112 0 -203.5 40t-156.5 113t-100.5 173.5t-35.5 222.5q0 70 15 127.5t58 114.5t120.5 119t203.5 142l328 209q8 86 18.5 184t23 196.5t27 191.5t29.5 170
q-24 58 -32.5 125t-8.5 129q0 60 32 135.5t85 153t122 151.5t143 132t148 93t138 35q59 0 97.5 -11.5t61.5 -35.5t32.5 -60t9.5 -86q0 -89 -51.5 -233.5t-165.5 -339.5q-11 -51 -24.5 -120t-27.5 -149t-28.5 -166.5t-26.5 -170.5q71 46 143 102t145 125.5t146.5 154
t147.5 187.5q29 0 58 -13t51.5 -34.5t36.5 -49.5t14 -58q0 -50 -33.5 -116.5t-91.5 -142t-135.5 -155.5t-165 -158t-181.5 -150t-184 -130zM16 -328q-31 -20 -52.5 -37.5t-35 -35t-20 -36.5t-6.5 -42q0 -45 11 -81t30 -62t45 -40t57 -14q46 0 65 38.5t25 125.5q5 57 9 108
t8 90q4 46 8 85zM815 2576q0 120 10 196.5t30.5 120.5t51 60.5t72.5 16.5q62 0 123 -30.5t110.5 -76t80 -99.5t30.5 -102q0 -37 -8 -85t-33 -109t-69.5 -136t-118.5 -165q-72 0 -125 31t-87 86t-50.5 130t-16.5 162z" />
    <glyph glyph-name="d" unicode="d" horiz-adv-x="1712" 
d="M123 631q0 150 38 296t102.5 278t148 244.5t175 194.5t184.5 128.5t175 46.5q96 0 142.5 -48t46.5 -129q0 -12 -0.5 -24t-4.5 -25q-75 -48 -136 -114.5t-108.5 -144t-82.5 -163t-58 -171t-34 -168.5t-11 -156q0 -52 7.5 -86.5t23 -55.5t38.5 -29.5t54 -8.5q43 0 91 50.5
t95 140t89.5 212t75 267t52 305.5t19.5 327q0 178 -46.5 313t-131 227t-203 142.5t-262.5 59.5q-28 24 -40.5 61t-12.5 74q0 72 31.5 142t96 124.5t164.5 88.5t236 34q174 0 316 -70t243 -200t156 -316t55 -418q0 -318 -51.5 -597.5t-139.5 -512.5t-205.5 -416.5t-249 -310
t-269.5 -193.5t-268 -67q-123 0 -223 40.5t-170.5 123t-109 208t-38.5 296.5z" />
    <glyph glyph-name="S" unicode="S" horiz-adv-x="2204" 
d="M61 512q0 75 13 152t39 149t64 135t87.5 110t110.5 74t133 27q53 0 96.5 -15.5t71.5 -49.5v-78q0 -209 44 -360.5t117.5 -250t168.5 -145.5t198 -47q59 0 109.5 25.5t88.5 72t59.5 111.5t21.5 143q0 34 -3.5 67.5t-17 74t-39.5 92.5t-71.5 121.5t-112.5 161t-162 212.5
q-81 105 -136 201t-88.5 189t-47.5 185t-14 187q0 114 28.5 228t82 218.5t130 195t173 157.5t211 105t243.5 38q166 0 283 -43.5t191.5 -114t109 -160t34.5 -181.5q0 -60 -15 -113.5t-39.5 -97.5t-56 -76t-65.5 -49q-81 68 -151 117t-133 81.5t-121 48t-115 15.5
q-34 0 -63.5 -14t-52 -40t-35.5 -62t-13 -81q0 -49 14.5 -106t50 -130t94.5 -167.5t148 -218.5q86 -122 149 -219.5t108 -177.5t73 -146t44 -125.5t22 -116t6 -116.5q0 -116 -34.5 -236t-101 -233t-163.5 -212.5t-220.5 -174t-273 -117.5t-321.5 -43q-158 0 -289.5 29.5
t-237.5 83.5t-185.5 129.5t-132.5 167t-79.5 196t-26.5 217.5z" />
    <glyph glyph-name="M" unicode="M" horiz-adv-x="4260" 
d="M791 238q48 0 109 34.5t138.5 117t174.5 219.5t216 342.5t262.5 486.5t315.5 651q-15 57 -26 105t-18 95t-10 96t-3 109q0 84 26 170.5t72.5 168t111.5 152.5t143 124.5t166 84t181 30.5q83 0 142.5 -19.5t98 -50t57 -68.5t18.5 -75q0 -39 -16 -87.5t-49.5 -113
t-86.5 -146t-127 -186.5q13 -74 30 -164t35.5 -190t38 -206.5t37.5 -213t33.5 -210t26.5 -196.5l680 820q92 381 270.5 569t433.5 188q56 0 108 -16t93 -47.5t65.5 -78t24.5 -107.5q0 -48 -39 -104.5t-104 -123.5t-150.5 -146t-177.5 -171q-37 -155 -67 -316.5t-53 -317.5
t-40 -300.5t-28 -265t-16 -211t-5 -138.5q0 -37 17 -51t44 -14q22 0 76.5 31.5t132.5 99.5t174.5 175t202.5 259q31 0 59.5 -9t51 -26t36 -42.5t13.5 -57.5q0 -51 -31.5 -120.5t-86.5 -148.5t-129.5 -163t-160 -164.5t-178.5 -152t-185 -125.5t-178.5 -85.5t-160.5 -31.5
q-94 0 -158 21t-103.5 64t-57 108.5t-17.5 154.5q0 80 3 156t11 156.5t21.5 169t34 194t48.5 231.5t66 281l-499 -615q0 -94 -25.5 -194.5t-71.5 -196.5t-109 -182t-138 -150.5t-159.5 -102.5t-172.5 -38q-72 0 -133.5 21.5t-106.5 63t-70.5 102.5t-25.5 141q0 38 13.5 77
t48.5 88.5t95 113t154 151.5q-6 84 -13.5 171.5t-15.5 172t-16.5 163t-16 145t-14 117t-10.5 79.5q-144 -355 -278 -633t-262.5 -487.5t-252.5 -355t-248.5 -236t-251 -131.5t-259.5 -41q-151 0 -264.5 41.5t-189.5 121t-114 195t-38 264.5q0 166 41.5 301.5t113 231.5
t166.5 148t203 52q87 0 143.5 -33.5t81.5 -88.5q-29 -65 -51.5 -129t-37.5 -122t-22.5 -107.5t-7.5 -84.5q0 -67 9 -111t30 -70.5t55 -38.5t83 -17z" />
    <glyph glyph-name="A" unicode="A" horiz-adv-x="3482" 
d="M799 877q86 2 175 4.5t183.5 7t195.5 9.5t212 11q59 78 134 181.5t161 225.5t181.5 259.5t196 283t205 296.5t207.5 299q29 118 81.5 223t129.5 183.5t179 124.5t229 46q83 0 146 -24.5t106 -63.5t67 -88t29 -98q0 -31 -15.5 -61t-58 -70t-118.5 -94t-197 -132
q-22 -112 -39 -247t-30.5 -279t-23.5 -290t-18 -281q74 -13 117 -60t43 -137q0 -43 -13 -87.5t-36.5 -87.5t-56 -82t-70.5 -71q0 -66 1 -116.5t6.5 -84.5t18 -51.5t35.5 -17.5q21 0 74 25t129.5 85.5t173 162.5t205.5 255h16q29 0 57 -10t50 -28t35.5 -43t13.5 -54
q0 -51 -32 -121.5t-88 -150.5t-131.5 -165.5t-162.5 -166.5t-181.5 -153.5t-187.5 -127t-181 -86.5t-163 -32q-95 0 -163.5 21.5t-112 65t-64 108.5t-20.5 153v87.5t1.5 80.5t4 94t6.5 127q-66 -6 -147 -12.5t-168 -11.5t-174.5 -9.5t-165.5 -7.5q-115 -166 -216 -294.5
t-194 -224t-179.5 -160.5t-171.5 -105.5t-171 -58t-178 -17.5q-149 0 -267 44t-199.5 128.5t-125 207t-43.5 279.5q0 83 18.5 161.5t53 147.5t83.5 127t109 99.5t130 64.5t147 23q86 0 140.5 -34t76.5 -105zM836 274q51 0 98.5 14.5t99 48t110 89.5t130.5 139
q-88 -3 -166 -4.5t-149.5 -2.5t-137.5 -1h-129q-6 -22 -9 -48.5t-3 -41.5q0 -49 11.5 -85.5t32.5 -60.5t49.5 -35.5t62.5 -11.5zM2048 942q51 3 108 7t113.5 8t108.5 9t92 9q5 53 12 124.5t15.5 153t18.5 168t21.5 170t23 159t24.5 134.5q-34 -63 -77.5 -142t-92 -165
t-99.5 -175t-99 -172.5t-91.5 -157.5t-77.5 -130z" />
    <glyph glyph-name="U" unicode="U" horiz-adv-x="2589" 
d="M147 2535q0 111 64.5 206t178.5 165t269 110t336 40q146 0 253 -38.5t177.5 -106t105 -159.5t34.5 -200q0 -64 -5.5 -130.5t-18.5 -141.5t-34.5 -161t-54.5 -190.5t-78 -229.5t-104 -278q-58 -149 -97 -263t-62 -200.5t-32.5 -149t-9.5 -108.5q0 -151 64 -222.5
t194 -71.5q106 0 217.5 92t218.5 271t205 443.5t178 610.5q-31 139 -46 270.5t-15 249.5t17.5 217.5t54 171.5t94 112t137.5 40q57 0 114.5 -17.5t109.5 -47t97.5 -68t78.5 -81t52 -85.5t19 -82q0 -54 -6.5 -108t-25 -123.5t-51.5 -162.5t-85 -225q-78 -360 -177.5 -650.5
t-217 -516t-250.5 -388t-278 -267.5t-299 -155t-314 -50q-186 0 -334 48t-251.5 139.5t-158.5 223.5t-55 301q0 77 13 167t35 183t51 185.5t61 173.5q69 175 121 314t90.5 248t64 191.5t40.5 144.5t21.5 106t6.5 77q0 39 -8.5 63.5t-24 38.5t-36.5 19.5t-46 5.5
q-30 0 -72.5 -17t-92.5 -47.5t-105 -73.5t-110 -95q-48 8 -88 36t-69 68t-45 87t-16 91z" />
    <glyph glyph-name="aacute" unicode="&#xe1;" 
d="M971 475q-49 -140 -107.5 -231.5t-119.5 -145.5t-121.5 -76t-114.5 -22q-88 0 -162.5 36t-128.5 107t-84.5 177t-30.5 245q0 154 39.5 307t107.5 292.5t158.5 260t192.5 209t210 139t210 50.5q43 0 67 -6.5t39 -22.5l13 238q24 27 62 40t81 13q105 0 185 -32t134.5 -80.5
t82.5 -107t28 -112.5q0 -40 -10 -112t-35 -158q-54 -193 -91.5 -340t-61 -254t-34 -177t-10.5 -110q0 -31 3 -49.5t9.5 -28.5t16 -13t21.5 -3q31 0 85 30t126 94t160 163t186 237q32 0 60 -9.5t48 -26.5t31.5 -40t11.5 -51q0 -50 -30 -116t-81 -140.5t-119.5 -153
t-146 -152.5t-160 -140t-161.5 -115.5t-150.5 -78.5t-126.5 -29q-67 0 -122 15.5t-93 54t-59 103t-21 162.5q0 34 3.5 74t9.5 86zM1106 1528q-77 -49 -149 -133.5t-128 -190.5t-90 -225t-34 -238q0 -57 8.5 -90t23 -50.5t34 -22.5t40.5 -5q43 0 85 28t79 75zM1527 3313
q69 0 121.5 -19t87.5 -53t52.5 -81.5t17.5 -104.5q0 -181 -315 -508q-63 -64 -132 -119t-135.5 -95t-127.5 -62.5t-109 -22.5q-44 0 -69 25.5t-25 81.5q106 153 186.5 276.5t134.5 225.5t81.5 186.5t27.5 159.5q34 52 85 81t119 29z" />
    <glyph glyph-name="agrave" unicode="&#xe0;" 
d="M971 475q-49 -140 -107.5 -231.5t-119.5 -145.5t-121.5 -76t-114.5 -22q-88 0 -162.5 36t-128.5 107t-84.5 177t-30.5 245q0 154 39.5 307t107.5 292.5t158.5 260t192.5 209t210 139t210 50.5q43 0 67 -6.5t39 -22.5l13 238q24 27 62 40t81 13q105 0 185 -32t134.5 -80.5
t82.5 -107t28 -112.5q0 -40 -10 -112t-35 -158q-54 -193 -91.5 -340t-61 -254t-34 -177t-10.5 -110q0 -31 3 -49.5t9.5 -28.5t16 -13t21.5 -3q31 0 85 30t126 94t160 163t186 237q32 0 60 -9.5t48 -26.5t31.5 -40t11.5 -51q0 -50 -30 -116t-81 -140.5t-119.5 -153
t-146 -152.5t-160 -140t-161.5 -115.5t-150.5 -78.5t-126.5 -29q-67 0 -122 15.5t-93 54t-59 103t-21 162.5q0 34 3.5 74t9.5 86zM1106 1528q-77 -49 -149 -133.5t-128 -190.5t-90 -225t-34 -238q0 -57 8.5 -90t23 -50.5t34 -22.5t40.5 -5q43 0 85 28t79 75zM1262 3277
q12 -112 31 -231t43.5 -234.5t54 -223t63.5 -196.5q-1 -25 -11 -46.5t-28.5 -37.5t-45.5 -25.5t-62 -9.5q-63 0 -130.5 42.5t-134 123.5t-129 197.5t-114.5 263.5q-6 21 -11.5 45t-5.5 49q0 66 22.5 127.5t66 108.5t107 75.5t144.5 28.5q47 0 82.5 -16.5t57.5 -40.5z" />
    <glyph glyph-name="acircumflex" unicode="&#xe2;" 
d="M971 475q-49 -140 -107.5 -231.5t-119.5 -145.5t-121.5 -76t-114.5 -22q-88 0 -162.5 36t-128.5 107t-84.5 177t-30.5 245q0 154 39.5 307t107.5 292.5t158.5 260t192.5 209t210 139t210 50.5q43 0 67 -6.5t39 -22.5l13 238q24 27 62 40t81 13q105 0 185 -32t134.5 -80.5
t82.5 -107t28 -112.5q0 -40 -10 -112t-35 -158q-54 -193 -91.5 -340t-61 -254t-34 -177t-10.5 -110q0 -31 3 -49.5t9.5 -28.5t16 -13t21.5 -3q31 0 85 30t126 94t160 163t186 237q32 0 60 -9.5t48 -26.5t31.5 -40t11.5 -51q0 -50 -30 -116t-81 -140.5t-119.5 -153
t-146 -152.5t-160 -140t-161.5 -115.5t-150.5 -78.5t-126.5 -29q-67 0 -122 15.5t-93 54t-59 103t-21 162.5q0 34 3.5 74t9.5 86zM1106 1528q-77 -49 -149 -133.5t-128 -190.5t-90 -225t-34 -238q0 -57 8.5 -90t23 -50.5t34 -22.5t40.5 -5q43 0 85 28t79 75zM1356 2466
q0 128 -2 210.5t-9 130.5t-20 66.5t-34 18.5q-31 0 -73 -37t-90 -111t-98 -185.5t-96 -260.5q-21 -9 -40.5 -12.5t-41.5 -3.5q-30 0 -57.5 11.5t-48.5 34t-33 56t-12 78.5q0 48 17 111.5t48.5 135t76 146.5t99 146.5t118 135t132.5 111t142.5 75.5t148.5 28q105 0 170 -38.5
t101 -127.5t48.5 -235t12.5 -361q0 -31 2.5 -79t5.5 -97q-18 -32 -48.5 -61t-69.5 -51t-84 -35t-93 -13q-95 0 -133.5 53t-38.5 160z" />
    <glyph glyph-name="adieresis" unicode="&#xe4;" 
d="M971 475q-49 -140 -107.5 -231.5t-119.5 -145.5t-121.5 -76t-114.5 -22q-88 0 -162.5 36t-128.5 107t-84.5 177t-30.5 245q0 154 39.5 307t107.5 292.5t158.5 260t192.5 209t210 139t210 50.5q43 0 67 -6.5t39 -22.5l13 238q24 27 62 40t81 13q105 0 185 -32t134.5 -80.5
t82.5 -107t28 -112.5q0 -40 -10 -112t-35 -158q-54 -193 -91.5 -340t-61 -254t-34 -177t-10.5 -110q0 -31 3 -49.5t9.5 -28.5t16 -13t21.5 -3q31 0 85 30t126 94t160 163t186 237q32 0 60 -9.5t48 -26.5t31.5 -40t11.5 -51q0 -50 -30 -116t-81 -140.5t-119.5 -153
t-146 -152.5t-160 -140t-161.5 -115.5t-150.5 -78.5t-126.5 -29q-67 0 -122 15.5t-93 54t-59 103t-21 162.5q0 34 3.5 74t9.5 86zM1106 1528q-77 -49 -149 -133.5t-128 -190.5t-90 -225t-34 -238q0 -57 8.5 -90t23 -50.5t34 -22.5t40.5 -5q43 0 85 28t79 75zM692 2511
q0 117 12 200.5t35.5 137t58 79t79.5 25.5q60 0 113.5 -28t94 -71t64 -94.5t23.5 -97.5q0 -37 -12.5 -79t-42.5 -96t-79.5 -122t-123.5 -157q-43 0 -83 18t-71 55t-49.5 94.5t-18.5 135.5zM1401 2572q0 125 13 211t38.5 139t63 77t86.5 24q41 0 82.5 -14t80.5 -37.5
t72.5 -54.5t58.5 -65t39.5 -69t14.5 -67q0 -37 -15.5 -86t-48.5 -110.5t-85 -137t-126 -166.5q-63 0 -113.5 21.5t-86 66t-55 111.5t-19.5 157z" />
    <glyph glyph-name="atilde" unicode="&#xe3;" 
d="M971 475q-49 -140 -107.5 -231.5t-119.5 -145.5t-121.5 -76t-114.5 -22q-88 0 -162.5 36t-128.5 107t-84.5 177t-30.5 245q0 154 39.5 307t107.5 292.5t158.5 260t192.5 209t210 139t210 50.5q43 0 67 -6.5t39 -22.5l13 238q24 27 62 40t81 13q105 0 185 -32t134.5 -80.5
t82.5 -107t28 -112.5q0 -40 -10 -112t-35 -158q-54 -193 -91.5 -340t-61 -254t-34 -177t-10.5 -110q0 -31 3 -49.5t9.5 -28.5t16 -13t21.5 -3q31 0 85 30t126 94t160 163t186 237q32 0 60 -9.5t48 -26.5t31.5 -40t11.5 -51q0 -50 -30 -116t-81 -140.5t-119.5 -153
t-146 -152.5t-160 -140t-161.5 -115.5t-150.5 -78.5t-126.5 -29q-67 0 -122 15.5t-93 54t-59 103t-21 162.5q0 34 3.5 74t9.5 86zM1106 1528q-77 -49 -149 -133.5t-128 -190.5t-90 -225t-34 -238q0 -57 8.5 -90t23 -50.5t34 -22.5t40.5 -5q43 0 85 28t79 75zM1196 2851
q118 40 205 71.5t151.5 58t110 50.5t79.5 49.5t60.5 54t52.5 64.5q69 -7 121.5 -34.5t87.5 -68t52.5 -90t17.5 -102.5q0 -90 -38 -159t-120 -123.5t-212 -98.5t-314 -86q-121 -26 -205.5 -46.5t-143 -42t-97.5 -47t-70 -60.5q-36 0 -71.5 11.5t-64.5 36t-47 64.5t-18 97
q0 68 24 122.5t78.5 102t143 90.5t217.5 86z" />
    <glyph glyph-name="aring" unicode="&#xe5;" 
d="M971 475q-49 -140 -107.5 -231.5t-119.5 -145.5t-121.5 -76t-114.5 -22q-88 0 -162.5 36t-128.5 107t-84.5 177t-30.5 245q0 154 39.5 307t107.5 292.5t158.5 260t192.5 209t210 139t210 50.5q43 0 67 -6.5t39 -22.5l13 238q24 27 62 40t81 13q105 0 185 -32t134.5 -80.5
t82.5 -107t28 -112.5q0 -40 -10 -112t-35 -158q-54 -193 -91.5 -340t-61 -254t-34 -177t-10.5 -110q0 -31 3 -49.5t9.5 -28.5t16 -13t21.5 -3q31 0 85 30t126 94t160 163t186 237q32 0 60 -9.5t48 -26.5t31.5 -40t11.5 -51q0 -50 -30 -116t-81 -140.5t-119.5 -153
t-146 -152.5t-160 -140t-161.5 -115.5t-150.5 -78.5t-126.5 -29q-67 0 -122 15.5t-93 54t-59 103t-21 162.5q0 34 3.5 74t9.5 86zM1106 1528q-77 -49 -149 -133.5t-128 -190.5t-90 -225t-34 -238q0 -57 8.5 -90t23 -50.5t34 -22.5t40.5 -5q43 0 85 28t79 75zM1343 2277
q-94 0 -170.5 27t-130.5 78t-83.5 125t-29.5 168q0 74 18.5 147t50 139.5t72 123.5t85 98.5t89 65.5t83.5 24q34 0 57.5 -10.5t36.5 -22.5q31 65 82.5 98t109.5 33q63 0 121 -31t102 -88t70.5 -137t26.5 -178q0 -101 -24.5 -189.5t-66.5 -162t-99 -131t-123 -97t-136.5 -60
t-140.5 -20.5zM1278 2765q0 -56 28 -85.5t78 -29.5q23 0 46.5 11t42 32t30.5 50.5t12 66.5q0 53 -26 115.5t-72 117.5q-35 -35 -61 -74t-43.5 -76t-26 -70.5t-8.5 -57.5z" />
    <glyph glyph-name="ccedilla" unicode="&#xe7;" horiz-adv-x="1384" 
d="M676 -37q-151 0 -259.5 46t-178.5 134.5t-103 217t-33 294.5q0 158 39.5 312t107.5 293.5t159.5 258t196.5 205.5t217.5 136t221.5 49q105 0 183 -27t130.5 -78t78.5 -125t26 -168q0 -98 -32 -184t-85 -149.5t-121.5 -100.5t-142.5 -37q-68 0 -109.5 20.5t-66.5 57.5
q22 84 31.5 151t9.5 107q0 44 -17 65t-36 21q-29 0 -67.5 -47.5t-72.5 -135.5t-57.5 -213t-23.5 -280q0 -84 12 -144t38.5 -98t68.5 -55.5t102 -17.5q86 0 185.5 42t200.5 118t199 182.5t181 235.5q28 0 56.5 -9t51.5 -26.5t37.5 -43t14.5 -57.5q0 -53 -29 -122t-80 -145.5
t-122 -157t-155 -156.5t-178 -143q-84 -60 -170 -106v-1q0 -220 -43 -391.5t-122 -289.5t-191 -179.5t-250 -61.5q-97 0 -172 28.5t-127 79.5t-79 122t-27 156q0 41 13 81.5t38.5 74t63.5 56.5t89 29q29 -32 61 -59t63.5 -46.5t61.5 -30.5t56 -11q48 0 89.5 39.5t75.5 115.5
q32 71 56 172q-33 -4 -65 -4z" />
    <glyph glyph-name="eacute" unicode="&#xe9;" horiz-adv-x="1470" 
d="M983 1339q0 65 -22.5 100.5t-59.5 35.5q-21 0 -50.5 -26.5t-58.5 -79.5t-52.5 -133t-34.5 -187q86 15 140 45.5t85 69.5t42 84t11 91zM688 -37q-150 0 -260.5 46t-183 134.5t-107.5 217t-35 294.5q0 155 39 307.5t106 291.5t156.5 258t189.5 206.5t205.5 137t205.5 49.5
q212 0 325 -103.5t113 -318.5q0 -129 -40 -242.5t-130.5 -208t-236 -167t-355.5 -120.5q0 -69 8.5 -122.5t30 -89.5t60 -55t98.5 -19q104 0 220.5 42.5t232 120.5t224 187.5t195.5 243.5q37 -1 66 -13.5t49 -31t30.5 -42.5t10.5 -48q0 -57 -30.5 -128.5t-85 -149
t-129.5 -158t-164 -156t-189 -141.5t-204 -115.5t-209.5 -78t-205.5 -28.5zM1499 3211q69 0 121.5 -19t87.5 -53t52.5 -81.5t17.5 -104.5q0 -181 -315 -508q-63 -64 -132 -119t-135.5 -95t-127.5 -62.5t-109 -22.5q-44 0 -69 25.5t-25 81.5q106 153 186.5 276.5t134.5 225.5
t81.5 186.5t27.5 159.5q34 52 85 81t119 29z" />
    <glyph glyph-name="egrave" unicode="&#xe8;" horiz-adv-x="1470" 
d="M983 1339q0 65 -22.5 100.5t-59.5 35.5q-21 0 -50.5 -26.5t-58.5 -79.5t-52.5 -133t-34.5 -187q86 15 140 45.5t85 69.5t42 84t11 91zM688 -37q-150 0 -260.5 46t-183 134.5t-107.5 217t-35 294.5q0 155 39 307.5t106 291.5t156.5 258t189.5 206.5t205.5 137t205.5 49.5
q212 0 325 -103.5t113 -318.5q0 -129 -40 -242.5t-130.5 -208t-236 -167t-355.5 -120.5q0 -69 8.5 -122.5t30 -89.5t60 -55t98.5 -19q104 0 220.5 42.5t232 120.5t224 187.5t195.5 243.5q37 -1 66 -13.5t49 -31t30.5 -42.5t10.5 -48q0 -57 -30.5 -128.5t-85 -149
t-129.5 -158t-164 -156t-189 -141.5t-204 -115.5t-209.5 -78t-205.5 -28.5zM1045 3142q12 -112 31 -231t43.5 -234.5t54 -223t63.5 -196.5q-1 -25 -11 -46.5t-28.5 -37.5t-45.5 -25.5t-62 -9.5q-63 0 -130.5 42.5t-134 123.5t-129 197.5t-114.5 263.5q-6 21 -11.5 45
t-5.5 49q0 66 22.5 127.5t66 108.5t107 75.5t144.5 28.5q47 0 82.5 -16.5t57.5 -40.5z" />
    <glyph glyph-name="ecircumflex" unicode="&#xea;" horiz-adv-x="1470" 
d="M983 1339q0 65 -22.5 100.5t-59.5 35.5q-21 0 -50.5 -26.5t-58.5 -79.5t-52.5 -133t-34.5 -187q86 15 140 45.5t85 69.5t42 84t11 91zM688 -37q-150 0 -260.5 46t-183 134.5t-107.5 217t-35 294.5q0 155 39 307.5t106 291.5t156.5 258t189.5 206.5t205.5 137t205.5 49.5
q212 0 325 -103.5t113 -318.5q0 -129 -40 -242.5t-130.5 -208t-236 -167t-355.5 -120.5q0 -69 8.5 -122.5t30 -89.5t60 -55t98.5 -19q104 0 220.5 42.5t232 120.5t224 187.5t195.5 243.5q37 -1 66 -13.5t49 -31t30.5 -42.5t10.5 -48q0 -57 -30.5 -128.5t-85 -149
t-129.5 -158t-164 -156t-189 -141.5t-204 -115.5t-209.5 -78t-205.5 -28.5zM1237 2322q0 128 -2 210.5t-9 130.5t-20 66.5t-34 18.5q-31 0 -73 -37t-90 -111t-98 -185.5t-96 -260.5q-21 -9 -40.5 -12.5t-41.5 -3.5q-30 0 -57.5 11.5t-48.5 34t-33 56t-12 78.5q0 48 17 111.5
t48.5 135t76 146.5t99 146.5t118 135t132.5 111t142.5 75.5t148.5 28q105 0 170 -38.5t101 -127.5t48.5 -235t12.5 -361q0 -31 2.5 -79t5.5 -97q-18 -32 -48.5 -61t-69.5 -51t-84 -35t-93 -13q-95 0 -133.5 53t-38.5 160z" />
    <glyph glyph-name="edieresis" unicode="&#xeb;" horiz-adv-x="1470" 
d="M983 1339q0 65 -22.5 100.5t-59.5 35.5q-21 0 -50.5 -26.5t-58.5 -79.5t-52.5 -133t-34.5 -187q86 15 140 45.5t85 69.5t42 84t11 91zM688 -37q-150 0 -260.5 46t-183 134.5t-107.5 217t-35 294.5q0 155 39 307.5t106 291.5t156.5 258t189.5 206.5t205.5 137t205.5 49.5
q212 0 325 -103.5t113 -318.5q0 -129 -40 -242.5t-130.5 -208t-236 -167t-355.5 -120.5q0 -69 8.5 -122.5t30 -89.5t60 -55t98.5 -19q104 0 220.5 42.5t232 120.5t224 187.5t195.5 243.5q37 -1 66 -13.5t49 -31t30.5 -42.5t10.5 -48q0 -57 -30.5 -128.5t-85 -149
t-129.5 -158t-164 -156t-189 -141.5t-204 -115.5t-209.5 -78t-205.5 -28.5zM573 2445q0 117 12 200.5t35.5 137t58 79t79.5 25.5q60 0 113.5 -28t94 -71t64 -94.5t23.5 -97.5q0 -37 -12.5 -79t-42.5 -96t-79.5 -122t-123.5 -157q-43 0 -83 18t-71 55t-49.5 94.5t-18.5 135.5
zM1282 2506q0 125 13 211t38.5 139t63 77t86.5 24q41 0 82.5 -14t80.5 -37.5t72.5 -54.5t58.5 -65t39.5 -69t14.5 -67q0 -37 -15.5 -86t-48.5 -110.5t-85 -137t-126 -166.5q-63 0 -113.5 21.5t-86 66t-55 111.5t-19.5 157z" />
    <glyph glyph-name="iacute" unicode="&#xed;" horiz-adv-x="1040" 
d="M266 881q-25 58 -33 125t-8 129q0 60 28 133.5t76 148t110.5 144.5t131 124.5t139.5 87.5t134 33q71 0 111.5 -18.5t61.5 -52.5t26.5 -82.5t5.5 -108.5q0 -40 -12 -91t-32 -109.5t-46 -121.5t-54 -128q-43 -106 -74.5 -185.5t-52.5 -139.5t-31 -104t-10 -79q0 -34 15 -48
t43 -14q21 0 66 26.5t110.5 87.5t151 160.5t188.5 245.5q29 0 57.5 -11.5t51 -31.5t36.5 -46.5t14 -57.5q0 -48 -28.5 -114.5t-79 -142.5t-118.5 -157t-146.5 -158t-164.5 -145.5t-171.5 -120.5t-167 -82t-152.5 -30q-90 0 -152 20t-100 61t-54.5 103.5t-16.5 147.5
q0 68 8.5 134.5t26.5 138.5t46 153t66 176zM1327 3129q69 0 121.5 -19t87.5 -53t52.5 -81.5t17.5 -104.5q0 -181 -315 -508q-63 -64 -132 -119t-135.5 -95t-127.5 -62.5t-109 -22.5q-44 0 -69 25.5t-25 81.5q106 153 186.5 276.5t134.5 225.5t81.5 186.5t27.5 159.5
q34 52 85 81t119 29z" />
    <glyph glyph-name="igrave" unicode="&#xec;" horiz-adv-x="1040" 
d="M266 881q-25 58 -33 125t-8 129q0 60 28 133.5t76 148t110.5 144.5t131 124.5t139.5 87.5t134 33q71 0 111.5 -18.5t61.5 -52.5t26.5 -82.5t5.5 -108.5q0 -40 -12 -91t-32 -109.5t-46 -121.5t-54 -128q-43 -106 -74.5 -185.5t-52.5 -139.5t-31 -104t-10 -79q0 -34 15 -48
t43 -14q21 0 66 26.5t110.5 87.5t151 160.5t188.5 245.5q29 0 57.5 -11.5t51 -31.5t36.5 -46.5t14 -57.5q0 -48 -28.5 -114.5t-79 -142.5t-118.5 -157t-146.5 -158t-164.5 -145.5t-171.5 -120.5t-167 -82t-152.5 -30q-90 0 -152 20t-100 61t-54.5 103.5t-16.5 147.5
q0 68 8.5 134.5t26.5 138.5t46 153t66 176zM943 3060q12 -112 31 -231t43.5 -234.5t54 -223t63.5 -196.5q-1 -25 -11 -46.5t-28.5 -37.5t-45.5 -25.5t-62 -9.5q-63 0 -130.5 42.5t-134 123.5t-129 197.5t-114.5 263.5q-6 21 -11.5 45t-5.5 49q0 66 22.5 127.5t66 108.5
t107 75.5t144.5 28.5q47 0 82.5 -16.5t57.5 -40.5z" />
    <glyph glyph-name="icircumflex" unicode="&#xee;" horiz-adv-x="1040" 
d="M266 881q-25 58 -33 125t-8 129q0 60 28 133.5t76 148t110.5 144.5t131 124.5t139.5 87.5t134 33q71 0 111.5 -18.5t61.5 -52.5t26.5 -82.5t5.5 -108.5q0 -40 -12 -91t-32 -109.5t-46 -121.5t-54 -128q-43 -106 -74.5 -185.5t-52.5 -139.5t-31 -104t-10 -79q0 -34 15 -48
t43 -14q21 0 66 26.5t110.5 87.5t151 160.5t188.5 245.5q29 0 57.5 -11.5t51 -31.5t36.5 -46.5t14 -57.5q0 -48 -28.5 -114.5t-79 -142.5t-118.5 -157t-146.5 -158t-164.5 -145.5t-171.5 -120.5t-167 -82t-152.5 -30q-90 0 -152 20t-100 61t-54.5 103.5t-16.5 147.5
q0 68 8.5 134.5t26.5 138.5t46 153t66 176zM1089 2224q0 128 -2 210.5t-9 130.5t-20 66.5t-34 18.5q-31 0 -73 -37t-90 -111t-98 -185.5t-96 -260.5q-21 -9 -40.5 -12.5t-41.5 -3.5q-30 0 -57.5 11.5t-48.5 34t-33 56t-12 78.5q0 48 17 111.5t48.5 135t76 146.5t99 146.5
t118 135t132.5 111t142.5 75.5t148.5 28q105 0 170 -38.5t101 -127.5t48.5 -235t12.5 -361q0 -31 2.5 -79t5.5 -97q-18 -32 -48.5 -61t-69.5 -51t-84 -35t-93 -13q-95 0 -133.5 53t-38.5 160z" />
    <glyph glyph-name="idieresis" unicode="&#xef;" horiz-adv-x="1040" 
d="M266 881q-25 58 -33 125t-8 129q0 60 28 133.5t76 148t110.5 144.5t131 124.5t139.5 87.5t134 33q71 0 111.5 -18.5t61.5 -52.5t26.5 -82.5t5.5 -108.5q0 -40 -12 -91t-32 -109.5t-46 -121.5t-54 -128q-43 -106 -74.5 -185.5t-52.5 -139.5t-31 -104t-10 -79q0 -34 15 -48
t43 -14q21 0 66 26.5t110.5 87.5t151 160.5t188.5 245.5q29 0 57.5 -11.5t51 -31.5t36.5 -46.5t14 -57.5q0 -48 -28.5 -114.5t-79 -142.5t-118.5 -157t-146.5 -158t-164.5 -145.5t-171.5 -120.5t-167 -82t-152.5 -30q-90 0 -152 20t-100 61t-54.5 103.5t-16.5 147.5
q0 68 8.5 134.5t26.5 138.5t46 153t66 176zM450 2392q0 117 12 200.5t35.5 137t58 79t79.5 25.5q60 0 113.5 -28t94 -71t64 -94.5t23.5 -97.5q0 -37 -12.5 -79t-42.5 -96t-79.5 -122t-123.5 -157q-43 0 -83 18t-71 55t-49.5 94.5t-18.5 135.5zM1159 2453q0 125 13 211
t38.5 139t63 77t86.5 24q41 0 82.5 -14t80.5 -37.5t72.5 -54.5t58.5 -65t39.5 -69t14.5 -67q0 -37 -15.5 -86t-48.5 -110.5t-85 -137t-126 -166.5q-63 0 -113.5 21.5t-86 66t-55 111.5t-19.5 157z" />
    <glyph glyph-name="ntilde" unicode="&#xf1;" horiz-adv-x="1937" 
d="M287 963q-25 58 -33 125t-8 129q0 60 28 133.5t75.5 148t110 144.5t131.5 124.5t139.5 87.5t133.5 33q53 0 87 -9.5t53.5 -30.5t27.5 -53.5t8 -78.5q0 -38 -10 -107t-30 -151t-51 -169.5t-72 -162.5q112 194 219.5 327.5t205.5 216.5t183.5 120t152.5 37q71 0 124 -21.5
t88.5 -60t53 -90t17.5 -111.5q0 -82 -27 -192.5t-92 -257.5q-18 -45 -40.5 -98t-45 -108.5t-44 -110t-38.5 -103t-27 -88.5t-10 -66q0 -34 15 -47.5t43 -13.5q31 0 92 38.5t140.5 111.5t173 180t188.5 243q29 0 57.5 -9.5t51 -27t36.5 -42.5t14 -56q0 -48 -30.5 -114.5
t-83.5 -142.5t-125 -157t-154.5 -158t-172 -145.5t-177.5 -120.5t-171.5 -82t-154.5 -30q-90 0 -152 20t-100 61t-54.5 103.5t-16.5 147.5q0 68 15.5 145t38.5 155.5t50.5 154t50.5 139t38.5 110.5t15.5 70q0 49 -49 49q-14 0 -45 -13t-75 -45.5t-98 -87t-114 -137.5
q-22 -118 -37.5 -215.5t-26.5 -187.5t-18 -180.5t-12 -194.5q-15 -15 -29.5 -25.5t-32.5 -16.5t-42.5 -8.5t-59.5 -2.5q-86 0 -159 38t-126.5 101.5t-84 147.5t-32.5 176q0 117 25 243t78 269zM1208 2695q118 40 205 71.5t151.5 58t110 50.5t79.5 49.5t60.5 54t52.5 64.5
q69 -7 121.5 -34.5t87.5 -68t52.5 -90t17.5 -102.5q0 -90 -38 -159t-120 -123.5t-212 -98.5t-314 -86q-121 -26 -205.5 -46.5t-143 -42t-97.5 -47t-70 -60.5q-36 0 -71.5 11.5t-64.5 36t-47 64.5t-18 97q0 68 24 122.5t78.5 102t143 90.5t217.5 86z" />
    <glyph glyph-name="oacute" unicode="&#xf3;" horiz-adv-x="1688" 
d="M1740 3117q69 0 121.5 -19t87.5 -53t52.5 -81.5t17.5 -104.5q0 -181 -315 -508q-63 -64 -132 -119t-135.5 -95t-127.5 -62.5t-109 -22.5q-44 0 -69 25.5t-25 81.5q106 153 186.5 276.5t134.5 225.5t81.5 186.5t27.5 159.5q34 52 85 81t119 29zM1438 1786q63 0 110 -20.5
t78 -57t46.5 -87t15.5 -110.5q0 -49 -7 -107.5t-20 -122.5t-30 -131.5t-37 -134t-42 -130t-45 -119.5q10 -9 30.5 -19t51.5 -10q89 0 180.5 74.5t192.5 237.5q28 0 56.5 -11t51.5 -30.5t37.5 -47t14.5 -59.5q0 -43 -22 -101t-62 -120t-97 -122t-126 -107.5t-149 -77
t-167 -29.5q-56 0 -93 9.5t-71 31.5q-73 -100 -151.5 -177t-164.5 -129.5t-181 -80t-203 -27.5q-109 0 -204 36.5t-165 110t-110.5 185.5t-40.5 262q0 170 35 331.5t96 304.5t144.5 262t180.5 205.5t204.5 134.5t215.5 48q40 0 82.5 -9t77.5 -30t58 -55.5t24 -85.5
q43 53 94.5 84t110.5 31zM696 717q0 -75 12.5 -125t33.5 -79.5t47.5 -41.5t54.5 -12q37 0 70.5 13.5t63.5 36.5t56 53.5t47 64.5q-17 35 -29 80.5t-20 95.5t-12 101.5t-4 99.5q0 60 9 128.5t26.5 139.5t42.5 141t57 131q-63 -30 -121.5 -79.5t-109 -113.5t-92 -139.5
t-71 -157.5t-45.5 -167.5t-16 -169.5z" />
    <glyph glyph-name="ograve" unicode="&#xf2;" horiz-adv-x="1688" 
d="M1278 3048q12 -112 31 -231t43.5 -234.5t54 -223t63.5 -196.5q-1 -25 -11 -46.5t-28.5 -37.5t-45.5 -25.5t-62 -9.5q-63 0 -130.5 42.5t-134 123.5t-129 197.5t-114.5 263.5q-6 21 -11.5 45t-5.5 49q0 66 22.5 127.5t66 108.5t107 75.5t144.5 28.5q47 0 82.5 -16.5
t57.5 -40.5zM1438 1786q63 0 110 -20.5t78 -57t46.5 -87t15.5 -110.5q0 -49 -7 -107.5t-20 -122.5t-30 -131.5t-37 -134t-42 -130t-45 -119.5q10 -9 30.5 -19t51.5 -10q89 0 180.5 74.5t192.5 237.5q28 0 56.5 -11t51.5 -30.5t37.5 -47t14.5 -59.5q0 -43 -22 -101t-62 -120
t-97 -122t-126 -107.5t-149 -77t-167 -29.5q-56 0 -93 9.5t-71 31.5q-73 -100 -151.5 -177t-164.5 -129.5t-181 -80t-203 -27.5q-109 0 -204 36.5t-165 110t-110.5 185.5t-40.5 262q0 170 35 331.5t96 304.5t144.5 262t180.5 205.5t204.5 134.5t215.5 48q40 0 82.5 -9
t77.5 -30t58 -55.5t24 -85.5q43 53 94.5 84t110.5 31zM696 717q0 -75 12.5 -125t33.5 -79.5t47.5 -41.5t54.5 -12q37 0 70.5 13.5t63.5 36.5t56 53.5t47 64.5q-17 35 -29 80.5t-20 95.5t-12 101.5t-4 99.5q0 60 9 128.5t26.5 139.5t42.5 141t57 131q-63 -30 -121.5 -79.5
t-109 -113.5t-92 -139.5t-71 -157.5t-45.5 -167.5t-16 -169.5z" />
    <glyph glyph-name="ocircumflex" unicode="&#xf4;" horiz-adv-x="1688" 
d="M1347 2257q0 128 -2 210.5t-9 130.5t-20 66.5t-34 18.5q-31 0 -73 -37t-90 -111t-98 -185.5t-96 -260.5q-21 -9 -40.5 -12.5t-41.5 -3.5q-30 0 -57.5 11.5t-48.5 34t-33 56t-12 78.5q0 48 17 111.5t48.5 135t76 146.5t99 146.5t118 135t132.5 111t142.5 75.5t148.5 28
q105 0 170 -38.5t101 -127.5t48.5 -235t12.5 -361q0 -31 2.5 -79t5.5 -97q-18 -32 -48.5 -61t-69.5 -51t-84 -35t-93 -13q-95 0 -133.5 53t-38.5 160zM1438 1786q63 0 110 -20.5t78 -57t46.5 -87t15.5 -110.5q0 -49 -7 -107.5t-20 -122.5t-30 -131.5t-37 -134t-42 -130
t-45 -119.5q10 -9 30.5 -19t51.5 -10q89 0 180.5 74.5t192.5 237.5q28 0 56.5 -11t51.5 -30.5t37.5 -47t14.5 -59.5q0 -43 -22 -101t-62 -120t-97 -122t-126 -107.5t-149 -77t-167 -29.5q-56 0 -93 9.5t-71 31.5q-73 -100 -151.5 -177t-164.5 -129.5t-181 -80t-203 -27.5
q-109 0 -204 36.5t-165 110t-110.5 185.5t-40.5 262q0 170 35 331.5t96 304.5t144.5 262t180.5 205.5t204.5 134.5t215.5 48q40 0 82.5 -9t77.5 -30t58 -55.5t24 -85.5q43 53 94.5 84t110.5 31zM696 717q0 -75 12.5 -125t33.5 -79.5t47.5 -41.5t54.5 -12q37 0 70.5 13.5
t63.5 36.5t56 53.5t47 64.5q-17 35 -29 80.5t-20 95.5t-12 101.5t-4 99.5q0 60 9 128.5t26.5 139.5t42.5 141t57 131q-63 -30 -121.5 -79.5t-109 -113.5t-92 -139.5t-71 -157.5t-45.5 -167.5t-16 -169.5z" />
    <glyph glyph-name="odieresis" unicode="&#xf6;" horiz-adv-x="1688" 
d="M741 2384q0 117 12 200.5t35.5 137t58 79t79.5 25.5q60 0 113.5 -28t94 -71t64 -94.5t23.5 -97.5q0 -37 -12.5 -79t-42.5 -96t-79.5 -122t-123.5 -157q-43 0 -83 18t-71 55t-49.5 94.5t-18.5 135.5zM1450 2445q0 125 13 211t38.5 139t63 77t86.5 24q41 0 82.5 -14
t80.5 -37.5t72.5 -54.5t58.5 -65t39.5 -69t14.5 -67q0 -37 -15.5 -86t-48.5 -110.5t-85 -137t-126 -166.5q-63 0 -113.5 21.5t-86 66t-55 111.5t-19.5 157zM1438 1786q63 0 110 -20.5t78 -57t46.5 -87t15.5 -110.5q0 -49 -7 -107.5t-20 -122.5t-30 -131.5t-37 -134t-42 -130
t-45 -119.5q10 -9 30.5 -19t51.5 -10q89 0 180.5 74.5t192.5 237.5q28 0 56.5 -11t51.5 -30.5t37.5 -47t14.5 -59.5q0 -43 -22 -101t-62 -120t-97 -122t-126 -107.5t-149 -77t-167 -29.5q-56 0 -93 9.5t-71 31.5q-73 -100 -151.5 -177t-164.5 -129.5t-181 -80t-203 -27.5
q-109 0 -204 36.5t-165 110t-110.5 185.5t-40.5 262q0 170 35 331.5t96 304.5t144.5 262t180.5 205.5t204.5 134.5t215.5 48q40 0 82.5 -9t77.5 -30t58 -55.5t24 -85.5q43 53 94.5 84t110.5 31zM696 717q0 -75 12.5 -125t33.5 -79.5t47.5 -41.5t54.5 -12q37 0 70.5 13.5
t63.5 36.5t56 53.5t47 64.5q-17 35 -29 80.5t-20 95.5t-12 101.5t-4 99.5q0 60 9 128.5t26.5 139.5t42.5 141t57 131q-63 -30 -121.5 -79.5t-109 -113.5t-92 -139.5t-71 -157.5t-45.5 -167.5t-16 -169.5z" />
    <glyph glyph-name="otilde" unicode="&#xf5;" horiz-adv-x="1688" 
d="M1172 2675q118 40 205 71.5t151.5 58t110 50.5t79.5 49.5t60.5 54t52.5 64.5q69 -7 121.5 -34.5t87.5 -68t52.5 -90t17.5 -102.5q0 -90 -38 -159t-120 -123.5t-212 -98.5t-314 -86q-121 -26 -205.5 -46.5t-143 -42t-97.5 -47t-70 -60.5q-36 0 -71.5 11.5t-64.5 36
t-47 64.5t-18 97q0 68 24 122.5t78.5 102t143 90.5t217.5 86zM1438 1786q63 0 110 -20.5t78 -57t46.5 -87t15.5 -110.5q0 -49 -7 -107.5t-20 -122.5t-30 -131.5t-37 -134t-42 -130t-45 -119.5q10 -9 30.5 -19t51.5 -10q89 0 180.5 74.5t192.5 237.5q28 0 56.5 -11
t51.5 -30.5t37.5 -47t14.5 -59.5q0 -43 -22 -101t-62 -120t-97 -122t-126 -107.5t-149 -77t-167 -29.5q-56 0 -93 9.5t-71 31.5q-73 -100 -151.5 -177t-164.5 -129.5t-181 -80t-203 -27.5q-109 0 -204 36.5t-165 110t-110.5 185.5t-40.5 262q0 170 35 331.5t96 304.5
t144.5 262t180.5 205.5t204.5 134.5t215.5 48q40 0 82.5 -9t77.5 -30t58 -55.5t24 -85.5q43 53 94.5 84t110.5 31zM696 717q0 -75 12.5 -125t33.5 -79.5t47.5 -41.5t54.5 -12q37 0 70.5 13.5t63.5 36.5t56 53.5t47 64.5q-17 35 -29 80.5t-20 95.5t-12 101.5t-4 99.5
q0 60 9 128.5t26.5 139.5t42.5 141t57 131q-63 -30 -121.5 -79.5t-109 -113.5t-92 -139.5t-71 -157.5t-45.5 -167.5t-16 -169.5z" />
    <glyph glyph-name="scaron" unicode="&#x161;" horiz-adv-x="1503" 
d="M299 1176q54 0 101 -30.5t82 -74.5t55 -94t20 -88q0 -32 -7 -60.5t-20.5 -55.5t-33 -53.5t-45.5 -55.5q12 -68 42 -124t68 -96t79.5 -62t76.5 -22q15 0 30.5 5t28 16.5t20 29.5t7.5 44q0 52 -17.5 126t-44 159t-57.5 177t-57.5 181t-44 170t-17.5 145q0 129 49.5 236
t136.5 184t206.5 119.5t259.5 42.5q178 0 277 -76t99 -223q0 -65 -24.5 -124.5t-61.5 -96.5q-118 49 -217 49q-65 0 -98 -21.5t-33 -77.5q0 -46 17.5 -104t43.5 -124.5t56 -140t56 -149.5t43.5 -153t17.5 -152q0 -124 -33 -223t-90 -175.5t-134 -131.5t-165 -90
t-182.5 -51.5t-186.5 -16.5q-120 0 -223.5 40t-180.5 119t-121 195.5t-44 268.5q0 60 5.5 131t18.5 142t33.5 137t50 117t69 81.5t89.5 30.5zM1352 3056q0 -127 2 -209.5t9 -130.5t20 -67t34 -19q31 0 73 37t90 111t98 185.5t96 260.5q21 9 40.5 12.5t41.5 3.5
q31 0 58.5 -11.5t48 -34t32.5 -56t12 -78.5q0 -48 -17 -111.5t-48.5 -134.5t-76 -146.5t-99 -147t-118 -135t-132.5 -111t-142.5 -75.5t-148.5 -28q-105 0 -170 38.5t-101 127.5t-48.5 235t-12.5 361q0 31 -2.5 79t-5.5 97q18 32 48.5 61t69.5 51t84 35t93 13
q95 0 133.5 -53t38.5 -160z" />
    <glyph glyph-name="uacute" unicode="&#xfa;" horiz-adv-x="1855" 
d="M1282 1831q31 40 78.5 59t93.5 19q86 0 158.5 -28t125.5 -74.5t83 -106.5t30 -123q0 -28 -3.5 -58.5t-12 -68t-23.5 -84.5t-38 -109q-21 -58 -48.5 -126.5t-56.5 -139t-56.5 -138.5t-49 -125.5t-34.5 -100.5t-13 -62q0 -40 16 -52.5t41 -12.5q35 0 89 31.5t124.5 96.5
t156 165.5t183.5 238.5q32 0 62.5 -9.5t54 -26.5t37.5 -40t14 -51q0 -55 -35.5 -129.5t-96.5 -158t-141.5 -170t-169.5 -164.5q-72 -64 -147.5 -119.5t-150.5 -96.5t-146.5 -64t-136.5 -23q-63 0 -113 11.5t-85.5 41.5t-54 81.5t-18.5 131.5q0 43 6.5 95.5t18.5 117.5
q-74 -140 -155.5 -242.5t-164 -170t-162.5 -100t-149 -32.5q-90 0 -148 25.5t-91.5 74.5t-46.5 121t-13 164q0 46 10.5 112t31.5 147t51.5 173t70.5 191q-34 65 -43.5 128.5t-9.5 125.5q0 64 30.5 141t82 156.5t120 154t144 132.5t153.5 93t150 35q48 0 84.5 -8.5t61 -27.5
t37.5 -50.5t13 -77.5q0 -99 -78.5 -279t-236.5 -437q-31 -112 -48.5 -199.5t-17.5 -136.5q0 -50 19.5 -78.5t62.5 -28.5q26 0 62 17t75 43.5t77 59.5t69 65q52 166 89.5 306t63.5 268.5t41.5 251.5t22.5 255zM1662 3170q69 0 121.5 -19t87.5 -53t52.5 -81.5t17.5 -104.5
q0 -181 -315 -508q-63 -64 -132 -119t-135.5 -95t-127.5 -62.5t-109 -22.5q-44 0 -69 25.5t-25 81.5q106 153 186.5 276.5t134.5 225.5t81.5 186.5t27.5 159.5q34 52 85 81t119 29z" />
    <glyph glyph-name="ugrave" unicode="&#xf9;" horiz-adv-x="1855" 
d="M1282 1831q31 40 78.5 59t93.5 19q86 0 158.5 -28t125.5 -74.5t83 -106.5t30 -123q0 -28 -3.5 -58.5t-12 -68t-23.5 -84.5t-38 -109q-21 -58 -48.5 -126.5t-56.5 -139t-56.5 -138.5t-49 -125.5t-34.5 -100.5t-13 -62q0 -40 16 -52.5t41 -12.5q35 0 89 31.5t124.5 96.5
t156 165.5t183.5 238.5q32 0 62.5 -9.5t54 -26.5t37.5 -40t14 -51q0 -55 -35.5 -129.5t-96.5 -158t-141.5 -170t-169.5 -164.5q-72 -64 -147.5 -119.5t-150.5 -96.5t-146.5 -64t-136.5 -23q-63 0 -113 11.5t-85.5 41.5t-54 81.5t-18.5 131.5q0 43 6.5 95.5t18.5 117.5
q-74 -140 -155.5 -242.5t-164 -170t-162.5 -100t-149 -32.5q-90 0 -148 25.5t-91.5 74.5t-46.5 121t-13 164q0 46 10.5 112t31.5 147t51.5 173t70.5 191q-34 65 -43.5 128.5t-9.5 125.5q0 64 30.5 141t82 156.5t120 154t144 132.5t153.5 93t150 35q48 0 84.5 -8.5t61 -27.5
t37.5 -50.5t13 -77.5q0 -99 -78.5 -279t-236.5 -437q-31 -112 -48.5 -199.5t-17.5 -136.5q0 -50 19.5 -78.5t62.5 -28.5q26 0 62 17t75 43.5t77 59.5t69 65q52 166 89.5 306t63.5 268.5t41.5 251.5t22.5 255zM1164 3101q12 -112 31 -231t43.5 -234.5t54 -223t63.5 -196.5
q-1 -25 -11 -46.5t-28.5 -37.5t-45.5 -25.5t-62 -9.5q-63 0 -130.5 42.5t-134 123.5t-129 197.5t-114.5 263.5q-6 21 -11.5 45t-5.5 49q0 66 22.5 127.5t66 108.5t107 75.5t144.5 28.5q47 0 82.5 -16.5t57.5 -40.5z" />
    <glyph glyph-name="ucircumflex" unicode="&#xfb;" horiz-adv-x="1855" 
d="M1282 1831q31 40 78.5 59t93.5 19q86 0 158.5 -28t125.5 -74.5t83 -106.5t30 -123q0 -28 -3.5 -58.5t-12 -68t-23.5 -84.5t-38 -109q-21 -58 -48.5 -126.5t-56.5 -139t-56.5 -138.5t-49 -125.5t-34.5 -100.5t-13 -62q0 -40 16 -52.5t41 -12.5q35 0 89 31.5t124.5 96.5
t156 165.5t183.5 238.5q32 0 62.5 -9.5t54 -26.5t37.5 -40t14 -51q0 -55 -35.5 -129.5t-96.5 -158t-141.5 -170t-169.5 -164.5q-72 -64 -147.5 -119.5t-150.5 -96.5t-146.5 -64t-136.5 -23q-63 0 -113 11.5t-85.5 41.5t-54 81.5t-18.5 131.5q0 43 6.5 95.5t18.5 117.5
q-74 -140 -155.5 -242.5t-164 -170t-162.5 -100t-149 -32.5q-90 0 -148 25.5t-91.5 74.5t-46.5 121t-13 164q0 46 10.5 112t31.5 147t51.5 173t70.5 191q-34 65 -43.5 128.5t-9.5 125.5q0 64 30.5 141t82 156.5t120 154t144 132.5t153.5 93t150 35q48 0 84.5 -8.5t61 -27.5
t37.5 -50.5t13 -77.5q0 -99 -78.5 -279t-236.5 -437q-31 -112 -48.5 -199.5t-17.5 -136.5q0 -50 19.5 -78.5t62.5 -28.5q26 0 62 17t75 43.5t77 59.5t69 65q52 166 89.5 306t63.5 268.5t41.5 251.5t22.5 255zM1429 2306q0 128 -2 210.5t-9 130.5t-20 66.5t-34 18.5
q-31 0 -73 -37t-90 -111t-98 -185.5t-96 -260.5q-21 -9 -40.5 -12.5t-41.5 -3.5q-30 0 -57.5 11.5t-48.5 34t-33 56t-12 78.5q0 48 17 111.5t48.5 135t76 146.5t99 146.5t118 135t132.5 111t142.5 75.5t148.5 28q105 0 170 -38.5t101 -127.5t48.5 -235t12.5 -361
q0 -31 2.5 -79t5.5 -97q-18 -32 -48.5 -61t-69.5 -51t-84 -35t-93 -13q-95 0 -133.5 53t-38.5 160z" />
    <glyph glyph-name="udieresis" unicode="&#xfc;" horiz-adv-x="1855" 
d="M1282 1831q31 40 78.5 59t93.5 19q86 0 158.5 -28t125.5 -74.5t83 -106.5t30 -123q0 -28 -3.5 -58.5t-12 -68t-23.5 -84.5t-38 -109q-21 -58 -48.5 -126.5t-56.5 -139t-56.5 -138.5t-49 -125.5t-34.5 -100.5t-13 -62q0 -40 16 -52.5t41 -12.5q35 0 89 31.5t124.5 96.5
t156 165.5t183.5 238.5q32 0 62.5 -9.5t54 -26.5t37.5 -40t14 -51q0 -55 -35.5 -129.5t-96.5 -158t-141.5 -170t-169.5 -164.5q-72 -64 -147.5 -119.5t-150.5 -96.5t-146.5 -64t-136.5 -23q-63 0 -113 11.5t-85.5 41.5t-54 81.5t-18.5 131.5q0 43 6.5 95.5t18.5 117.5
q-74 -140 -155.5 -242.5t-164 -170t-162.5 -100t-149 -32.5q-90 0 -148 25.5t-91.5 74.5t-46.5 121t-13 164q0 46 10.5 112t31.5 147t51.5 173t70.5 191q-34 65 -43.5 128.5t-9.5 125.5q0 64 30.5 141t82 156.5t120 154t144 132.5t153.5 93t150 35q48 0 84.5 -8.5t61 -27.5
t37.5 -50.5t13 -77.5q0 -99 -78.5 -279t-236.5 -437q-31 -112 -48.5 -199.5t-17.5 -136.5q0 -50 19.5 -78.5t62.5 -28.5q26 0 62 17t75 43.5t77 59.5t69 65q52 166 89.5 306t63.5 268.5t41.5 251.5t22.5 255zM753 2437q0 117 12 200.5t35.5 137t58 79t79.5 25.5
q60 0 113.5 -28t94 -71t64 -94.5t23.5 -97.5q0 -37 -12.5 -79t-42.5 -96t-79.5 -122t-123.5 -157q-43 0 -83 18t-71 55t-49.5 94.5t-18.5 135.5zM1462 2498q0 125 13 211t38.5 139t63 77t86.5 24q41 0 82.5 -14t80.5 -37.5t72.5 -54.5t58.5 -65t39.5 -69t14.5 -67
q0 -37 -15.5 -86t-48.5 -110.5t-85 -137t-126 -166.5q-63 0 -113.5 21.5t-86 66t-55 111.5t-19.5 157z" />
    <glyph glyph-name="yacute" unicode="&#xfd;" horiz-adv-x="1778" 
d="M483 -213q-8 39 -17 78.5t-20.5 86t-26.5 102.5t-34 127t-43 160.5t-55 203.5q-31 112 -53.5 200t-37 165t-21.5 150.5t-7 156.5q0 101 27.5 192.5t74.5 170t110 141.5t134 107.5t146 68.5t147 24q68 0 115.5 -14t77.5 -41t43.5 -66t13.5 -88q-75 -54 -123 -107.5
t-75.5 -112.5t-37.5 -126.5t-10 -148.5q0 -78 28.5 -240t90.5 -391q29 29 57.5 61.5t53 63.5t43.5 58.5t30 45.5q-3 31 -5.5 67t-2.5 76q0 74 6 155.5t18 163t29.5 159t40.5 141.5q21 63 43.5 107.5t48.5 72t57.5 40.5t71.5 13q45 0 88.5 -19t82 -51.5t71 -75.5t56.5 -89.5
t37 -94.5t13 -91q0 -55 -12 -116.5t-37.5 -130.5t-66 -146t-97.5 -165q9 -24 24 -45.5t32.5 -37.5t37 -25.5t38.5 -9.5q49 0 98.5 28.5t97 75t92 107.5t84.5 125q28 0 55.5 -11t50 -30.5t36.5 -47t14 -59.5q0 -61 -27.5 -127t-75.5 -129t-112 -119t-136 -98t-149 -67
t-151 -25q-43 0 -84 6t-78.5 19.5t-70 35.5t-58.5 54q-20 -29 -50 -63t-63.5 -67.5t-68.5 -65.5t-64 -58q8 -51 14 -105.5t10.5 -105.5t6.5 -95t2 -75q0 -107 -23.5 -208.5t-66.5 -192t-104 -166.5t-136 -131t-162.5 -86t-183.5 -31q-69 0 -118.5 18t-81.5 50.5t-47 76.5
t-15 96q0 51 16 109.5t56.5 126t110.5 145t177 164.5zM1777 3133q69 0 121.5 -19t87.5 -53t52.5 -81.5t17.5 -104.5q0 -181 -315 -508q-63 -64 -132 -119t-135.5 -95t-127.5 -62.5t-109 -22.5q-44 0 -69 25.5t-25 81.5q106 153 186.5 276.5t134.5 225.5t81.5 186.5
t27.5 159.5q34 52 85 81t119 29z" />
    <glyph glyph-name="ydieresis" unicode="&#xff;" horiz-adv-x="1778" 
d="M766 2433q0 117 12 200.5t35.5 137t58 79t79.5 25.5q60 0 113.5 -28t94 -71t64 -94.5t23.5 -97.5q0 -37 -12.5 -79t-42.5 -96t-79.5 -122t-123.5 -157q-43 0 -83 18t-71 55t-49.5 94.5t-18.5 135.5zM1475 2494q0 125 13 211t38.5 139t63 77t86.5 24q41 0 82.5 -14
t80.5 -37.5t72.5 -54.5t58.5 -65t39.5 -69t14.5 -67q0 -37 -15.5 -86t-48.5 -110.5t-85 -137t-126 -166.5q-63 0 -113.5 21.5t-86 66t-55 111.5t-19.5 157zM483 -213q-8 39 -17 78.5t-20.5 86t-26.5 102.5t-34 127t-43 160.5t-55 203.5q-31 112 -53.5 200t-37 165
t-21.5 150.5t-7 156.5q0 101 27.5 192.5t74.5 170t110 141.5t134 107.5t146 68.5t147 24q68 0 115.5 -14t77.5 -41t43.5 -66t13.5 -88q-75 -54 -123 -107.5t-75.5 -112.5t-37.5 -126.5t-10 -148.5q0 -78 28.5 -240t90.5 -391q29 29 57.5 61.5t53 63.5t43.5 58.5t30 45.5
q-3 31 -5.5 67t-2.5 76q0 74 6 155.5t18 163t29.5 159t40.5 141.5q21 63 43.5 107.5t48.5 72t57.5 40.5t71.5 13q45 0 88.5 -19t82 -51.5t71 -75.5t56.5 -89.5t37 -94.5t13 -91q0 -55 -12 -116.5t-37.5 -130.5t-66 -146t-97.5 -165q9 -24 24 -45.5t32.5 -37.5t37 -25.5
t38.5 -9.5q49 0 98.5 28.5t97 75t92 107.5t84.5 125q28 0 55.5 -11t50 -30.5t36.5 -47t14 -59.5q0 -61 -27.5 -127t-75.5 -129t-112 -119t-136 -98t-149 -67t-151 -25q-43 0 -84 6t-78.5 19.5t-70 35.5t-58.5 54q-20 -29 -50 -63t-63.5 -67.5t-68.5 -65.5t-64 -58
q8 -51 14 -105.5t10.5 -105.5t6.5 -95t2 -75q0 -107 -23.5 -208.5t-66.5 -192t-104 -166.5t-136 -131t-162.5 -86t-183.5 -31q-69 0 -118.5 18t-81.5 50.5t-47 76.5t-15 96q0 51 16 109.5t56.5 126t110.5 145t177 164.5z" />
    <glyph glyph-name="zcaron" unicode="&#x17e;" horiz-adv-x="1679" 
d="M1417 2958q0 -127 2 -209.5t9 -130.5t20 -67t34 -19q31 0 73 37t90 111t98 185.5t96 260.5q21 9 40.5 12.5t41.5 3.5q31 0 58.5 -11.5t48 -34t32.5 -56t12 -78.5q0 -48 -17 -111.5t-48.5 -134.5t-76 -146.5t-99 -147t-118 -135t-132.5 -111t-142.5 -75.5t-148.5 -28
q-105 0 -170 38.5t-101 127.5t-48.5 235t-12.5 361q0 31 -2.5 79t-5.5 97q18 32 48.5 61t69.5 51t84 35t93 13q95 0 133.5 -53t38.5 -160zM901 668q28 -39 54.5 -76t49.5 -70t42.5 -60.5t33.5 -47.5q22 -31 40.5 -50t36.5 -30t37 -15t42 -4t51.5 8t66.5 24t87.5 40.5
t113.5 58.5q22 -10 40 -29.5t31 -44.5t20.5 -54t7.5 -60q0 -68 -29 -134t-78.5 -124.5t-114.5 -108t-137 -85.5t-146 -56t-142 -20q-78 0 -139.5 10t-115.5 39t-106 81t-111.5 136t-131.5 204.5t-166 286.5q-34 12 -65 35t-55 53.5t-38 66.5t-14 75q0 74 26 138t76.5 115.5
t125.5 88.5t173 55q44 -36 86 -72q36 -31 76 -66.5t71 -66.5q62 28 122.5 73t109.5 90q57 52 108 108q-67 37 -118 65t-90.5 47t-71 29t-60.5 10q-43 0 -98.5 -16.5t-101.5 -44.5q-32 9 -57 25t-42.5 42t-26.5 62.5t-9 87.5q0 71 34.5 148t93 141.5t134.5 106.5t159 42
q41 0 76.5 -3.5t73.5 -13t82 -27t101.5 -45.5t132 -67.5t173.5 -93.5q25 37 47 66.5t43 50.5t42.5 32t44.5 11q35 0 72 -22.5t67 -60t49.5 -86.5t19.5 -101q0 -61 -28.5 -128t-82 -132.5t-131 -126t-175.5 -109.5q-123 -141 -243 -238.5t-249 -162.5z" />
    <glyph glyph-name="Aacute" unicode="&#xc1;" horiz-adv-x="3482" 
d="M799 877q86 2 175 4.5t183.5 7t195.5 9.5t212 11q59 78 134 181.5t161 225.5t181.5 259.5t196 283t205 296.5t207.5 299q29 118 81.5 223t129.5 183.5t179 124.5t229 46q83 0 146 -24.5t106 -63.5t67 -88t29 -98q0 -31 -15.5 -61t-58 -70t-118.5 -94t-197 -132
q-22 -112 -39 -247t-30.5 -279t-23.5 -290t-18 -281q74 -13 117 -60t43 -137q0 -43 -13 -87.5t-36.5 -87.5t-56 -82t-70.5 -71q0 -66 1 -116.5t6.5 -84.5t18 -51.5t35.5 -17.5q21 0 74 25t129.5 85.5t173 162.5t205.5 255h16q29 0 57 -10t50 -28t35.5 -43t13.5 -54
q0 -51 -32 -121.5t-88 -150.5t-131.5 -165.5t-162.5 -166.5t-181.5 -153.5t-187.5 -127t-181 -86.5t-163 -32q-95 0 -163.5 21.5t-112 65t-64 108.5t-20.5 153v87.5t1.5 80.5t4 94t6.5 127q-66 -6 -147 -12.5t-168 -11.5t-174.5 -9.5t-165.5 -7.5q-115 -166 -216 -294.5
t-194 -224t-179.5 -160.5t-171.5 -105.5t-171 -58t-178 -17.5q-149 0 -267 44t-199.5 128.5t-125 207t-43.5 279.5q0 83 18.5 161.5t53 147.5t83.5 127t109 99.5t130 64.5t147 23q86 0 140.5 -34t76.5 -105zM836 274q51 0 98.5 14.5t99 48t110 89.5t130.5 139
q-88 -3 -166 -4.5t-149.5 -2.5t-137.5 -1h-129q-6 -22 -9 -48.5t-3 -41.5q0 -49 11.5 -85.5t32.5 -60.5t49.5 -35.5t62.5 -11.5zM2048 942q51 3 108 7t113.5 8t108.5 9t92 9q5 53 12 124.5t15.5 153t18.5 168t21.5 170t23 159t24.5 134.5q-34 -63 -77.5 -142t-92 -165
t-99.5 -175t-99 -172.5t-91.5 -157.5t-77.5 -130zM3596 4301q69 0 121.5 -19t87.5 -53t52.5 -81.5t17.5 -104.5q0 -181 -315 -508q-63 -64 -132 -119t-135.5 -95t-127.5 -62.5t-109 -22.5q-44 0 -69 25.5t-25 81.5q106 153 186.5 276.5t134.5 225.5t81.5 186.5t27.5 159.5
q34 52 85 81t119 29z" />
    <glyph glyph-name="Agrave" unicode="&#xc0;" horiz-adv-x="3482" 
d="M799 877q86 2 175 4.5t183.5 7t195.5 9.5t212 11q59 78 134 181.5t161 225.5t181.5 259.5t196 283t205 296.5t207.5 299q29 118 81.5 223t129.5 183.5t179 124.5t229 46q83 0 146 -24.5t106 -63.5t67 -88t29 -98q0 -31 -15.5 -61t-58 -70t-118.5 -94t-197 -132
q-22 -112 -39 -247t-30.5 -279t-23.5 -290t-18 -281q74 -13 117 -60t43 -137q0 -43 -13 -87.5t-36.5 -87.5t-56 -82t-70.5 -71q0 -66 1 -116.5t6.5 -84.5t18 -51.5t35.5 -17.5q21 0 74 25t129.5 85.5t173 162.5t205.5 255h16q29 0 57 -10t50 -28t35.5 -43t13.5 -54
q0 -51 -32 -121.5t-88 -150.5t-131.5 -165.5t-162.5 -166.5t-181.5 -153.5t-187.5 -127t-181 -86.5t-163 -32q-95 0 -163.5 21.5t-112 65t-64 108.5t-20.5 153v87.5t1.5 80.5t4 94t6.5 127q-66 -6 -147 -12.5t-168 -11.5t-174.5 -9.5t-165.5 -7.5q-115 -166 -216 -294.5
t-194 -224t-179.5 -160.5t-171.5 -105.5t-171 -58t-178 -17.5q-149 0 -267 44t-199.5 128.5t-125 207t-43.5 279.5q0 83 18.5 161.5t53 147.5t83.5 127t109 99.5t130 64.5t147 23q86 0 140.5 -34t76.5 -105zM836 274q51 0 98.5 14.5t99 48t110 89.5t130.5 139
q-88 -3 -166 -4.5t-149.5 -2.5t-137.5 -1h-129q-6 -22 -9 -48.5t-3 -41.5q0 -49 11.5 -85.5t32.5 -60.5t49.5 -35.5t62.5 -11.5zM2048 942q51 3 108 7t113.5 8t108.5 9t92 9q5 53 12 124.5t15.5 153t18.5 168t21.5 170t23 159t24.5 134.5q-34 -63 -77.5 -142t-92 -165
t-99.5 -175t-99 -172.5t-91.5 -157.5t-77.5 -130zM3113 4252q12 -112 31 -231t43.5 -234.5t54 -223t63.5 -196.5q-1 -25 -11 -46.5t-28.5 -37.5t-45.5 -25.5t-62 -9.5q-63 0 -130.5 42.5t-134 123.5t-129 197.5t-114.5 263.5q-6 21 -11.5 45t-5.5 49q0 66 22.5 127.5
t66 108.5t107 75.5t144.5 28.5q47 0 82.5 -16.5t57.5 -40.5z" />
    <glyph glyph-name="Acircumflex" unicode="&#xc2;" horiz-adv-x="3482" 
d="M799 877q86 2 175 4.5t183.5 7t195.5 9.5t212 11q59 78 134 181.5t161 225.5t181.5 259.5t196 283t205 296.5t207.5 299q29 118 81.5 223t129.5 183.5t179 124.5t229 46q83 0 146 -24.5t106 -63.5t67 -88t29 -98q0 -31 -15.5 -61t-58 -70t-118.5 -94t-197 -132
q-22 -112 -39 -247t-30.5 -279t-23.5 -290t-18 -281q74 -13 117 -60t43 -137q0 -43 -13 -87.5t-36.5 -87.5t-56 -82t-70.5 -71q0 -66 1 -116.5t6.5 -84.5t18 -51.5t35.5 -17.5q21 0 74 25t129.5 85.5t173 162.5t205.5 255h16q29 0 57 -10t50 -28t35.5 -43t13.5 -54
q0 -51 -32 -121.5t-88 -150.5t-131.5 -165.5t-162.5 -166.5t-181.5 -153.5t-187.5 -127t-181 -86.5t-163 -32q-95 0 -163.5 21.5t-112 65t-64 108.5t-20.5 153v87.5t1.5 80.5t4 94t6.5 127q-66 -6 -147 -12.5t-168 -11.5t-174.5 -9.5t-165.5 -7.5q-115 -166 -216 -294.5
t-194 -224t-179.5 -160.5t-171.5 -105.5t-171 -58t-178 -17.5q-149 0 -267 44t-199.5 128.5t-125 207t-43.5 279.5q0 83 18.5 161.5t53 147.5t83.5 127t109 99.5t130 64.5t147 23q86 0 140.5 -34t76.5 -105zM836 274q51 0 98.5 14.5t99 48t110 89.5t130.5 139
q-88 -3 -166 -4.5t-149.5 -2.5t-137.5 -1h-129q-6 -22 -9 -48.5t-3 -41.5q0 -49 11.5 -85.5t32.5 -60.5t49.5 -35.5t62.5 -11.5zM2048 942q51 3 108 7t113.5 8t108.5 9t92 9q5 53 12 124.5t15.5 153t18.5 168t21.5 170t23 159t24.5 134.5q-34 -63 -77.5 -142t-92 -165
t-99.5 -175t-99 -172.5t-91.5 -157.5t-77.5 -130zM3395 3416q0 128 -2 210.5t-9 130.5t-20 66.5t-34 18.5q-31 0 -73 -37t-90 -111t-98 -185.5t-96 -260.5q-21 -9 -40.5 -12.5t-41.5 -3.5q-30 0 -57.5 11.5t-48.5 34t-33 56t-12 78.5q0 48 17 111.5t48.5 135t76 146.5
t99 146.5t118 135t132.5 111t142.5 75.5t148.5 28q105 0 170 -38.5t101 -127.5t48.5 -235t12.5 -361q0 -31 2.5 -79t5.5 -97q-18 -32 -48.5 -61t-69.5 -51t-84 -35t-93 -13q-95 0 -133.5 53t-38.5 160z" />
    <glyph glyph-name="Adieresis" unicode="&#xc4;" horiz-adv-x="3482" 
d="M799 877q86 2 175 4.5t183.5 7t195.5 9.5t212 11q59 78 134 181.5t161 225.5t181.5 259.5t196 283t205 296.5t207.5 299q29 118 81.5 223t129.5 183.5t179 124.5t229 46q83 0 146 -24.5t106 -63.5t67 -88t29 -98q0 -31 -15.5 -61t-58 -70t-118.5 -94t-197 -132
q-22 -112 -39 -247t-30.5 -279t-23.5 -290t-18 -281q74 -13 117 -60t43 -137q0 -43 -13 -87.5t-36.5 -87.5t-56 -82t-70.5 -71q0 -66 1 -116.5t6.5 -84.5t18 -51.5t35.5 -17.5q21 0 74 25t129.5 85.5t173 162.5t205.5 255h16q29 0 57 -10t50 -28t35.5 -43t13.5 -54
q0 -51 -32 -121.5t-88 -150.5t-131.5 -165.5t-162.5 -166.5t-181.5 -153.5t-187.5 -127t-181 -86.5t-163 -32q-95 0 -163.5 21.5t-112 65t-64 108.5t-20.5 153v87.5t1.5 80.5t4 94t6.5 127q-66 -6 -147 -12.5t-168 -11.5t-174.5 -9.5t-165.5 -7.5q-115 -166 -216 -294.5
t-194 -224t-179.5 -160.5t-171.5 -105.5t-171 -58t-178 -17.5q-149 0 -267 44t-199.5 128.5t-125 207t-43.5 279.5q0 83 18.5 161.5t53 147.5t83.5 127t109 99.5t130 64.5t147 23q86 0 140.5 -34t76.5 -105zM836 274q51 0 98.5 14.5t99 48t110 89.5t130.5 139
q-88 -3 -166 -4.5t-149.5 -2.5t-137.5 -1h-129q-6 -22 -9 -48.5t-3 -41.5q0 -49 11.5 -85.5t32.5 -60.5t49.5 -35.5t62.5 -11.5zM2048 942q51 3 108 7t113.5 8t108.5 9t92 9q5 53 12 124.5t15.5 153t18.5 168t21.5 170t23 159t24.5 134.5q-34 -63 -77.5 -142t-92 -165
t-99.5 -175t-99 -172.5t-91.5 -157.5t-77.5 -130zM2715 3539q0 117 12 200.5t35.5 137t58 79t79.5 25.5q60 0 113.5 -28t94 -71t64 -94.5t23.5 -97.5q0 -37 -12.5 -79t-42.5 -96t-79.5 -122t-123.5 -157q-43 0 -83 18t-71 55t-49.5 94.5t-18.5 135.5zM3424 3600
q0 125 13 211t38.5 139t63 77t86.5 24q41 0 82.5 -14t80.5 -37.5t72.5 -54.5t58.5 -65t39.5 -69t14.5 -67q0 -37 -15.5 -86t-48.5 -110.5t-85 -137t-126 -166.5q-63 0 -113.5 21.5t-86 66t-55 111.5t-19.5 157z" />
    <glyph glyph-name="Atilde" unicode="&#xc3;" horiz-adv-x="3482" 
d="M799 877q86 2 175 4.5t183.5 7t195.5 9.5t212 11q59 78 134 181.5t161 225.5t181.5 259.5t196 283t205 296.5t207.5 299q29 118 81.5 223t129.5 183.5t179 124.5t229 46q83 0 146 -24.5t106 -63.5t67 -88t29 -98q0 -31 -15.5 -61t-58 -70t-118.5 -94t-197 -132
q-22 -112 -39 -247t-30.5 -279t-23.5 -290t-18 -281q74 -13 117 -60t43 -137q0 -43 -13 -87.5t-36.5 -87.5t-56 -82t-70.5 -71q0 -66 1 -116.5t6.5 -84.5t18 -51.5t35.5 -17.5q21 0 74 25t129.5 85.5t173 162.5t205.5 255h16q29 0 57 -10t50 -28t35.5 -43t13.5 -54
q0 -51 -32 -121.5t-88 -150.5t-131.5 -165.5t-162.5 -166.5t-181.5 -153.5t-187.5 -127t-181 -86.5t-163 -32q-95 0 -163.5 21.5t-112 65t-64 108.5t-20.5 153v87.5t1.5 80.5t4 94t6.5 127q-66 -6 -147 -12.5t-168 -11.5t-174.5 -9.5t-165.5 -7.5q-115 -166 -216 -294.5
t-194 -224t-179.5 -160.5t-171.5 -105.5t-171 -58t-178 -17.5q-149 0 -267 44t-199.5 128.5t-125 207t-43.5 279.5q0 83 18.5 161.5t53 147.5t83.5 127t109 99.5t130 64.5t147 23q86 0 140.5 -34t76.5 -105zM836 274q51 0 98.5 14.5t99 48t110 89.5t130.5 139
q-88 -3 -166 -4.5t-149.5 -2.5t-137.5 -1h-129q-6 -22 -9 -48.5t-3 -41.5q0 -49 11.5 -85.5t32.5 -60.5t49.5 -35.5t62.5 -11.5zM2048 942q51 3 108 7t113.5 8t108.5 9t92 9q5 53 12 124.5t15.5 153t18.5 168t21.5 170t23 159t24.5 134.5q-34 -63 -77.5 -142t-92 -165
t-99.5 -175t-99 -172.5t-91.5 -157.5t-77.5 -130zM3146 3801q118 40 205 71.5t151.5 58t110 50.5t79.5 49.5t60.5 54t52.5 64.5q69 -7 121.5 -34.5t87.5 -68t52.5 -90t17.5 -102.5q0 -90 -38 -159t-120 -123.5t-212 -98.5t-314 -86q-121 -26 -205.5 -46.5t-143 -42
t-97.5 -47t-70 -60.5q-36 0 -71.5 11.5t-64.5 36t-47 64.5t-18 97q0 68 24 122.5t78.5 102t143 90.5t217.5 86z" />
    <glyph glyph-name="Aring" unicode="&#xc5;" horiz-adv-x="3482" 
d="M799 877q86 2 175 4.5t183.5 7t195.5 9.5t212 11q59 78 134 181.5t161 225.5t181.5 259.5t196 283t205 296.5t207.5 299q29 118 81.5 223t129.5 183.5t179 124.5t229 46q83 0 146 -24.5t106 -63.5t67 -88t29 -98q0 -31 -15.5 -61t-58 -70t-118.5 -94t-197 -132
q-22 -112 -39 -247t-30.5 -279t-23.5 -290t-18 -281q74 -13 117 -60t43 -137q0 -43 -13 -87.5t-36.5 -87.5t-56 -82t-70.5 -71q0 -66 1 -116.5t6.5 -84.5t18 -51.5t35.5 -17.5q21 0 74 25t129.5 85.5t173 162.5t205.5 255h16q29 0 57 -10t50 -28t35.5 -43t13.5 -54
q0 -51 -32 -121.5t-88 -150.5t-131.5 -165.5t-162.5 -166.5t-181.5 -153.5t-187.5 -127t-181 -86.5t-163 -32q-95 0 -163.5 21.5t-112 65t-64 108.5t-20.5 153v87.5t1.5 80.5t4 94t6.5 127q-66 -6 -147 -12.5t-168 -11.5t-174.5 -9.5t-165.5 -7.5q-115 -166 -216 -294.5
t-194 -224t-179.5 -160.5t-171.5 -105.5t-171 -58t-178 -17.5q-149 0 -267 44t-199.5 128.5t-125 207t-43.5 279.5q0 83 18.5 161.5t53 147.5t83.5 127t109 99.5t130 64.5t147 23q86 0 140.5 -34t76.5 -105zM836 274q51 0 98.5 14.5t99 48t110 89.5t130.5 139
q-88 -3 -166 -4.5t-149.5 -2.5t-137.5 -1h-129q-6 -22 -9 -48.5t-3 -41.5q0 -49 11.5 -85.5t32.5 -60.5t49.5 -35.5t62.5 -11.5zM2048 942q51 3 108 7t113.5 8t108.5 9t92 9q5 53 12 124.5t15.5 153t18.5 168t21.5 170t23 159t24.5 134.5q-34 -63 -77.5 -142t-92 -165
t-99.5 -175t-99 -172.5t-91.5 -157.5t-77.5 -130zM3297 3219q-94 0 -170.5 27t-130.5 78t-83.5 125t-29.5 168q0 74 18.5 147t50 139.5t72 123.5t85 98.5t89 65.5t83.5 24q34 0 57.5 -10.5t36.5 -22.5q31 65 82.5 98t109.5 33q63 0 121 -31t102 -88t70.5 -137t26.5 -178
q0 -101 -24.5 -189.5t-66.5 -162t-99 -131t-123 -97t-136.5 -60t-140.5 -20.5zM3232 3707q0 -56 28 -85.5t78 -29.5q23 0 46.5 11t42 32t30.5 50.5t12 66.5q0 53 -26 115.5t-72 117.5q-35 -35 -61 -74t-43.5 -76t-26 -70.5t-8.5 -57.5z" />
    <glyph glyph-name="Ccedilla" unicode="&#xc7;" horiz-adv-x="2089" 
d="M1040 -188q-205 0 -366.5 64.5t-273 191t-170 313t-58.5 430.5q0 192 37.5 387t104.5 383.5t160 365t205 332t238.5 284t260.5 221t271.5 143.5t270.5 51q152 0 260 -37.5t177 -108.5t101 -173.5t32 -233.5q0 -95 -19.5 -191t-54 -183.5t-83.5 -163.5t-108.5 -132.5
t-127 -88.5t-140.5 -32q-38 0 -66.5 4.5t-48.5 14t-34 23.5t-23 32q17 39 31 86.5t25 98.5t20 102t15 96t9 82t3 59q0 71 -10.5 120t-29 80t-44 44.5t-56.5 13.5q-42 0 -93 -35.5t-105.5 -99t-110 -152.5t-107 -196.5t-97 -229.5t-78.5 -252.5t-52.5 -265.5t-19.5 -268
q0 -146 23 -255t77 -181.5t143.5 -108.5t223.5 -36q128 0 267 47.5t274 132.5t256.5 203.5t213.5 259.5q32 0 60.5 -6.5t49.5 -22t33.5 -40.5t12.5 -62q0 -58 -34 -137t-96 -168t-149 -183.5t-192 -183.5t-225 -169t-250 -139l-30 -14q1 -24 1 -47q0 -220 -43 -391.5
t-122 -289.5t-191 -179.5t-250 -61.5q-97 0 -172 28.5t-127 79.5t-79 122t-27 156q0 41 13 81.5t38.5 74t63.5 56.5t89 29q29 -32 61 -59t63.5 -46.5t61.5 -30.5t56 -11q48 0 89.5 39.5t75.5 115t58 184.5q6 23 10 49q-86 -15 -172 -15z" />
    <glyph glyph-name="Eacute" unicode="&#xc9;" horiz-adv-x="2105" 
d="M967 -221q-192 0 -345.5 52t-260.5 146t-164.5 225.5t-57.5 289.5q0 109 39 225t118 227t199 212t283 179q-45 48 -82.5 109t-64.5 133t-42.5 154.5t-15.5 173.5q0 130 37.5 260t105.5 249.5t163 222t210.5 178.5t247 119.5t273.5 43.5q143 0 246.5 -33t171 -95.5
t99.5 -153t32 -206.5q0 -152 -42.5 -264.5t-111 -186.5t-154.5 -110.5t-172 -36.5q-68 0 -101.5 21.5t-45.5 52.5q40 84 61 165.5t21 162.5q0 58 -9.5 98t-25.5 64.5t-37.5 35.5t-46.5 11q-37 0 -74.5 -23t-72.5 -64t-65.5 -98t-53.5 -124.5t-36 -143t-13 -154.5
q0 -54 5.5 -109.5t15.5 -109t23.5 -102t28.5 -88.5q34 8 74.5 14t82 10t79.5 6.5t67 2.5q59 0 97 -8t60 -22t31 -32.5t9 -40.5q0 -87 -33 -170.5t-88 -148.5t-126 -104.5t-146 -39.5q-29 0 -63.5 8t-71 22.5t-72.5 35t-68 45.5q-41 -43 -75 -95.5t-58 -107.5t-37.5 -107.5
t-13.5 -95.5q0 -76 21 -138t64.5 -106t110 -67.5t156.5 -23.5q96 0 201 29t211.5 80t210 120.5t198 150.5t175 170t139.5 179q32 0 60.5 -6.5t49.5 -22t33.5 -40.5t12.5 -62q0 -49 -32.5 -124.5t-93 -165t-146.5 -187.5t-194 -193t-234.5 -180.5t-267.5 -150.5
t-294.5 -103.5t-314.5 -38.5zM2076 4264q69 0 121.5 -19t87.5 -53t52.5 -81.5t17.5 -104.5q0 -181 -315 -508q-63 -64 -132 -119t-135.5 -95t-127.5 -62.5t-109 -22.5q-44 0 -69 25.5t-25 81.5q106 153 186.5 276.5t134.5 225.5t81.5 186.5t27.5 159.5q34 52 85 81t119 29z
" />
    <glyph glyph-name="Egrave" unicode="&#xc8;" horiz-adv-x="2105" 
d="M967 -221q-192 0 -345.5 52t-260.5 146t-164.5 225.5t-57.5 289.5q0 109 39 225t118 227t199 212t283 179q-45 48 -82.5 109t-64.5 133t-42.5 154.5t-15.5 173.5q0 130 37.5 260t105.5 249.5t163 222t210.5 178.5t247 119.5t273.5 43.5q143 0 246.5 -33t171 -95.5
t99.5 -153t32 -206.5q0 -152 -42.5 -264.5t-111 -186.5t-154.5 -110.5t-172 -36.5q-68 0 -101.5 21.5t-45.5 52.5q40 84 61 165.5t21 162.5q0 58 -9.5 98t-25.5 64.5t-37.5 35.5t-46.5 11q-37 0 -74.5 -23t-72.5 -64t-65.5 -98t-53.5 -124.5t-36 -143t-13 -154.5
q0 -54 5.5 -109.5t15.5 -109t23.5 -102t28.5 -88.5q34 8 74.5 14t82 10t79.5 6.5t67 2.5q59 0 97 -8t60 -22t31 -32.5t9 -40.5q0 -87 -33 -170.5t-88 -148.5t-126 -104.5t-146 -39.5q-29 0 -63.5 8t-71 22.5t-72.5 35t-68 45.5q-41 -43 -75 -95.5t-58 -107.5t-37.5 -107.5
t-13.5 -95.5q0 -76 21 -138t64.5 -106t110 -67.5t156.5 -23.5q96 0 201 29t211.5 80t210 120.5t198 150.5t175 170t139.5 179q32 0 60.5 -6.5t49.5 -22t33.5 -40.5t12.5 -62q0 -49 -32.5 -124.5t-93 -165t-146.5 -187.5t-194 -193t-234.5 -180.5t-267.5 -150.5
t-294.5 -103.5t-314.5 -38.5zM1639 4211q12 -112 31 -231t43.5 -234.5t54 -223t63.5 -196.5q-1 -25 -11 -46.5t-28.5 -37.5t-45.5 -25.5t-62 -9.5q-63 0 -130.5 42.5t-134 123.5t-129 197.5t-114.5 263.5q-6 21 -11.5 45t-5.5 49q0 66 22.5 127.5t66 108.5t107 75.5
t144.5 28.5q47 0 82.5 -16.5t57.5 -40.5z" />
    <glyph glyph-name="Ecircumflex" unicode="&#xca;" horiz-adv-x="2105" 
d="M967 -221q-192 0 -345.5 52t-260.5 146t-164.5 225.5t-57.5 289.5q0 109 39 225t118 227t199 212t283 179q-45 48 -82.5 109t-64.5 133t-42.5 154.5t-15.5 173.5q0 130 37.5 260t105.5 249.5t163 222t210.5 178.5t247 119.5t273.5 43.5q143 0 246.5 -33t171 -95.5
t99.5 -153t32 -206.5q0 -152 -42.5 -264.5t-111 -186.5t-154.5 -110.5t-172 -36.5q-68 0 -101.5 21.5t-45.5 52.5q40 84 61 165.5t21 162.5q0 58 -9.5 98t-25.5 64.5t-37.5 35.5t-46.5 11q-37 0 -74.5 -23t-72.5 -64t-65.5 -98t-53.5 -124.5t-36 -143t-13 -154.5
q0 -54 5.5 -109.5t15.5 -109t23.5 -102t28.5 -88.5q34 8 74.5 14t82 10t79.5 6.5t67 2.5q59 0 97 -8t60 -22t31 -32.5t9 -40.5q0 -87 -33 -170.5t-88 -148.5t-126 -104.5t-146 -39.5q-29 0 -63.5 8t-71 22.5t-72.5 35t-68 45.5q-41 -43 -75 -95.5t-58 -107.5t-37.5 -107.5
t-13.5 -95.5q0 -76 21 -138t64.5 -106t110 -67.5t156.5 -23.5q96 0 201 29t211.5 80t210 120.5t198 150.5t175 170t139.5 179q32 0 60.5 -6.5t49.5 -22t33.5 -40.5t12.5 -62q0 -49 -32.5 -124.5t-93 -165t-146.5 -187.5t-194 -193t-234.5 -180.5t-267.5 -150.5
t-294.5 -103.5t-314.5 -38.5zM1806 3379q0 128 -2 210.5t-9 130.5t-20 66.5t-34 18.5q-31 0 -73 -37t-90 -111t-98 -185.5t-96 -260.5q-21 -9 -40.5 -12.5t-41.5 -3.5q-30 0 -57.5 11.5t-48.5 34t-33 56t-12 78.5q0 48 17 111.5t48.5 135t76 146.5t99 146.5t118 135
t132.5 111t142.5 75.5t148.5 28q105 0 170 -38.5t101 -127.5t48.5 -235t12.5 -361q0 -31 2.5 -79t5.5 -97q-18 -32 -48.5 -61t-69.5 -51t-84 -35t-93 -13q-95 0 -133.5 53t-38.5 160z" />
    <glyph glyph-name="Edieresis" unicode="&#xcb;" horiz-adv-x="2105" 
d="M967 -221q-192 0 -345.5 52t-260.5 146t-164.5 225.5t-57.5 289.5q0 109 39 225t118 227t199 212t283 179q-45 48 -82.5 109t-64.5 133t-42.5 154.5t-15.5 173.5q0 130 37.5 260t105.5 249.5t163 222t210.5 178.5t247 119.5t273.5 43.5q143 0 246.5 -33t171 -95.5
t99.5 -153t32 -206.5q0 -152 -42.5 -264.5t-111 -186.5t-154.5 -110.5t-172 -36.5q-68 0 -101.5 21.5t-45.5 52.5q40 84 61 165.5t21 162.5q0 58 -9.5 98t-25.5 64.5t-37.5 35.5t-46.5 11q-37 0 -74.5 -23t-72.5 -64t-65.5 -98t-53.5 -124.5t-36 -143t-13 -154.5
q0 -54 5.5 -109.5t15.5 -109t23.5 -102t28.5 -88.5q34 8 74.5 14t82 10t79.5 6.5t67 2.5q59 0 97 -8t60 -22t31 -32.5t9 -40.5q0 -87 -33 -170.5t-88 -148.5t-126 -104.5t-146 -39.5q-29 0 -63.5 8t-71 22.5t-72.5 35t-68 45.5q-41 -43 -75 -95.5t-58 -107.5t-37.5 -107.5
t-13.5 -95.5q0 -76 21 -138t64.5 -106t110 -67.5t156.5 -23.5q96 0 201 29t211.5 80t210 120.5t198 150.5t175 170t139.5 179q32 0 60.5 -6.5t49.5 -22t33.5 -40.5t12.5 -62q0 -49 -32.5 -124.5t-93 -165t-146.5 -187.5t-194 -193t-234.5 -180.5t-267.5 -150.5
t-294.5 -103.5t-314.5 -38.5zM1167 3523q0 117 12 200.5t35.5 137t58 79t79.5 25.5q60 0 113.5 -28t94 -71t64 -94.5t23.5 -97.5q0 -37 -12.5 -79t-42.5 -96t-79.5 -122t-123.5 -157q-43 0 -83 18t-71 55t-49.5 94.5t-18.5 135.5zM1876 3584q0 125 13 211t38.5 139t63 77
t86.5 24q41 0 82.5 -14t80.5 -37.5t72.5 -54.5t58.5 -65t39.5 -69t14.5 -67q0 -37 -15.5 -86t-48.5 -110.5t-85 -137t-126 -166.5q-63 0 -113.5 21.5t-86 66t-55 111.5t-19.5 157z" />
    <glyph glyph-name="Oacute" unicode="&#xd3;" horiz-adv-x="2683" 
d="M2114 385q-86 -115 -194 -210t-234.5 -163t-271 -105.5t-304.5 -37.5q-223 0 -394 66.5t-287 200.5t-176 336t-60 474q0 181 38 365t105 361.5t159.5 344t202 312.5t232 266.5t249.5 207.5t254 135t246 48q51 0 93 -18t72 -50t48 -75.5t21 -94.5q62 41 140 66t171 25
q90 0 165.5 -25.5t136 -70t106 -106.5t76 -134.5t46 -154t15.5 -165.5t-11 -189.5t-33.5 -225t-57 -248.5t-81.5 -260t-106.5 -260.5t-132.5 -249.5q15 -12 36.5 -22t46.5 -17t51 -11t50 -4q48 0 101 22.5t108 66.5t111 110t110 154q28 -2 56.5 -12.5t51.5 -29.5t37.5 -45.5
t14.5 -60.5q0 -46 -25 -109t-70.5 -131t-108.5 -134t-139.5 -118.5t-164 -85t-180.5 -32.5q-43 0 -87 6t-85.5 18t-79 29.5t-67.5 40.5zM926 1090q0 -138 26 -252t77 -195.5t126.5 -126.5t175.5 -45q60 0 119 13t113 39.5t101.5 66.5t84.5 94q-64 78 -116 171.5t-88 202
t-55.5 233t-19.5 265.5q0 146 15.5 276.5t45.5 251t74.5 233t102.5 223.5q-98 -65 -194.5 -152.5t-183 -194t-160.5 -231.5t-128.5 -264.5t-85 -292t-30.5 -315.5zM2032 1110q35 70 64 149.5t52 160.5t40.5 160.5t29 148t17.5 122.5t6 86q0 69 -9 124.5t-34.5 95t-71 64
t-119.5 32.5q-25 -133 -45 -287t-20 -315q0 -146 20 -283t70 -258zM2666 4210q69 0 121.5 -19t87.5 -53t52.5 -81.5t17.5 -104.5q0 -181 -315 -508q-63 -64 -132 -119t-135.5 -95t-127.5 -62.5t-109 -22.5q-44 0 -69 25.5t-25 81.5q106 153 186.5 276.5t134.5 225.5
t81.5 186.5t27.5 159.5q34 52 85 81t119 29z" />
    <glyph glyph-name="Ograve" unicode="&#xd2;" horiz-adv-x="2683" 
d="M2114 385q-86 -115 -194 -210t-234.5 -163t-271 -105.5t-304.5 -37.5q-223 0 -394 66.5t-287 200.5t-176 336t-60 474q0 181 38 365t105 361.5t159.5 344t202 312.5t232 266.5t249.5 207.5t254 135t246 48q51 0 93 -18t72 -50t48 -75.5t21 -94.5q62 41 140 66t171 25
q90 0 165.5 -25.5t136 -70t106 -106.5t76 -134.5t46 -154t15.5 -165.5t-11 -189.5t-33.5 -225t-57 -248.5t-81.5 -260t-106.5 -260.5t-132.5 -249.5q15 -12 36.5 -22t46.5 -17t51 -11t50 -4q48 0 101 22.5t108 66.5t111 110t110 154q28 -2 56.5 -12.5t51.5 -29.5t37.5 -45.5
t14.5 -60.5q0 -46 -25 -109t-70.5 -131t-108.5 -134t-139.5 -118.5t-164 -85t-180.5 -32.5q-43 0 -87 6t-85.5 18t-79 29.5t-67.5 40.5zM926 1090q0 -138 26 -252t77 -195.5t126.5 -126.5t175.5 -45q60 0 119 13t113 39.5t101.5 66.5t84.5 94q-64 78 -116 171.5t-88 202
t-55.5 233t-19.5 265.5q0 146 15.5 276.5t45.5 251t74.5 233t102.5 223.5q-98 -65 -194.5 -152.5t-183 -194t-160.5 -231.5t-128.5 -264.5t-85 -292t-30.5 -315.5zM2032 1110q35 70 64 149.5t52 160.5t40.5 160.5t29 148t17.5 122.5t6 86q0 69 -9 124.5t-34.5 95t-71 64
t-119.5 32.5q-25 -133 -45 -287t-20 -315q0 -146 20 -283t70 -258zM2118 4174q12 -112 31 -231t43.5 -234.5t54 -223t63.5 -196.5q-1 -25 -11 -46.5t-28.5 -37.5t-45.5 -25.5t-62 -9.5q-63 0 -130.5 42.5t-134 123.5t-129 197.5t-114.5 263.5q-6 21 -11.5 45t-5.5 49
q0 66 22.5 127.5t66 108.5t107 75.5t144.5 28.5q47 0 82.5 -16.5t57.5 -40.5z" />
    <glyph glyph-name="Ocircumflex" unicode="&#xd4;" horiz-adv-x="2683" 
d="M2114 385q-86 -115 -194 -210t-234.5 -163t-271 -105.5t-304.5 -37.5q-223 0 -394 66.5t-287 200.5t-176 336t-60 474q0 181 38 365t105 361.5t159.5 344t202 312.5t232 266.5t249.5 207.5t254 135t246 48q51 0 93 -18t72 -50t48 -75.5t21 -94.5q62 41 140 66t171 25
q90 0 165.5 -25.5t136 -70t106 -106.5t76 -134.5t46 -154t15.5 -165.5t-11 -189.5t-33.5 -225t-57 -248.5t-81.5 -260t-106.5 -260.5t-132.5 -249.5q15 -12 36.5 -22t46.5 -17t51 -11t50 -4q48 0 101 22.5t108 66.5t111 110t110 154q28 -2 56.5 -12.5t51.5 -29.5t37.5 -45.5
t14.5 -60.5q0 -46 -25 -109t-70.5 -131t-108.5 -134t-139.5 -118.5t-164 -85t-180.5 -32.5q-43 0 -87 6t-85.5 18t-79 29.5t-67.5 40.5zM926 1090q0 -138 26 -252t77 -195.5t126.5 -126.5t175.5 -45q60 0 119 13t113 39.5t101.5 66.5t84.5 94q-64 78 -116 171.5t-88 202
t-55.5 233t-19.5 265.5q0 146 15.5 276.5t45.5 251t74.5 233t102.5 223.5q-98 -65 -194.5 -152.5t-183 -194t-160.5 -231.5t-128.5 -264.5t-85 -292t-30.5 -315.5zM2032 1110q35 70 64 149.5t52 160.5t40.5 160.5t29 148t17.5 122.5t6 86q0 69 -9 124.5t-34.5 95t-71 64
t-119.5 32.5q-25 -133 -45 -287t-20 -315q0 -146 20 -283t70 -258zM2216 3416q0 128 -2 210.5t-9 130.5t-20 66.5t-34 18.5q-31 0 -73 -37t-90 -111t-98 -185.5t-96 -260.5q-21 -9 -40.5 -12.5t-41.5 -3.5q-30 0 -57.5 11.5t-48.5 34t-33 56t-12 78.5q0 48 17 111.5
t48.5 135t76 146.5t99 146.5t118 135t132.5 111t142.5 75.5t148.5 28q105 0 170 -38.5t101 -127.5t48.5 -235t12.5 -361q0 -31 2.5 -79t5.5 -97q-18 -32 -48.5 -61t-69.5 -51t-84 -35t-93 -13q-95 0 -133.5 53t-38.5 160z" />
    <glyph glyph-name="Odieresis" unicode="&#xd6;" horiz-adv-x="2683" 
d="M2114 385q-86 -115 -194 -210t-234.5 -163t-271 -105.5t-304.5 -37.5q-223 0 -394 66.5t-287 200.5t-176 336t-60 474q0 181 38 365t105 361.5t159.5 344t202 312.5t232 266.5t249.5 207.5t254 135t246 48q51 0 93 -18t72 -50t48 -75.5t21 -94.5q62 41 140 66t171 25
q90 0 165.5 -25.5t136 -70t106 -106.5t76 -134.5t46 -154t15.5 -165.5t-11 -189.5t-33.5 -225t-57 -248.5t-81.5 -260t-106.5 -260.5t-132.5 -249.5q15 -12 36.5 -22t46.5 -17t51 -11t50 -4q48 0 101 22.5t108 66.5t111 110t110 154q28 -2 56.5 -12.5t51.5 -29.5t37.5 -45.5
t14.5 -60.5q0 -46 -25 -109t-70.5 -131t-108.5 -134t-139.5 -118.5t-164 -85t-180.5 -32.5q-43 0 -87 6t-85.5 18t-79 29.5t-67.5 40.5zM926 1090q0 -138 26 -252t77 -195.5t126.5 -126.5t175.5 -45q60 0 119 13t113 39.5t101.5 66.5t84.5 94q-64 78 -116 171.5t-88 202
t-55.5 233t-19.5 265.5q0 146 15.5 276.5t45.5 251t74.5 233t102.5 223.5q-98 -65 -194.5 -152.5t-183 -194t-160.5 -231.5t-128.5 -264.5t-85 -292t-30.5 -315.5zM2032 1110q35 70 64 149.5t52 160.5t40.5 160.5t29 148t17.5 122.5t6 86q0 69 -9 124.5t-34.5 95t-71 64
t-119.5 32.5q-25 -133 -45 -287t-20 -315q0 -146 20 -283t70 -258zM1503 3551q0 117 12 200.5t35.5 137t58 79t79.5 25.5q60 0 113.5 -28t94 -71t64 -94.5t23.5 -97.5q0 -37 -12.5 -79t-42.5 -96t-79.5 -122t-123.5 -157q-43 0 -83 18t-71 55t-49.5 94.5t-18.5 135.5z
M2212 3612q0 125 13 211t38.5 139t63 77t86.5 24q41 0 82.5 -14t80.5 -37.5t72.5 -54.5t58.5 -65t39.5 -69t14.5 -67q0 -37 -15.5 -86t-48.5 -110.5t-85 -137t-126 -166.5q-63 0 -113.5 21.5t-86 66t-55 111.5t-19.5 157z" />
    <glyph glyph-name="Otilde" unicode="&#xd5;" horiz-adv-x="2683" 
d="M2114 385q-86 -115 -194 -210t-234.5 -163t-271 -105.5t-304.5 -37.5q-223 0 -394 66.5t-287 200.5t-176 336t-60 474q0 181 38 365t105 361.5t159.5 344t202 312.5t232 266.5t249.5 207.5t254 135t246 48q51 0 93 -18t72 -50t48 -75.5t21 -94.5q62 41 140 66t171 25
q90 0 165.5 -25.5t136 -70t106 -106.5t76 -134.5t46 -154t15.5 -165.5t-11 -189.5t-33.5 -225t-57 -248.5t-81.5 -260t-106.5 -260.5t-132.5 -249.5q15 -12 36.5 -22t46.5 -17t51 -11t50 -4q48 0 101 22.5t108 66.5t111 110t110 154q28 -2 56.5 -12.5t51.5 -29.5t37.5 -45.5
t14.5 -60.5q0 -46 -25 -109t-70.5 -131t-108.5 -134t-139.5 -118.5t-164 -85t-180.5 -32.5q-43 0 -87 6t-85.5 18t-79 29.5t-67.5 40.5zM926 1090q0 -138 26 -252t77 -195.5t126.5 -126.5t175.5 -45q60 0 119 13t113 39.5t101.5 66.5t84.5 94q-64 78 -116 171.5t-88 202
t-55.5 233t-19.5 265.5q0 146 15.5 276.5t45.5 251t74.5 233t102.5 223.5q-98 -65 -194.5 -152.5t-183 -194t-160.5 -231.5t-128.5 -264.5t-85 -292t-30.5 -315.5zM2032 1110q35 70 64 149.5t52 160.5t40.5 160.5t29 148t17.5 122.5t6 86q0 69 -9 124.5t-34.5 95t-71 64
t-119.5 32.5q-25 -133 -45 -287t-20 -315q0 -146 20 -283t70 -258zM2024 3809q118 40 205 71.5t151.5 58t110 50.5t79.5 49.5t60.5 54t52.5 64.5q69 -7 121.5 -34.5t87.5 -68t52.5 -90t17.5 -102.5q0 -90 -38 -159t-120 -123.5t-212 -98.5t-314 -86q-121 -26 -205.5 -46.5
t-143 -42t-97.5 -47t-70 -60.5q-36 0 -71.5 11.5t-64.5 36t-47 64.5t-18 97q0 68 24 122.5t78.5 102t143 90.5t217.5 86z" />
    <glyph glyph-name="Scaron" unicode="&#x160;" horiz-adv-x="2204" 
d="M61 512q0 75 13 152t39 149t64 135t87.5 110t110.5 74t133 27q53 0 96.5 -15.5t71.5 -49.5v-78q0 -209 44 -360.5t117.5 -250t168.5 -145.5t198 -47q59 0 109.5 25.5t88.5 72t59.5 111.5t21.5 143q0 34 -3.5 67.5t-17 74t-39.5 92.5t-71.5 121.5t-112.5 161t-162 212.5
q-81 105 -136 201t-88.5 189t-47.5 185t-14 187q0 114 28.5 228t82 218.5t130 195t173 157.5t211 105t243.5 38q166 0 283 -43.5t191.5 -114t109 -160t34.5 -181.5q0 -60 -15 -113.5t-39.5 -97.5t-56 -76t-65.5 -49q-81 68 -151 117t-133 81.5t-121 48t-115 15.5
q-34 0 -63.5 -14t-52 -40t-35.5 -62t-13 -81q0 -49 14.5 -106t50 -130t94.5 -167.5t148 -218.5q86 -122 149 -219.5t108 -177.5t73 -146t44 -125.5t22 -116t6 -116.5q0 -116 -34.5 -236t-101 -233t-163.5 -212.5t-220.5 -174t-273 -117.5t-321.5 -43q-158 0 -289.5 29.5
t-237.5 83.5t-185.5 129.5t-132.5 167t-79.5 196t-26.5 217.5zM1893 4047q0 -127 2 -209.5t9 -130.5t20 -67t34 -19q31 0 73 37t90 111t98 185.5t96 260.5q21 9 40.5 12.5t41.5 3.5q31 0 58.5 -11.5t48 -34t32.5 -56t12 -78.5q0 -48 -17 -111.5t-48.5 -134.5t-76 -146.5
t-99 -147t-118 -135t-132.5 -111t-142.5 -75.5t-148.5 -28q-105 0 -170 38.5t-101 127.5t-48.5 235t-12.5 361q0 31 -2.5 79t-5.5 97q18 32 48.5 61t69.5 51t84 35t93 13q95 0 133.5 -53t38.5 -160z" />
    <glyph glyph-name="Uacute" unicode="&#xda;" horiz-adv-x="2589" 
d="M147 2535q0 111 64.5 206t178.5 165t269 110t336 40q146 0 253 -38.5t177.5 -106t105 -159.5t34.5 -200q0 -64 -5.5 -130.5t-18.5 -141.5t-34.5 -161t-54.5 -190.5t-78 -229.5t-104 -278q-58 -149 -97 -263t-62 -200.5t-32.5 -149t-9.5 -108.5q0 -151 64 -222.5
t194 -71.5q106 0 217.5 92t218.5 271t205 443.5t178 610.5q-31 139 -46 270.5t-15 249.5t17.5 217.5t54 171.5t94 112t137.5 40q57 0 114.5 -17.5t109.5 -47t97.5 -68t78.5 -81t52 -85.5t19 -82q0 -54 -6.5 -108t-25 -123.5t-51.5 -162.5t-85 -225q-78 -360 -177.5 -650.5
t-217 -516t-250.5 -388t-278 -267.5t-299 -155t-314 -50q-186 0 -334 48t-251.5 139.5t-158.5 223.5t-55 301q0 77 13 167t35 183t51 185.5t61 173.5q69 175 121 314t90.5 248t64 191.5t40.5 144.5t21.5 106t6.5 77q0 39 -8.5 63.5t-24 38.5t-36.5 19.5t-46 5.5
q-30 0 -72.5 -17t-92.5 -47.5t-105 -73.5t-110 -95q-48 8 -88 36t-69 68t-45 87t-16 91zM2408 4083q69 0 121.5 -19t87.5 -53t52.5 -81.5t17.5 -104.5q0 -181 -315 -508q-63 -64 -132 -119t-135.5 -95t-127.5 -62.5t-109 -22.5q-44 0 -69 25.5t-25 81.5q106 153 186.5 276.5
t134.5 225.5t81.5 186.5t27.5 159.5q34 52 85 81t119 29z" />
    <glyph glyph-name="Ugrave" unicode="&#xd9;" horiz-adv-x="2589" 
d="M147 2535q0 111 64.5 206t178.5 165t269 110t336 40q146 0 253 -38.5t177.5 -106t105 -159.5t34.5 -200q0 -64 -5.5 -130.5t-18.5 -141.5t-34.5 -161t-54.5 -190.5t-78 -229.5t-104 -278q-58 -149 -97 -263t-62 -200.5t-32.5 -149t-9.5 -108.5q0 -151 64 -222.5
t194 -71.5q106 0 217.5 92t218.5 271t205 443.5t178 610.5q-31 139 -46 270.5t-15 249.5t17.5 217.5t54 171.5t94 112t137.5 40q57 0 114.5 -17.5t109.5 -47t97.5 -68t78.5 -81t52 -85.5t19 -82q0 -54 -6.5 -108t-25 -123.5t-51.5 -162.5t-85 -225q-78 -360 -177.5 -650.5
t-217 -516t-250.5 -388t-278 -267.5t-299 -155t-314 -50q-186 0 -334 48t-251.5 139.5t-158.5 223.5t-55 301q0 77 13 167t35 183t51 185.5t61 173.5q69 175 121 314t90.5 248t64 191.5t40.5 144.5t21.5 106t6.5 77q0 39 -8.5 63.5t-24 38.5t-36.5 19.5t-46 5.5
q-30 0 -72.5 -17t-92.5 -47.5t-105 -73.5t-110 -95q-48 8 -88 36t-69 68t-45 87t-16 91zM1946 4047q12 -112 31 -231t43.5 -234.5t54 -223t63.5 -196.5q-1 -25 -11 -46.5t-28.5 -37.5t-45.5 -25.5t-62 -9.5q-63 0 -130.5 42.5t-134 123.5t-129 197.5t-114.5 263.5
q-6 21 -11.5 45t-5.5 49q0 66 22.5 127.5t66 108.5t107 75.5t144.5 28.5q47 0 82.5 -16.5t57.5 -40.5z" />
    <glyph glyph-name="Ucircumflex" unicode="&#xdb;" horiz-adv-x="2589" 
d="M147 2535q0 111 64.5 206t178.5 165t269 110t336 40q146 0 253 -38.5t177.5 -106t105 -159.5t34.5 -200q0 -64 -5.5 -130.5t-18.5 -141.5t-34.5 -161t-54.5 -190.5t-78 -229.5t-104 -278q-58 -149 -97 -263t-62 -200.5t-32.5 -149t-9.5 -108.5q0 -151 64 -222.5
t194 -71.5q106 0 217.5 92t218.5 271t205 443.5t178 610.5q-31 139 -46 270.5t-15 249.5t17.5 217.5t54 171.5t94 112t137.5 40q57 0 114.5 -17.5t109.5 -47t97.5 -68t78.5 -81t52 -85.5t19 -82q0 -54 -6.5 -108t-25 -123.5t-51.5 -162.5t-85 -225q-78 -360 -177.5 -650.5
t-217 -516t-250.5 -388t-278 -267.5t-299 -155t-314 -50q-186 0 -334 48t-251.5 139.5t-158.5 223.5t-55 301q0 77 13 167t35 183t51 185.5t61 173.5q69 175 121 314t90.5 248t64 191.5t40.5 144.5t21.5 106t6.5 77q0 39 -8.5 63.5t-24 38.5t-36.5 19.5t-46 5.5
q-30 0 -72.5 -17t-92.5 -47.5t-105 -73.5t-110 -95q-48 8 -88 36t-69 68t-45 87t-16 91zM2138 3322q0 128 -2 210.5t-9 130.5t-20 66.5t-34 18.5q-31 0 -73 -37t-90 -111t-98 -185.5t-96 -260.5q-21 -9 -40.5 -12.5t-41.5 -3.5q-30 0 -57.5 11.5t-48.5 34t-33 56t-12 78.5
q0 48 17 111.5t48.5 135t76 146.5t99 146.5t118 135t132.5 111t142.5 75.5t148.5 28q105 0 170 -38.5t101 -127.5t48.5 -235t12.5 -361q0 -31 2.5 -79t5.5 -97q-18 -32 -48.5 -61t-69.5 -51t-84 -35t-93 -13q-95 0 -133.5 53t-38.5 160z" />
    <glyph glyph-name="Udieresis" unicode="&#xdc;" horiz-adv-x="2589" 
d="M147 2535q0 111 64.5 206t178.5 165t269 110t336 40q146 0 253 -38.5t177.5 -106t105 -159.5t34.5 -200q0 -64 -5.5 -130.5t-18.5 -141.5t-34.5 -161t-54.5 -190.5t-78 -229.5t-104 -278q-58 -149 -97 -263t-62 -200.5t-32.5 -149t-9.5 -108.5q0 -151 64 -222.5
t194 -71.5q106 0 217.5 92t218.5 271t205 443.5t178 610.5q-31 139 -46 270.5t-15 249.5t17.5 217.5t54 171.5t94 112t137.5 40q57 0 114.5 -17.5t109.5 -47t97.5 -68t78.5 -81t52 -85.5t19 -82q0 -54 -6.5 -108t-25 -123.5t-51.5 -162.5t-85 -225q-78 -360 -177.5 -650.5
t-217 -516t-250.5 -388t-278 -267.5t-299 -155t-314 -50q-186 0 -334 48t-251.5 139.5t-158.5 223.5t-55 301q0 77 13 167t35 183t51 185.5t61 173.5q69 175 121 314t90.5 248t64 191.5t40.5 144.5t21.5 106t6.5 77q0 39 -8.5 63.5t-24 38.5t-36.5 19.5t-46 5.5
q-30 0 -72.5 -17t-92.5 -47.5t-105 -73.5t-110 -95q-48 8 -88 36t-69 68t-45 87t-16 91zM1499 3465q0 117 12 200.5t35.5 137t58 79t79.5 25.5q60 0 113.5 -28t94 -71t64 -94.5t23.5 -97.5q0 -37 -12.5 -79t-42.5 -96t-79.5 -122t-123.5 -157q-43 0 -83 18t-71 55
t-49.5 94.5t-18.5 135.5zM2208 3526q0 125 13 211t38.5 139t63 77t86.5 24q41 0 82.5 -14t80.5 -37.5t72.5 -54.5t58.5 -65t39.5 -69t14.5 -67q0 -37 -15.5 -86t-48.5 -110.5t-85 -137t-126 -166.5q-63 0 -113.5 21.5t-86 66t-55 111.5t-19.5 157z" />
    <glyph glyph-name="slash" unicode="/" horiz-adv-x="2212" 
d="M2101 2540q6 3 16.5 3.5t16.5 0.5q35 0 71 -19t65 -54t47 -86t18 -116q0 -51 -8 -101.5t-29 -109.5t-57.5 -129.5t-93.5 -161t-137 -205t-188.5 -261t-247 -328.5t-312.5 -408q-95 -123 -167 -224t-124 -186.5t-87.5 -159t-57.5 -140.5t-33 -130.5t-15 -130.5
q-15 -24 -45.5 -38.5t-77.5 -14.5q-57 0 -99.5 22.5t-71.5 60.5t-43.5 86.5t-14.5 101.5q0 49 5.5 94t22.5 95t47 109.5t79.5 138.5t120 181.5t167.5 237.5q100 136 208.5 288.5t220 313t222.5 326t214.5 328.5t197 319t170.5 297z" />
    <glyph glyph-name="P" unicode="P" horiz-adv-x="2699" 
d="M1802 3195q43 0 67.5 -8t37 -32t15.5 -67t3 -114q183 -13 328 -54.5t255.5 -105.5t188.5 -149t127.5 -185.5t72.5 -214.5t23 -237q0 -156 -35 -303t-97.5 -282t-149.5 -255.5t-191.5 -223t-222 -185.5t-242 -142t-252 -93.5t-251.5 -39.5q-75 -214 -175.5 -379.5
t-224.5 -279t-271 -172t-316 -58.5q-106 0 -191 29.5t-144.5 83.5t-91.5 129.5t-32 167.5q0 61 24 118t64 101.5t91.5 72.5t106.5 31q66 -71 129 -111t121 -40q98 0 179.5 146t160.5 435q33 120 67 253.5t67.5 273.5t67 281.5t64.5 277t60.5 260.5t54.5 231
q-87 -15 -173 -41.5t-162.5 -60.5t-139.5 -73t-106 -79q-34 0 -68 14t-61 41t-43.5 67.5t-16.5 94.5q0 100 68 201t191 188t294 153t377 97q12 51 50.5 94.5t89 75.5t107 50t105.5 18zM2277 1847q0 86 -20.5 166t-73 146t-143 116t-230.5 76q-15 -129 -36.5 -289
t-47.5 -335.5t-56 -358t-64 -356.5q15 -3 31.5 -3.5t25.5 -0.5q89 0 169 31.5t148.5 88t123 134.5t93 171t59.5 198t21 216z" />
    <glyph glyph-name="ogonek" unicode="&#x2db;" horiz-adv-x="1188" 
d="M901 209q-67 -105 -122.5 -201.5t-94.5 -177t-60.5 -139.5t-21.5 -88q0 -28 14 -48.5t42 -38t70 -35t99 -38.5q10 -16 13.5 -41t3.5 -41q0 -49 -29.5 -101.5t-82 -95.5t-125.5 -70.5t-161 -27.5q-81 0 -146.5 22t-111 60.5t-70 92t-24.5 116.5q0 45 12 96.5t41 115
t77 140.5t120 172q60 78 125 151.5t127.5 130t119 90.5t99.5 34q40 0 60 -20.5t26 -57.5z" />
    <glyph glyph-name="Q" unicode="Q" horiz-adv-x="2585" 
d="M-82 66q0 58 17 103.5t61.5 77t121.5 48t197 16.5q59 0 136.5 -8.5t166 -25t183 -41t186.5 -56.5q169 176 316 351.5t269 345t217.5 331t161 309.5t100 281t34.5 246q0 41 -10.5 77t-37.5 71.5t-73 74t-117 84.5q-31 20 -54.5 40.5t-39.5 45.5t-24.5 55t-8.5 68
q0 22 3.5 45t13.5 45q-135 -94 -241.5 -198.5t-187.5 -213.5t-138 -218.5t-93 -213.5t-52.5 -199.5t-16.5 -176.5q0 -108 13 -193.5t44.5 -159t85.5 -139.5t135 -135q-3 -60 -28.5 -102.5t-63 -70t-82 -40t-84.5 -12.5q-121 0 -222 30.5t-182 84t-142 127t-101.5 158.5
t-61 178t-20.5 187q0 116 24 247t71 267.5t116.5 273t160.5 262.5t203 237t244 196q136 87 266.5 125.5t253.5 38.5q87 0 139 -37t58 -102q31 48 74 77.5t88.5 46t89.5 22t76 5.5q158 0 282 -61t209.5 -163.5t130.5 -236.5t45 -280q0 -283 -97 -564t-278.5 -563t-439.5 -567
t-581 -575q142 -54 291 -116t303 -123.5t312 -118t318 -100t321 -69.5t322 -26q90 0 170 7t166 26q32 97 58.5 159t49.5 97.5t45.5 49t47.5 13.5q60 0 106.5 -29.5t78.5 -73t48.5 -92.5t16.5 -88q0 -65 -20 -119.5t-67 -104t-124 -95.5t-191 -94q-101 -142 -265.5 -212.5
t-409.5 -70.5q-126 0 -264.5 22.5t-283 62t-292 93t-291 116t-279.5 131t-259 137t-228.5 135.5t-187.5 126q-121 -65 -257 -100t-276 -35q-59 0 -117.5 22.5t-111 62t-97.5 93.5t-78.5 117t-52 132t-18.5 139z" />
    <glyph glyph-name="T" unicode="T" horiz-adv-x="2499" 
d="M2138 492q-63 -212 -161.5 -369.5t-225.5 -261t-277.5 -154.5t-318.5 -51q-127 0 -236 39t-188.5 108t-124.5 163.5t-45 205.5q0 71 22 129.5t64 101.5t103 67.5t139 25.5q43 -57 95 -111t104 -95.5t100.5 -67t85.5 -25.5q49 0 89.5 36t75.5 108.5t67.5 181.5t66.5 255
q40 173 70 308.5t53 242t40.5 188t32.5 146.5t29 117t29 100q-123 -58 -269 -110.5t-299 -91.5t-305.5 -62t-289.5 -23q-138 0 -249.5 39t-190 116.5t-121 192.5t-42.5 267q0 124 32.5 241t89.5 221t135.5 190.5t171 149t195.5 97.5t208 35q94 0 187.5 -6.5t194.5 -20.5
t214.5 -35.5t247.5 -52.5q191 -44 349.5 -79.5t291 -63.5t243 -49.5t206.5 -37.5t180.5 -27t165 -18t161 -10.5t168.5 -5.5q11 -7 20.5 -22.5t17 -34t11.5 -39.5t4 -39q0 -105 -44.5 -188.5t-121 -142t-178.5 -89.5t-217 -31q-44 0 -79 1t-66 4t-61 8t-64.5 13t-76 20
t-95.5 28q-22 -65 -46.5 -157t-50.5 -201.5t-53 -231.5t-54 -248.5t-54.5 -252.5t-54 -242t-52 -218t-49.5 -181zM963 2085q74 0 152.5 6t156 14.5t150 18.5t133.5 18.5t107 14.5t71 6q26 0 52 -4t49 -11.5t41.5 -19.5t29.5 -27q9 28 25.5 62.5t37 68.5t42.5 64.5t42 50.5
q-189 63 -342 110.5t-274.5 82.5t-216 58.5t-168 37.5t-129 20t-99.5 6q-58 0 -105.5 -18.5t-81.5 -53t-52.5 -83.5t-18.5 -111q0 -80 27.5 -138.5t79 -97t125.5 -57t166 -18.5z" />
    <glyph glyph-name="Z" unicode="Z" horiz-adv-x="2343" 
d="M2040 2023q-138 42 -263 78t-233.5 62.5t-200 41.5t-163.5 15q-56 0 -139.5 -26.5t-188.5 -88.5q-80 25 -128 97t-48 198q0 111 41.5 210.5t113.5 174.5t168 119.5t205 44.5q78 0 155 -7t160 -22t174.5 -39t198.5 -58t232 -79t276 -102q31 48 58.5 85t54 63t53 39.5
t55.5 13.5q62 0 115 -33t92 -84t61.5 -111.5t22.5 -115.5q0 -64 -25 -132t-79 -139.5t-139.5 -147t-206.5 -155.5q-94 -134 -182.5 -248.5t-176.5 -217.5t-178.5 -197.5t-188 -188.5t-206 -190.5t-232.5 -202.5q122 -180 220.5 -320.5t177.5 -248t141.5 -185t113.5 -131
t92.5 -85.5t79 -50t73 -23.5t73.5 -5.5q121 0 252.5 42t280.5 122q21 -11 41.5 -33t36.5 -52.5t26 -67t10 -76.5q0 -79 -37 -159t-102.5 -153.5t-154.5 -138t-193 -112t-219 -74.5t-232 -27q-107 0 -197 20t-174.5 74t-171 150.5t-187.5 249.5t-223.5 370t-279.5 513
q-44 -40 -99.5 -77t-112.5 -65.5t-111.5 -45.5t-97.5 -17q-39 0 -70 16.5t-52.5 57t-33.5 109.5t-12 173q0 69 14 148.5t42.5 159.5t72.5 153.5t104.5 130.5t138 91t172.5 34q45 0 84 -8t77.5 -26t80 -47t90.5 -71q86 68 181.5 152t192 176t190.5 188t177 187.5t152 175
t115 149.5z" />
    <glyph glyph-name="ampersand" unicode="&#x26;" horiz-adv-x="3215" 
d="M659 1393q-41 75 -71.5 159.5t-51 172.5t-30.5 176.5t-10 171.5q0 71 13.5 160t41 182t70 181.5t100.5 157.5t131.5 111.5t163.5 42.5q34 0 66 -17t44 -48q47 77 126.5 124.5t193.5 47.5q92 0 168.5 -35.5t131 -94.5t84.5 -136t30 -160q0 -75 -12.5 -148t-41 -151
t-74 -163.5t-111 -185t-153 -215.5t-198.5 -256q40 -69 86.5 -141.5t95.5 -142.5t99 -135.5t96 -120.5q71 83 134 174.5t115.5 184t93 182t66.5 167.5q-12 -1 -30.5 -2.5t-38 -3t-39.5 -2t-35 -0.5q-32 0 -54.5 12t-37 30t-21 39.5t-6.5 41.5q0 56 18 104t51 87.5t78 71
t99 52.5q48 20 116 39.5t148.5 37.5t170.5 34t182.5 28t183.5 18.5t174 6.5q90 0 154.5 -11.5t106 -38t60.5 -69.5t19 -106q0 -48 -16.5 -108t-44 -122t-63 -120.5t-74.5 -104.5t-78 -74t-73 -28q-21 0 -41 7t-37 24.5t-31.5 46.5t-25.5 74q-31 9 -76 16t-93 11.5t-94.5 8
t-80.5 4.5q-55 -144 -128.5 -287.5t-157 -277.5t-174 -256t-179.5 -223q131 -171 235.5 -295.5t190.5 -211.5t157.5 -140.5t137.5 -83.5t130.5 -40.5t135.5 -10.5q56 0 122.5 13.5t131.5 35.5q37 -13 55.5 -47.5t18.5 -71.5q0 -70 -27 -131.5t-74 -114t-109.5 -94.5
t-133.5 -71t-146.5 -44.5t-148.5 -15.5q-98 0 -181 10t-162 40.5t-160 88t-175 152t-206.5 232.5t-254.5 329q-93 -75 -191 -131.5t-195 -93.5t-191 -55.5t-180 -18.5q-141 0 -253.5 40t-191 113t-120.5 177t-42 231q0 115 32 227t103 232t185 253.5t278 291.5zM897 422
q32 0 71.5 8.5t79 23t77.5 34t67 40.5q-45 57 -86 112.5t-79.5 112t-75.5 116.5t-74 126q-78 -111 -121 -213t-43 -192q0 -34 8.5 -64.5t29.5 -53.5t56.5 -36.5t89.5 -13.5zM1073 2642q-23 -35 -40.5 -80.5t-29.5 -94t-18 -96.5t-6 -90q0 -55 7.5 -116.5t23 -124
t38.5 -123.5t54 -115q141 194 209.5 330.5t68.5 218.5q0 31 -10 54t-33 42t-60.5 35t-92.5 33q-61 22 -86 50t-25 77z" />
    <glyph glyph-name="K" unicode="K" horiz-adv-x="2843" 
d="M938 1651q46 158 82 296t60.5 248t37 189t12.5 119q0 55 -18 80.5t-55 25.5q-29 0 -75 -27t-99 -72.5t-106.5 -107t-97 -130.5t-70.5 -142.5t-27 -142.5q0 -64 21 -114t64.5 -89.5t111 -71.5t159.5 -61zM1642 1270q71 87 147.5 208.5t153 261.5t149.5 291.5t136 299.5
q59 136 108 234t93 165t85.5 108t84.5 63t89.5 29t100.5 7q97 0 172 -36.5t126 -96t77.5 -135.5t26.5 -154q0 -50 -17 -106t-57 -99q-40 -3 -72.5 -10t-63 -23t-62.5 -44t-70.5 -73.5t-87 -111t-111.5 -156.5q-94 -135 -179.5 -248.5t-165.5 -208.5t-155 -172.5t-147 -140.5
q55 -37 109.5 -106.5t109 -160.5t108 -196t107.5 -213q18 -37 35.5 -60.5t35.5 -37t38 -19t43 -5.5q14 0 35 2t44 5.5t46.5 8t42.5 8.5q24 -28 36.5 -69t12.5 -78q0 -56 -24.5 -110t-67 -102t-100.5 -88t-125 -69t-139.5 -45t-145.5 -16q-58 0 -103 13t-83 45t-73 86.5
t-73 137.5q-64 140 -116 251t-96 196.5t-82.5 147.5t-76.5 106t-78.5 71.5t-87.5 42.5l-188 -868q-28 -28 -72 -40.5t-100 -12.5q-55 0 -110.5 16.5t-106.5 46t-95.5 70t-77 89t-51 102.5t-18.5 110q0 57 18 130.5t52.5 157.5t85 175.5t114.5 183.5l54 250
q-28 -3 -63.5 -5.5t-63.5 -2.5q-134 0 -253 39t-208.5 112t-142 179t-52.5 239q0 110 34.5 224.5t95 226.5t143.5 219t179.5 201.5t203 174t214 136.5t213 89t199.5 32q108 0 186.5 -28t130 -77.5t76.5 -118t25 -149.5q0 -48 -22.5 -176t-63.5 -323.5t-100 -452t-133 -560.5
q43 7 94.5 10t109.5 3z" />
    <glyph glyph-name="L" unicode="L" horiz-adv-x="2568" 
d="M905 1217q-87 12 -161.5 41.5t-128.5 72.5t-84.5 97.5t-30.5 115.5q0 93 45.5 163t126.5 120q90 -68 193.5 -117t199.5 -68q44 122 89 241.5t89 231.5t86 214t81 188t72.5 154.5t61.5 113.5q54 86 116 146.5t130 98t141 54.5t150 17q120 0 225.5 -26t194 -72t159 -110
t119 -139.5t74.5 -160t26 -172.5q0 -154 -79.5 -318.5t-243.5 -322t-414.5 -298.5t-593.5 -249q-18 -54 -52.5 -124t-77 -145.5t-89.5 -151t-92 -140.5q275 -46 480 -103.5t353 -123t244.5 -137t152.5 -145t78.5 -148t22.5 -146.5q0 -77 -21.5 -145t-58.5 -121.5t-86 -91
t-104 -52.5q-75 64 -158.5 125t-182.5 118.5t-216.5 112t-259 105.5t-310.5 100t-372 95q-111 -105 -207 -165.5t-191 -60.5q-51 0 -100 25t-92.5 67.5t-80.5 98t-63.5 116.5t-41.5 123.5t-15 118.5q0 72 22 125.5t71.5 88.5t129.5 52t195 17q53 0 111 -3t127 -9
q71 135 130 258.5t111 249.5zM1667 1651q161 65 290.5 144.5t220.5 167t140 179t49 180.5q0 48 -25 89.5t-67 73t-97.5 49.5t-117.5 18q-20 0 -40.5 -8.5t-41 -32.5t-41.5 -66t-41 -110z" />
    <glyph glyph-name="D" unicode="D" horiz-adv-x="2982" 
d="M295 623q38 0 74.5 -1.5t76.5 -5t86 -8t103 -10.5q35 68 73.5 160.5t78 202t79 232t77.5 249.5t73.5 254.5t66.5 246.5t56.5 226t44.5 194q-23 3 -40.5 5t-35.5 3t-38.5 1h-49.5q-105 0 -196 -13t-177 -43t-171 -78.5t-177 -119.5q-48 0 -85 19t-63 52t-39.5 77t-13.5 93
q0 67 29 142.5t88.5 149.5t149.5 142t212.5 120t278 83t344.5 31q282 0 518.5 -61t426.5 -172t333.5 -266.5t240 -345.5t145 -408.5t48.5 -454.5q0 -185 -37.5 -361t-110 -332.5t-179.5 -287t-246 -225t-309.5 -147t-370.5 -52.5q-94 0 -193 15t-208 45.5t-229 78
t-255 111.5q-61 -49 -113.5 -82.5t-98.5 -54.5t-87.5 -30t-81.5 -9q-46 0 -85 20.5t-71 55t-56.5 79t-41 93.5t-25 98t-8.5 92q0 38 11 73.5t34.5 63t59 44t84.5 16.5zM2265 1188q0 152 -37 300.5t-112 283t-188 249.5t-265 199q-38 -188 -82.5 -369t-93.5 -347.5
t-99.5 -317.5t-101.5 -279.5t-99.5 -232.5t-92.5 -178q98 -28 180 -49.5t152.5 -36t132.5 -22t120 -7.5q104 0 187.5 30t148.5 84t112 128.5t78 164t45.5 191.5t14.5 209z" />
    <glyph glyph-name="X" unicode="X" horiz-adv-x="3219" 
d="M201 442q0 117 40.5 251t122 275.5t205 285.5t289 280t374 260t460.5 225l-45 226q-84 31 -122 96t-38 170q0 52 19 116t52.5 129.5t79.5 127.5t99.5 110.5t113 77.5t119.5 29q53 0 97 -18t82.5 -64t73.5 -124t70.5 -198.5t73.5 -287.5t82 -390q112 155 205 273
t172 204.5t146.5 144.5t127.5 93t115.5 49.5t110.5 14.5q69 0 125 -19.5t95.5 -55t61 -86.5t21.5 -114q0 -40 -11 -80t-30 -71q-71 -25 -134 -49.5t-122 -53t-115 -63t-114 -80t-120 -103t-131.5 -131.5t-148.5 -167t-172 -209q41 -239 73 -409t59 -286t51 -185.5t49 -106
t53 -47.5t63 -11q56 0 124.5 40t147 114.5t166 180.5t181.5 238q37 0 65 -12t47.5 -32t29.5 -47t10 -56q0 -48 -27 -115.5t-76 -146t-117 -162.5t-149 -164.5t-172.5 -153t-188 -127t-195.5 -86.5t-194 -32q-80 0 -145.5 14.5t-120 51t-100 99.5t-85 160t-74.5 233t-69 318
q-170 -270 -315.5 -454t-279 -297t-262 -162t-265.5 -49q-123 0 -234.5 36t-195.5 111.5t-134 192.5t-50 278zM1749 1712q-234 -157 -396 -313t-263.5 -299.5t-147 -269t-45.5 -220.5q0 -80 37 -119.5t102 -39.5q68 0 149 55.5t180 161t218.5 258.5t263.5 348z" />
    <glyph glyph-name="F" unicode="F" horiz-adv-x="2683" 
d="M520 2232q0 -61 19 -122.5t63.5 -123t116.5 -122.5t178 -123q0 -55 -21 -106t-62.5 -89t-103.5 -61t-145 -23q-62 0 -124 24t-118.5 68t-105 105.5t-84 136t-56 160.5t-20.5 178q0 115 25.5 225t76 208.5t125.5 181t174.5 143t222.5 94t269 33.5q75 0 141.5 -2t139.5 -9
t160.5 -20t205.5 -35q258 -46 460 -79.5t362.5 -57.5t286.5 -39t233.5 -24t203.5 -12.5t195 -4.5q11 -11 20 -29.5t15.5 -40.5t10 -44.5t3.5 -41.5q0 -97 -43.5 -176t-119.5 -135.5t-177 -87.5t-217 -31q-52 0 -116.5 4t-134.5 13t-143 23t-142 34q-23 -69 -41.5 -135.5
t-34.5 -138t-31.5 -151.5t-32.5 -177q50 -6 93 -13t84 -7q75 2 136.5 7t113.5 13t96 18.5t84 22.5q14 -11 27 -29t23.5 -40t16.5 -45.5t6 -45.5q0 -101 -36 -176.5t-100.5 -125.5t-153 -74.5t-193.5 -24.5q-42 0 -90 6t-90 13q-49 8 -98 18q-3 -17 -12 -56.5t-21 -89.5
t-25 -104.5t-24.5 -103.5t-20.5 -86.5t-12 -51.5q-41 -182 -98.5 -346.5t-132.5 -304.5t-167 -253t-202 -192t-237 -122t-273 -43q-154 0 -271 41.5t-196 117.5t-119.5 184t-40.5 242q0 77 19 158t67 171.5t131.5 192.5t213 221t310 256.5t422.5 299.5q-52 43 -81 103
t-29 122q0 53 26 101t84 79q28 16 64 23t80 10q21 88 46.5 165t57.5 153t71.5 154t90.5 167q-163 52 -300.5 87.5t-254.5 57t-214.5 30.5t-180.5 9q-166 0 -245 -77t-79 -222zM1331 836q-177 -165 -291 -290t-180.5 -221t-92.5 -167.5t-26 -128.5q0 -63 11 -107t31 -71
t48 -39.5t62 -12.5q57 0 114.5 63.5t113.5 192t109 323.5t101 458z" />
    <glyph glyph-name="G" unicode="G" horiz-adv-x="2359" 
d="M2154 545q-3 -119 -15 -244t-36.5 -249t-63 -242.5t-94.5 -224t-130.5 -194t-172 -152.5t-218.5 -100t-269 -36q-140 0 -266.5 25t-234.5 72t-195 114t-148 150.5t-94 182.5t-33 210q0 69 17 130.5t50.5 113t84.5 91.5t119 66q-106 108 -157.5 269t-51.5 362
q0 198 40.5 394t113.5 381t173.5 355.5t220 318.5t254 269t275 207t283 133t278.5 47q137 0 232 -37t154.5 -103t86.5 -157t27 -198q0 -91 -17 -177.5t-48.5 -162.5t-75 -139t-95.5 -108.5t-111.5 -71t-123.5 -25.5q-59 0 -106.5 18t-65.5 55q12 35 26 87t25.5 109t19 113
t7.5 101q0 59 -6.5 98t-19.5 63t-33 34t-48 10q-58 0 -124.5 -35.5t-136 -99.5t-138 -152.5t-131.5 -195t-117.5 -227t-94 -248t-62.5 -258.5t-23 -259q0 -101 24.5 -176.5t69.5 -125.5t108.5 -74.5t141.5 -24.5q80 0 173.5 23t186.5 67q8 131 12.5 235t13 183.5t24 136.5
t46 93t79.5 52.5t124 16.5q85 0 166 -13.5t144.5 -40t102 -64.5t38.5 -87t-12 -100t-34 -108t-53 -123t-69 -144zM958 70q-139 0 -249 36q52 -110 118.5 -201.5t144.5 -156.5t165.5 -101t181.5 -36q76 0 123.5 25t74.5 70.5t38.5 108.5t15 139.5t3 164t3.5 180.5
q-69 -52 -145 -94.5t-155 -72.5t-160 -46t-159 -16z" />
    <glyph glyph-name="J" unicode="J" horiz-adv-x="2941" 
d="M1327 -291q132 0 236.5 84.5t181.5 235.5q-64 2 -143.5 10.5t-165.5 22.5t-175.5 33t-175 41.5t-163 48t-140.5 53.5q29 -118 82 -215.5t124.5 -167.5t157.5 -108t181 -38zM2208 2322q-62 0 -125 -53t-122 -139.5t-111.5 -197.5t-95 -227t-72.5 -227.5t-44 -199.5
q-40 -16 -76.5 -22.5t-70.5 -6.5q-70 0 -126.5 29t-95.5 81.5t-60 126.5t-21 165q0 89 25 192.5t72 212t114 217.5t151.5 209t184.5 187t213 151t237 100.5t256 36.5q144 0 250 -39.5t175 -120t102.5 -203t33.5 -288.5q0 -84 -10 -188t-27.5 -222t-42 -245.5t-54.5 -257.5
t-63 -259.5t-68.5 -250t-72 -229.5t-71.5 -199q84 41 164 95t156.5 124t150 158.5t143.5 199.5q29 0 56 -9t47.5 -26t32.5 -41t12 -55q0 -57 -29 -128.5t-85 -150.5t-137 -161.5t-184.5 -162t-229 -152t-269.5 -130.5q-109 -212 -236.5 -367.5t-276 -257.5t-319.5 -152
t-368 -50q-169 0 -319 38t-276.5 106t-227.5 163.5t-171 210.5t-107.5 246.5t-37.5 271.5q0 174 43.5 297.5t115 202t163 115.5t186.5 37q48 0 82.5 -18t57 -49.5t33.5 -74.5t11 -92q74 -33 166.5 -65.5t193 -62.5t205 -56.5t201.5 -47t183 -34t149 -17.5q38 101 76 220
t73.5 247.5t68.5 262.5t61.5 265t51.5 255t39.5 232.5t25.5 196.5t9 148q0 62 -14.5 98.5t-54.5 36.5z" />
    <glyph glyph-name="Y" unicode="Y" horiz-adv-x="2974" 
d="M2535 303q99 71 190.5 148t179 167t172.5 196t171 235q28 -2 53.5 -10.5t45.5 -25t32 -41.5t12 -59q0 -77 -45.5 -171t-122.5 -196.5t-179 -208.5t-215 -206t-230.5 -189.5t-226.5 -158.5q-43 -92 -97.5 -180t-119 -166t-138.5 -143t-156 -112t-172 -73.5t-186 -26.5
q-47 0 -99 11.5t-102.5 33.5t-96 54t-80.5 72t-55.5 88t-20.5 102q0 63 50 130.5t156 147t271 174t395 211.5q21 53 40.5 120t38.5 144.5t38 163.5t39 175q-83 -114 -181.5 -203.5t-204.5 -152t-216 -95.5t-218 -33q-118 0 -210 37.5t-155.5 105t-96.5 161.5t-33 208
q0 56 7 115t22.5 126.5t39.5 144.5t58 167q-140 5 -264.5 48t-217.5 119.5t-147.5 183.5t-54.5 239q0 109 42 216t114.5 208t170.5 193.5t210 172.5t233 145t239 111.5t227.5 71.5t200.5 25q208 0 313 -84.5t105 -251.5q0 -39 -4 -76.5t-18.5 -90t-43.5 -128.5t-78.5 -192
t-123.5 -281t-178 -395q-54 -120 -86.5 -200t-49.5 -135t-22.5 -92.5t-5.5 -72.5q0 -68 36 -103.5t95 -35.5q66 0 139 19t146 55t144 88.5t132 119.5q37 319 74 573.5t77 451.5t83.5 338t93 231.5t106.5 133t123 42.5q52 0 104 -17.5t99.5 -46.5t88 -68t70.5 -81t47 -85.5
t17 -82.5q0 -54 -13.5 -111.5t-41.5 -127t-72 -156.5t-106 -199q-23 -125 -48 -253t-49.5 -252.5t-48 -240.5t-44.5 -217.5t-38.5 -184t-29.5 -138.5q-22 -93 -48 -192.5t-51 -180.5zM754 1982q0 -51 13 -94.5t44.5 -84.5t84 -80t132.5 -81q66 143 130 265t114 222.5
t81 178.5t31 133q0 53 -18.5 71.5t-58.5 18.5q-29 0 -81 -20.5t-113.5 -57t-125 -87.5t-115.5 -112t-85 -130t-33 -142z" />
    <glyph glyph-name="I" unicode="I" horiz-adv-x="2060" 
d="M655 2617q0 63 25.5 115t81 89.5t142.5 58t210 20.5q114 0 210 -1t180.5 -2.5t160.5 -3t150 -1.5q71 0 134.5 4.5t125 14.5t122.5 25.5t125 37.5q34 -17 62.5 -43.5t49.5 -60t32.5 -72.5t11.5 -82q0 -102 -41 -180t-115.5 -131t-178.5 -80t-230 -27
q-81 -356 -148.5 -639.5t-123.5 -503t-101 -380t-82 -271.5q124 0 236.5 -3t230.5 -9q28 -38 42.5 -90t14.5 -99q0 -98 -43 -163.5t-127 -104.5t-208 -55.5t-285 -16.5q-85 0 -164 2t-161.5 5.5t-172.5 7.5t-197 7.5t-235 6.5t-287 4q-18 18 -29.5 50.5t-11.5 72.5
q0 81 37 141.5t122.5 103t226.5 70.5t348 45q57 201 115.5 434.5t116 482.5t114 505t108.5 503q-139 25 -280 50t-277 40q-18 25 -27.5 57t-9.5 66z" />
    <glyph glyph-name="H" unicode="H" horiz-adv-x="3572" 
d="M2142 3187q75 0 137 -37t106.5 -120t68.5 -216.5t24 -327.5q0 -85 -7 -189.5t-19.5 -218t-29.5 -231.5t-36.5 -230t-40.5 -213.5t-43 -182.5q42 9 89 19t95 21.5t94 25t86 28.5q57 324 114.5 572.5t120.5 433t133 309.5t150 201.5t172 109.5t199 33q86 0 159 -24t126 -69
t83 -109.5t30 -145.5q0 -26 -6.5 -54t-17.5 -54t-26 -49t-32 -40q-85 -8 -148 -21t-111.5 -41.5t-85.5 -78t-71 -130.5t-68.5 -199t-76.5 -284q37 -17 63 -42.5t43 -55.5t25 -62t8 -61q0 -69 -23 -131.5t-59 -116t-80.5 -96.5t-87.5 -74q-17 -92 -32 -177t-26 -155.5
t-17.5 -123.5t-6.5 -80q0 -32 3 -53t10 -33t18 -16.5t26 -4.5q25 0 87 35.5t151 112t200 198t234 293.5q31 0 59.5 -9t51 -26t36 -42.5t13.5 -57.5q0 -51 -32 -123.5t-89 -157t-135 -175.5t-170 -178t-193.5 -165t-206.5 -137.5t-208.5 -94t-198.5 -34.5q-70 0 -124.5 17.5
t-91.5 55.5t-56 98t-19 144q0 43 7.5 118t21.5 172.5t33.5 212t44.5 235.5q-32 -9 -79.5 -19t-104 -20t-118.5 -18.5t-124 -16.5q-65 -158 -145.5 -304t-175 -273t-203 -231t-229.5 -178.5t-254.5 -115.5t-278.5 -41q-108 0 -206 27t-183 76.5t-153.5 119.5t-117.5 156
t-75.5 186t-26.5 209q0 141 44 251.5t144.5 190t264 128.5t403.5 69q97 8 185 14.5t173.5 12t171.5 11t178 11.5q15 71 30 165t29.5 198.5t27.5 213.5t23 209.5t15.5 186t5.5 142.5q0 66 -23 129t-50.5 126.5t-50.5 130t-23 138.5q0 74 20 133.5t54.5 106t81 80t99.5 55.5
t110.5 32.5t113.5 10.5zM1036 676q-83 -4 -139.5 -16.5t-91 -32t-49.5 -45.5t-15 -58q0 -41 15 -81.5t40.5 -77t60 -68.5t74 -55t82.5 -36t85 -13q72 0 138.5 40.5t125.5 111t110 166t93 206.5q-78 -8 -143 -13.5t-126 -10t-123.5 -8.5t-136.5 -9z" />
    <glyph glyph-name="uni00A0" unicode="&#xa0;" horiz-adv-x="901" 
 />
    <glyph glyph-name="V" unicode="V" horiz-adv-x="2937" 
d="M2658 3011q134 0 237 -55t173.5 -149t106.5 -218t36 -262q0 -207 -43.5 -420t-122 -420.5t-187 -403t-238 -368t-276 -316t-300 -247t-311 -161t-308.5 -57.5q-199 0 -335 55t-218.5 152t-118.5 229t-36 285q0 124 42 282t126 353q-140 5 -263.5 47.5t-216 118.5
t-146.5 182t-54 238q0 109 38.5 218t106 213t158.5 200.5t195.5 180.5t218.5 153.5t226.5 119t219 76.5t197.5 27q112 0 202 -25.5t153.5 -82t97.5 -148t34 -223.5q0 -80 -15.5 -165t-44.5 -180t-71 -203.5t-95.5 -234.5t-118 -273.5t-138.5 -320.5q-37 -87 -62 -157
t-40.5 -129t-22 -110.5t-6.5 -102.5q0 -43 10 -81t31.5 -66.5t56.5 -45t86 -16.5q64 0 138 35.5t152.5 101t157 157.5t151 204.5t135 242.5t109 271t73 291t26.5 302q0 72 -16 148t-51 155.5t-90.5 164.5t-133.5 175q12 66 46 115.5t84 82.5t115 49t140 16zM754 1978
q0 -51 14.5 -94t48.5 -83t88.5 -78.5t134.5 -80.5q66 143 127.5 267t109 226.5t75.5 183t28 135.5q0 38 -4.5 61.5t-14 36t-24 16.5t-34.5 4q-29 0 -80.5 -24t-112.5 -65.5t-124.5 -98.5t-115 -123t-84 -138t-32.5 -145z" />
    <glyph glyph-name="aogonek" unicode="&#x105;" 
d="M971 475q-49 -140 -107.5 -231.5t-119.5 -145.5t-121.5 -76t-114.5 -22q-88 0 -162.5 36t-128.5 107t-84.5 177t-30.5 245q0 154 39.5 307t107.5 292.5t158.5 260t192.5 209t210 139t210 50.5q43 0 67 -6.5t39 -22.5l13 238q24 27 62 40t81 13q105 0 185 -32t134.5 -80.5
t82.5 -107t28 -112.5q0 -40 -10 -112t-35 -158q-54 -193 -91.5 -340t-61 -254t-34 -177t-10.5 -110q0 -31 3 -49.5t9.5 -28.5t16 -13t21.5 -3q31 0 85 30t126 94t160 163t186 237q32 0 60 -9.5t48 -26.5t31.5 -40t11.5 -51q0 -50 -30 -116t-81 -140.5t-119.5 -153
t-146.5 -152.5q-54 -52 -111 -100q-64 -102 -118 -195q-55 -96 -94 -176.5t-60.5 -139.5t-21.5 -88q0 -28 14 -48.5t42 -38t70 -35t99 -38.5q10 -16 13.5 -41t3.5 -41q0 -49 -29.5 -101.5t-82 -95.5t-125.5 -70.5t-161 -27.5q-81 0 -146.5 22t-111 60.5t-70 92t-24.5 116.5
q0 45 12 96.5t41 115t77 140.5t120 172q22 29 45 58q-55 3 -102 16q-55 15 -93 53.5t-59 103t-21 162.5q0 34 3.5 74t9.5 86zM1106 1528q-77 -49 -149 -133.5t-128 -190.5t-90 -225t-34 -238q0 -57 8.5 -90t23 -50.5t34 -22.5t40.5 -5q43 0 85 28t79 75z" />
    <glyph glyph-name="exclamdown" unicode="&#xa1;" horiz-adv-x="1454" 
d="M574 909q15 9 45 17t61 8q64 0 114.5 -32.5t85.5 -85.5t53 -121t18 -138q0 -45 -4 -108.5t-12.5 -140t-20.5 -164t-28.5 -180t-37 -187.5t-45.5 -187q25 -59 37 -125.5t12 -128.5q0 -53 -23 -108t-64.5 -106.5t-97.5 -97t-122.5 -79t-140.5 -53t-150 -19.5
q-65 0 -108.5 12.5t-70.5 36.5t-38.5 60t-11.5 84q0 40 12.5 99t39 134t66.5 164t95 189q49 142 93 286.5t85.5 298.5t80 320t77.5 352zM975 1896q66 0 126 -28t106 -74.5t73 -105.5t27 -120q0 -50 -23.5 -99t-63.5 -93.5t-92.5 -83t-111.5 -66t-120 -43.5t-117 -16
t-93 11.5t-59 34t-31.5 55t-9.5 75.5q0 59 13.5 123.5t38.5 126t60 116.5t78 96.5t93.5 66t105.5 24.5z" />
    <glyph glyph-name="questiondown" unicode="&#xbf;" horiz-adv-x="1753" 
d="M1183 1872q74 0 148 -25.5t133 -73t96 -114t37 -147.5q0 -66 -35 -132.5t-94.5 -120t-138.5 -87t-166 -33.5q-71 0 -120.5 16t-81 46t-46 72.5t-14.5 94.5q0 108 18.5 200t54.5 159.5t88.5 106t120.5 38.5zM757 504q16 50 22.5 102.5t6.5 114.5q0 61 -12 135q10 17 27 32
t41 26t56.5 17.5t75.5 6.5q64 0 121 -27t99.5 -74.5t67 -111t24.5 -135.5q0 -49 -14.5 -94t-53.5 -93t-106.5 -102.5t-173.5 -123.5q-101 -67 -174 -118.5t-124.5 -93t-83.5 -74.5t-50 -62.5t-24.5 -58t-6.5 -60.5q0 -25 10 -51t38.5 -47.5t79.5 -35.5t134 -14
q28 0 64.5 1.5t77.5 4.5t84.5 8t84.5 11q31 -15 53.5 -39.5t37 -54.5t21.5 -64t7 -68q0 -97 -38.5 -185t-111 -155t-178.5 -107t-241 -40q-103 0 -197.5 25.5t-177 71.5t-150 110t-116 141t-75 165.5t-26.5 182.5q0 68 12 125t47 114.5t97 121.5t162 145t243.5 185.5
t339.5 242.5z" />
    <glyph glyph-name="cacute" unicode="&#x107;" horiz-adv-x="1384" 
d="M676 -37q-151 0 -259.5 46t-178.5 134.5t-103 217t-33 294.5q0 158 39.5 312t107.5 293.5t159.5 258t196.5 205.5t217.5 136t221.5 49q105 0 183 -27t130.5 -78t78.5 -125t26 -168q0 -98 -32 -184t-85 -149.5t-121.5 -100.5t-142.5 -37q-68 0 -109.5 20.5t-66.5 57.5
q22 84 31.5 151t9.5 107q0 44 -17 65t-36 21q-29 0 -67.5 -47.5t-72.5 -135.5t-57.5 -213t-23.5 -280q0 -84 12 -144t38.5 -98t68.5 -55.5t102 -17.5q86 0 185.5 42t200.5 118t199 182.5t181 235.5q28 0 56.5 -9t51.5 -26.5t37.5 -43t14.5 -57.5q0 -53 -29 -122t-80 -145.5
t-122 -157t-155 -156.5t-178 -143t-191.5 -117t-196 -79.5t-191.5 -29.5zM1597 3195q69 0 121.5 -19t87.5 -53t52.5 -81.5t17.5 -104.5q0 -181 -315 -508q-63 -64 -132 -119t-135.5 -95t-127.5 -62.5t-109 -22.5q-44 0 -69 25.5t-25 81.5q106 153 186.5 276.5t134.5 225.5
t81.5 186.5t27.5 159.5q34 52 85 81t119 29z" />
    <glyph glyph-name="ccircumflex" unicode="&#x109;" horiz-adv-x="1384" 
d="M676 -37q-151 0 -259.5 46t-178.5 134.5t-103 217t-33 294.5q0 158 39.5 312t107.5 293.5t159.5 258t196.5 205.5t217.5 136t221.5 49q105 0 183 -27t130.5 -78t78.5 -125t26 -168q0 -98 -32 -184t-85 -149.5t-121.5 -100.5t-142.5 -37q-68 0 -109.5 20.5t-66.5 57.5
q22 84 31.5 151t9.5 107q0 44 -17 65t-36 21q-29 0 -67.5 -47.5t-72.5 -135.5t-57.5 -213t-23.5 -280q0 -84 12 -144t38.5 -98t68.5 -55.5t102 -17.5q86 0 185.5 42t200.5 118t199 182.5t181 235.5q28 0 56.5 -9t51.5 -26.5t37.5 -43t14.5 -57.5q0 -53 -29 -122t-80 -145.5
t-122 -157t-155 -156.5t-178 -143t-191.5 -117t-196 -79.5t-191.5 -29.5zM1306 2306q0 128 -2 210.5t-9 130.5t-20 66.5t-34 18.5q-31 0 -73 -37t-90 -111t-98 -185.5t-96 -260.5q-21 -9 -40.5 -12.5t-41.5 -3.5q-30 0 -57.5 11.5t-48.5 34t-33 56t-12 78.5q0 48 17 111.5
t48.5 135t76 146.5t99 146.5t118 135t132.5 111t142.5 75.5t148.5 28q105 0 170 -38.5t101 -127.5t48.5 -235t12.5 -361q0 -31 2.5 -79t5.5 -97q-18 -32 -48.5 -61t-69.5 -51t-84 -35t-93 -13q-95 0 -133.5 53t-38.5 160z" />
    <glyph glyph-name="macron" unicode="&#xaf;" horiz-adv-x="2048" 
d="M725 2675q141 8 244 16t180.5 17t135 20.5t108 27.5t100 36t109.5 47q61 -16 94 -61.5t33 -111.5q0 -81 -45.5 -142.5t-140.5 -102.5t-241.5 -61.5t-347.5 -20.5q-123 0 -246.5 5.5t-244.5 14.5q-11 9 -19.5 23t-14 29t-8.5 29.5t-3 25.5q0 41 17.5 77t54.5 64t95.5 45.5
t139.5 22.5z" />
    <glyph glyph-name="emacron" unicode="&#x113;" horiz-adv-x="1470" 
d="M983 1339q0 65 -22.5 100.5t-59.5 35.5q-21 0 -50.5 -26.5t-58.5 -79.5t-52.5 -133t-34.5 -187q86 15 140 45.5t85 69.5t42 84t11 91zM688 -37q-150 0 -260.5 46t-183 134.5t-107.5 217t-35 294.5q0 155 39 307.5t106 291.5t156.5 258t189.5 206.5t205.5 137t205.5 49.5
q212 0 325 -103.5t113 -318.5q0 -129 -40 -242.5t-130.5 -208t-236 -167t-355.5 -120.5q0 -69 8.5 -122.5t30 -89.5t60 -55t98.5 -19q104 0 220.5 42.5t232 120.5t224 187.5t195.5 243.5q37 -1 66 -13.5t49 -31t30.5 -42.5t10.5 -48q0 -57 -30.5 -128.5t-85 -149
t-129.5 -158t-164 -156t-189 -141.5t-204 -115.5t-209.5 -78t-205.5 -28.5zM881 2552q141 8 244 16t180.5 17t135 20.5t108 27.5t100 36t109.5 47q61 -16 94 -61.5t33 -111.5q0 -81 -45.5 -142.5t-140.5 -102.5t-241.5 -61.5t-347.5 -20.5q-123 0 -246.5 5.5t-244.5 14.5
q-11 9 -19.5 23t-14 29t-8.5 29.5t-3 25.5q0 41 17.5 77t54.5 64t95.5 45.5t139.5 22.5z" />
    <glyph glyph-name="amacron" unicode="&#x101;" 
d="M971 475q-49 -140 -107.5 -231.5t-119.5 -145.5t-121.5 -76t-114.5 -22q-88 0 -162.5 36t-128.5 107t-84.5 177t-30.5 245q0 154 39.5 307t107.5 292.5t158.5 260t192.5 209t210 139t210 50.5q43 0 67 -6.5t39 -22.5l13 238q24 27 62 40t81 13q105 0 185 -32t134.5 -80.5
t82.5 -107t28 -112.5q0 -40 -10 -112t-35 -158q-54 -193 -91.5 -340t-61 -254t-34 -177t-10.5 -110q0 -31 3 -49.5t9.5 -28.5t16 -13t21.5 -3q31 0 85 30t126 94t160 163t186 237q32 0 60 -9.5t48 -26.5t31.5 -40t11.5 -51q0 -50 -30 -116t-81 -140.5t-119.5 -153
t-146 -152.5t-160 -140t-161.5 -115.5t-150.5 -78.5t-126.5 -29q-67 0 -122 15.5t-93 54t-59 103t-21 162.5q0 34 3.5 74t9.5 86zM1106 1528q-77 -49 -149 -133.5t-128 -190.5t-90 -225t-34 -238q0 -57 8.5 -90t23 -50.5t34 -22.5t40.5 -5q43 0 85 28t79 75zM995 2708
q141 8 244 16t180.5 17t135 20.5t108 27.5t100 36t109.5 47q61 -16 94 -61.5t33 -111.5q0 -81 -45.5 -142.5t-140.5 -102.5t-241.5 -61.5t-347.5 -20.5q-123 0 -246.5 5.5t-244.5 14.5q-11 9 -19.5 23t-14 29t-8.5 29.5t-3 25.5q0 41 17.5 77t54.5 64t95.5 45.5t139.5 22.5z
" />
    <glyph glyph-name="periodcentered" unicode="&#xb7;" horiz-adv-x="1724" 
d="M1082 569q-74 0 -135 33.5t-105 90t-68 131t-24 155.5q0 75 36 137.5t96.5 107.5t139 70t162.5 25q71 0 124.5 -13t89.5 -36.5t54.5 -56t18.5 -70.5q0 -59 -13.5 -125t-38.5 -129.5t-60 -121.5t-78 -102t-93.5 -70t-105.5 -26z" />
    <glyph glyph-name="uni03A9" unicode="&#x3a9;" horiz-adv-x="3146" 
d="M2425 369q102 0 171 18t103 55q34 38 55 106t27 173h94l9 -721h-1115l-8 737q320 62 500 316q93 124 136.5 278t43.5 340q-3 217 -62.5 387.5t-183.5 300.5q-123 130 -283 194t-364 64q-403 0 -643 -258q-117 -127 -176.5 -297.5t-56.5 -390.5q0 -186 47.5 -340
t140.5 -278q93 -127 220 -204.5t288 -111.5l8 -737h-1114l-8 721h94q12 -204 86 -279q37 -37 105 -55t174 -18h504l-5 241q-244 44 -430.5 135t-322.5 230q-136 142 -201.5 314t-69.5 382q-6 493 369 795q189 148 435.5 223.5t555.5 75.5t556 -75.5t436 -223.5
q191 -152 286 -349.5t99 -445.5q3 -210 -63 -381.5t-200 -310.5q-258 -282 -745 -369l4 -241h504z" />
    <glyph glyph-name="uni03BC" unicode="&#x3bc;" horiz-adv-x="2359" 
d="M672 627q6 -292 61 -389q28 -50 79.5 -74.5t125.5 -24.5q118 0 214.5 82.5t170.5 249.5q77 164 114.5 371.5t37.5 464.5l-5 532h377l8 -1343q4 -93 13.5 -160t27.5 -111q22 -43 50.5 -64.5t68.5 -21.5q89 0 131 86q22 44 33 105.5t8 144.5v57h86q0 -9 2 -18t2 -18
q0 -10 2 -22.5t2 -31.5q0 -114 -24 -202t-74 -150q-46 -65 -112.5 -96t-153.5 -31q-105 0 -184 43t-131 133q-53 87 -79 218t-32 311q-43 -183 -105.5 -316t-140.5 -217q-80 -87 -176 -129.5t-217 -42.5q-178 0 -303 107q-59 55 -99 132.5t-65 182.5q0 -19 -2 -46.5
t-2 -68.5q0 -130 35 -273t100 -304q71 -161 103 -255t32 -122q0 -40 -11.5 -71t-33.5 -56q-25 -22 -56 -33.5t-71 -11.5q-46 0 -79.5 15.5t-55.5 49.5q-19 35 -30 89.5t-11 132.5q0 18 0.5 76.5t3.5 160.5q3 99 5 190t-1 175q0 74 -0.5 177t-3.5 236q-12 271 -12 390
l-8 1003h377l8 -1212v0z" />
    <glyph glyph-name="uni0394" unicode="&#x394;" horiz-adv-x="2507" 
d="M1901 184l-779 1880l-749 -1880h1528zM86 0l1106 2753h90l1155 -2753h-2351z" />
    <glyph glyph-name="estimated" unicode="&#x212e;" horiz-adv-x="3342" 
d="M745 1253q-20 0 -20 -20v-729q0 -48 33 -86q86 -91 189.5 -163.5t220 -123.5t244.5 -78.5t263 -27.5q144 0 280 31t258.5 88.5t229.5 139.5t195 183h217q-101 -118 -231 -214.5t-281.5 -165.5t-321 -106.5t-350.5 -37.5q-206 0 -396.5 47.5t-356.5 135t-303 209.5
t-234.5 271.5t-151 321.5t-53.5 358q0 187 53.5 359t151 322t234.5 273t303 210.5t356.5 135.5t396.5 48t396.5 -48t356.5 -135.5t303 -210.5t234.5 -273t151 -322t53.5 -359v-33h-2421zM2617 2085q0 28 -9 47.5t-28 38.5q-86 87 -188.5 157.5t-217.5 120t-241 76.5t-258 27
q-135 0 -262.5 -27.5t-243.5 -78t-218.5 -122.5t-188.5 -161q-37 -37 -37 -95v-720q0 -21 20 -21h1856q16 0 16 21v737z" />
    <glyph glyph-name="afii61289" unicode="&#x2113;" horiz-adv-x="1720" 
d="M467 1733q0 233 42 425t125 328.5t206 211.5t286 75q94 0 169.5 -34t129 -93t82.5 -139t29 -172q0 -122 -33 -234.5t-89.5 -216t-131.5 -200t-160.5 -186t-175.5 -173t-176 -162.5v-483q0 -144 19 -249.5t59.5 -173.5t104.5 -101t153 -33q46 0 97 15.5t104 57t107 113
t106 183.5q9 8 22 5.5t25.5 -11.5t21 -23t8.5 -29q-183 -491 -606 -491q-152 0 -253 53.5t-161 149t-85 228t-25 290.5v233q-84 -80 -164 -144.5t-164 -129.5q-9 0 -19 7t-17 17t-10 22.5t1 22.5q87 78 180.5 159.5t192.5 180.5v701zM770 1327q149 137 257 263.5t178.5 245
t104 230.5t33.5 220q0 63 -14 126.5t-46.5 114.5t-86 83t-131.5 32q-66 0 -120.5 -33t-93 -99t-60 -165t-21.5 -231v-787z" />
    <glyph glyph-name="uni2219" unicode="&#x2219;" horiz-adv-x="1724" 
d="M1082 569q-74 0 -135 33.5t-105 90t-68 131t-24 155.5q0 75 36 137.5t96.5 107.5t139 70t162.5 25q71 0 124.5 -13t89.5 -36.5t54.5 -56t18.5 -70.5q0 -59 -13.5 -125t-38.5 -129.5t-60 -121.5t-78 -102t-93.5 -70t-105.5 -26z" />
    <glyph glyph-name="W" unicode="W" horiz-adv-x="3879" 
d="M885 1290q-140 5 -263.5 47.5t-216 118.5t-146.5 182t-54 238q0 109 38.5 218t106 213t158.5 200.5t195.5 180.5t218.5 153.5t226.5 119t219 76.5t197.5 27q112 0 202 -25.5t153.5 -82t97.5 -148t34 -223.5q0 -120 -43 -259t-117 -310t-172 -380t-209 -469
q-37 -87 -62 -159t-40.5 -133.5t-22 -115t-6.5 -104.5q0 -43 12.5 -81t37.5 -66.5t62.5 -45t88.5 -16.5q54 0 106 25.5t105 72.5t108 113.5t115 149.5q0 142 16 285t45 280.5t70 265.5t92 240t110 204.5t123.5 158.5t133 102.5t139.5 36.5q66 0 120.5 -19t93 -55t60 -88.5
t21.5 -120.5q0 -171 -50 -349.5t-131 -356.5t-183.5 -350t-208.5 -328q14 -58 32.5 -106t43 -81.5t55.5 -52t69 -18.5q64 0 133.5 37.5t140.5 106t140 164.5t131.5 213t115.5 251t92 278.5t61 296t22 303.5q0 86 -16.5 159t-52.5 144.5t-93.5 147.5t-140.5 168
q25 132 123.5 197t249.5 65q134 0 235 -57t168.5 -153t102 -222t34.5 -264q0 -207 -33 -418t-94.5 -415t-148 -395.5t-193.5 -359.5t-231.5 -308t-261.5 -240t-284 -155.5t-298 -55.5q-154 0 -280.5 88t-206.5 272q-100 -112 -200.5 -192.5t-203 -132.5t-206 -76.5
t-209.5 -24.5q-155 0 -267.5 45t-185 127.5t-107 199t-34.5 259.5q0 59 12 142.5t38 184.5t67.5 216.5t99.5 238.5zM754 1978q0 -51 14.5 -94t48.5 -83t88.5 -78.5t134.5 -80.5q66 143 127.5 267t109 226.5t75.5 183t28 135.5q0 38 -4.5 61.5t-14 36t-24 16.5t-34.5 4
q-29 0 -80.5 -24t-112.5 -65.5t-124.5 -98.5t-115 -123t-84 -138t-32.5 -145z" />
    <glyph glyph-name="breve" unicode="&#x2d8;" horiz-adv-x="1638" 
d="M803 3047q-40 -96 -61 -175t-21 -144q0 -31 14.5 -59.5t42.5 -51t69 -36t95 -13.5q56 0 105 25t93.5 84t85 155.5t77.5 239.5q21 9 40.5 12.5t40.5 3.5q31 0 58.5 -11.5t48.5 -34t33 -56t12 -78.5q0 -89 -25.5 -180t-71.5 -175t-111 -157.5t-144 -128t-169.5 -86
t-187.5 -31.5q-124 0 -215 32.5t-150.5 87.5t-88.5 126t-29 148q0 72 11.5 144t33 138.5t52 124t68 100t82 67t93.5 24.5q23 0 44.5 -5.5t38 -17t26.5 -29.5t10 -43z" />
    <glyph glyph-name="abreve" unicode="&#x103;" 
d="M971 475q-49 -140 -107.5 -231.5t-119.5 -145.5t-121.5 -76t-114.5 -22q-88 0 -162.5 36t-128.5 107t-84.5 177t-30.5 245q0 154 39.5 307t107.5 292.5t158.5 260t192.5 209t210 139t210 50.5q43 0 67 -6.5t39 -22.5l13 238q24 27 62 40t81 13q105 0 185 -32t134.5 -80.5
t82.5 -107t28 -112.5q0 -40 -10 -112t-35 -158q-54 -193 -91.5 -340t-61 -254t-34 -177t-10.5 -110q0 -31 3 -49.5t9.5 -28.5t16 -13t21.5 -3q31 0 85 30t126 94t160 163t186 237q32 0 60 -9.5t48 -26.5t31.5 -40t11.5 -51q0 -50 -30 -116t-81 -140.5t-119.5 -153
t-146 -152.5t-160 -140t-161.5 -115.5t-150.5 -78.5t-126.5 -29q-67 0 -122 15.5t-93 54t-59 103t-21 162.5q0 34 3.5 74t9.5 86zM1106 1528q-77 -49 -149 -133.5t-128 -190.5t-90 -225t-34 -238q0 -57 8.5 -90t23 -50.5t34 -22.5t40.5 -5q43 0 85 28t79 75zM1335 3207
q-40 -96 -61 -175t-21 -144q0 -31 14.5 -59.5t42.5 -51t69 -36t95 -13.5q56 0 105 25t93.5 84t85 155.5t77.5 239.5q21 9 40.5 12.5t40.5 3.5q31 0 58.5 -11.5t48.5 -34t33 -56t12 -78.5q0 -89 -25.5 -180t-71.5 -175t-111 -157.5t-144 -128t-169.5 -86t-187.5 -31.5
q-124 0 -215 32.5t-150.5 87.5t-88.5 126t-29 148q0 72 11.5 144t33 138.5t52 124t68 100t82 67t93.5 24.5q23 0 44.5 -5.5t38 -17t26.5 -29.5t10 -43z" />
    <glyph glyph-name="cedilla" unicode="&#xb8;" horiz-adv-x="2048" 
d="M1331 61q3 -37 3.5 -73t0.5 -70q0 -220 -43 -391.5t-122 -289.5t-191 -179.5t-250 -61.5q-97 0 -172 28.5t-127 79.5t-79 122t-27 156q0 41 13 81.5t38.5 74t63.5 56.5t89 29q29 -32 61 -59t63.5 -46.5t61.5 -30.5t56 -11q48 0 89.5 39.5t75.5 115t58.5 184t38.5 246.5
h299z" />
    <glyph glyph-name="hungarumlaut" unicode="&#x2dd;" horiz-adv-x="2048" 
d="M807 3138q63 0 110.5 -17.5t79.5 -49t48 -74t16 -93.5q0 -42 -12 -91.5t-40.5 -107.5t-75.5 -124t-118 -140q-58 -60 -121 -110.5t-124 -86.5t-116 -56.5t-98 -20.5q-40 0 -63 22.5t-23 75.5q97 140 163.5 252.5t107.5 205t59 169t18 143.5q31 50 79 76.5t110 26.5z
M1659 3244q69 0 121 -19t87 -53t52.5 -81.5t17.5 -104.5q0 -45 -13.5 -99t-45 -118t-84.5 -137t-131 -154q-63 -64 -132 -119t-135.5 -95t-127.5 -62.5t-109 -22.5q-43 0 -68.5 25.5t-25.5 81.5q106 153 180 276.5t120.5 225.5t67.5 186t21 159q34 53 85.5 82t119.5 29z" />
    <glyph glyph-name="bullet" unicode="&#x2022;" horiz-adv-x="1995" 
d="M1221 401q-99 0 -180.5 45t-140 120t-90.5 173.5t-32 206.5q0 102 22.5 185.5t72.5 143.5t129.5 93t193.5 33q138 0 240.5 -31t170 -81t101 -114.5t33.5 -130.5q0 -80 -18 -158.5t-51 -150t-80 -132.5t-105 -106t-125 -70.5t-141 -25.5z" />
    <glyph glyph-name="Amacron" unicode="&#x100;" horiz-adv-x="3482" 
d="M799 877q86 2 175 4.5t183.5 7t195.5 9.5t212 11q59 78 134 181.5t161 225.5t181.5 259.5t196 283t205 296.5t207.5 299q29 118 81.5 223t129.5 183.5t179 124.5t229 46q83 0 146 -24.5t106 -63.5t67 -88t29 -98q0 -31 -15.5 -61t-58 -70t-118.5 -94t-197 -132
q-22 -112 -39 -247t-30.5 -279t-23.5 -290t-18 -281q74 -13 117 -60t43 -137q0 -43 -13 -87.5t-36.5 -87.5t-56 -82t-70.5 -71q0 -66 1 -116.5t6.5 -84.5t18 -51.5t35.5 -17.5q21 0 74 25t129.5 85.5t173 162.5t205.5 255h16q29 0 57 -10t50 -28t35.5 -43t13.5 -54
q0 -51 -32 -121.5t-88 -150.5t-131.5 -165.5t-162.5 -166.5t-181.5 -153.5t-187.5 -127t-181 -86.5t-163 -32q-95 0 -163.5 21.5t-112 65t-64 108.5t-20.5 153v87.5t1.5 80.5t4 94t6.5 127q-66 -6 -147 -12.5t-168 -11.5t-174.5 -9.5t-165.5 -7.5q-115 -166 -216 -294.5
t-194 -224t-179.5 -160.5t-171.5 -105.5t-171 -58t-178 -17.5q-149 0 -267 44t-199.5 128.5t-125 207t-43.5 279.5q0 83 18.5 161.5t53 147.5t83.5 127t109 99.5t130 64.5t147 23q86 0 140.5 -34t76.5 -105zM836 274q51 0 98.5 14.5t99 48t110 89.5t130.5 139
q-88 -3 -166 -4.5t-149.5 -2.5t-137.5 -1h-129q-6 -22 -9 -48.5t-3 -41.5q0 -49 11.5 -85.5t32.5 -60.5t49.5 -35.5t62.5 -11.5zM2048 942q51 3 108 7t113.5 8t108.5 9t92 9q5 53 12 124.5t15.5 153t18.5 168t21.5 170t23 159t24.5 134.5q-34 -63 -77.5 -142t-92 -165
t-99.5 -175t-99 -172.5t-91.5 -157.5t-77.5 -130zM2978 3633q141 8 244 16t180.5 17t135 20.5t108 27.5t100 36t109.5 47q61 -16 94 -61.5t33 -111.5q0 -81 -45.5 -142.5t-140.5 -102.5t-241.5 -61.5t-347.5 -20.5q-123 0 -246.5 5.5t-244.5 14.5q-11 9 -19.5 23t-14 29
t-8.5 29.5t-3 25.5q0 41 17.5 77t54.5 64t95.5 45.5t139.5 22.5z" />
    <glyph glyph-name="Abreve" unicode="&#x102;" horiz-adv-x="3482" 
d="M799 877q86 2 175 4.5t183.5 7t195.5 9.5t212 11q59 78 134 181.5t161 225.5t181.5 259.5t196 283t205 296.5t207.5 299q29 118 81.5 223t129.5 183.5t179 124.5t229 46q83 0 146 -24.5t106 -63.5t67 -88t29 -98q0 -31 -15.5 -61t-58 -70t-118.5 -94t-197 -132
q-22 -112 -39 -247t-30.5 -279t-23.5 -290t-18 -281q74 -13 117 -60t43 -137q0 -43 -13 -87.5t-36.5 -87.5t-56 -82t-70.5 -71q0 -66 1 -116.5t6.5 -84.5t18 -51.5t35.5 -17.5q21 0 74 25t129.5 85.5t173 162.5t205.5 255h16q29 0 57 -10t50 -28t35.5 -43t13.5 -54
q0 -51 -32 -121.5t-88 -150.5t-131.5 -165.5t-162.5 -166.5t-181.5 -153.5t-187.5 -127t-181 -86.5t-163 -32q-95 0 -163.5 21.5t-112 65t-64 108.5t-20.5 153v87.5t1.5 80.5t4 94t6.5 127q-66 -6 -147 -12.5t-168 -11.5t-174.5 -9.5t-165.5 -7.5q-115 -166 -216 -294.5
t-194 -224t-179.5 -160.5t-171.5 -105.5t-171 -58t-178 -17.5q-149 0 -267 44t-199.5 128.5t-125 207t-43.5 279.5q0 83 18.5 161.5t53 147.5t83.5 127t109 99.5t130 64.5t147 23q86 0 140.5 -34t76.5 -105zM836 274q51 0 98.5 14.5t99 48t110 89.5t130.5 139
q-88 -3 -166 -4.5t-149.5 -2.5t-137.5 -1h-129q-6 -22 -9 -48.5t-3 -41.5q0 -49 11.5 -85.5t32.5 -60.5t49.5 -35.5t62.5 -11.5zM2048 942q51 3 108 7t113.5 8t108.5 9t92 9q5 53 12 124.5t15.5 153t18.5 168t21.5 170t23 159t24.5 134.5q-34 -63 -77.5 -142t-92 -165
t-99.5 -175t-99 -172.5t-91.5 -157.5t-77.5 -130zM3285 4137q-40 -96 -61 -175t-21 -144q0 -31 14.5 -59.5t42.5 -51t69 -36t95 -13.5q56 0 105 25t93.5 84t85 155.5t77.5 239.5q21 9 40.5 12.5t40.5 3.5q31 0 58.5 -11.5t48.5 -34t33 -56t12 -78.5q0 -89 -25.5 -180
t-71.5 -175t-111 -157.5t-144 -128t-169.5 -86t-187.5 -31.5q-124 0 -215 32.5t-150.5 87.5t-88.5 126t-29 148q0 72 11.5 144t33 138.5t52 124t68 100t82 67t93.5 24.5q23 0 44.5 -5.5t38 -17t26.5 -29.5t10 -43z" />
    <glyph glyph-name="Aogonek" unicode="&#x104;" horiz-adv-x="3482" 
d="M799 877q86 2 175 4.5t183.5 7t195.5 9.5t212 11q59 78 134 181.5t161 225.5t181.5 259.5t196 283t205 296.5t207.5 299q29 118 81.5 223t129.5 183.5t179 124.5t229 46q83 0 146 -24.5t106 -63.5t67 -88t29 -98q0 -31 -15.5 -61t-58 -70t-118.5 -94t-197 -132
q-22 -112 -39 -247t-30.5 -279t-23.5 -290t-18 -281q74 -13 117 -60t43 -137q0 -43 -13 -87.5t-36.5 -87.5t-56 -82t-70.5 -71q0 -66 1 -116.5t6.5 -84.5t18 -51.5t35.5 -17.5q21 0 74 25t129.5 85.5t173 162.5t205.5 255h16q29 0 57 -10t50 -28t35.5 -43t13.5 -54
q0 -51 -32 -121.5t-88 -150.5t-131.5 -165.5t-162.5 -166.5q-60 -56 -124 -109q-60 -94 -110 -181q-55 -96 -94 -176.5t-60.5 -139.5t-21.5 -88q0 -28 14 -48.5t42 -38t70 -35t99 -38.5q10 -16 13.5 -41t3.5 -41q0 -49 -29.5 -101.5t-82 -95.5t-125.5 -70.5t-161 -27.5
q-81 0 -146.5 22t-111 60.5t-70 92t-24.5 116.5q0 45 12 96.5t41 115t77 140.5t120 172l17 22q-32 -5 -62 -5q-95 0 -163.5 21.5t-112 65t-64 108.5t-20.5 153v87q0 39 1.5 81t4 94t6.5 127q-66 -6 -147 -12.5t-168 -11.5t-174.5 -9.5t-165.5 -7.5q-115 -166 -216 -294.5
t-194 -224t-179.5 -160.5t-171.5 -105.5t-171 -58t-178 -17.5q-149 0 -267 44t-199.5 128.5t-125 207t-43.5 279.5q0 83 18.5 161.5t53 147.5t83.5 127t109 99.5t130 64.5t147 23q86 0 140.5 -34t76.5 -105zM2048 942q51 3 108 7t113.5 8t108.5 9t92 9q5 53 12 124.5
t15.5 153t18.5 168t21.5 170t23 159t24.5 134.5q-34 -63 -77.5 -142t-92 -165t-99.5 -175t-99 -172.5t-91.5 -157.5t-77.5 -130zM836 274q51 0 98.5 14.5t99 48t110 89.5t130.5 139q-88 -3 -166 -4.5t-149.5 -2.5t-137.5 -1h-129q-6 -22 -9 -48.5t-3 -41.5q0 -49 11.5 -85.5
t32.5 -60.5t49.5 -35.5t62.5 -11.5z" />
    <glyph glyph-name="Cacute" unicode="&#x106;" horiz-adv-x="2089" 
d="M1040 -188q-205 0 -366.5 64.5t-273 191t-170 313t-58.5 430.5q0 192 37.5 387t104.5 383.5t160 365t205 332t238.5 284t260.5 221t271.5 143.5t270.5 51q152 0 260 -37.5t177 -108.5t101 -173.5t32 -233.5q0 -95 -19.5 -191t-54 -183.5t-83.5 -163.5t-108.5 -132.5
t-127 -88.5t-140.5 -32q-38 0 -66.5 4.5t-48.5 14t-34 23.5t-23 32q17 39 31 86.5t25 98.5t20 102t15 96t9 82t3 59q0 71 -10.5 120t-29 80t-44 44.5t-56.5 13.5q-42 0 -93 -35.5t-105.5 -99t-110 -152.5t-107 -196.5t-97 -229.5t-78.5 -252.5t-52.5 -265.5t-19.5 -268
q0 -146 23 -255t77 -181.5t143.5 -108.5t223.5 -36q128 0 267 47.5t274 132.5t256.5 203.5t213.5 259.5q32 0 60.5 -6.5t49.5 -22t33.5 -40.5t12.5 -62q0 -58 -34 -137t-96 -168t-149 -183.5t-192 -183.5t-225 -169t-249.5 -139.5t-264.5 -94.5t-269 -35zM2252 4280
q69 0 121.5 -19t87.5 -53t52.5 -81.5t17.5 -104.5q0 -181 -315 -508q-63 -64 -132 -119t-135.5 -95t-127.5 -62.5t-109 -22.5q-44 0 -69 25.5t-25 81.5q106 153 186.5 276.5t134.5 225.5t81.5 186.5t27.5 159.5q34 52 85 81t119 29z" />
    <glyph glyph-name="Ccircumflex" unicode="&#x108;" horiz-adv-x="2089" 
d="M1040 -188q-205 0 -366.5 64.5t-273 191t-170 313t-58.5 430.5q0 192 37.5 387t104.5 383.5t160 365t205 332t238.5 284t260.5 221t271.5 143.5t270.5 51q152 0 260 -37.5t177 -108.5t101 -173.5t32 -233.5q0 -95 -19.5 -191t-54 -183.5t-83.5 -163.5t-108.5 -132.5
t-127 -88.5t-140.5 -32q-38 0 -66.5 4.5t-48.5 14t-34 23.5t-23 32q17 39 31 86.5t25 98.5t20 102t15 96t9 82t3 59q0 71 -10.5 120t-29 80t-44 44.5t-56.5 13.5q-42 0 -93 -35.5t-105.5 -99t-110 -152.5t-107 -196.5t-97 -229.5t-78.5 -252.5t-52.5 -265.5t-19.5 -268
q0 -146 23 -255t77 -181.5t143.5 -108.5t223.5 -36q128 0 267 47.5t274 132.5t256.5 203.5t213.5 259.5q32 0 60.5 -6.5t49.5 -22t33.5 -40.5t12.5 -62q0 -58 -34 -137t-96 -168t-149 -183.5t-192 -183.5t-225 -169t-249.5 -139.5t-264.5 -94.5t-269 -35zM1876 3375
q0 128 -2 210.5t-9 130.5t-20 66.5t-34 18.5q-31 0 -73 -37t-90 -111t-98 -185.5t-96 -260.5q-21 -9 -40.5 -12.5t-41.5 -3.5q-30 0 -57.5 11.5t-48.5 34t-33 56t-12 78.5q0 48 17 111.5t48.5 135t76 146.5t99 146.5t118 135t132.5 111t142.5 75.5t148.5 28q105 0 170 -38.5
t101 -127.5t48.5 -235t12.5 -361q0 -31 2.5 -79t5.5 -97q-18 -32 -48.5 -61t-69.5 -51t-84 -35t-93 -13q-95 0 -133.5 53t-38.5 160z" />
    <glyph glyph-name="Ccaron" unicode="&#x10c;" horiz-adv-x="2089" 
d="M1040 -188q-205 0 -366.5 64.5t-273 191t-170 313t-58.5 430.5q0 192 37.5 387t104.5 383.5t160 365t205 332t238.5 284t260.5 221t271.5 143.5t270.5 51q152 0 260 -37.5t177 -108.5t101 -173.5t32 -233.5q0 -95 -19.5 -191t-54 -183.5t-83.5 -163.5t-108.5 -132.5
t-127 -88.5t-140.5 -32q-38 0 -66.5 4.5t-48.5 14t-34 23.5t-23 32q17 39 31 86.5t25 98.5t20 102t15 96t9 82t3 59q0 71 -10.5 120t-29 80t-44 44.5t-56.5 13.5q-42 0 -93 -35.5t-105.5 -99t-110 -152.5t-107 -196.5t-97 -229.5t-78.5 -252.5t-52.5 -265.5t-19.5 -268
q0 -146 23 -255t77 -181.5t143.5 -108.5t223.5 -36q128 0 267 47.5t274 132.5t256.5 203.5t213.5 259.5q32 0 60.5 -6.5t49.5 -22t33.5 -40.5t12.5 -62q0 -58 -34 -137t-96 -168t-149 -183.5t-192 -183.5t-225 -169t-249.5 -139.5t-264.5 -94.5t-269 -35zM1872 4088
q0 -127 2 -209.5t9 -130.5t20 -67t34 -19q31 0 73 37t90 111t98 185.5t96 260.5q21 9 40.5 12.5t41.5 3.5q31 0 58.5 -11.5t48 -34t32.5 -56t12 -78.5q0 -48 -17 -111.5t-48.5 -134.5t-76 -146.5t-99 -147t-118 -135t-132.5 -111t-142.5 -75.5t-148.5 -28q-105 0 -170 38.5
t-101 127.5t-48.5 235t-12.5 361q0 31 -2.5 79t-5.5 97q18 32 48.5 61t69.5 51t84 35t93 13q95 0 133.5 -53t38.5 -160z" />
    <glyph glyph-name="Cdotaccent" unicode="&#x10a;" horiz-adv-x="2089" 
d="M1040 -188q-205 0 -366.5 64.5t-273 191t-170 313t-58.5 430.5q0 192 37.5 387t104.5 383.5t160 365t205 332t238.5 284t260.5 221t271.5 143.5t270.5 51q152 0 260 -37.5t177 -108.5t101 -173.5t32 -233.5q0 -95 -19.5 -191t-54 -183.5t-83.5 -163.5t-108.5 -132.5
t-127 -88.5t-140.5 -32q-38 0 -66.5 4.5t-48.5 14t-34 23.5t-23 32q17 39 31 86.5t25 98.5t20 102t15 96t9 82t3 59q0 71 -10.5 120t-29 80t-44 44.5t-56.5 13.5q-42 0 -93 -35.5t-105.5 -99t-110 -152.5t-107 -196.5t-97 -229.5t-78.5 -252.5t-52.5 -265.5t-19.5 -268
q0 -146 23 -255t77 -181.5t143.5 -108.5t223.5 -36q128 0 267 47.5t274 132.5t256.5 203.5t213.5 259.5q32 0 60.5 -6.5t49.5 -22t33.5 -40.5t12.5 -62q0 -58 -34 -137t-96 -168t-149 -183.5t-192 -183.5t-225 -169t-249.5 -139.5t-264.5 -94.5t-269 -35zM1582 3629
q0 125 13 211t38 139t62.5 77t86.5 24q41 0 82.5 -14t80.5 -37.5t72.5 -54.5t58.5 -65.5t39.5 -69.5t14.5 -67q0 -37 -15 -85.5t-48 -110.5t-85 -137.5t-126 -165.5q-60 0 -110.5 22.5t-86.5 67t-56.5 111t-20.5 155.5z" />
    <glyph glyph-name="Dcaron" unicode="&#x10e;" horiz-adv-x="2982" 
d="M295 623q38 0 74.5 -1.5t76.5 -5t86 -8t103 -10.5q35 68 73.5 160.5t78 202t79 232t77.5 249.5t73.5 254.5t66.5 246.5t56.5 226t44.5 194q-23 3 -40.5 5t-35.5 3t-38.5 1h-49.5q-105 0 -196 -13t-177 -43t-171 -78.5t-177 -119.5q-48 0 -85 19t-63 52t-39.5 77t-13.5 93
q0 67 29 142.5t88.5 149.5t149.5 142t212.5 120t278 83t344.5 31q282 0 518.5 -61t426.5 -172t333.5 -266.5t240 -345.5t145 -408.5t48.5 -454.5q0 -185 -37.5 -361t-110 -332.5t-179.5 -287t-246 -225t-309.5 -147t-370.5 -52.5q-94 0 -193 15t-208 45.5t-229 78
t-255 111.5q-61 -49 -113.5 -82.5t-98.5 -54.5t-87.5 -30t-81.5 -9q-46 0 -85 20.5t-71 55t-56.5 79t-41 93.5t-25 98t-8.5 92q0 38 11 73.5t34.5 63t59 44t84.5 16.5zM2265 1188q0 152 -37 300.5t-112 283t-188 249.5t-265 199q-38 -188 -82.5 -369t-93.5 -347.5
t-99.5 -317.5t-101.5 -279.5t-99.5 -232.5t-92.5 -178q98 -28 180 -49.5t152.5 -36t132.5 -22t120 -7.5q104 0 187.5 30t148.5 84t112 128.5t78 164t45.5 191.5t14.5 209zM1782 4088q0 -127 2 -209.5t9 -130.5t20 -67t34 -19q31 0 73 37t90 111t98 185.5t96 260.5
q21 9 40.5 12.5t41.5 3.5q31 0 58.5 -11.5t48 -34t32.5 -56t12 -78.5q0 -48 -17 -111.5t-48.5 -134.5t-76 -146.5t-99 -147t-118 -135t-132.5 -111t-142.5 -75.5t-148.5 -28q-105 0 -170 38.5t-101 127.5t-48.5 235t-12.5 361q0 31 -2.5 79t-5.5 97q18 32 48.5 61t69.5 51
t84 35t93 13q95 0 133.5 -53t38.5 -160z" />
    <glyph glyph-name="Ecaron" unicode="&#x11a;" horiz-adv-x="2105" 
d="M967 -221q-192 0 -345.5 52t-260.5 146t-164.5 225.5t-57.5 289.5q0 109 39 225t118 227t199 212t283 179q-45 48 -82.5 109t-64.5 133t-42.5 154.5t-15.5 173.5q0 130 37.5 260t105.5 249.5t163 222t210.5 178.5t247 119.5t273.5 43.5q143 0 246.5 -33t171 -95.5
t99.5 -153t32 -206.5q0 -152 -42.5 -264.5t-111 -186.5t-154.5 -110.5t-172 -36.5q-68 0 -101.5 21.5t-45.5 52.5q40 84 61 165.5t21 162.5q0 58 -9.5 98t-25.5 64.5t-37.5 35.5t-46.5 11q-37 0 -74.5 -23t-72.5 -64t-65.5 -98t-53.5 -124.5t-36 -143t-13 -154.5
q0 -54 5.5 -109.5t15.5 -109t23.5 -102t28.5 -88.5q34 8 74.5 14t82 10t79.5 6.5t67 2.5q59 0 97 -8t60 -22t31 -32.5t9 -40.5q0 -87 -33 -170.5t-88 -148.5t-126 -104.5t-146 -39.5q-29 0 -63.5 8t-71 22.5t-72.5 35t-68 45.5q-41 -43 -75 -95.5t-58 -107.5t-37.5 -107.5
t-13.5 -95.5q0 -76 21 -138t64.5 -106t110 -67.5t156.5 -23.5q96 0 201 29t211.5 80t210 120.5t198 150.5t175 170t139.5 179q32 0 60.5 -6.5t49.5 -22t33.5 -40.5t12.5 -62q0 -49 -32.5 -124.5t-93 -165t-146.5 -187.5t-194 -193t-234.5 -180.5t-267.5 -150.5
t-294.5 -103.5t-314.5 -38.5zM1766 4088q0 -127 2 -209.5t9 -130.5t20 -67t34 -19q31 0 73 37t90 111t98 185.5t96 260.5q21 9 40.5 12.5t41.5 3.5q31 0 58.5 -11.5t48 -34t32.5 -56t12 -78.5q0 -48 -17 -111.5t-48.5 -134.5t-76 -146.5t-99 -147t-118 -135t-132.5 -111
t-142.5 -75.5t-148.5 -28q-105 0 -170 38.5t-101 127.5t-48.5 235t-12.5 361q0 31 -2.5 79t-5.5 97q18 32 48.5 61t69.5 51t84 35t93 13q95 0 133.5 -53t38.5 -160z" />
    <glyph glyph-name="Emacron" unicode="&#x112;" horiz-adv-x="2105" 
d="M967 -221q-192 0 -345.5 52t-260.5 146t-164.5 225.5t-57.5 289.5q0 109 39 225t118 227t199 212t283 179q-45 48 -82.5 109t-64.5 133t-42.5 154.5t-15.5 173.5q0 130 37.5 260t105.5 249.5t163 222t210.5 178.5t247 119.5t273.5 43.5q143 0 246.5 -33t171 -95.5
t99.5 -153t32 -206.5q0 -152 -42.5 -264.5t-111 -186.5t-154.5 -110.5t-172 -36.5q-68 0 -101.5 21.5t-45.5 52.5q40 84 61 165.5t21 162.5q0 58 -9.5 98t-25.5 64.5t-37.5 35.5t-46.5 11q-37 0 -74.5 -23t-72.5 -64t-65.5 -98t-53.5 -124.5t-36 -143t-13 -154.5
q0 -54 5.5 -109.5t15.5 -109t23.5 -102t28.5 -88.5q34 8 74.5 14t82 10t79.5 6.5t67 2.5q59 0 97 -8t60 -22t31 -32.5t9 -40.5q0 -87 -33 -170.5t-88 -148.5t-126 -104.5t-146 -39.5q-29 0 -63.5 8t-71 22.5t-72.5 35t-68 45.5q-41 -43 -75 -95.5t-58 -107.5t-37.5 -107.5
t-13.5 -95.5q0 -76 21 -138t64.5 -106t110 -67.5t156.5 -23.5q96 0 201 29t211.5 80t210 120.5t198 150.5t175 170t139.5 179q32 0 60.5 -6.5t49.5 -22t33.5 -40.5t12.5 -62q0 -49 -32.5 -124.5t-93 -165t-146.5 -187.5t-194 -193t-234.5 -180.5t-267.5 -150.5
t-294.5 -103.5t-314.5 -38.5zM1450 3654q141 8 244 16t180.5 17t135 20.5t108 27.5t100 36t109.5 47q61 -16 94 -61.5t33 -111.5q0 -81 -45.5 -142.5t-140.5 -102.5t-241.5 -61.5t-347.5 -20.5q-123 0 -246.5 5.5t-244.5 14.5q-11 9 -19.5 23t-14 29t-8.5 29.5t-3 25.5
q0 41 17.5 77t54.5 64t95.5 45.5t139.5 22.5z" />
    <glyph glyph-name="Ebreve" unicode="&#x114;" horiz-adv-x="2105" 
d="M967 -221q-192 0 -345.5 52t-260.5 146t-164.5 225.5t-57.5 289.5q0 109 39 225t118 227t199 212t283 179q-45 48 -82.5 109t-64.5 133t-42.5 154.5t-15.5 173.5q0 130 37.5 260t105.5 249.5t163 222t210.5 178.5t247 119.5t273.5 43.5q143 0 246.5 -33t171 -95.5
t99.5 -153t32 -206.5q0 -152 -42.5 -264.5t-111 -186.5t-154.5 -110.5t-172 -36.5q-68 0 -101.5 21.5t-45.5 52.5q40 84 61 165.5t21 162.5q0 58 -9.5 98t-25.5 64.5t-37.5 35.5t-46.5 11q-37 0 -74.5 -23t-72.5 -64t-65.5 -98t-53.5 -124.5t-36 -143t-13 -154.5
q0 -54 5.5 -109.5t15.5 -109t23.5 -102t28.5 -88.5q34 8 74.5 14t82 10t79.5 6.5t67 2.5q59 0 97 -8t60 -22t31 -32.5t9 -40.5q0 -87 -33 -170.5t-88 -148.5t-126 -104.5t-146 -39.5q-29 0 -63.5 8t-71 22.5t-72.5 35t-68 45.5q-41 -43 -75 -95.5t-58 -107.5t-37.5 -107.5
t-13.5 -95.5q0 -76 21 -138t64.5 -106t110 -67.5t156.5 -23.5q96 0 201 29t211.5 80t210 120.5t198 150.5t175 170t139.5 179q32 0 60.5 -6.5t49.5 -22t33.5 -40.5t12.5 -62q0 -49 -32.5 -124.5t-93 -165t-146.5 -187.5t-194 -193t-234.5 -180.5t-267.5 -150.5
t-294.5 -103.5t-314.5 -38.5zM1786 4104q-40 -96 -61 -175t-21 -144q0 -31 14.5 -59.5t42.5 -51t69 -36t95 -13.5q56 0 105 25t93.5 84t85 155.5t77.5 239.5q21 9 40.5 12.5t40.5 3.5q31 0 58.5 -11.5t48.5 -34t33 -56t12 -78.5q0 -89 -25.5 -180t-71.5 -175t-111 -157.5
t-144 -128t-169.5 -86t-187.5 -31.5q-124 0 -215 32.5t-150.5 87.5t-88.5 126t-29 148q0 72 11.5 144t33 138.5t52 124t68 100t82 67t93.5 24.5q23 0 44.5 -5.5t38 -17t26.5 -29.5t10 -43z" />
    <glyph glyph-name="Edotaccent" unicode="&#x116;" horiz-adv-x="2105" 
d="M967 -221q-192 0 -345.5 52t-260.5 146t-164.5 225.5t-57.5 289.5q0 109 39 225t118 227t199 212t283 179q-45 48 -82.5 109t-64.5 133t-42.5 154.5t-15.5 173.5q0 130 37.5 260t105.5 249.5t163 222t210.5 178.5t247 119.5t273.5 43.5q143 0 246.5 -33t171 -95.5
t99.5 -153t32 -206.5q0 -152 -42.5 -264.5t-111 -186.5t-154.5 -110.5t-172 -36.5q-68 0 -101.5 21.5t-45.5 52.5q40 84 61 165.5t21 162.5q0 58 -9.5 98t-25.5 64.5t-37.5 35.5t-46.5 11q-37 0 -74.5 -23t-72.5 -64t-65.5 -98t-53.5 -124.5t-36 -143t-13 -154.5
q0 -54 5.5 -109.5t15.5 -109t23.5 -102t28.5 -88.5q34 8 74.5 14t82 10t79.5 6.5t67 2.5q59 0 97 -8t60 -22t31 -32.5t9 -40.5q0 -87 -33 -170.5t-88 -148.5t-126 -104.5t-146 -39.5q-29 0 -63.5 8t-71 22.5t-72.5 35t-68 45.5q-41 -43 -75 -95.5t-58 -107.5t-37.5 -107.5
t-13.5 -95.5q0 -76 21 -138t64.5 -106t110 -67.5t156.5 -23.5q96 0 201 29t211.5 80t210 120.5t198 150.5t175 170t139.5 179q32 0 60.5 -6.5t49.5 -22t33.5 -40.5t12.5 -62q0 -49 -32.5 -124.5t-93 -165t-146.5 -187.5t-194 -193t-234.5 -180.5t-267.5 -150.5
t-294.5 -103.5t-314.5 -38.5zM1475 3629q0 125 13 211t38 139t62.5 77t86.5 24q41 0 82.5 -14t80.5 -37.5t72.5 -54.5t58.5 -65.5t39.5 -69.5t14.5 -67q0 -37 -15 -85.5t-48 -110.5t-85 -137.5t-126 -165.5q-60 0 -110.5 22.5t-86.5 67t-56.5 111t-20.5 155.5z" />
    <glyph glyph-name="Eogonek" unicode="&#x118;" horiz-adv-x="2105" 
d="M967 -221q-192 0 -345.5 52t-260.5 146t-164.5 225.5t-57.5 289.5q0 109 39 225t118 227t199 212t283 179q-45 48 -82.5 109t-64.5 133t-42.5 154.5t-15.5 173.5q0 130 37.5 260t105.5 249.5t163 222t210.5 178.5t247 119.5t273.5 43.5q143 0 246.5 -33t171 -95.5
t99.5 -153t32 -206.5q0 -152 -42.5 -264.5t-111 -186.5t-154.5 -110.5t-172 -36.5q-68 0 -101.5 21.5t-45.5 52.5q40 84 61 165.5t21 162.5q0 58 -9.5 98t-25.5 64.5t-37.5 35.5t-46.5 11q-37 0 -74.5 -23t-72.5 -64t-65.5 -98t-53.5 -124.5t-36 -143t-13 -154.5
q0 -54 5.5 -109.5t15.5 -109t23.5 -102t28.5 -88.5q34 8 74.5 14t82 10t79.5 6.5t67 2.5q59 0 97 -8t60 -22t31 -32.5t9 -40.5q0 -87 -33 -170.5t-88 -148.5t-126 -104.5t-146 -39.5q-29 0 -63.5 8t-71 22.5t-72.5 35t-68 45.5q-41 -43 -75 -95.5t-58 -107.5t-37.5 -107.5
t-13.5 -95.5q0 -76 21 -138t64.5 -106t110 -67.5t156.5 -23.5q96 0 201 29t211.5 80t210 120.5t198 150.5t175 170t139.5 179q32 0 60.5 -6.5t49.5 -22t33.5 -40.5t12.5 -62q0 -49 -32.5 -124.5t-93 -165t-146.5 -187.5t-194 -193t-235 -181l-52 -34q-37 -61 -71 -119
q-55 -97 -94 -177.5t-60.5 -139.5t-21.5 -88q0 -28 14 -48.5t42 -38t70 -35t99 -38.5q10 -16 13.5 -41t3.5 -41q0 -49 -29.5 -101.5t-82 -95.5t-125.5 -70.5t-161 -27.5q-81 0 -146.5 22t-111 60.5t-70 92t-24.5 116.5q0 45 12 96.5t41 115t77 140.5t120 172q13 18 27 35
l-32 -8q-153 -39 -314 -39z" />
    <glyph glyph-name="Gcircumflex" unicode="&#x11c;" horiz-adv-x="2359" 
d="M2154 545q-3 -119 -15 -244t-36.5 -249t-63 -242.5t-94.5 -224t-130.5 -194t-172 -152.5t-218.5 -100t-269 -36q-140 0 -266.5 25t-234.5 72t-195 114t-148 150.5t-94 182.5t-33 210q0 69 17 130.5t50.5 113t84.5 91.5t119 66q-106 108 -157.5 269t-51.5 362
q0 198 40.5 394t113.5 381t173.5 355.5t220 318.5t254 269t275 207t283 133t278.5 47q137 0 232 -37t154.5 -103t86.5 -157t27 -198q0 -91 -17 -177.5t-48.5 -162.5t-75 -139t-95.5 -108.5t-111.5 -71t-123.5 -25.5q-59 0 -106.5 18t-65.5 55q12 35 26 87t25.5 109t19 113
t7.5 101q0 59 -6.5 98t-19.5 63t-33 34t-48 10q-58 0 -124.5 -35.5t-136 -99.5t-138 -152.5t-131.5 -195t-117.5 -227t-94 -248t-62.5 -258.5t-23 -259q0 -101 24.5 -176.5t69.5 -125.5t108.5 -74.5t141.5 -24.5q80 0 173.5 23t186.5 67q8 131 12.5 235t13 183.5t24 136.5
t46 93t79.5 52.5t124 16.5q85 0 166 -13.5t144.5 -40t102 -64.5t38.5 -87t-12 -100t-34 -108t-53 -123t-69 -144zM958 70q-139 0 -249 36q52 -110 118.5 -201.5t144.5 -156.5t165.5 -101t181.5 -36q76 0 123.5 25t74.5 70.5t38.5 108.5t15 139.5t3 164t3.5 180.5
q-69 -52 -145 -94.5t-155 -72.5t-160 -46t-159 -16zM1999 3416q0 128 -2 210.5t-9 130.5t-20 66.5t-34 18.5q-31 0 -73 -37t-90 -111t-98 -185.5t-96 -260.5q-21 -9 -40.5 -12.5t-41.5 -3.5q-30 0 -57.5 11.5t-48.5 34t-33 56t-12 78.5q0 48 17 111.5t48.5 135t76 146.5
t99 146.5t118 135t132.5 111t142.5 75.5t148.5 28q105 0 170 -38.5t101 -127.5t48.5 -235t12.5 -361q0 -31 2.5 -79t5.5 -97q-18 -32 -48.5 -61t-69.5 -51t-84 -35t-93 -13q-95 0 -133.5 53t-38.5 160z" />
    <glyph glyph-name="Gbreve" unicode="&#x11e;" horiz-adv-x="2359" 
d="M2154 545q-3 -119 -15 -244t-36.5 -249t-63 -242.5t-94.5 -224t-130.5 -194t-172 -152.5t-218.5 -100t-269 -36q-140 0 -266.5 25t-234.5 72t-195 114t-148 150.5t-94 182.5t-33 210q0 69 17 130.5t50.5 113t84.5 91.5t119 66q-106 108 -157.5 269t-51.5 362
q0 198 40.5 394t113.5 381t173.5 355.5t220 318.5t254 269t275 207t283 133t278.5 47q137 0 232 -37t154.5 -103t86.5 -157t27 -198q0 -91 -17 -177.5t-48.5 -162.5t-75 -139t-95.5 -108.5t-111.5 -71t-123.5 -25.5q-59 0 -106.5 18t-65.5 55q12 35 26 87t25.5 109t19 113
t7.5 101q0 59 -6.5 98t-19.5 63t-33 34t-48 10q-58 0 -124.5 -35.5t-136 -99.5t-138 -152.5t-131.5 -195t-117.5 -227t-94 -248t-62.5 -258.5t-23 -259q0 -101 24.5 -176.5t69.5 -125.5t108.5 -74.5t141.5 -24.5q80 0 173.5 23t186.5 67q8 131 12.5 235t13 183.5t24 136.5
t46 93t79.5 52.5t124 16.5q85 0 166 -13.5t144.5 -40t102 -64.5t38.5 -87t-12 -100t-34 -108t-53 -123t-69 -144zM958 70q-139 0 -249 36q52 -110 118.5 -201.5t144.5 -156.5t165.5 -101t181.5 -36q76 0 123.5 25t74.5 70.5t38.5 108.5t15 139.5t3 164t3.5 180.5
q-69 -52 -145 -94.5t-155 -72.5t-160 -46t-159 -16zM1950 4112q-40 -96 -61 -175t-21 -144q0 -31 14.5 -59.5t42.5 -51t69 -36t95 -13.5q56 0 105 25t93.5 84t85 155.5t77.5 239.5q21 9 40.5 12.5t40.5 3.5q31 0 58.5 -11.5t48.5 -34t33 -56t12 -78.5q0 -89 -25.5 -180
t-71.5 -175t-111 -157.5t-144 -128t-169.5 -86t-187.5 -31.5q-124 0 -215 32.5t-150.5 87.5t-88.5 126t-29 148q0 72 11.5 144t33 138.5t52 124t68 100t82 67t93.5 24.5q23 0 44.5 -5.5t38 -17t26.5 -29.5t10 -43z" />
    <glyph glyph-name="Gdotaccent" unicode="&#x120;" horiz-adv-x="2359" 
d="M2154 545q-3 -119 -15 -244t-36.5 -249t-63 -242.5t-94.5 -224t-130.5 -194t-172 -152.5t-218.5 -100t-269 -36q-140 0 -266.5 25t-234.5 72t-195 114t-148 150.5t-94 182.5t-33 210q0 69 17 130.5t50.5 113t84.5 91.5t119 66q-106 108 -157.5 269t-51.5 362
q0 198 40.5 394t113.5 381t173.5 355.5t220 318.5t254 269t275 207t283 133t278.5 47q137 0 232 -37t154.5 -103t86.5 -157t27 -198q0 -91 -17 -177.5t-48.5 -162.5t-75 -139t-95.5 -108.5t-111.5 -71t-123.5 -25.5q-59 0 -106.5 18t-65.5 55q12 35 26 87t25.5 109t19 113
t7.5 101q0 59 -6.5 98t-19.5 63t-33 34t-48 10q-58 0 -124.5 -35.5t-136 -99.5t-138 -152.5t-131.5 -195t-117.5 -227t-94 -248t-62.5 -258.5t-23 -259q0 -101 24.5 -176.5t69.5 -125.5t108.5 -74.5t141.5 -24.5q80 0 173.5 23t186.5 67q8 131 12.5 235t13 183.5t24 136.5
t46 93t79.5 52.5t124 16.5q85 0 166 -13.5t144.5 -40t102 -64.5t38.5 -87t-12 -100t-34 -108t-53 -123t-69 -144zM958 70q-139 0 -249 36q52 -110 118.5 -201.5t144.5 -156.5t165.5 -101t181.5 -36q76 0 123.5 25t74.5 70.5t38.5 108.5t15 139.5t3 164t3.5 180.5
q-69 -52 -145 -94.5t-155 -72.5t-160 -46t-159 -16zM1704 3592q0 125 13 211t38 139t62.5 77t86.5 24q41 0 82.5 -14t80.5 -37.5t72.5 -54.5t58.5 -65.5t39.5 -69.5t14.5 -67q0 -37 -15 -85.5t-48 -110.5t-85 -137.5t-126 -165.5q-60 0 -110.5 22.5t-86.5 67t-56.5 111
t-20.5 155.5z" />
    <glyph glyph-name="Gcommaaccent" unicode="&#x122;" horiz-adv-x="2310" 
d="M573 -1380q74 38 142.5 88t121.5 102.5t85 103.5t32 91q0 34 -10 67t-34 64.5t-63 60.5t-97 53q-19 34 -26 70t-7 70q0 75 25 140t71.5 113t112.5 75.5t147 27.5q97 0 175 -38t133 -102t84.5 -148.5t29.5 -178.5q0 -114 -34.5 -225t-93 -211.5t-134.5 -186.5t-158 -148.5
t-165 -98t-156 -35.5q-96 0 -144.5 45t-48.5 123q0 34 12 78zM1524 233q-66 -60 -141.5 -109t-156.5 -84t-166 -54t-171 -19q-174 0 -305.5 56.5t-220.5 165t-134 267.5t-45 363q0 211 40.5 416t113 397.5t172.5 368t220 327t255 274.5t277.5 210t287.5 134.5t285 47.5
q137 0 232 -37t154.5 -103t86.5 -157t27 -198q0 -91 -17 -177.5t-48.5 -162.5t-75 -139t-95.5 -108.5t-111.5 -71t-123.5 -25.5q-59 0 -106.5 18t-65.5 55q12 35 25.5 87t25 109t19 113t7.5 101q0 59 -6 98t-19 63t-33 34t-48 10q-58 0 -125 -36t-137 -100.5t-140 -155.5
t-134.5 -201t-120 -235.5t-96 -260.5t-64 -275.5t-23.5 -280.5q0 -104 23.5 -186t68.5 -139t110.5 -87t150.5 -30q49 0 96 10t91.5 27.5t87.5 40.5t85 49q10 160 19.5 280.5t22.5 208.5t32.5 146t49.5 93t73.5 49t105.5 14q84 0 165 -13.5t144.5 -40t102.5 -64.5t39 -87
t-12 -100t-34 -108t-53 -123t-69 -144q-7 -102 -20 -216t-35.5 -224.5t-56.5 -211t-83 -177t-115 -122t-153 -45.5q-68 0 -105 20t-59 54q6 35 11.5 87.5t9 108.5t6 110.5t2.5 94.5z" />
    <glyph glyph-name="Hcircumflex" unicode="&#x124;" horiz-adv-x="3572" 
d="M2142 3187q75 0 137 -37t106.5 -120t68.5 -216.5t24 -327.5q0 -85 -7 -189.5t-19.5 -218t-29.5 -231.5t-36.5 -230t-40.5 -213.5t-43 -182.5q42 9 89 19t95 21.5t94 25t86 28.5q57 324 114.5 572.5t120.5 433t133 309.5t150 201.5t172 109.5t199 33q86 0 159 -24t126 -69
t83 -109.5t30 -145.5q0 -26 -6.5 -54t-17.5 -54t-26 -49t-32 -40q-85 -8 -148 -21t-111.5 -41.5t-85.5 -78t-71 -130.5t-68.5 -199t-76.5 -284q37 -17 63 -42.5t43 -55.5t25 -62t8 -61q0 -69 -23 -131.5t-59 -116t-80.5 -96.5t-87.5 -74q-17 -92 -32 -177t-26 -155.5
t-17.5 -123.5t-6.5 -80q0 -32 3 -53t10 -33t18 -16.5t26 -4.5q25 0 87 35.5t151 112t200 198t234 293.5q31 0 59.5 -9t51 -26t36 -42.5t13.5 -57.5q0 -51 -32 -123.5t-89 -157t-135 -175.5t-170 -178t-193.5 -165t-206.5 -137.5t-208.5 -94t-198.5 -34.5q-70 0 -124.5 17.5
t-91.5 55.5t-56 98t-19 144q0 43 7.5 118t21.5 172.5t33.5 212t44.5 235.5q-32 -9 -79.5 -19t-104 -20t-118.5 -18.5t-124 -16.5q-65 -158 -145.5 -304t-175 -273t-203 -231t-229.5 -178.5t-254.5 -115.5t-278.5 -41q-108 0 -206 27t-183 76.5t-153.5 119.5t-117.5 156
t-75.5 186t-26.5 209q0 141 44 251.5t144.5 190t264 128.5t403.5 69q97 8 185 14.5t173.5 12t171.5 11t178 11.5q15 71 30 165t29.5 198.5t27.5 213.5t23 209.5t15.5 186t5.5 142.5q0 66 -23 129t-50.5 126.5t-50.5 130t-23 138.5q0 74 20 133.5t54.5 106t81 80t99.5 55.5
t110.5 32.5t113.5 10.5zM1036 676q-83 -4 -139.5 -16.5t-91 -32t-49.5 -45.5t-15 -58q0 -41 15 -81.5t40.5 -77t60 -68.5t74 -55t82.5 -36t85 -13q72 0 138.5 40.5t125.5 111t110 166t93 206.5q-78 -8 -143 -13.5t-126 -10t-123.5 -8.5t-136.5 -9zM3141 3334q0 128 -2 210.5
t-9 130.5t-20 66.5t-34 18.5q-31 0 -73 -37t-90 -111t-98 -185.5t-96 -260.5q-21 -9 -40.5 -12.5t-41.5 -3.5q-30 0 -57.5 11.5t-48.5 34t-33 56t-12 78.5q0 48 17 111.5t48.5 135t76 146.5t99 146.5t118 135t132.5 111t142.5 75.5t148.5 28q105 0 170 -38.5t101 -127.5
t48.5 -235t12.5 -361q0 -31 2.5 -79t5.5 -97q-18 -32 -48.5 -61t-69.5 -51t-84 -35t-93 -13q-95 0 -133.5 53t-38.5 160z" />
    <glyph glyph-name="Igrave" unicode="&#xcc;" horiz-adv-x="2060" 
d="M655 2617q0 63 25.5 115t81 89.5t142.5 58t210 20.5q114 0 210 -1t180.5 -2.5t160.5 -3t150 -1.5q71 0 134.5 4.5t125 14.5t122.5 25.5t125 37.5q34 -17 62.5 -43.5t49.5 -60t32.5 -72.5t11.5 -82q0 -102 -41 -180t-115.5 -131t-178.5 -80t-230 -27
q-81 -356 -148.5 -639.5t-123.5 -503t-101 -380t-82 -271.5q124 0 236.5 -3t230.5 -9q28 -38 42.5 -90t14.5 -99q0 -98 -43 -163.5t-127 -104.5t-208 -55.5t-285 -16.5q-85 0 -164 2t-161.5 5.5t-172.5 7.5t-197 7.5t-235 6.5t-287 4q-18 18 -29.5 50.5t-11.5 72.5
q0 81 37 141.5t122.5 103t226.5 70.5t348 45q57 201 115.5 434.5t116 482.5t114 505t108.5 503q-139 25 -280 50t-277 40q-18 25 -27.5 57t-9.5 66zM1684 4186q12 -112 31 -231t43.5 -234.5t54 -223t63.5 -196.5q-1 -25 -11 -46.5t-28.5 -37.5t-45.5 -25.5t-62 -9.5
q-63 0 -130.5 42.5t-134 123.5t-129 197.5t-114.5 263.5q-6 21 -11.5 45t-5.5 49q0 66 22.5 127.5t66 108.5t107 75.5t144.5 28.5q47 0 82.5 -16.5t57.5 -40.5z" />
    <glyph glyph-name="Iacute" unicode="&#xcd;" horiz-adv-x="2060" 
d="M655 2617q0 63 25.5 115t81 89.5t142.5 58t210 20.5q114 0 210 -1t180.5 -2.5t160.5 -3t150 -1.5q71 0 134.5 4.5t125 14.5t122.5 25.5t125 37.5q34 -17 62.5 -43.5t49.5 -60t32.5 -72.5t11.5 -82q0 -102 -41 -180t-115.5 -131t-178.5 -80t-230 -27
q-81 -356 -148.5 -639.5t-123.5 -503t-101 -380t-82 -271.5q124 0 236.5 -3t230.5 -9q28 -38 42.5 -90t14.5 -99q0 -98 -43 -163.5t-127 -104.5t-208 -55.5t-285 -16.5q-85 0 -164 2t-161.5 5.5t-172.5 7.5t-197 7.5t-235 6.5t-287 4q-18 18 -29.5 50.5t-11.5 72.5
q0 81 37 141.5t122.5 103t226.5 70.5t348 45q57 201 115.5 434.5t116 482.5t114 505t108.5 503q-139 25 -280 50t-277 40q-18 25 -27.5 57t-9.5 66zM2195 4264q69 0 121.5 -19t87.5 -53t52.5 -81.5t17.5 -104.5q0 -181 -315 -508q-63 -64 -132 -119t-135.5 -95t-127.5 -62.5
t-109 -22.5q-44 0 -69 25.5t-25 81.5q106 153 186.5 276.5t134.5 225.5t81.5 186.5t27.5 159.5q34 52 85 81t119 29z" />
    <glyph glyph-name="Icircumflex" unicode="&#xce;" horiz-adv-x="2060" 
d="M655 2617q0 63 25.5 115t81 89.5t142.5 58t210 20.5q114 0 210 -1t180.5 -2.5t160.5 -3t150 -1.5q71 0 134.5 4.5t125 14.5t122.5 25.5t125 37.5q34 -17 62.5 -43.5t49.5 -60t32.5 -72.5t11.5 -82q0 -102 -41 -180t-115.5 -131t-178.5 -80t-230 -27
q-81 -356 -148.5 -639.5t-123.5 -503t-101 -380t-82 -271.5q124 0 236.5 -3t230.5 -9q28 -38 42.5 -90t14.5 -99q0 -98 -43 -163.5t-127 -104.5t-208 -55.5t-285 -16.5q-85 0 -164 2t-161.5 5.5t-172.5 7.5t-197 7.5t-235 6.5t-287 4q-18 18 -29.5 50.5t-11.5 72.5
q0 81 37 141.5t122.5 103t226.5 70.5t348 45q57 201 115.5 434.5t116 482.5t114 505t108.5 503q-139 25 -280 50t-277 40q-18 25 -27.5 57t-9.5 66zM1896 3412q0 128 -2 210.5t-9 130.5t-20 66.5t-34 18.5q-31 0 -73 -37t-90 -111t-98 -185.5t-96 -260.5q-21 -9 -40.5 -12.5
t-41.5 -3.5q-30 0 -57.5 11.5t-48.5 34t-33 56t-12 78.5q0 48 17 111.5t48.5 135t76 146.5t99 146.5t118 135t132.5 111t142.5 75.5t148.5 28q105 0 170 -38.5t101 -127.5t48.5 -235t12.5 -361q0 -31 2.5 -79t5.5 -97q-18 -32 -48.5 -61t-69.5 -51t-84 -35t-93 -13
q-95 0 -133.5 53t-38.5 160z" />
    <glyph glyph-name="Itilde" unicode="&#x128;" horiz-adv-x="2060" 
d="M655 2617q0 63 25.5 115t81 89.5t142.5 58t210 20.5q114 0 210 -1t180.5 -2.5t160.5 -3t150 -1.5q71 0 134.5 4.5t125 14.5t122.5 25.5t125 37.5q34 -17 62.5 -43.5t49.5 -60t32.5 -72.5t11.5 -82q0 -102 -41 -180t-115.5 -131t-178.5 -80t-230 -27
q-81 -356 -148.5 -639.5t-123.5 -503t-101 -380t-82 -271.5q124 0 236.5 -3t230.5 -9q28 -38 42.5 -90t14.5 -99q0 -98 -43 -163.5t-127 -104.5t-208 -55.5t-285 -16.5q-85 0 -164 2t-161.5 5.5t-172.5 7.5t-197 7.5t-235 6.5t-287 4q-18 18 -29.5 50.5t-11.5 72.5
q0 81 37 141.5t122.5 103t226.5 70.5t348 45q57 201 115.5 434.5t116 482.5t114 505t108.5 503q-139 25 -280 50t-277 40q-18 25 -27.5 57t-9.5 66zM1671 3826q118 40 205 71.5t151.5 58t110 50.5t79.5 49.5t60.5 54t52.5 64.5q69 -7 121.5 -34.5t87.5 -68t52.5 -90
t17.5 -102.5q0 -90 -38 -159t-120 -123.5t-212 -98.5t-314 -86q-121 -26 -205.5 -46.5t-143 -42t-97.5 -47t-70 -60.5q-36 0 -71.5 11.5t-64.5 36t-47 64.5t-18 97q0 68 24 122.5t78.5 102t143 90.5t217.5 86z" />
    <glyph glyph-name="Idieresis" unicode="&#xcf;" horiz-adv-x="2060" 
d="M655 2617q0 63 25.5 115t81 89.5t142.5 58t210 20.5q114 0 210 -1t180.5 -2.5t160.5 -3t150 -1.5q71 0 134.5 4.5t125 14.5t122.5 25.5t125 37.5q34 -17 62.5 -43.5t49.5 -60t32.5 -72.5t11.5 -82q0 -102 -41 -180t-115.5 -131t-178.5 -80t-230 -27
q-81 -356 -148.5 -639.5t-123.5 -503t-101 -380t-82 -271.5q124 0 236.5 -3t230.5 -9q28 -38 42.5 -90t14.5 -99q0 -98 -43 -163.5t-127 -104.5t-208 -55.5t-285 -16.5q-85 0 -164 2t-161.5 5.5t-172.5 7.5t-197 7.5t-235 6.5t-287 4q-18 18 -29.5 50.5t-11.5 72.5
q0 81 37 141.5t122.5 103t226.5 70.5t348 45q57 201 115.5 434.5t116 482.5t114 505t108.5 503q-139 25 -280 50t-277 40q-18 25 -27.5 57t-9.5 66zM1232 3555q0 117 12 200.5t35.5 137t58 79t79.5 25.5q60 0 113.5 -28t94 -71t64 -94.5t23.5 -97.5q0 -37 -12.5 -79
t-42.5 -96t-79.5 -122t-123.5 -157q-43 0 -83 18t-71 55t-49.5 94.5t-18.5 135.5zM1941 3616q0 125 13 211t38.5 139t63 77t86.5 24q41 0 82.5 -14t80.5 -37.5t72.5 -54.5t58.5 -65t39.5 -69t14.5 -67q0 -37 -15.5 -86t-48.5 -110.5t-85 -137t-126 -166.5q-63 0 -113.5 21.5
t-86 66t-55 111.5t-19.5 157z" />
    <glyph glyph-name="Imacron" unicode="&#x12a;" horiz-adv-x="2060" 
d="M655 2617q0 63 25.5 115t81 89.5t142.5 58t210 20.5q114 0 210 -1t180.5 -2.5t160.5 -3t150 -1.5q71 0 134.5 4.5t125 14.5t122.5 25.5t125 37.5q34 -17 62.5 -43.5t49.5 -60t32.5 -72.5t11.5 -82q0 -102 -41 -180t-115.5 -131t-178.5 -80t-230 -27
q-81 -356 -148.5 -639.5t-123.5 -503t-101 -380t-82 -271.5q124 0 236.5 -3t230.5 -9q28 -38 42.5 -90t14.5 -99q0 -98 -43 -163.5t-127 -104.5t-208 -55.5t-285 -16.5q-85 0 -164 2t-161.5 5.5t-172.5 7.5t-197 7.5t-235 6.5t-287 4q-18 18 -29.5 50.5t-11.5 72.5
q0 81 37 141.5t122.5 103t226.5 70.5t348 45q57 201 115.5 434.5t116 482.5t114 505t108.5 503q-139 25 -280 50t-277 40q-18 25 -27.5 57t-9.5 66zM1544 3744q141 8 244 16t180.5 17t135 20.5t108 27.5t100 36t109.5 47q61 -16 94 -61.5t33 -111.5q0 -81 -45.5 -142.5
t-140.5 -102.5t-241.5 -61.5t-347.5 -20.5q-123 0 -246.5 5.5t-244.5 14.5q-11 9 -19.5 23t-14 29t-8.5 29.5t-3 25.5q0 41 17.5 77t54.5 64t95.5 45.5t139.5 22.5z" />
    <glyph glyph-name="Idotaccent" unicode="&#x130;" horiz-adv-x="2060" 
d="M655 2617q0 63 25.5 115t81 89.5t142.5 58t210 20.5q114 0 210 -1t180.5 -2.5t160.5 -3t150 -1.5q71 0 134.5 4.5t125 14.5t122.5 25.5t125 37.5q34 -17 62.5 -43.5t49.5 -60t32.5 -72.5t11.5 -82q0 -102 -41 -180t-115.5 -131t-178.5 -80t-230 -27
q-81 -356 -148.5 -639.5t-123.5 -503t-101 -380t-82 -271.5q124 0 236.5 -3t230.5 -9q28 -38 42.5 -90t14.5 -99q0 -98 -43 -163.5t-127 -104.5t-208 -55.5t-285 -16.5q-85 0 -164 2t-161.5 5.5t-172.5 7.5t-197 7.5t-235 6.5t-287 4q-18 18 -29.5 50.5t-11.5 72.5
q0 81 37 141.5t122.5 103t226.5 70.5t348 45q57 201 115.5 434.5t116 482.5t114 505t108.5 503q-139 25 -280 50t-277 40q-18 25 -27.5 57t-9.5 66zM1557 3555q0 125 13 211t38 139t62.5 77t86.5 24q41 0 82.5 -14t80.5 -37.5t72.5 -54.5t58.5 -65.5t39.5 -69.5t14.5 -67
q0 -37 -15 -85.5t-48 -110.5t-85 -137.5t-126 -165.5q-60 0 -110.5 22.5t-86.5 67t-56.5 111t-20.5 155.5z" />
    <glyph glyph-name="Iogonek" unicode="&#x12e;" horiz-adv-x="2060" 
d="M655 2617q0 63 25.5 115t81 89.5t142.5 58t210 20.5q114 0 210 -1t180.5 -2.5t160.5 -3t150 -1.5q71 0 134.5 4.5t125 14.5t122.5 25.5t125 37.5q34 -17 62.5 -43.5t49.5 -60t32.5 -72.5t11.5 -82q0 -102 -41 -180t-115.5 -131t-178.5 -80t-230 -27
q-81 -356 -148.5 -639.5t-123.5 -503t-101 -380t-82 -271.5q124 0 236.5 -3t230.5 -9q28 -38 42.5 -90t14.5 -99q0 -98 -43 -163.5t-127 -104.5t-208 -55q-114 -15 -259 -17q-54 -94 -92 -173q-39 -81 -60.5 -140t-21.5 -88q0 -28 14 -48.5t42 -38t70 -35t99 -38.5
q10 -16 13.5 -41t3.5 -41q0 -49 -29.5 -101.5t-82 -95.5t-125.5 -70.5t-161 -27.5q-81 0 -146.5 22t-111 60.5t-70 92t-24.5 116.5q0 45 12 96.5t41 115t77 140.5t120 172q51 67 105 130l-25 1q-82 3 -172 7t-197 7.5t-235 6.5t-287 4q-18 18 -29.5 50.5t-11.5 72.5
q0 81 37 141.5t122.5 103t226.5 70.5t348 45q57 201 115.5 434.5t116 482.5t114 505t108.5 503q-139 25 -280 50t-277 40q-18 25 -27.5 57t-9.5 66z" />
    <glyph glyph-name="Jcircumflex" unicode="&#x134;" horiz-adv-x="2941" 
d="M1327 -291q132 0 236.5 84.5t181.5 235.5q-64 2 -143.5 10.5t-165.5 22.5t-175.5 33t-175 41.5t-163 48t-140.5 53.5q29 -118 82 -215.5t124.5 -167.5t157.5 -108t181 -38zM2208 2322q-62 0 -125 -53t-122 -139.5t-111.5 -197.5t-95 -227t-72.5 -227.5t-44 -199.5
q-40 -16 -76.5 -22.5t-70.5 -6.5q-70 0 -126.5 29t-95.5 81.5t-60 126.5t-21 165q0 89 25 192.5t72 212t114 217.5t151.5 209t184.5 187t213 151t237 100.5t256 36.5q144 0 250 -39.5t175 -120t102.5 -203t33.5 -288.5q0 -84 -10 -188t-27.5 -222t-42 -245.5t-54.5 -257.5
t-63 -259.5t-68.5 -250t-72 -229.5t-71.5 -199q84 41 164 95t156.5 124t150 158.5t143.5 199.5q29 0 56 -9t47.5 -26t32.5 -41t12 -55q0 -57 -29 -128.5t-85 -150.5t-137 -161.5t-184.5 -162t-229 -152t-269.5 -130.5q-109 -212 -236.5 -367.5t-276 -257.5t-319.5 -152
t-368 -50q-169 0 -319 38t-276.5 106t-227.5 163.5t-171 210.5t-107.5 246.5t-37.5 271.5q0 174 43.5 297.5t115 202t163 115.5t186.5 37q48 0 82.5 -18t57 -49.5t33.5 -74.5t11 -92q74 -33 166.5 -65.5t193 -62.5t205 -56.5t201.5 -47t183 -34t149 -17.5q38 101 76 220
t73.5 247.5t68.5 262.5t61.5 265t51.5 255t39.5 232.5t25.5 196.5t9 148q0 62 -14.5 98.5t-54.5 36.5zM2679 3424q0 128 -2 210.5t-9 130.5t-20 66.5t-34 18.5q-31 0 -73 -37t-90 -111t-98 -185.5t-96 -260.5q-21 -9 -40.5 -12.5t-41.5 -3.5q-30 0 -57.5 11.5t-48.5 34
t-33 56t-12 78.5q0 48 17 111.5t48.5 135t76 146.5t99 146.5t118 135t132.5 111t142.5 75.5t148.5 28q105 0 170 -38.5t101 -127.5t48.5 -235t12.5 -361q0 -31 2.5 -79t5.5 -97q-18 -32 -48.5 -61t-69.5 -51t-84 -35t-93 -13q-95 0 -133.5 53t-38.5 160z" />
    <glyph glyph-name="Kcommaaccent" unicode="&#x136;" horiz-adv-x="2843" 
d="M938 1651q46 158 82 296t60.5 248t37 189t12.5 119q0 55 -18 80.5t-55 25.5q-29 0 -75 -27t-99 -72.5t-106.5 -107t-97 -130.5t-70.5 -142.5t-27 -142.5q0 -64 21 -114t64.5 -89.5t111 -71.5t159.5 -61zM1642 1270q71 87 147.5 208.5t153 261.5t149.5 291.5t136 299.5
q59 136 108 234t93 165t85.5 108t84.5 63t89.5 29t100.5 7q97 0 172 -36.5t126 -96t77.5 -135.5t26.5 -154q0 -50 -17 -106t-57 -99q-40 -3 -72.5 -10t-63 -23t-62.5 -44t-70.5 -73.5t-87 -111t-111.5 -156.5q-94 -135 -179.5 -248.5t-165.5 -208.5t-155 -172.5t-147 -140.5
q55 -37 109.5 -106.5t109 -160.5t108 -196t107.5 -213q18 -37 35.5 -60.5t35.5 -37t38 -19t43 -5.5q14 0 35 2t44 5.5t46.5 8t42.5 8.5q24 -28 36.5 -69t12.5 -78q0 -56 -24.5 -110t-67 -102t-100.5 -88t-125 -69t-139.5 -45t-145.5 -16q-58 0 -103 13t-83 45t-73 86.5
t-73 137.5q-64 140 -116 251t-96 196.5t-82.5 147.5t-76.5 106t-78.5 71.5t-87.5 42.5l-188 -868q-28 -28 -72 -40.5t-100 -12.5q-55 0 -110.5 16.5t-106.5 46t-95.5 70t-77 89t-51 102.5t-18.5 110q0 57 18 130.5t52.5 157.5t85 175.5t114.5 183.5l54 250
q-28 -3 -63.5 -5.5t-63.5 -2.5q-134 0 -253 39t-208.5 112t-142 179t-52.5 239q0 110 34.5 224.5t95 226.5t143.5 219t179.5 201.5t203 174t214 136.5t213 89t199.5 32q108 0 186.5 -28t130 -77.5t76.5 -118t25 -149.5q0 -48 -22.5 -176t-63.5 -323.5t-100 -452t-133 -560.5
q43 7 94.5 10t109.5 3zM1147 -1192q3 -29 17.5 -50.5t36 -36t48 -21.5t54.5 -7q68 0 135.5 32t129 87.5t115 131t93 161.5t62 178.5t22.5 183.5q0 86 -25 162t-72.5 133t-117 90t-158.5 33q-78 0 -141 -24t-107.5 -66t-68 -99.5t-23.5 -125.5q0 -31 5 -63.5t24 -63.5
q52 -22 84 -47.5t50 -54t24 -59t6 -61.5q0 -37 -9 -75t-30.5 -85.5t-59 -108.5t-94.5 -144z" />
    </font>
</defs>
</svg>
