<svg aria-hidden="true" style="position: absolute; width: 0; height: 0; overflow: hidden;" version="1.1" xmlns="http://www.w3.org/2000/svg" xmlns:xlink="http://www.w3.org/1999/xlink">
<defs>
<symbol id="icon-lifebuoy" viewBox="0 0 32 32">
<title>lifebuoy</title>
<path d="M16 0c-8.837 0-16 7.163-16 16s7.163 16 16 16 16-7.163 16-16-7.163-16-16-16zM10 16c0-3.314 2.686-6 6-6s6 2.686 6 6-2.686 6-6 6-6-2.686-6-6zM28.937 21.359v0l-5.544-2.297c0.391-0.943 0.608-1.977 0.608-3.062s-0.216-2.119-0.608-3.062l5.544-2.297c0.685 1.651 1.063 3.46 1.063 5.359s-0.379 3.708-1.063 5.359v0zM21.359 3.063v0 0l-2.297 5.544c-0.943-0.391-1.977-0.607-3.062-0.607s-2.119 0.216-3.062 0.607l-2.297-5.544c1.651-0.684 3.46-1.063 5.359-1.063s3.708 0.379 5.359 1.063zM3.063 10.641l5.544 2.297c-0.391 0.943-0.608 1.977-0.608 3.062s0.216 2.119 0.607 3.062l-5.544 2.297c-0.685-1.651-1.063-3.46-1.063-5.359s0.379-3.708 1.063-5.359zM10.641 28.937l2.297-5.544c0.943 0.391 1.977 0.608 3.062 0.608s2.119-0.216 3.062-0.608l2.297 5.544c-1.651 0.684-3.46 1.063-5.359 1.063s-3.708-0.379-5.359-1.063z"></path>
</symbol>
<symbol id="icon-lock" viewBox="0 0 32 32">
<title>lock</title>
<path d="M18.5 14h-0.5v-6c0-3.308-2.692-6-6-6h-4c-3.308 0-6 2.692-6 6v6h-0.5c-0.825 0-1.5 0.675-1.5 1.5v15c0 0.825 0.675 1.5 1.5 1.5h17c0.825 0 1.5-0.675 1.5-1.5v-15c0-0.825-0.675-1.5-1.5-1.5zM6 8c0-1.103 0.897-2 2-2h4c1.103 0 2 0.897 2 2v6h-8v-6z"></path>
</symbol>
<symbol id="icon-wrench" viewBox="0 0 32 32">
<title>wrench</title>
<path d="M31.342 25.559l-14.392-12.336c0.67-1.259 1.051-2.696 1.051-4.222 0-4.971-4.029-9-9-9-0.909 0-1.787 0.135-2.614 0.386l5.2 5.2c0.778 0.778 0.778 2.051 0 2.828l-3.172 3.172c-0.778 0.778-2.051 0.778-2.828 0l-5.2-5.2c-0.251 0.827-0.386 1.705-0.386 2.614 0 4.971 4.029 9 9 9 1.526 0 2.963-0.38 4.222-1.051l12.336 14.392c0.716 0.835 1.938 0.882 2.716 0.104l3.172-3.172c0.778-0.778 0.731-2-0.104-2.716z"></path>
</symbol>
<symbol id="icon-cog" viewBox="0 0 32 32">
<title>cog</title>
<path d="M29.181 19.070c-1.679-2.908-0.669-6.634 2.255-8.328l-3.145-5.447c-0.898 0.527-1.943 0.829-3.058 0.829-3.361 0-6.085-2.742-6.085-6.125h-6.289c0.008 1.044-0.252 2.103-0.811 3.070-1.679 2.908-5.411 3.897-8.339 2.211l-3.144 5.447c0.905 0.515 1.689 1.268 2.246 2.234 1.676 2.903 0.672 6.623-2.241 8.319l3.145 5.447c0.895-0.522 1.935-0.82 3.044-0.82 3.35 0 6.067 2.725 6.084 6.092h6.289c-0.003-1.034 0.259-2.080 0.811-3.038 1.676-2.903 5.399-3.894 8.325-2.219l3.145-5.447c-0.899-0.515-1.678-1.266-2.232-2.226zM16 22.479c-3.578 0-6.479-2.901-6.479-6.479s2.901-6.479 6.479-6.479c3.578 0 6.479 2.901 6.479 6.479s-2.901 6.479-6.479 6.479z"></path>
</symbol>
<symbol id="icon-pie-chart" viewBox="0 0 32 32">
<title>pie-chart</title>
<path d="M14 18v-14c-7.732 0-14 6.268-14 14s6.268 14 14 14 14-6.268 14-14c0-2.251-0.532-4.378-1.476-6.262l-12.524 6.262zM28.524 7.738c-2.299-4.588-7.043-7.738-12.524-7.738v14l12.524-6.262z"></path>
</symbol>
<symbol id="icon-tree" viewBox="0 0 32 32">
<title>tree</title>
<path d="M30.5 24h-0.5v-6.5c0-1.93-1.57-3.5-3.5-3.5h-8.5v-4h0.5c0.825 0 1.5-0.675 1.5-1.5v-5c0-0.825-0.675-1.5-1.5-1.5h-5c-0.825 0-1.5 0.675-1.5 1.5v5c0 0.825 0.675 1.5 1.5 1.5h0.5v4h-8.5c-1.93 0-3.5 1.57-3.5 3.5v6.5h-0.5c-0.825 0-1.5 0.675-1.5 1.5v5c0 0.825 0.675 1.5 1.5 1.5h5c0.825 0 1.5-0.675 1.5-1.5v-5c0-0.825-0.675-1.5-1.5-1.5h-0.5v-6h8v6h-0.5c-0.825 0-1.5 0.675-1.5 1.5v5c0 0.825 0.675 1.5 1.5 1.5h5c0.825 0 1.5-0.675 1.5-1.5v-5c0-0.825-0.675-1.5-1.5-1.5h-0.5v-6h8v6h-0.5c-0.825 0-1.5 0.675-1.5 1.5v5c0 0.825 0.675 1.5 1.5 1.5h5c0.825 0 1.5-0.675 1.5-1.5v-5c0-0.825-0.675-1.5-1.5-1.5zM6 30h-4v-4h4v4zM18 30h-4v-4h4v4zM14 8v-4h4v4h-4zM30 30h-4v-4h4v4z"></path>
</symbol>
<symbol id="icon-star-empty" viewBox="0 0 32 32">
<title>star-empty</title>
<path d="M32 12.408l-11.056-1.607-4.944-10.018-4.944 10.018-11.056 1.607 8 7.798-1.889 11.011 9.889-5.199 9.889 5.199-1.889-11.011 8-7.798zM16 23.547l-6.983 3.671 1.334-7.776-5.65-5.507 7.808-1.134 3.492-7.075 3.492 7.075 7.807 1.134-5.65 5.507 1.334 7.776-6.983-3.671z"></path>
</symbol>
<symbol id="icon-youtube2" viewBox="0 0 80 32">
<title>youtube2</title>
<path d="M10.75 5.294c0.007-0.027 0.011-0.046 0.012-0.056l0.033-0.236-1.48-0.008c-1.337-0.008-1.746 0-1.783 0.034-0.018 0.016-0.479 1.77-1.302 4.946-0.392 1.515-0.723 2.725-0.734 2.689s-0.481-1.766-1.044-3.843c-0.563-2.078-1.034-3.789-1.048-3.803-0.019-0.019-1.812-0.028-3.263-0.016-0.21 0.002-0.327-0.41 1.876 6.598 0.305 0.97 0.762 2.344 1.015 3.052 0.292 0.817 0.5 1.448 0.642 1.974 0.251 1.002 0.26 1.63 0.205 2.363-0.063 0.847-0.073 6.826-0.011 6.926 0.047 0.077 2.851 0.112 3.116 0.040 0.042-0.012 0.071-0.053 0.090-0.279 0.066-0.194 0.071-0.968 0.071-4.18v-4.103l0.179-0.566c0.117-0.37 0.413-1.344 0.656-2.163s0.538-1.801 0.654-2.18c1.057-3.447 2.067-6.838 2.094-7.032l0.022-0.158z"></path>
<path d="M26.441 10.27l-0.001 0.214-0.033 0-0.019 5.906-0.018 5.726-0.458 0.467c-0.513 0.522-0.925 0.722-1.297 0.629-0.405-0.102-0.395 0.056-0.429-6.712l-0.031-6.23h-2.947v0.214h-0.034v6.759c0 7.242-0 7.237 0.367 7.965 0.293 0.579 0.719 0.861 1.45 0.958h0c0.962 0.128 2-0.308 2.962-1.244l0.418-0.407v0.701c0 0.606 0.017 0.706 0.127 0.737 0.18 0.050 2.412 0.053 2.653 0.004l0.2-0.041v-0.207l0.034-0.007v-15.472l-2.944 0.039z"></path>
<path d="M18.965 13.323c-0.279-1.198-0.802-2.004-1.664-2.561-1.353-0.875-2.897-0.967-4.331-0.259-1.045 0.516-1.717 1.372-2.065 2.628-0.041 0.15-0.072 0.275-0.095 0.463-0.088 0.443-0.099 1.105-0.122 4.186-0.035 4.748 0.019 5.313 0.614 6.391 0.583 1.058 1.794 1.833 3.112 1.993 0.397 0.048 1.201-0.027 1.663-0.155 1.051-0.291 2.058-1.122 2.504-2.065 0.192-0.407 0.309-0.691 0.379-1.208 0.13-0.707 0.14-1.849 0.14-4.762-0-3.715-0.012-4.121-0.136-4.651zM15.604 23c-0.247 0.188-0.679 0.27-1.031 0.195-0.271-0.058-0.636-0.482-0.748-0.869-0.14-0.482-0.151-7.187-0.030-8.502 0.199-0.658 0.756-1.002 1.364-0.838 0.474 0.128 0.716 0.424 0.854 1.046 0.103 0.461 0.115 1.035 0.093 4.414-0.014 2.241-0.022 3.336-0.096 3.924-0.074 0.371-0.197 0.47-0.407 0.63z"></path>
<path d="M71.887 16.692h1.424l-0.023-1.29c-0.022-1.183-0.039-1.319-0.198-1.64-0.249-0.507-0.617-0.731-1.201-0.731-0.701 0-1.146 0.339-1.356 1.036-0.089 0.296-0.183 2.334-0.116 2.51 0.038 0.098 0.241 0.116 1.469 0.116z"></path>
<path d="M62.369 13.757c-0.19-0.383-0.543-0.571-0.954-0.556-0.319 0.011-0.674 0.146-1.015 0.407l-0.254 0.193v9.269l0.254 0.193c0.576 0.439 1.209 0.532 1.644 0.241 0.172-0.115 0.285-0.274 0.372-0.527 0.114-0.329 0.124-0.75 0.109-4.649-0.015-4.064-0.024-4.303-0.157-4.57z"></path>
<path d="M80.027 9.582c-0.284-3.401-0.509-4.505-1.211-5.923-0.929-1.878-2.272-2.868-4.184-3.086-1.478-0.168-7.041-0.405-12.189-0.52-8.912-0.198-23.564 0.183-25.436 0.662-0.865 0.221-1.513 0.597-2.188 1.269-1.183 1.177-1.887 2.865-2.17 5.2-0.647 5.331-0.66 11.773-0.037 17.297 0.268 2.376 0.82 3.92 1.857 5.192 0.647 0.794 1.761 1.469 2.758 1.67 0.7 0.141 4.201 0.337 9.3 0.521 0.76 0.027 2.771 0.074 4.47 0.105 3.541 0.063 10.051 0.026 13.772-0.079 2.504-0.070 7.069-0.255 7.922-0.321 0.24-0.019 0.796-0.054 1.236-0.079 1.477-0.083 2.417-0.393 3.3-1.086 1.142-0.897 2.027-2.556 2.4-4.501 0.354-1.84 0.59-5.118 0.638-8.839 0.040-3.109-0.013-4.787-0.238-7.482zM44.54 8.35l-1.656 0.020-0.073 17.661-1.435 0.018c-1.11 0.015-1.447-0.001-1.474-0.073-0.019-0.051-0.042-4.032-0.052-8.849l-0.018-8.758-3.234-0.041v-2.76l9.557 0.039 0.041 2.721-1.656 0.020zM54.694 18.472v7.595h-2.616v-0.799c0-0.601-0.023-0.799-0.093-0.799-0.051 0-0.288 0.198-0.527 0.441-0.517 0.526-1.13 0.949-1.653 1.145-1.083 0.405-2.112 0.169-2.551-0.586-0.401-0.691-0.409-0.845-0.409-8.010v-6.58h2.614l0.020 6.196c0.019 6.088 0.022 6.2 0.168 6.448 0.193 0.329 0.488 0.417 0.956 0.288 0.276-0.076 0.464-0.21 0.911-0.654l0.563-0.561v-11.717h2.616v7.595zM64.899 24.982c-0.23 0.513-0.744 1.016-1.165 1.14-1.099 0.324-1.98 0.060-2.998-0.897-0.316-0.297-0.61-0.538-0.654-0.538-0.053 0-0.082 0.233-0.082 0.69v0.69h-2.616v-20.495h2.616v3.343c0 1.839 0.025 3.343 0.054 3.343s0.306-0.244 0.613-0.541c0.707-0.683 1.298-0.981 2.049-1.038 1.338-0.101 2.135 0.587 2.501 2.16 0.114 0.491 0.125 1.051 0.125 5.596-0 5.537-0.001 5.56-0.443 6.546zM75.968 21.943c-0.023 0.57-0.092 1.223-0.154 1.454-0.364 1.349-1.332 2.304-2.732 2.696-1.885 0.527-3.96-0.337-4.788-1.994-0.465-0.93-0.481-1.116-0.481-5.662 0-3.707 0.013-4.162 0.132-4.667 0.336-1.431 1.168-2.357 2.578-2.871 0.408-0.149 0.835-0.225 1.261-0.234 1.521-0.031 3.031 0.787 3.663 2.119 0.427 0.899 0.48 1.283 0.522 3.816l0.039 2.271-5.578 0.039-0.020 1.526c-0.029 2.153 0.116 2.815 0.697 3.207 0.489 0.329 1.24 0.305 1.649-0.055 0.383-0.337 0.491-0.698 0.529-1.753l0.034-0.927h2.694l-0.043 1.036z"></path>
</symbol>
<symbol id="icon-onedrive" viewBox="0 0 32 32">
<title>onedrive</title>
<path d="M10.965 25.887c-1.884-0.471-2.933-1.968-2.936-4.189-0.001-0.71 0.050-1.051 0.228-1.507 0.435-1.12 1.585-1.965 3.099-2.276 0.753-0.155 0.986-0.321 0.986-0.705 0-0.121 0.090-0.48 0.199-0.799 0.498-1.447 1.42-2.653 2.405-3.147 1.031-0.516 1.551-0.633 2.798-0.626 1.771 0.009 2.655 0.394 3.89 1.691l0.68 0.714 0.609-0.211c2.947-1.020 5.885 0.716 6.122 3.617l0.065 0.794 0.58 0.208c1.657 0.594 2.436 1.841 2.295 3.674-0.092 1.199-0.653 2.156-1.541 2.631l-0.417 0.223-9.276 0.018c-7.128 0.014-9.394-0.012-9.785-0.109v0zM3.226 24.561c-1.131-0.284-2.328-1.339-2.89-2.546-0.319-0.685-0.336-0.785-0.336-1.996 0-1.152 0.027-1.337 0.281-1.909 0.535-1.206 1.559-2.077 2.845-2.419 0.271-0.072 0.526-0.188 0.567-0.256s0.085-0.443 0.099-0.831c0.090-2.412 1.587-4.538 3.678-5.221 1.13-0.369 2.612-0.403 3.841 0.116 0.39 0.165 0.346 0.2 1.17-0.942 0.487-0.675 1.41-1.39 2.216-1.818 0.87-0.462 1.775-0.675 2.857-0.672 3.024 0.008 5.63 2.007 6.594 5.058 0.308 0.975 0.293 1.248-0.071 1.256-0.159 0.004-0.613 0.096-1.009 0.205l-0.721 0.199-0.658-0.695c-1.855-1.96-4.882-2.384-7.456-1.044-1.028 0.536-1.854 1.305-2.478 2.307-0.445 0.714-1.012 2.047-1.012 2.378 0 0.235-0.18 0.352-0.948 0.618-2.378 0.824-3.766 2.728-3.765 5.163 0 0.887 0.216 1.971 0.516 2.592 0.113 0.234 0.176 0.457 0.14 0.495-0.092 0.097-3.050 0.064-3.459-0.038v0z"></path>
</symbol>
</defs>
</svg>
